<?xml version="1.0" standalone="no"?>
<!DOCTYPE svg PUBLIC "-//W3C//DTD SVG 1.1//EN" "http://www.w3.org/Graphics/SVG/1.1/DTD/svg11.dtd" >
<svg xmlns="http://www.w3.org/2000/svg">
<metadata>
Created by FontPrep 20130207 at Wed Mar 26 17:22:39 2014
 By Tom
Copyright (c) Christian Schwartz &#38; Paul Barnes, 2005. All rights reserved.
</metadata>
<defs>
<font id="f692734db609cb75a239689c19249db8" horiz-adv-x='1024' >
  <font-face 
    font-family="AS31AgateSans-Bold"
    font-weight="700"
    font-stretch="normal"
    units-per-em="2048"
    panose-1="2 0 5 3 4 0 0 2 0 4"
    ascent="1638"
    descent="-410"
    x-height="1071"
    cap-height="1417"
    bbox="-98 -387 2933.01 1993"
    underline-thickness="40"
    underline-position="-231"
    unicode-range="U+0020-FB04"
  />
<missing-glyph horiz-adv-x="1024" 
 />
    <glyph glyph-name="ff" unicode="ff" horiz-adv-x="1449" 
d="M678 1008v-203h-211l4 -53q6 -92 6 -95v-657h-287v657q0 47 7 95l6 53h-158v203h158l-6 34q-6 23 -7 68v57q0 166 92 242t244 76q106 0 181 -31v-192q-45 10 -105 10q-125 0 -125 -123v-39l-6 -68l-4 -34h211zM893 0v657q0 47 6 95l8 53h-137v203h137l-8 34q-6 23 -6 68
v57q0 166 91 242q90 76 222 76t205 -31v-192q-51 10 -104 10q-125 0 -125 -123v-39l-6 -68l-7 -34h234v-203h-234l7 -53q6 -92 6 -95v-657h-289z" />
    <glyph glyph-name="fi" unicode="fi" horiz-adv-x="1265" 
d="M836 1237v227h299v-227h-299zM842 0v1071h286v-1071h-286zM698 1008v-203h-231l4 -53q6 -92 6 -95v-657h-287v657q0 47 7 95l6 53h-158v203h158l-6 34q-6 23 -7 68v57q0 166 92 242t244 76q106 0 181 -31v-192q-45 10 -105 10q-125 0 -125 -123v-39l-6 -68l-4 -34h231z
" />
    <glyph glyph-name="fl" unicode="fl" horiz-adv-x="1298" 
d="M1072 -12q-106 0 -168 52t-62 177v1256h284v-1215q0 -46 14 -66t52 -20q37 0 59 8v-170q-73 -22 -179 -22zM698 1008v-203h-231l4 -53q6 -92 6 -95v-657h-287v657q0 47 7 95l6 53h-158v203h158l-6 34q-6 23 -7 68v57q0 166 92 242t244 76q106 0 181 -31v-192
q-45 10 -105 10q-125 0 -125 -123v-39l-6 -68l-4 -34h231z" />
    <glyph glyph-name="ffi" unicode="ffi" horiz-adv-x="1970" 
d="M1538 1237v227h301v-227h-301zM1544 0v1071h287v-1071h-287zM678 1008v-203h-211l4 -53q6 -92 6 -95v-657h-287v657q0 47 7 95l6 53h-158v203h158l-6 34q-6 23 -7 68v57q0 166 92 242t244 76q106 0 181 -31v-192q-45 10 -105 10q-125 0 -125 -123v-39l-6 -68l-4 -34h211z
M893 0v657q0 47 6 95l8 53h-137v203h137l-8 34q-6 23 -6 68v57q0 166 91 242q90 76 222 76t205 -31v-192q-51 10 -104 10q-125 0 -125 -123v-39l-6 -68l-7 -34h234v-203h-234l7 -53q6 -92 6 -95v-657h-289z" />
    <glyph glyph-name="ffl" unicode="ffl" horiz-adv-x="2002" 
d="M1774 -12q-106 0 -167 52q-62 52 -63 177v1256h285v-1215q0 -45 15 -65q15 -21 53 -21t57 8v-170q-74 -22 -180 -22zM678 1008v-203h-211l4 -53q6 -92 6 -95v-657h-287v657q0 47 7 95l6 53h-158v203h158l-6 34q-6 23 -7 68v57q0 166 92 242t244 76q106 0 181 -31v-192
q-45 10 -105 10q-125 0 -125 -123v-39l-6 -68l-4 -34h211zM893 0v657q0 47 6 95l8 53h-137v203h137l-8 34q-6 23 -6 68v57q0 166 91 242q90 76 222 76t205 -31v-192q-51 10 -104 10q-125 0 -125 -123v-39l-6 -68l-7 -34h234v-203h-234l7 -53q6 -92 6 -95v-657h-289z" />
    <glyph glyph-name=".notdef" horiz-adv-x="1024" 
 />
    <glyph glyph-name=".null" horiz-adv-x="0" 
 />
    <glyph glyph-name="nonmarkingreturn" horiz-adv-x="681" 
 />
    <glyph glyph-name="space" unicode=" " horiz-adv-x="442" 
 />
    <glyph glyph-name="exclam" unicode="!" horiz-adv-x="643" 
d="M168 0v264h305v-264h-305zM217 461l-61 954h329l-61 -954h-207z" />
    <glyph glyph-name="quotedbl" unicode="&#x22;" horiz-adv-x="960" 
d="M676 895h-170q57 219 63 524h262q1 -311 -155 -524zM279 895h-173q47 176 58 524h266q1 -313 -151 -524z" />
    <glyph glyph-name="numbersign" unicode="#" 
d="M680 694l8 56q8 51 29 118h-258q4 -61 -4 -114l-9 -56q-6 -41 -30 -127h262q-4 76 2 123zM129 848v242h221q-2 66 6 129l29 198h168l-29 -198q-12 -82 -35 -142h259q-4 90 4 142l28 198h168l-28 -198q-8 -61 -33 -129h160v-242h-195q10 -49 4 -94l-8 -56q-6 -43 -27 -106
h178v-242h-217q4 -68 -2 -110l-35 -240h-167l32 240q8 68 33 122h-256q4 -72 -2 -122l-35 -240h-168l33 240q8 47 29 110h-164v242h196q-4 66 3 102l8 56q12 61 24 98h-182z" />
    <glyph glyph-name="dollar" unicode="$" 
d="M743 397q0 63 -33 101q-34 37 -116 69q-2 -16 -6 -59t-8 -62l-21 -112q-12 -68 -29 -111q213 8 213 174zM381 1051q0 -66 36 -105t124 -76q2 8 7 60t9 76l16 96q8 45 31 104h-8q-215 1 -215 -155zM127 1038q0 180 119 288q119 110 352 110q27 0 41 -2q-4 57 4 90l8 43
h185l-9 -43q-8 -45 -47 -111q63 -14 150 -55v-221q-86 39 -205 59q-2 -63 -12 -106l-17 -105q-10 -47 -45 -151l13 -5q174 -55 261 -142t87 -265q0 -430 -494 -430h-26q0 -84 -11 -133l-20 -99h-191l25 105q14 63 51 141q-125 23 -207 72v223q106 -47 269 -72q0 41 16 129
l20 119q8 45 37 131l-39 15q-158 53 -236 144t-79 271z" />
    <glyph glyph-name="percent" unicode="%" 
d="M346 954q59 0 83 41t24 129v17q0 88 -25 130t-84 42t-83 -42t-23 -130v-15q0 -88 24 -130t84 -42zM773 106q58 0 83 42t25 131v16q0 174 -109 174q-59 0 -82 -42t-22 -132v-14q0 -90 23 -133q24 -42 82 -42zM53 244v202l488 297l532 439v-203l-487 -297zM346 819
q-133 0 -217 78t-84 225v15q0 141 83 224t219 83t218 -82t82 -221v-13q0 -145 -84 -227t-217 -82zM772 -27q-133 0 -217 78t-84 225v15q0 141 83 224t218 83t219 -82t84 -221v-12q0 -141 -85 -225t-218 -85z" />
    <glyph glyph-name="ampersand" unicode="&#x26;" horiz-adv-x="1357" 
d="M516 1102q0 -123 133 -281q145 100 146 271q0 80 -39 118q-38 38 -100 39q-62 -1 -101 -39t-39 -108zM592 186q106 0 201 66q-66 53 -105 102l-145 183q-57 74 -86 155q-90 -109 -90 -270q-1 -112 59 -174t166 -62zM514 -25q-198 0 -320 111t-122 313q0 252 278 394
q-121 143 -121 301t120 254t307 96t297 -91t110 -251q0 -254 -344 -395q59 -39 108 -97l74 -92q43 -53 84 -139q63 135 59 336h244q0 -305 -155 -486l188 -229h-338q-45 53 -92 135q-133 -160 -377 -160z" />
    <glyph glyph-name="quotesingle" unicode="'" horiz-adv-x="614" 
d="M469 1419q0 -307 -156 -524h-188q53 213 57 524h287z" />
    <glyph glyph-name="parenleft" unicode="(" horiz-adv-x="802" 
d="M123 600q0 282 113 520t268 393h252q-328 -426 -328 -911t328 -911h-252q-154 151 -268 389t-113 520z" />
    <glyph glyph-name="parenright" unicode=")" horiz-adv-x="802" 
d="M377 604q0 485 -330 909h252q159 -158 271 -391t112 -516t-114 -523t-269 -392h-252q330 428 330 913z" />
    <glyph glyph-name="asterisk" unicode="*" horiz-adv-x="1218" 
d="M479 512l99 410l-324 -283l-129 209l422 117l-422 116l129 209l324 -286l-99 413h258l-100 -413l328 286l129 -209l-426 -116l426 -117l-129 -209l-328 283l100 -410h-258z" />
    <glyph glyph-name="plus" unicode="+" 
d="M440 248v190q0 61 9 103l8 55h-326v229h326l-8 54q-8 41 -9 104v191h246v-191q0 -63 -8 -104l-8 -54h325v-229h-325l8 -55q8 -41 8 -103v-190h-246z" />
    <glyph glyph-name="comma" unicode="," horiz-adv-x="567" 
d="M143 272h289q0 -284 -156 -530h-186q53 213 53 530z" />
    <glyph glyph-name="hyphen" unicode="-" horiz-adv-x="874" 
d="M147 442v263h580v-263h-580z" />
    <glyph glyph-name="period" unicode="." horiz-adv-x="567" 
d="M141 0v272h285v-272h-285z" />
    <glyph glyph-name="slash" unicode="/" horiz-adv-x="905" 
d="M27 -305l596 1806h237l-596 -1806h-237z" />
    <glyph glyph-name="zero" unicode="0" 
d="M367 621q0 -229 46 -329q47 -100 153 -99q106 0 151 92t45 325v178q0 236 -45 337t-152 101t-153 -98t-45 -329v-178zM1047 612q-1 -322 -133 -480t-356 -159q-224 0 -351 158t-127 473v180q0 326 135 493t355 167t348 -165t129 -486v-181z" />
    <glyph glyph-name="one" unicode="1" 
d="M209 0v197h256l-6 67q-6 39 -6 123v752l-45 -19q-53 -18 -125 -28l-97 -13v168l389 180h162v-1040q0 -6 -6 -123l-6 -67h252v-197h-768z" />
    <glyph glyph-name="two" unicode="2" 
d="M125 0v197l278 301q139 152 197 256q57 104 57 229t-56 177t-183 52t-266 -53v201q164 84 366 84t318 -111q115 -111 114 -311q0 -297 -309 -606l-27 -25q-93 -93 -142 -125t-54 -39v-10h555v-217h-848z" />
    <glyph glyph-name="three" unicode="3" 
d="M991 382q0 -178 -124 -292t-342 -113q-218 0 -390 76v203q154 -53 293 -53t204 51q64 51 64 163q0 113 -53 159t-172 47h-143v221h112q111 0 171 51q61 51 61 147t-60 136t-186 41q-127 0 -240 -41v198q145 68 342 68t308 -87t110 -257q0 -274 -291 -342v-21
q172 -20 254 -99q82 -78 82 -256z" />
    <glyph glyph-name="four" unicode="4" 
d="M279 549h356l-6 57q-6 51 -6 121v168q0 88 14 192l16 103h-24l-43 -107q-49 -117 -97 -202l-79 -140q-42 -76 -131 -168v-24zM899 0h-283v164q0 76 7 115l6 63h-555v238l504 837h321v-688q0 -6 -6 -111l-6 -61h176v-215h-176l6 -63l6 -115v-164z" />
    <glyph glyph-name="five" unicode="5" 
d="M490 -23q-230 0 -355 95v198q115 -68 281 -67q264 0 264 249t-258 248q-84 0 -195 -30h-39l43 747h682v-217h-491l4 -37q4 -45 4 -76l-8 -92q-2 -49 -14 -108l-13 -49h21q66 49 172 49q182 0 286 -110q104 -109 104 -323t-128 -346q-130 -132 -360 -131z" />
    <glyph glyph-name="six" unicode="6" 
d="M590 178q94 0 131 60t37 207q0 145 -43 203t-143 58t-181 -67v-70q0 -391 199 -391zM592 -27q-496 0 -496 658v71q0 572 354 704q100 38 246 38t254 -60v-200q-100 35 -223 35q-166 1 -246 -89t-96 -339h21q122 102 286 102t255 -111q91 -112 91 -324t-112 -348
t-334 -137z" />
    <glyph glyph-name="seven" unicode="7" 
d="M754 1200h-629v217h864v-231l-485 -1186h-287l408 969q39 92 129 211v20z" />
    <glyph glyph-name="eight" unicode="8" 
d="M564 1253q-87 0 -137 -48t-50 -134q0 -87 50 -143t163 -113q156 102 155 262q0 82 -47 129t-134 47zM554 166q108 0 164 53t56 153t-58 155q-58 54 -210 124q-172 -111 -172 -276q0 -100 55 -155q57 -54 165 -54zM548 -27q-234 1 -348 103q-116 102 -116 286
q0 115 80 205t192 138v20q-119 53 -181 130t-62 208q0 170 123 275q122 106 326 106t319 -97t114 -266q0 -203 -245 -317v-21q145 -59 220 -141t74 -221q0 -184 -131 -296t-365 -112z" />
    <glyph glyph-name="nine" unicode="9" 
d="M369 972q0 -146 43 -204t141 -57q98 0 182 69v70q0 389 -194 389q-94 0 -133 -60q-39 -61 -39 -207zM453 -27q-182 0 -297 64v203q113 -39 243 -39q174 0 256 89t86 339h-20q-117 -103 -284 -103t-258 111t-91 323t113 348t336 136q494 0 493 -658v-71q0 -401 -150 -572
q-151 -170 -427 -170z" />
    <glyph glyph-name="colon" unicode=":" horiz-adv-x="608" 
d="M162 0v272h284v-272h-284zM162 629v272h284v-272h-284z" />
    <glyph glyph-name="semicolon" unicode=";" horiz-adv-x="608" 
d="M162 629v272h284v-272h-284zM162 272h287q0 -288 -154 -530h-186q53 223 53 530z" />
    <glyph glyph-name="less" unicode="&#x3c;" 
d="M958 188l-811 381v248l811 381v-254l-323 -141q-112 -52 -334 -103v-16q176 -36 334 -100l323 -140v-256z" />
    <glyph glyph-name="equal" unicode="=" 
d="M150 317v220h827v-220h-827zM150 762v219h827v-219h-827z" />
    <glyph glyph-name="greater" unicode="&#x3e;" 
d="M168 188v254l324 142q63 31 217 71l116 31v16q-49 10 -159 40t-174 61l-324 139v256l811 -381v-248z" />
    <glyph glyph-name="question" unicode="?" horiz-adv-x="919" 
d="M195 0v264h305v-264h-305zM223 461v131q0 100 39 160q40 60 108 109q68 51 92 71t47 59q24 39 23 84q0 137 -198 137q-141 0 -260 -41v199q142 74 340 74t314 -85t116 -247q0 -116 -54 -194t-164 -156t-136 -112t-25 -83v-106h-242z" />
    <glyph glyph-name="at" unicode="@" horiz-adv-x="1828" 
d="M846 131q55 0 160 66q-7 112 20 239l45 211q-39 49 -130 49t-144 -116t-54 -308q0 -74 24 -108t79 -33zM1237 -23q-180 0 -217 119h-21q-104 -117 -243 -116q-109 0 -181 74t-71 225q0 255 114 411t306 156q123 0 180 -70h24l39 53h170l-127 -596q-27 -117 60 -116
q114 0 188 128t74 347q0 510 -559 510q-295 0 -485 -205t-191 -563q0 -166 61 -338h-155q-92 158 -92 370q1 212 71 376q137 319 467 448q158 61 334 61q332 0 534 -173q201 -173 201 -467t-132 -464t-349 -170z" />
    <glyph glyph-name="A" unicode="A" horiz-adv-x="1259" 
d="M541 836l-49 -172q-20 -70 -54 -152h344q-29 74 -51 152l-45 172q-20 76 -43 223l-18 119h-23l-16 -119q-20 -131 -45 -223zM39 0l422 1417h338l418 -1417h-310l-47 160q-20 66 -31 155h-442q-18 -111 -31 -153l-43 -162h-274z" />
    <glyph glyph-name="B" unicode="B" horiz-adv-x="1204" 
d="M586 813q94 0 147 45q53 46 53 154t-46 154t-148 46h-152l6 -51q6 -92 7 -94v-109q0 -2 -7 -94l-6 -51h146zM612 207q207 0 207 219q0 115 -51 165t-164 50h-164l6 -55q6 -92 7 -99v-129q0 -6 -7 -98l-6 -53h172zM162 0v1417h481q430 0 430 -358q0 -129 -58 -207
t-204 -102v-21q162 -18 237 -98q74 -80 74 -248q0 -167 -114 -275t-342 -108h-504z" />
    <glyph glyph-name="C" unicode="C" horiz-adv-x="1183" 
d="M717 -25q-291 1 -452 181t-161 516v69q0 185 50 325t140 220q176 158 439 158q197 0 338 -58v-243q-153 53 -307 53t-247 -95t-93 -339v-74q0 -252 85 -358t264 -106t308 73v-236q-147 -86 -364 -86z" />
    <glyph glyph-name="D" unicode="D" horiz-adv-x="1335" 
d="M594 225q168 -1 248 99t80 360v59q0 283 -97 370q-51 45 -110 61t-154 16h-117l7 -68q6 -117 6 -129v-571q0 -10 -6 -127l-7 -70h150zM162 0v1417h420q328 0 490 -159t163 -498v-55q0 -705 -641 -705h-432z" />
    <glyph glyph-name="E" unicode="E" horiz-adv-x="1148" 
d="M162 0v1417h842v-231h-562l7 -45q6 -80 6 -82v-90q0 -4 -6 -84l-7 -45h441v-222h-441l7 -49q6 -80 6 -86v-116q0 -8 -6 -88l-7 -48h572v-231h-852z" />
    <glyph glyph-name="F" unicode="F" horiz-adv-x="1069" 
d="M461 0h-299v1417h825v-231h-543l7 -51l6 -93v-116l-6 -92l-7 -52h412v-221h-407l6 -72l6 -102v-387z" />
    <glyph glyph-name="G" unicode="G" horiz-adv-x="1343" 
d="M740 -25q-284 0 -460 169q-177 169 -178 540v57q0 183 52 321t146 220q184 162 472 162q217 0 365 -66v-243q-131 63 -331 63t-295 -111t-95 -337v-58q0 -258 80 -378t272 -119q117 0 176 34l-6 35q-6 31 -6 84v72q0 47 6 80l6 37h-233v217h489v-682q-176 -97 -460 -97z
" />
    <glyph glyph-name="H" unicode="H" horiz-adv-x="1386" 
d="M162 0v1417h299v-368q0 -76 -8 -131l-7 -72h494l-8 72q-6 41 -6 131v368h299v-1417h-299v410q0 92 6 133l8 71h-494l7 -71q8 -55 8 -133v-410h-299z" />
    <glyph glyph-name="I" unicode="I" horiz-adv-x="632" 
d="M166 0v1417h301v-1417h-301z" />
    <glyph glyph-name="J" unicode="J" horiz-adv-x="925" 
d="M384 -25q-178 0 -292 56v215q94 -33 193 -33q188 0 188 188v1016h301v-1040q0 -182 -106 -292t-284 -110z" />
    <glyph glyph-name="K" unicode="K" horiz-adv-x="1239" 
d="M154 0v1417h297v-407q0 -86 -11 -185l-8 -106l8 -109q10 -106 11 -188v-422h-297zM877 0l-422 723l419 694h312l-268 -426q-49 -80 -125 -172l-68 -80l66 -82q39 -49 120 -174l301 -483h-335z" />
    <glyph glyph-name="L" unicode="L" horiz-adv-x="1064" 
d="M162 0v1417h299v-981q0 -80 -8 -135l-7 -70h531v-231h-815z" />
    <glyph glyph-name="M" unicode="M" horiz-adv-x="1665" 
d="M1231 748q0 222 18 481h-22l-37 -209q-53 -285 -78 -377l-166 -643h-287l-153 639q-8 33 -47 242t-60 348h-22l8 -170q8 -129 8 -311v-748h-231v1417h411l160 -653q31 -129 53 -299t29 -242h25q6 73 30 253t52 288l159 653h422v-1417h-272v748z" />
    <glyph glyph-name="N" unicode="N" horiz-adv-x="1376" 
d="M162 0v1417h348l238 -452q96 -178 223 -574h24l-16 178q-14 176 -14 314v534h249v-1417h-309l-272 545q-37 74 -154 356q-33 86 -76 205h-22q8 -113 19 -239t12 -236v-631h-250z" />
    <glyph glyph-name="O" unicode="O" horiz-adv-x="1402" 
d="M414 684q0 -260 67 -368t215 -109q148 1 218 109q69 108 69 343v76q0 254 -65 365q-66 112 -214 112t-220 -110q-71 -110 -70 -342v-76zM1300 676q0 -352 -169 -526t-438 -175q-269 0 -431 170t-162 527v71q0 353 168 527t438 174t433 -170q162 -170 161 -526v-72z" />
    <glyph glyph-name="P" unicode="P" horiz-adv-x="1161" 
d="M582 709q112 0 164 55t52 190q0 136 -50 188q-51 52 -158 52h-148l7 -57q6 -98 6 -105v-160q0 -6 -6 -104l-7 -59h140zM629 1417q469 0 469 -461q0 -223 -119 -339t-340 -115h-193l7 -70q8 -51 8 -127v-305h-299v1417h467z" />
    <glyph glyph-name="Q" unicode="Q" horiz-adv-x="1402" 
d="M698 188q148 0 216 110q69 110 69 353v84q0 254 -65 365q-66 112 -214 112t-220 -110q-71 -110 -70 -342v-86q0 -256 68 -371t216 -115zM100 672v71q0 353 168 527t438 174t433 -170q162 -170 161 -526v-72q0 -498 -389 -578v-22l553 -131l-73 -244l-758 256
q-109 37 -175 67t-143 85q-75 55 -117 125q-98 166 -98 438z" />
    <glyph glyph-name="R" unicode="R" horiz-adv-x="1255" 
d="M621 741q205 0 204 238q0 109 -49 164t-158 55h-176l7 -53q6 -92 6 -94v-160q0 -4 -6 -96l-7 -54h179zM162 0v1417h475q483 0 483 -424q0 -139 -61 -219t-187 -125v-16l41 -51q53 -76 88 -150l205 -432h-307l-252 547h-201l7 -68q8 -51 8 -125v-354h-299z" />
    <glyph glyph-name="S" unicode="S" horiz-adv-x="1101" 
d="M508 -25q-233 0 -387 82v230q170 -70 356 -70q236 0 236 168q0 74 -43 114t-144 79l-106 43q-160 67 -233 155t-73 268t120 292q120 110 364 110q178 0 334 -76v-233q-174 68 -320 67q-219 0 -219 -153q0 -68 38 -108t130 -73l111 -41q172 -61 256 -148t84 -269
q0 -437 -504 -437z" />
    <glyph glyph-name="T" unicode="T" horiz-adv-x="1163" 
d="M430 0v985q0 88 6 129l6 70h-354v233h985v-233h-354l6 -70q6 -123 6 -129v-985h-301z" />
    <glyph glyph-name="U" unicode="U" horiz-adv-x="1366" 
d="M1208 467q0 -492 -525 -492t-525 490v952h299v-946q0 -152 62 -212t181 -60q236 0 236 272v946h272v-950z" />
    <glyph glyph-name="V" unicode="V" horiz-adv-x="1259" 
d="M453 0l-406 1417h313l199 -764q14 -53 51 -280l21 -156h22l21 154q33 205 53 282l203 764h282l-411 -1417h-348z" />
    <glyph glyph-name="W" unicode="W" horiz-adv-x="1734" 
d="M334 0l-273 1417h295l107 -592q48 -237 55 -600h21l20 215q33 281 53 385l113 592h307l117 -592q16 -78 51 -385l19 -215h20q25 424 61 600l107 592h266l-284 -1417h-345l-106 571q-43 201 -57 553h-23l-18 -196q-4 -33 -17 -156t-30 -201l-109 -571h-350z" />
    <glyph glyph-name="X" unicode="X" horiz-adv-x="1224" 
d="M57 0l340 725l-319 692h325l113 -243q34 -74 64 -193t38 -162h21q18 74 57 202t49 153l111 243h287l-316 -690l336 -727h-323l-129 268q-60 123 -109 357h-24l-31 -131q-35 -141 -76 -226l-125 -268h-289z" />
    <glyph glyph-name="Y" unicode="Y" horiz-adv-x="1179" 
d="M446 0v520l-403 897h315l123 -299q69 -176 125 -420h23q20 98 56 234t56 186l115 299h281l-387 -889v-528h-304z" />
    <glyph glyph-name="Z" unicode="Z" horiz-adv-x="1155" 
d="M735 1184h-596v233h903v-227l-438 -701q-35 -55 -123 -155l-73 -80v-23h628v-231h-936l-2 225l443 703q33 53 121 155l73 80v21z" />
    <glyph glyph-name="bracketleft" unicode="[" horiz-adv-x="802" 
d="M156 -309v1822h565v-192h-283v-1438h283v-192h-565z" />
    <glyph glyph-name="backslash" unicode="\" horiz-adv-x="905" 
d="M639 -305l-596 1806h240l596 -1806h-240z" />
    <glyph glyph-name="bracketright" unicode="]" horiz-adv-x="802" 
d="M84 -309v192h283v1438h-283v192h565v-1822h-565z" />
    <glyph glyph-name="asciicircum" unicode="^" horiz-adv-x="1163" 
d="M104 741l336 676h283l336 -676h-268l-101 209q-80 164 -98 310h-23l-22 -97q-39 -139 -76 -213l-98 -209h-269z" />
    <glyph glyph-name="underscore" unicode="_" horiz-adv-x="727" 
d="M-4 -301v182h735v-182h-735z" />
    <glyph glyph-name="grave" unicode="`" horiz-adv-x="987" 
d="M373 1221l-258 356h331l175 -356h-248z" />
    <glyph glyph-name="a" unicode="a" horiz-adv-x="1030" 
d="M352 303q0 -84 30 -120t106 -36q77 0 139 70v264l-121 -8q-154 -10 -154 -170zM373 -25q-137 0 -217 80t-80 232q0 153 96 227t297 88l152 10v99q1 94 -51 131t-166 37t-244 -37v184q174 66 360 66t286 -83q99 -83 99 -268v-741h-215l-35 119h-20q-90 -144 -262 -144z
" />
    <glyph glyph-name="b" unicode="b" horiz-adv-x="1134" 
d="M570 166q93 0 138 72q44 72 44 254v83q0 173 -44 235t-128 62t-168 -57v-588q65 -61 158 -61zM647 -27q-182 0 -270 119h-21l-32 -92h-193v1473h289v-277q0 -70 -9 -135t-12 -92h21q62 63 122 93t148 30q356 0 357 -494v-80q-1 -545 -400 -545z" />
    <glyph glyph-name="c" unicode="c" horiz-adv-x="978" 
d="M399 514q1 -328 257 -328q120 0 231 43v-184q-109 -70 -291 -70q-240 -1 -368 135t-128 388v61q0 277 146 405t375 128q152 0 258 -41v-213q-131 41 -237 41t-174 -69t-69 -230v-66z" />
    <glyph glyph-name="d" unicode="d" horiz-adv-x="1140" 
d="M568 182q89 0 157 64v579q-57 53 -151 53t-144 -64q-50 -65 -49 -239v-79q0 -180 49 -247t138 -67zM470 -27q-162 0 -272 125t-110 375v82q0 279 109 408t295 129q137 0 231 -86h22l-12 75q-10 72 -10 127v265h287v-1473h-222l-22 113h-21q-112 -140 -275 -140z" />
    <glyph glyph-name="e" unicode="e" horiz-adv-x="1044" 
d="M543 903q-182 0 -185 -303q94 23 189 23h143q0 145 -32 213t-115 67zM567 -25q-223 -1 -352 135t-129 390v71q0 236 123 378t334 143q406 0 405 -494v-127h-590q8 -161 70 -225t213 -64q150 0 283 64v-178q-134 -93 -357 -93z" />
    <glyph glyph-name="f" unicode="f" horiz-adv-x="747" 
d="M698 1008v-203h-231l4 -53q6 -92 6 -95v-657h-287v657q0 47 7 95l6 53h-158v203h158l-6 34q-6 23 -7 68v57q0 166 92 242t244 76q106 0 181 -31v-192q-45 10 -105 10q-125 0 -125 -123v-39l-6 -68l-4 -34h231z" />
    <glyph glyph-name="g" unicode="g" horiz-adv-x="1134" 
d="M566 279q95 0 155 55v495q-63 43 -157 43t-138 -62q-45 -62 -45 -210v-39q0 -160 45 -221t140 -61zM522 -354q-221 0 -381 78v178q152 -49 314 -49q268 0 268 178v20q0 67 7 99t7 34h-18q-115 -96 -269 -96t-257 112q-104 112 -105 347v41q0 260 109 381t295 121
q143 0 258 -107h18l25 88h211v-1026q-1 -399 -482 -399z" />
    <glyph glyph-name="h" unicode="h" horiz-adv-x="1140" 
d="M131 0v1473h289v-281q0 -76 -10 -162l-9 -88h19q160 150 325 150q270 0 271 -304v-788h-289v719q0 82 -26 115q-25 32 -105 32t-176 -67v-799h-289z" />
    <glyph glyph-name="i" unicode="i" horiz-adv-x="563" 
d="M131 1237v227h301v-227h-301zM137 0v1071h287v-1071h-287z" />
    <glyph glyph-name="j" unicode="j" horiz-adv-x="563" 
d="M131 1237v227h301v-227h-301zM111 -348q-102 0 -181 31v178q50 -4 98 -4q48 -1 78 29t31 116v1069h287v-1077q0 -342 -313 -342z" />
    <glyph glyph-name="k" unicode="k" horiz-adv-x="1046" 
d="M721 0l-297 553l274 518h303l-188 -301q-33 -49 -98 -133l-56 -66q29 -27 79 -89t71 -103l221 -379h-309zM135 0v1473h283v-576q0 -152 -8 -235l-9 -107l9 -98q8 -84 8 -234v-223h-283z" />
    <glyph glyph-name="l" unicode="l" horiz-adv-x="595" 
d="M368 -12q-106 0 -168 52t-63 177v1256h285v-1215q0 -46 14 -66t54 -20t57 8v-170q-73 -22 -179 -22z" />
    <glyph glyph-name="m" unicode="m" horiz-adv-x="1730" 
d="M1012 0h-287v711q0 90 -30 123q-29 32 -109 32t-166 -65v-801h-289v1071h270v-125h19q160 145 315 146q93 0 149 -37t87 -121h22q158 158 336 158q276 0 277 -312v-780h-289v711q0 92 -28 124q-27 31 -103 31t-176 -67l2 -27v-772z" />
    <glyph glyph-name="n" unicode="n" horiz-adv-x="1140" 
d="M131 0v1071h270v-129h19q160 150 325 150q270 0 271 -304v-788h-289v719q0 82 -26 115q-25 32 -105 32t-176 -67v-799h-289z" />
    <glyph glyph-name="o" unicode="o" horiz-adv-x="1122" 
d="M561 172q90 0 133 70t43 237v101q0 172 -46 244t-135 71q-89 0 -132 -72t-43 -235v-101q0 -175 45 -245t135 -70zM1030 496q0 -248 -127 -386t-350 -137t-343 135t-120 377v86q0 246 127 383q127 138 351 138t343 -132t119 -378v-86z" />
    <glyph glyph-name="p" unicode="p" horiz-adv-x="1134" 
d="M565 205q186 0 187 309v70q0 170 -44 229t-128 59t-168 -57v-569q59 -41 153 -41zM131 -336v1407h270v-102h19q120 123 274 123t253 -111t100 -369v-65q0 -526 -439 -527q-127 0 -188 54h-21q1 -22 11 -78t10 -119v-213h-289z" />
    <glyph glyph-name="q" unicode="q" horiz-adv-x="1134" 
d="M567 207q92 0 154 57v565q-63 43 -157 43t-139 -62q-44 -62 -44 -232v-66q0 -172 47 -238t139 -67zM715 -336v250q0 70 10 137l12 72h-18q-121 -102 -254 -103q-172 0 -275 111q-102 111 -102 365v63q0 287 106 409t298 122q135 0 258 -107h18l25 88h211v-1407h-289z" />
    <glyph glyph-name="r" unicode="r" horiz-adv-x="792" 
d="M131 0v1071h270v-158h19q55 82 139 127t172 43v-256q-174 10 -311 -71v-756h-289z" />
    <glyph glyph-name="s" unicode="s" horiz-adv-x="880" 
d="M393 -27q-186 0 -301 66v201q131 -58 289 -58t158 113q0 49 -26 75t-95 50l-107 33q-225 68 -225 309q0 160 96 245t282 85t281 -52v-198q-84 45 -260 45q-143 0 -143 -101q0 -50 26 -72t83 -42l108 -33q135 -41 191 -114t57 -208q0 -344 -414 -344z" />
    <glyph glyph-name="t" unicode="t" horiz-adv-x="780" 
d="M480 -18q-140 0 -214 68t-73 231v376q0 33 4 95l6 53h-148v203h148l-6 53q-4 61 -4 96v180h286v-180q0 -4 -6 -96l-6 -53h233v-203h-233l6 -53q6 -92 6 -95v-340q0 -69 26 -95q50 -49 208 -9v-182q-93 -49 -233 -49z" />
    <glyph glyph-name="u" unicode="u" horiz-adv-x="1132" 
d="M406 -23q-133 0 -207 81t-74 237v776h289v-719q0 -82 26 -114t102 -33q77 0 171 65v801h286v-1071h-233l-23 129h-22q-147 -152 -315 -152z" />
    <glyph glyph-name="v" unicode="v" horiz-adv-x="1067" 
d="M371 0l-316 1071h295l123 -481q27 -100 47 -275l17 -149h22q23 278 62 424l120 481h271l-316 -1071h-325z" />
    <glyph glyph-name="w" unicode="w" horiz-adv-x="1548" 
d="M313 0l-241 1071h282l80 -444q31 -183 41 -441h23l18 158q18 160 45 283l98 444h277l90 -444q20 -102 37 -283l14 -158h23l16 158q23 205 39 283l84 444h244l-246 -1071h-303l-88 457q-27 138 -51 401h-21l-18 -141q-6 -31 -20 -123t-23 -137l-95 -457h-305z" />
    <glyph glyph-name="x" unicode="x" horiz-adv-x="1058" 
d="M55 0l283 547l-260 524h305l86 -199q12 -27 51 -165l19 -91h22l21 93q43 152 47 163l76 199h276l-256 -510l279 -561h-306l-96 215q-23 47 -53 166l-21 94h-22q-34 -168 -78 -260l-94 -215h-279z" />
    <glyph glyph-name="y" unicode="y" horiz-adv-x="1030" 
d="M284 -348q-126 0 -204 33v186q70 -18 117 -18q147 0 178 127l8 32l-344 1059h297l117 -436q29 -103 44 -233t17 -201h23l18 151q33 203 55 283l115 436h270l-348 -1124q-49 -159 -143 -227t-220 -68z" />
    <glyph glyph-name="z" unicode="z" horiz-adv-x="948" 
d="M84 0v211l319 451q43 62 95 114t80 72v20h-467v203h757v-199l-325 -450q-84 -118 -185 -199v-20h502v-203h-776z" />
    <glyph glyph-name="braceleft" unicode="{" horiz-adv-x="913" 
d="M598 1128v-227q0 -125 -71 -193t-253 -98v-16q182 -30 253 -98t71 -193v-227q0 -109 53 -148t178 -47v-194q-279 6 -409 99t-109 286l27 229q10 92 -54 130q-65 38 -216 50v240q152 12 216 51t54 131l-27 230q-23 193 109 285t409 100v-195q-123 -8 -177 -49t-54 -146z
" />
    <glyph glyph-name="bar" unicode="|" horiz-adv-x="645" 
d="M201 -305v1806h243v-1806h-243z" />
    <glyph glyph-name="braceright" unicode="}" horiz-adv-x="913" 
d="M315 76v227q0 125 71 193t253 98v16q-182 29 -253 98t-71 193v227q0 104 -54 146t-177 49v195q279 -8 410 -100t108 -285l-27 -230q-10 -92 55 -131t216 -51v-240q-152 -12 -216 -50t-55 -130l27 -229q23 -193 -108 -286t-410 -99v194q123 8 177 48t54 147z" />
    <glyph glyph-name="asciitilde" unicode="~" horiz-adv-x="911" 
d="M338 813q59 0 144 -43t118 -43t50 25t30 75h156q-10 -167 -72 -249t-164 -82q-63 0 -147 41t-113 41q-76 -1 -92 -93h-158q8 164 77 246t171 82z" />
    <glyph glyph-name="nbspace" unicode="&#xa0;" horiz-adv-x="921" 
 />
    <glyph glyph-name="exclamdown" unicode="&#xa1;" horiz-adv-x="643" 
d="M475 1161v-264h-305v264h305zM426 700l61 -954h-329l61 954h207z" />
    <glyph glyph-name="cent" unicode="&#xa2;" 
d="M422 580v-66q0 -250 147 -307q0 104 9 153l59 383q12 72 39 138q-130 -5 -192 -75t-62 -226zM147 498v61q1 279 147 406t392 127h8q-10 49 0 98l17 96h196l-14 -96q-8 -51 -39 -115q33 -6 107 -31v-206q-106 33 -158 39q10 -66 -4 -136l-62 -387q-12 -76 -49 -172
q16 -2 49 -2q117 0 232 45v-176q-106 -72 -299 -74q4 -78 -4 -127l-17 -88h-200l16 90q8 61 47 142q-365 76 -365 506z" />
    <glyph glyph-name="sterling" unicode="&#xa3;" 
d="M115 618v193h159q-16 66 -16 119v67q0 225 137 336t327 111t300 -68v-200q-100 35 -229 34q-254 0 -254 -239v-53q0 -37 -13 -107h328v-193h-328q12 -61 13 -88v-26q0 -168 -172 -266v-21h651v-217h-924v199q164 70 164 297v28q0 29 12 94h-155z" />
    <glyph glyph-name="currency" unicode="&#xa4;" 
d="M238 952q0 92 26 158q62 168 194 251t293 83t293 -58v-243q-127 53 -253 53q-178 0 -238 -129q-9 -18 -29 -60t-26 -55h401v-155h-410q12 -43 13 -74v-25q0 -25 -13 -77h410v-156h-395l45 -100q29 -78 91 -110t183 -32t234 70v-236q-145 -82 -323 -82q-178 1 -303 93
q-126 92 -181 272q-18 49 -14 125h-189v156h168q-12 43 -12 77v23q0 25 10 76h-166l-2 155h193z" />
    <glyph glyph-name="yen" unicode="&#xa5;" 
d="M1004 662v-158h-310q14 -53 14 -82t-14 -82h310v-158h-308q14 -53 15 -90v-92h-283v90q0 31 12 92h-305v158h307q-12 45 -12 78t14 86h-309l-4 158h260q-47 76 -78 151l-258 604h293l113 -297q33 -86 70 -236t47 -202h20l31 158q39 190 73 280l107 297h262l-252 -604
q-27 -66 -76 -151h261z" />
    <glyph glyph-name="brokenbar" unicode="&#xa6;" horiz-adv-x="645" 
d="M201 791v710h243v-710h-243zM201 -305v792h243v-792h-243z" />
    <glyph glyph-name="section" unicode="&#xa7;" horiz-adv-x="1085" 
d="M299 690q1 -48 31 -78t104 -65l279 -133q73 57 73 136t-114 132l-291 137q-82 -57 -82 -129zM504 -209q-184 0 -316 64v198q143 -66 277 -65q178 0 178 112q0 49 -33 77t-125 69l-151 67q-129 55 -193 123q-63 68 -63 182q0 166 203 269v16q-102 82 -103 223
q0 142 106 230t294 88t317 -62v-198q-145 63 -300 63t-155 -106q0 -51 34 -84t122 -64l154 -67q131 -55 194 -125t64 -195q0 -158 -195 -264v-16q51 -44 73 -92t21 -119q1 -158 -109 -241t-294 -83z" />
    <glyph glyph-name="dieresis" unicode="&#xa8;" horiz-adv-x="921" 
d="M113 1239v234h262v-234h-262zM563 1239v234h262v-234h-262z" />
    <glyph glyph-name="copyright" unicode="&#xa9;" horiz-adv-x="1525" 
d="M762 362q-122 0 -205 78q-82 78 -82 222v61q0 151 88 223q87 72 209 72t189 -37v-131q-76 27 -158 27q-145 0 -146 -138v-77q0 -80 37 -119t118 -39t155 37v-133q-83 -46 -205 -46zM762 143q231 0 380 156q148 157 148 397t-148 394t-380 154t-379 -154t-147 -395
t148 -397t378 -155zM760 35q-278 1 -464 193q-187 192 -187 467t187 465q186 190 464 192q278 0 468 -192t189 -464q0 -274 -189 -468q-190 -193 -468 -193z" />
    <glyph glyph-name="ordfeminine" unicode="&#xaa;" horiz-adv-x="942" 
d="M350 745q0 -71 24 -101t86 -30t101 56v227l-94 -6q-117 -12 -117 -146zM348 451q-117 -1 -179 71q-63 72 -63 209t80 203t250 76l119 8v82q0 80 -42 110t-137 29q-95 0 -210 -33v176q168 62 324 62t237 -74q80 -74 80 -246v-651h-189l-30 105h-19q-69 -127 -221 -127z
" />
    <glyph glyph-name="guillemotleft" unicode="&#xab;" horiz-adv-x="1077" 
d="M338 119l-240 409v101l240 409h194l-198 -458l198 -461h-194zM768 119l-236 409v101l236 409h201l-203 -458l203 -461h-201z" />
    <glyph glyph-name="registered" unicode="&#xae;" horiz-adv-x="1525" 
d="M766 713q90 0 90 94t-94 94h-88l4 -27q6 -49 6 -51v-32q0 -2 -6 -52l-4 -26h92zM684 391h-156v621h238q250 0 250 -201q0 -131 -139 -160v-20l26 -31q2 -4 27 -34t39 -52l80 -123h-170l-142 223h-63l4 -30l6 -56v-137zM762 143q231 0 380 156q148 157 148 397t-148 394
t-380 154t-379 -154t-147 -395t148 -397t378 -155zM760 35q-278 1 -464 193q-187 192 -187 467t187 465q186 190 464 192q278 0 468 -192t189 -464q0 -274 -189 -468q-190 -193 -468 -193z" />
    <glyph glyph-name="macron" unicode="&#xaf;" horiz-adv-x="921" 
d="M154 1262v190h614v-190h-614z" />
    <glyph glyph-name="degree" unicode="&#xb0;" horiz-adv-x="954" 
d="M477 856q84 0 135 60q52 60 52 154t-52 156t-135 62q-84 0 -135 -61t-51 -155t51 -156q51 -60 135 -60zM477 702q-162 0 -267 109q-106 109 -106 261t106 262q106 108 267 108q162 0 267 -109q106 -109 106 -261t-106 -262q-106 -108 -267 -108z" />
    <glyph glyph-name="twosuperior" unicode="&#xb2;" horiz-adv-x="942" 
d="M119 360v189l209 207q102 106 145 180t43 157t-42 117t-139 33q-97 0 -194 -39v176q119 64 279 64t255 -83t95 -217t-61 -234q-61 -101 -187 -214l-20 -18q-23 -18 -105 -80q-47 -31 -53 -35v-16h432v-187h-657z" />
    <glyph glyph-name="threesuperior" unicode="&#xb3;" horiz-adv-x="942" 
d="M797 648q1 -132 -101 -218t-276 -86t-293 57v174q115 -41 217 -41t151 34q48 34 48 112q0 139 -166 139h-109v185h86q170 0 170 131q0 67 -44 93t-136 26t-180 -33v172q106 51 264 51t246 -66t88 -192q0 -211 -232 -258v-17q133 -14 200 -72t67 -191z" />
    <glyph glyph-name="acute" unicode="&#xb4;" horiz-adv-x="921" 
d="M342 1221l160 356h311l-242 -356h-229z" />
    <glyph glyph-name="paragraph" unicode="&#xb6;" horiz-adv-x="1290" 
d="M522 -246v942h-16q-174 0 -288 87t-114 276q0 360 465 360h537v-1665h-191v1309q0 90 7 131l8 72h-232l7 -72q8 -55 8 -131v-1309h-191z" />
    <glyph glyph-name="periodcentered" unicode="&#xb7;" horiz-adv-x="614" 
d="M156 510v270h305v-270h-305z" />
    <glyph glyph-name="cedilla" unicode="&#xb8;" horiz-adv-x="921" 
d="M268 -367l84 179q53 114 140 188h151l-108 -367h-267z" />
    <glyph glyph-name="onesuperior" unicode="&#xb9;" horiz-adv-x="942" 
d="M158 354v168h202l-6 51q-6 31 -6 109v510l-35 -14q-29 -12 -94 -23l-80 -10v145l301 137h158v-745q0 -16 -6 -109l-6 -51h200v-168h-628z" />
    <glyph glyph-name="ordmasculine" unicode="&#xba;" horiz-adv-x="942" 
d="M334 901q0 -154 34 -213t104 -59t102 58t32 206v98q0 152 -34 213q-34 62 -104 62t-102 -60t-32 -205v-100zM464 449q-186 1 -285 119t-99 333v82q0 219 105 340t294 121t286 -116t97 -335v-84q0 -219 -105 -340q-107 -120 -293 -120z" />
    <glyph glyph-name="guillemotright" unicode="&#xbb;" horiz-adv-x="1077" 
d="M545 119l200 459l-200 460h196l238 -409v-101l-238 -409h-196zM109 119l202 459l-202 460h200l236 -409v-101l-236 -409h-200z" />
    <glyph glyph-name="onequarter" unicode="&#xbc;" 
d="M598 12h217l-6 39q-4 45 -4 74v55q0 76 6 111l8 63h-18l-31 -65q-27 -57 -59 -115l-31 -49q-18 -29 -51 -66l-31 -30v-17zM53 61v203l479 301l541 447v-203l-481 -301zM57 690v133h152l-8 37q-6 31 -6 70v315l-25 -14q-25 -14 -80 -21l-51 -8v115l233 115h125v-502
q0 -39 -8 -70l-6 -37h147v-133h-473zM997 -272h-206v57q0 45 6 68l6 36h-330v166l277 410h247v-336l-6 -68l-6 -34h113v-138h-113l6 -36l6 -68v-57z" />
    <glyph glyph-name="onehalf" unicode="&#xbd;" 
d="M53 102v203l479 301l541 449v-205l-481 -301zM57 690v133h152l-8 37q-6 31 -6 70v315l-25 -14q-25 -14 -80 -21l-51 -8v115l233 115h125v-502q0 -39 -8 -70l-6 -37h147v-133h-473zM578 -264v133l159 145q78 72 108 116t29 103q0 100 -129 101q-78 0 -153 -29v137
q94 50 223 50t201 -65t72 -161t-38 -152q-37 -56 -153 -155q-39 -31 -72 -49l-28 -14v-17h290v-143h-509z" />
    <glyph glyph-name="threequarters" unicode="&#xbe;" 
d="M598 12h217l-6 39q-4 45 -4 74v55q0 76 6 111l8 63h-18l-31 -65q-27 -57 -59 -115l-31 -49q-18 -29 -51 -66l-31 -30v-17zM53 72v202l479 301l541 449v-205l-481 -301zM584 878q0 -94 -75 -152t-215 -58t-239 43v135q89 -33 173 -33t114 22q30 21 31 71q0 50 -24 70
t-85 19h-100v138h86q117 0 117 84q0 45 -31 63q-30 18 -104 18t-148 -24v135q84 37 211 37t195 -48t69 -130q0 -82 -37 -122q-37 -42 -127 -65v-16q105 -16 147 -55t42 -132zM997 -272h-206v57q0 45 6 68l6 36h-330v166l277 410h247v-336l-6 -68l-6 -34h113v-138h-113l6 -36
l6 -68v-57z" />
    <glyph glyph-name="questiondown" unicode="&#xbf;" horiz-adv-x="919" 
d="M725 1161v-264h-305v264h305zM696 700v-131q0 -100 -39 -159q-39 -60 -107 -110t-92 -70t-48 -60q-24 -39 -23 -84q0 -137 199 -137q141 0 260 41v-199q-142 -74 -340 -74t-315 85q-116 85 -115 247q0 117 54 195t164 156t136 111q26 34 25 83v106h241z" />
    <glyph glyph-name="Agrave" unicode="&#xc0;" horiz-adv-x="1259" 
d="M541 836l-49 -172q-20 -70 -54 -152h344q-29 74 -51 152l-45 172q-20 76 -43 223l-18 119h-23l-16 -119q-20 -131 -45 -223zM539 1569l-258 356h331l174 -356h-247zM39 0l422 1417h338l418 -1417h-310l-47 160q-20 66 -31 155h-442q-18 -111 -31 -153l-43 -162h-274z" />
    <glyph glyph-name="Aacute" unicode="&#xc1;" horiz-adv-x="1259" 
d="M496 1569l159 356h312l-242 -356h-229zM541 836l-49 -172q-20 -70 -54 -152h344q-29 74 -51 152l-45 172q-20 76 -43 223l-18 119h-23l-16 -119q-20 -131 -45 -223zM39 0l422 1417h338l418 -1417h-310l-47 160q-20 66 -31 155h-442q-18 -111 -31 -153l-43 -162h-274z" />
    <glyph glyph-name="Acircumflex" unicode="&#xc2;" horiz-adv-x="1259" 
d="M541 836l-49 -172q-20 -70 -54 -152h344q-29 74 -51 152l-45 172q-20 76 -43 223l-18 119h-23l-16 -119q-20 -131 -45 -223zM248 1563l223 329h297l238 -329h-248l-62 84q-16 23 -51 96l-18 49h-19l-18 -49q-35 -74 -51 -96l-62 -84h-229zM39 0l422 1417h338l418 -1417
h-310l-47 160q-20 66 -31 155h-442q-18 -111 -31 -153l-43 -162h-274z" />
    <glyph glyph-name="Atilde" unicode="&#xc3;" horiz-adv-x="1259" 
d="M541 836l-49 -172q-20 -70 -54 -152h344q-29 74 -51 152l-45 172q-20 76 -43 223l-18 119h-23l-16 -119q-20 -131 -45 -223zM768 1765q35 0 52 25t30 76h156q-10 -143 -70 -221t-158 -78q-59 0 -146 41t-118 41q-78 -1 -94 -93h-156q8 140 74 218t166 77q59 0 144 -43
t120 -43zM39 0l422 1417h338l418 -1417h-310l-47 160q-20 66 -31 155h-442q-18 -111 -31 -153l-43 -162h-274z" />
    <glyph glyph-name="Adieresis" unicode="&#xc4;" horiz-adv-x="1259" 
d="M266 1587v234h262v-234h-262zM717 1587v234h262v-234h-262zM541 836l-49 -172q-20 -70 -54 -152h344q-29 74 -51 152l-45 172q-20 76 -43 223l-18 119h-23l-16 -119q-20 -131 -45 -223zM39 0l422 1417h338l418 -1417h-310l-47 160q-20 66 -31 155h-442q-18 -111 -31 -153
l-43 -162h-274z" />
    <glyph glyph-name="Aring" unicode="&#xc5;" horiz-adv-x="1259" 
d="M633 1655q49 0 77 33t27 84q-1 52 -29 84t-75 32t-76 -33t-29 -83t28 -84q28 -33 77 -33zM541 836l-49 -172q-20 -70 -54 -152h344q-29 74 -51 152l-45 172q-20 76 -43 223l-18 119h-23l-16 -119q-20 -131 -45 -223zM632 1550q-103 0 -169 65t-66 157t66 156t169 65
q103 0 170 -65q66 -64 66 -156t-66 -157t-170 -65zM39 0l422 1417h338l418 -1417h-310l-47 160q-20 66 -31 155h-442q-18 -111 -31 -153l-43 -162h-274z" />
    <glyph glyph-name="AE" unicode="&#xc6;" horiz-adv-x="1828" 
d="M891 844q0 237 29 432h-21q-10 -40 -50 -158t-95 -233l-115 -234q-33 -70 -94 -141h346v334zM1690 1417v-231h-519l7 -45q8 -35 8 -82v-90q0 -49 -8 -84l-7 -45h406v-222h-406l7 -49q8 -35 8 -86v-116q0 -53 -8 -88l-7 -48h529v-231h-809v313h-449q-20 -74 -51 -135
l-92 -178h-281l760 1417h912z" />
    <glyph glyph-name="Ccedilla" unicode="&#xc7;" horiz-adv-x="1183" 
d="M104 672v69q0 185 50 325t140 220q176 158 439 158q197 0 338 -58v-243q-153 53 -307 53t-247 -95t-93 -339v-74q0 -252 85 -358t264 -106t308 73v-236q-135 -78 -331 -86l-101 -342h-266l84 179q51 104 121 174q-231 37 -358 213q-126 176 -126 473z" />
    <glyph glyph-name="Egrave" unicode="&#xc8;" horiz-adv-x="1148" 
d="M506 1569l-258 356h332l174 -356h-248zM162 0v1417h842v-231h-562l7 -45q6 -80 6 -82v-90q0 -4 -6 -84l-7 -45h441v-222h-441l7 -49q6 -80 6 -86v-116q0 -8 -6 -88l-7 -48h572v-231h-852z" />
    <glyph glyph-name="Eacute" unicode="&#xc9;" horiz-adv-x="1148" 
d="M469 1569l160 356h311l-242 -356h-229zM162 0v1417h842v-231h-562l7 -45q6 -80 6 -82v-90q0 -4 -6 -84l-7 -45h441v-222h-441l7 -49q6 -80 6 -86v-116q0 -8 -6 -88l-7 -48h572v-231h-852z" />
    <glyph glyph-name="Ecircumflex" unicode="&#xca;" horiz-adv-x="1148" 
d="M195 1563l223 329h297l237 -329h-247l-62 84q-16 23 -51 96l-19 49h-18l-18 -49q-35 -74 -52 -96l-61 -84h-229zM162 0v1417h842v-231h-562l7 -45q6 -80 6 -82v-90q0 -4 -6 -84l-7 -45h441v-222h-441l7 -49q6 -80 6 -86v-116q0 -8 -6 -88l-7 -48h572v-231h-852z" />
    <glyph glyph-name="Edieresis" unicode="&#xcb;" horiz-adv-x="1148" 
d="M676 1587v234h262v-234h-262zM225 1587v234h262v-234h-262zM162 0v1417h842v-231h-562l7 -45q6 -80 6 -82v-90q0 -4 -6 -84l-7 -45h441v-222h-441l7 -49q6 -80 6 -86v-116q0 -8 -6 -88l-7 -48h572v-231h-852z" />
    <glyph glyph-name="Igrave" unicode="&#xcc;" horiz-adv-x="632" 
d="M231 1569l-258 356h332l174 -356h-248zM166 0v1417h301v-1417h-301z" />
    <glyph glyph-name="Iacute" unicode="&#xcd;" horiz-adv-x="632" 
d="M186 1569l160 356h311l-241 -356h-230zM166 0v1417h301v-1417h-301z" />
    <glyph glyph-name="Icircumflex" unicode="&#xce;" horiz-adv-x="632" 
d="M-66 1563l224 329h297l237 -329h-248l-61 84q-16 23 -51 96l-19 49h-18l-19 -49q-35 -74 -51 -96l-61 -84h-230zM166 0v1417h301v-1417h-301z" />
    <glyph glyph-name="Idieresis" unicode="&#xcf;" horiz-adv-x="632" 
d="M408 1587v234h262v-234h-262zM-43 1587v234h262v-234h-262zM166 0v1417h301v-1417h-301z" />
    <glyph glyph-name="Eth" unicode="&#xd0;" horiz-adv-x="1335" 
d="M594 225q168 -1 248 99t80 360v59q0 283 -97 370q-51 45 -110 61t-154 16h-112l6 -45q8 -35 8 -105v-106q0 -41 -12 -119h272v-217h-272q12 -82 12 -119v-90q0 -70 -8 -110l-6 -54h145zM23 598v217h161q-12 74 -12 148v454h410q328 0 490 -159t163 -498v-55
q0 -705 -641 -705h-422v449q0 51 12 149h-161z" />
    <glyph glyph-name="Ntilde" unicode="&#xd1;" horiz-adv-x="1376" 
d="M567 1872q59 0 145 -43t120 -43t52 24q17 25 29 76h156q-11 -143 -71 -221t-156 -78q-58 0 -146 41t-118 41q-79 0 -95 -92h-155q8 139 73 217q66 78 166 78zM162 0v1417h348l238 -452q96 -178 223 -574h24l-16 178q-14 176 -14 314v534h249v-1417h-309l-272 545
q-37 74 -154 356q-33 86 -76 205h-22q8 -113 19 -239t12 -236v-631h-250z" />
    <glyph glyph-name="Ograve" unicode="&#xd2;" horiz-adv-x="1402" 
d="M610 1569l-258 356h332l174 -356h-248zM414 684q0 -260 67 -368t215 -109q148 1 218 109q69 108 69 343v76q0 254 -65 365q-66 112 -214 112t-220 -110q-71 -110 -70 -342v-76zM1300 676q0 -352 -169 -526t-438 -175q-269 0 -431 170t-162 527v71q0 353 168 527t438 174
t433 -170q162 -170 161 -526v-72z" />
    <glyph glyph-name="Oacute" unicode="&#xd3;" horiz-adv-x="1402" 
d="M586 1569l159 356h312l-242 -356h-229zM414 684q0 -260 67 -368t215 -109q148 1 218 109q69 108 69 343v76q0 254 -65 365q-66 112 -214 112t-220 -110q-71 -110 -70 -342v-76zM1300 676q0 -352 -169 -526t-438 -175q-269 0 -431 170t-162 527v71q0 353 168 527t438 174
t433 -170q162 -170 161 -526v-72z" />
    <glyph glyph-name="Ocircumflex" unicode="&#xd4;" horiz-adv-x="1402" 
d="M334 1563l223 329h297l238 -329h-248l-62 84q-16 23 -51 96l-18 49h-19l-18 -49q-35 -74 -51 -96l-62 -84h-229zM414 684q0 -260 67 -368t215 -109q148 1 218 109q69 108 69 343v76q0 254 -65 365q-66 112 -214 112t-220 -110q-71 -110 -70 -342v-76zM1300 676
q0 -352 -169 -526t-438 -175q-269 0 -431 170t-162 527v71q0 353 168 527t438 174t433 -170q162 -170 161 -526v-72z" />
    <glyph glyph-name="Otilde" unicode="&#xd5;" horiz-adv-x="1402" 
d="M582 1872q59 0 144 -43t120 -43t52 24t30 76h155q-10 -143 -70 -221t-157 -78q-59 0 -146 41t-118 41q-78 0 -94 -92h-156q8 139 74 217t166 78zM414 684q0 -260 67 -368t215 -109q148 1 218 109q69 108 69 343v76q0 254 -65 365q-66 112 -214 112t-220 -110
q-71 -110 -70 -342v-76zM1300 676q0 -352 -169 -526t-438 -175q-269 0 -431 170t-162 527v71q0 353 168 527t438 174t433 -170q162 -170 161 -526v-72z" />
    <glyph glyph-name="Odieresis" unicode="&#xd6;" horiz-adv-x="1402" 
d="M344 1587v234h262v-234h-262zM795 1587v234h262v-234h-262zM414 684q0 -260 67 -368t215 -109q148 1 218 109q69 108 69 343v76q0 254 -65 365q-66 112 -214 112t-220 -110q-71 -110 -70 -342v-76zM1300 676q0 -352 -169 -526t-438 -175q-269 0 -431 170t-162 527v71
q0 353 168 527t438 174t433 -170q162 -170 161 -526v-72z" />
    <glyph glyph-name="multiply" unicode="&#xd7;" 
d="M295 254l-158 156l146 147q35 37 151 129q-125 98 -151 127l-146 148l158 155l143 -147q57 -57 123 -154q92 121 123 154l145 147l158 -155l-145 -148q-43 -43 -154 -127q102 -78 154 -129l145 -147l-158 -156l-145 147q-49 49 -123 154q-68 -96 -123 -154z" />
    <glyph glyph-name="Oslash" unicode="&#xd8;" horiz-adv-x="1402" 
d="M698 1212q-291 0 -290 -452v-101q0 -301 61 -378q39 133 45 149l229 596q31 76 86 172q-45 14 -131 14zM702 205q291 0 291 454v101q0 295 -67 379q-14 -63 -41 -142l-230 -594q-16 -43 -90 -184q49 -14 137 -14zM100 672v71q0 353 168 527t437 174q96 0 172 -21
q8 59 24 101l29 75h225l-29 -75q-18 -49 -90 -166q264 -162 264 -610v-72q0 -352 -168 -526t-438 -175q-96 0 -176 21q-16 -94 -39 -148l-35 -88h-227l35 90q35 92 108 209q-260 162 -260 613z" />
    <glyph glyph-name="Ugrave" unicode="&#xd9;" horiz-adv-x="1366" 
d="M578 1569l-259 356h332l174 -356h-247zM1208 467q0 -492 -525 -492t-525 490v952h299v-946q0 -152 62 -212t181 -60q236 0 236 272v946h272v-950z" />
    <glyph glyph-name="Uacute" unicode="&#xda;" horiz-adv-x="1366" 
d="M553 1569l160 356h311l-242 -356h-229zM1208 467q0 -492 -525 -492t-525 490v952h299v-946q0 -152 62 -212t181 -60q236 0 236 272v946h272v-950z" />
    <glyph glyph-name="Ucircumflex" unicode="&#xdb;" horiz-adv-x="1366" 
d="M307 1563l223 329h297l238 -329h-248l-61 84q-16 23 -51 96l-19 49h-18l-19 -49q-35 -74 -51 -96l-61 -84h-230zM1208 467q0 -492 -525 -492t-525 490v952h299v-946q0 -152 62 -212t181 -60q236 0 236 272v946h272v-950z" />
    <glyph glyph-name="Udieresis" unicode="&#xdc;" horiz-adv-x="1366" 
d="M774 1587v234h262v-234h-262zM324 1587v234h262v-234h-262zM1208 467q0 -492 -525 -492t-525 490v952h299v-946q0 -152 62 -212t181 -60q236 0 236 272v946h272v-950z" />
    <glyph glyph-name="Yacute" unicode="&#xdd;" horiz-adv-x="1179" 
d="M487 1569l160 356h311l-241 -356h-230zM446 0v520l-403 897h315l123 -299q69 -176 125 -420h23q20 98 56 234t56 186l115 299h281l-387 -889v-528h-304z" />
    <glyph glyph-name="Thorn" unicode="&#xde;" horiz-adv-x="1161" 
d="M582 485q112 -1 164 51t52 178t-50 175q-51 49 -158 49h-148l7 -51q6 -92 6 -101v-149q0 -6 -6 -98l-7 -54h140zM162 0v1417h299v-104q0 -63 -8 -105l-7 -47h183q241 0 355 -119q114 -118 114 -326t-120 -323t-339 -114h-193l7 -58q8 -43 8 -108v-113h-299z" />
    <glyph glyph-name="germandbls" unicode="&#xdf;" horiz-adv-x="1161" 
d="M696 -8q-70 0 -137 20v187q31 -8 74 -9q158 0 158 222q-1 137 -57 212t-173 113v191q182 55 182 246q0 82 -42 120q-43 38 -113 37q-70 0 -119 -56t-49 -177v-1098h-289v1098q0 219 133 324q133 106 328 106q196 0 310 -92t114 -242t-78 -226q-78 -75 -225 -120v-21
q190 -45 281 -147t91 -290q1 -188 -101 -293t-288 -105z" />
    <glyph glyph-name="agrave" unicode="&#xe0;" horiz-adv-x="1030" 
d="M352 303q0 -84 30 -120t106 -36q77 0 139 70v264l-121 -8q-154 -10 -154 -170zM403 1221l-258 356h332l174 -356h-248zM373 -25q-137 0 -217 80t-80 232q0 153 96 227t297 88l152 10v99q1 94 -51 131t-166 37t-244 -37v184q174 66 360 66t286 -83q99 -83 99 -268v-741
h-215l-35 119h-20q-90 -144 -262 -144z" />
    <glyph glyph-name="aacute" unicode="&#xe1;" horiz-adv-x="1030" 
d="M352 303q0 -84 30 -120t106 -36q77 0 139 70v264l-121 -8q-154 -10 -154 -170zM375 1221l160 356h311l-242 -356h-229zM373 -25q-137 0 -217 80t-80 232q0 153 96 227t297 88l152 10v99q1 94 -51 131t-166 37t-244 -37v184q174 66 360 66t286 -83q99 -83 99 -268v-741
h-215l-35 119h-20q-90 -144 -262 -144z" />
    <glyph glyph-name="acircumflex" unicode="&#xe2;" horiz-adv-x="1030" 
d="M352 303q0 -84 30 -120t106 -36q77 0 139 70v264l-121 -8q-154 -10 -154 -170zM131 1214l223 330h297l238 -330h-248l-61 84q-16 23 -52 97l-18 49h-18l-19 -49q-35 -74 -51 -97l-62 -84h-229zM373 -25q-137 0 -217 80t-80 232q0 153 96 227t297 88l152 10v99
q1 94 -51 131t-166 37t-244 -37v184q174 66 360 66t286 -83q99 -83 99 -268v-741h-215l-35 119h-20q-90 -144 -262 -144z" />
    <glyph glyph-name="atilde" unicode="&#xe3;" horiz-adv-x="1030" 
d="M352 303q0 -84 30 -120t106 -36q77 0 139 70v264l-121 -8q-154 -10 -154 -170zM383 1524q59 0 144 -43t120 -43t52 24t30 76h156q-11 -143 -71 -221t-157 -78q-59 0 -146 41t-118 41q-78 0 -94 -92h-156q8 139 74 217t166 78zM373 -25q-137 0 -217 80t-80 232
q0 153 96 227t297 88l152 10v99q1 94 -51 131t-166 37t-244 -37v184q174 66 360 66t286 -83q99 -83 99 -268v-741h-215l-35 119h-20q-90 -144 -262 -144z" />
    <glyph glyph-name="adieresis" unicode="&#xe4;" horiz-adv-x="1030" 
d="M145 1239v234h263v-234h-263zM596 1239v234h262v-234h-262zM352 303q0 -84 30 -120t106 -36q77 0 139 70v264l-121 -8q-154 -10 -154 -170zM373 -25q-137 0 -217 80t-80 232q0 153 96 227t297 88l152 10v99q1 94 -51 131t-166 37t-244 -37v184q174 66 360 66t286 -83
q99 -83 99 -268v-741h-215l-35 119h-20q-90 -144 -262 -144z" />
    <glyph glyph-name="aring" unicode="&#xe5;" horiz-adv-x="1030" 
d="M508 1307q49 1 77 33t27 83q0 51 -28 84q-29 33 -76 33t-76 -33t-29 -84t28 -83t77 -33zM352 303q0 -84 30 -120t106 -36q77 0 139 70v264l-121 -8q-154 -10 -154 -170zM507 1202q-103 0 -169 65t-66 157t66 156q66 65 169 65t170 -65t67 -157q0 -93 -68 -157
q-66 -64 -169 -64zM373 -25q-137 0 -217 80t-80 232q0 153 96 227t297 88l152 10v99q1 94 -51 131t-166 37t-244 -37v184q174 66 360 66t286 -83q99 -83 99 -268v-741h-215l-35 119h-20q-90 -144 -262 -144z" />
    <glyph glyph-name="ae" unicode="&#xe6;" horiz-adv-x="1605" 
d="M1106 623h145q0 145 -34 213q-35 68 -124 68t-134 -69q-44 -69 -46 -235q94 23 193 23zM500 147q115 0 186 99q-43 113 -45 233l-137 -10q-78 -6 -115 -46t-37 -122t34 -118t114 -36zM393 -25q-153 0 -235 79t-82 232q0 152 95 228t296 88l164 10v99q-1 94 -57 131
t-170 37t-244 -37v184q174 66 318 66t208 -38q66 -38 102 -124h21q102 162 307 162t299 -129t94 -365v-127h-594q6 -161 72 -225q65 -64 215 -64t283 64v-178q-133 -92 -350 -93q-260 0 -377 183h-23q-125 -183 -342 -183z" />
    <glyph glyph-name="ccedilla" unicode="&#xe7;" horiz-adv-x="978" 
d="M399 514q1 -328 257 -328q120 0 231 43v-184q-94 -61 -262 -70l-101 -342h-266l84 179q53 113 123 176q-178 35 -271 165t-94 345v61q0 277 146 405t375 128q152 0 258 -41v-213q-131 41 -237 41t-174 -69t-69 -230v-66z" />
    <glyph glyph-name="egrave" unicode="&#xe8;" horiz-adv-x="1044" 
d="M543 903q-182 0 -185 -303q94 23 189 23h143q0 145 -32 213t-115 67zM436 1221l-258 356h332l174 -356h-248zM567 -25q-223 -1 -352 135t-129 390v71q0 236 123 378t334 143q406 0 405 -494v-127h-590q8 -161 70 -225t213 -64q150 0 283 64v-178q-134 -93 -357 -93z" />
    <glyph glyph-name="eacute" unicode="&#xe9;" horiz-adv-x="1044" 
d="M543 903q-182 0 -185 -303q94 23 189 23h143q0 145 -32 213t-115 67zM410 1221l159 356h312l-242 -356h-229zM567 -25q-223 -1 -352 135t-129 390v71q0 236 123 378t334 143q406 0 405 -494v-127h-590q8 -161 70 -225t213 -64q150 0 283 64v-178q-134 -93 -357 -93z" />
    <glyph glyph-name="ecircumflex" unicode="&#xea;" horiz-adv-x="1044" 
d="M543 903q-182 0 -185 -303q94 23 189 23h143q0 145 -32 213t-115 67zM154 1214l223 330h297l237 -330h-247l-62 84q-16 23 -51 97l-19 49h-18l-18 -49q-35 -74 -52 -97l-61 -84h-229zM567 -25q-223 -1 -352 135t-129 390v71q0 236 123 378t334 143q406 0 405 -494v-127
h-590q8 -161 70 -225t213 -64q150 0 283 64v-178q-134 -93 -357 -93z" />
    <glyph glyph-name="edieresis" unicode="&#xeb;" horiz-adv-x="1044" 
d="M160 1239v234h262v-234h-262zM610 1239v234h262v-234h-262zM543 903q-182 0 -185 -303q94 23 189 23h143q0 145 -32 213t-115 67zM567 -25q-223 -1 -352 135t-129 390v71q0 236 123 378t334 143q406 0 405 -494v-127h-590q8 -161 70 -225t213 -64q150 0 283 64v-178
q-134 -93 -357 -93z" />
    <glyph glyph-name="igrave" unicode="&#xec;" horiz-adv-x="563" 
d="M199 1221l-258 356h331l174 -356h-247zM137 0v1071h287v-1071h-287z" />
    <glyph glyph-name="iacute" unicode="&#xed;" horiz-adv-x="563" 
d="M143 1221l160 356h311l-241 -356h-230zM137 0v1071h287v-1071h-287z" />
    <glyph glyph-name="icircumflex" unicode="&#xee;" horiz-adv-x="563" 
d="M-98 1214l223 330h297l237 -330h-247l-62 84q-16 23 -51 97l-18 49h-19l-18 -49q-35 -74 -51 -97l-62 -84h-229zM137 0v1071h287v-1071h-287z" />
    <glyph glyph-name="idieresis" unicode="&#xef;" horiz-adv-x="563" 
d="M375 1239v234h262v-234h-262zM-76 1239v234h262v-234h-262zM137 0v1071h287v-1071h-287z" />
    <glyph glyph-name="eth" unicode="&#xf0;" horiz-adv-x="1118" 
d="M562 172q93 0 134 55t41 205v94q0 152 -43 206t-135 54t-135 -57t-43 -194v-95q0 -158 44 -213t137 -55zM1030 557v-108q0 -227 -126 -351t-350 -125q-224 0 -344 121t-120 344v80q0 215 114 333t277 118q91 0 155 -26t138 -77l10 11l-67 75q-114 122 -160 226l-313 -107
v158l194 67q-61 37 -92 60l-153 117h331l56 -39q31 -25 63 -68l279 96v-157l-156 -54q61 -45 88 -80q90 -117 133 -253t43 -361z" />
    <glyph glyph-name="ntilde" unicode="&#xf1;" horiz-adv-x="1140" 
d="M442 1524q58 0 144 -43t121 -43t52 24t29 76h156q-10 -143 -70 -221t-157 -78q-59 0 -147 41t-117 41q-79 0 -95 -92h-155q8 139 73 217q66 78 166 78zM131 0v1071h270v-129h19q160 150 325 150q270 0 271 -304v-788h-289v719q0 82 -26 115q-25 32 -105 32t-176 -67v-799
h-289z" />
    <glyph glyph-name="ograve" unicode="&#xf2;" horiz-adv-x="1122" 
d="M471 1221l-258 356h332l174 -356h-248zM561 172q90 0 133 70t43 237v101q0 172 -46 244t-135 71q-89 0 -132 -72t-43 -235v-101q0 -175 45 -245t135 -70zM1030 496q0 -248 -127 -386t-350 -137t-343 135t-120 377v86q0 246 127 383q127 138 351 138t343 -132t119 -378
v-86z" />
    <glyph glyph-name="oacute" unicode="&#xf3;" horiz-adv-x="1122" 
d="M444 1221l160 356h311l-241 -356h-230zM561 172q90 0 133 70t43 237v101q0 172 -46 244t-135 71q-89 0 -132 -72t-43 -235v-101q0 -175 45 -245t135 -70zM1030 496q0 -248 -127 -386t-350 -137t-343 135t-120 377v86q0 246 127 383q127 138 351 138t343 -132t119 -378
v-86z" />
    <glyph glyph-name="ocircumflex" unicode="&#xf4;" horiz-adv-x="1122" 
d="M184 1214l224 330h297l237 -330h-248l-61 84q-16 23 -51 97l-19 49h-18l-19 -49q-35 -74 -51 -97l-61 -84h-230zM561 172q90 0 133 70t43 237v101q0 172 -46 244t-135 71q-89 0 -132 -72t-43 -235v-101q0 -175 45 -245t135 -70zM1030 496q0 -248 -127 -386t-350 -137
t-343 135t-120 377v86q0 246 127 383q127 138 351 138t343 -132t119 -378v-86z" />
    <glyph glyph-name="otilde" unicode="&#xf5;" horiz-adv-x="1122" 
d="M422 1524q59 0 144 -43t120 -43t52 24t30 76h156q-10 -143 -70 -221t-158 -78q-59 0 -146 41t-118 41q-78 0 -94 -92h-156q8 139 74 217t166 78zM561 172q90 0 133 70t43 237v101q0 172 -46 244t-135 71q-89 0 -132 -72t-43 -235v-101q0 -175 45 -245t135 -70zM1030 496
q0 -248 -127 -386t-350 -137t-343 135t-120 377v86q0 246 127 383q127 138 351 138t343 -132t119 -378v-86z" />
    <glyph glyph-name="odieresis" unicode="&#xf6;" horiz-adv-x="1122" 
d="M207 1239v234h262v-234h-262zM657 1239v234h263v-234h-263zM561 172q90 0 133 70t43 237v101q0 172 -46 244t-135 71q-89 0 -132 -72t-43 -235v-101q0 -175 45 -245t135 -70zM1030 496q0 -248 -127 -386t-350 -137t-343 135t-120 377v86q0 246 127 383q127 138 351 138
t343 -132t119 -378v-86z" />
    <glyph glyph-name="divide" unicode="&#xf7;" 
d="M422 1032v273h283v-273h-283zM422 117v272h283v-272h-283zM131 596v229h864v-229h-864z" />
    <glyph glyph-name="oslash" unicode="&#xf8;" horiz-adv-x="1122" 
d="M559 913q-193 0 -192 -325v-135q0 -143 26 -205q16 79 47 155l129 347q33 84 80 149q-35 14 -90 14zM561 156q195 0 195 323v137q0 152 -39 226q-18 -96 -41 -164l-123 -354q-25 -63 -84 -156q33 -12 92 -12zM90 485v86q0 246 127 383t344 138q80 0 148 -19q16 88 34 137
l21 56h217l-20 -56q-25 -66 -119 -192q188 -127 188 -436v-86q0 -248 -127 -385t-342 -138q-82 0 -149 19q-10 -86 -39 -144l-35 -73h-217l35 75q39 92 127 195q-193 123 -193 440z" />
    <glyph glyph-name="ugrave" unicode="&#xf9;" horiz-adv-x="1132" 
d="M475 1221l-258 356h332l174 -356h-248zM406 -23q-133 0 -207 81t-74 237v776h289v-719q0 -82 26 -114t102 -33q77 0 171 65v801h286v-1071h-233l-23 129h-22q-147 -152 -315 -152z" />
    <glyph glyph-name="uacute" unicode="&#xfa;" horiz-adv-x="1132" 
d="M449 1221l159 356h312l-242 -356h-229zM406 -23q-133 0 -207 81t-74 237v776h289v-719q0 -82 26 -114t102 -33q77 0 171 65v801h286v-1071h-233l-23 129h-22q-147 -152 -315 -152z" />
    <glyph glyph-name="ucircumflex" unicode="&#xfb;" horiz-adv-x="1132" 
d="M184 1214l224 330h297l237 -330h-248l-61 84q-16 23 -51 97l-19 49h-18l-19 -49q-35 -74 -51 -97l-61 -84h-230zM406 -23q-133 0 -207 81t-74 237v776h289v-719q0 -82 26 -114t102 -33q77 0 171 65v801h286v-1071h-233l-23 129h-22q-147 -152 -315 -152z" />
    <glyph glyph-name="udieresis" unicode="&#xfc;" horiz-adv-x="1132" 
d="M655 1239v234h263v-234h-263zM205 1239v234h262v-234h-262zM406 -23q-133 0 -207 81t-74 237v776h289v-719q0 -82 26 -114t102 -33q77 0 171 65v801h286v-1071h-233l-23 129h-22q-147 -152 -315 -152z" />
    <glyph glyph-name="yacute" unicode="&#xfd;" horiz-adv-x="1030" 
d="M406 1221l159 356h312l-242 -356h-229zM284 -348q-126 0 -204 33v186q70 -18 117 -18q147 0 178 127l8 32l-344 1059h297l117 -436q29 -103 44 -233t17 -201h23l18 151q33 203 55 283l115 436h270l-348 -1124q-49 -159 -143 -227t-220 -68z" />
    <glyph glyph-name="thorn" unicode="&#xfe;" horiz-adv-x="1134" 
d="M565 205q186 0 187 309v70q0 170 -44 229t-128 59t-168 -57v-569q59 -41 153 -41zM131 -336v1809h289v-277q0 -70 -9 -135t-12 -92h21q62 63 122 93t148 30q158 0 257 -111t100 -369v-65q0 -526 -439 -527q-127 0 -188 54h-21q1 -22 11 -78t10 -119v-213h-289z" />
    <glyph glyph-name="ydieresis" unicode="&#xff;" horiz-adv-x="1030" 
d="M600 1239v234h262v-234h-262zM150 1239v234h262v-234h-262zM284 -348q-126 0 -204 33v186q70 -18 117 -18q147 0 178 127l8 32l-344 1059h297l117 -436q29 -103 44 -233t17 -201h23l18 151q33 203 55 283l115 436h270l-348 -1124q-49 -159 -143 -227t-220 -68z" />
    <glyph glyph-name="dotlessi" unicode="&#x131;" horiz-adv-x="563" 
d="M137 0v1071h287v-1071h-287z" />
    <glyph glyph-name="Lslash" unicode="&#x141;" horiz-adv-x="1064" 
d="M162 866v551h299v-436q0 -49 -12 -147l380 153v-209l-383 -153q14 -82 15 -138v-100q0 -68 -8 -108l-7 -48h531v-231h-815v365q0 49 12 151l-162 -65v208l164 66q-14 82 -14 141z" />
    <glyph glyph-name="lslash" unicode="&#x142;" horiz-adv-x="595" 
d="M137 1473h285v-338q0 -35 -14 -164l182 94v-211l-182 -94q14 -72 14 -135v-367q0 -46 14 -66t54 -20t57 8v-170q-74 -23 -164 -22q-246 0 -246 243v244q0 72 10 150l-141 -72v211l144 74q-12 94 -13 139v496z" />
    <glyph glyph-name="OE" unicode="&#x152;" horiz-adv-x="1800" 
d="M776 227h72l-6 68q-4 78 -4 129v571q0 49 4 127l6 70h-105q-169 0 -249 -99t-80 -360v-59q0 -283 96 -370q52 -46 112 -62t154 -15zM1681 0h-927q-328 0 -491 158t-163 499v56q0 362 163 533t480 171h926v-231h-549l6 -45q6 -80 7 -82v-90q0 -4 -7 -84l-6 -45h428v-222
h-428l6 -49q6 -80 7 -86v-116q0 -8 -7 -88l-6 -48h561v-231z" />
    <glyph glyph-name="oe" unicode="&#x153;" horiz-adv-x="1759" 
d="M1243 903q-201 0 -201 -303q104 23 195 23h168q0 280 -162 280zM575 172q94 0 144 71q49 71 49 236v101q0 315 -194 315t-193 -307v-101q0 -175 50 -245t144 -70zM570 -27q-238 -1 -359 135t-121 377v86q0 244 129 382t338 139q252 0 356 -189h19q51 92 127 140t203 49
q207 0 304 -131t97 -363v-127h-621q10 -161 79 -225t227 -64t290 64v-178q-133 -92 -327 -93q-293 0 -385 201h-17q-101 -203 -339 -203z" />
    <glyph glyph-name="Scaron" unicode="&#x160;" horiz-adv-x="1101" 
d="M401 1563l-239 329h248l61 -84q20 -29 51 -96l19 -49h18l19 49q35 74 51 96l61 84h232l-226 -329h-295zM508 -25q-233 0 -387 82v230q170 -70 356 -70q236 0 236 168q0 74 -43 114t-144 79l-106 43q-160 67 -233 155t-73 268t120 292q120 110 364 110q178 0 334 -76v-233
q-174 68 -320 67q-219 0 -219 -153q0 -68 38 -108t130 -73l111 -41q172 -61 256 -148t84 -269q0 -437 -504 -437z" />
    <glyph glyph-name="scaron" unicode="&#x161;" horiz-adv-x="880" 
d="M295 1214l-240 330h248l62 -84q20 -29 51 -96l18 -49h19l18 49q35 74 51 96l62 84h231l-225 -330h-295zM393 -27q-186 0 -301 66v201q131 -58 289 -58t158 113q0 49 -26 75t-95 50l-107 33q-225 68 -225 309q0 160 96 245t282 85t281 -52v-198q-84 45 -260 45
q-143 0 -143 -101q0 -50 26 -72t83 -42l108 -33q135 -41 191 -114t57 -208q0 -344 -414 -344z" />
    <glyph glyph-name="Ydieresis" unicode="&#x178;" horiz-adv-x="1179" 
d="M690 1587v234h262v-234h-262zM240 1587v234h262v-234h-262zM446 0v520l-403 897h315l123 -299q69 -176 125 -420h23q20 98 56 234t56 186l115 299h281l-387 -889v-528h-304z" />
    <glyph glyph-name="Zcaron" unicode="&#x17d;" horiz-adv-x="1155" 
d="M438 1563l-239 329h247l62 -84q20 -29 51 -96l19 -49h18l18 49q35 74 52 96l61 84h231l-225 -329h-295zM735 1184h-596v233h903v-227l-438 -701q-35 -55 -123 -155l-73 -80v-23h628v-231h-936l-2 225l443 703q33 53 121 155l73 80v21z" />
    <glyph glyph-name="zcaron" unicode="&#x17e;" horiz-adv-x="948" 
d="M340 1214l-240 330h248l62 -84q20 -29 51 -96l18 -49h19l18 49q35 74 51 96l62 84h231l-225 -330h-295zM84 0v211l319 451q43 62 95 114t80 72v20h-467v203h757v-199l-325 -450q-84 -118 -185 -199v-20h502v-203h-776z" />
    <glyph glyph-name="florin" unicode="&#x192;" horiz-adv-x="901" 
d="M96 684v203h191q-4 78 4 127l12 82q27 190 125 269t256 79q102 0 168 -29v-190q-34 8 -110 8t-119 -37t-56 -135l-6 -47q-8 -51 -33 -127h248v-203h-282q8 -72 -2 -162l-111 -786h-277l117 794q6 49 37 154h-162z" />
    <glyph glyph-name="circumflex" unicode="&#x2c6;" horiz-adv-x="921" 
d="M90 1214l223 330h297l238 -330h-248l-61 84q-16 23 -52 97l-18 49h-18l-19 -49q-35 -74 -51 -97l-62 -84h-229z" />
    <glyph glyph-name="caron" unicode="&#x2c7;" horiz-adv-x="921" 
d="M311 1214l-239 330h247l62 -84q20 -29 51 -96l19 -49h18l18 49q35 74 52 96l61 84h231l-225 -330h-295z" />
    <glyph glyph-name="breve" unicode="&#x2d8;" horiz-adv-x="921" 
d="M461 1221q-145 0 -236 77q-90 78 -94 207h174q19 -113 155 -113t156 113h172q-4 -129 -93 -207t-234 -77z" />
    <glyph glyph-name="dotaccent" unicode="&#x2d9;" horiz-adv-x="921" 
d="M319 1233v233h281v-233h-281z" />
    <glyph glyph-name="ring" unicode="&#x2da;" horiz-adv-x="921" 
d="M461 1307q49 1 77 33t27 83q0 51 -28 84q-29 33 -76 33t-76 -33t-29 -84t28 -83t77 -33zM460 1202q-103 0 -169 65t-66 157t66 156q66 65 169 65t170 -65q66 -65 66 -157q0 -93 -66 -157t-170 -64z" />
    <glyph glyph-name="ogonek" unicode="&#x2db;" horiz-adv-x="921" 
d="M465 -178q0 -70 100 -72q35 0 94 17v-125q-65 -29 -159 -29q-252 0 -252 172q0 70 52 125t120 90h160q-115 -98 -115 -178z" />
    <glyph glyph-name="tilde" unicode="&#x2dc;" horiz-adv-x="921" 
d="M330 1524q59 0 144 -43t120 -43t52 24t30 76h155q-10 -143 -70 -221t-157 -78q-59 0 -146 41t-118 41q-78 0 -94 -92h-156q8 139 74 217t166 78z" />
    <glyph glyph-name="hungarumlaut" unicode="&#x2dd;" horiz-adv-x="921" 
d="M133 1221l115 356h262l-158 -356h-219zM539 1221l116 356h260l-155 -356h-221z" />
    <glyph glyph-name="endash" unicode="&#x2013;" horiz-adv-x="940" 
d="M115 494v196h710v-196h-710z" />
    <glyph glyph-name="emdash" unicode="&#x2014;" horiz-adv-x="1486" 
d="M115 498v196h1259v-196h-1259z" />
    <glyph glyph-name="quoteleft" unicode="&#x2018;" horiz-adv-x="614" 
d="M147 895q0 311 156 524h189q-54 -202 -58 -524h-287z" />
    <glyph glyph-name="quoteright" unicode="&#x2019;" horiz-adv-x="614" 
d="M469 1419q0 -307 -156 -524h-188q53 213 57 524h287z" />
    <glyph glyph-name="quotesinglbase" unicode="&#x201a;" horiz-adv-x="614" 
d="M469 285q0 -308 -156 -525h-188q53 217 57 525h287z" />
    <glyph glyph-name="quotedblleft" unicode="&#x201c;" horiz-adv-x="960" 
d="M129 895q0 307 156 524h170q-54 -213 -64 -524h-262zM532 895q0 313 152 524h170q-47 -184 -57 -524h-265z" />
    <glyph glyph-name="quotedblright" unicode="&#x201d;" horiz-adv-x="960" 
d="M676 895h-170q57 219 63 524h262q1 -311 -155 -524zM279 895h-173q47 176 58 524h266q1 -313 -151 -524z" />
    <glyph glyph-name="quotedblbase" unicode="&#x201e;" horiz-adv-x="960" 
d="M676 -240h-170q57 223 63 525h262q1 -312 -155 -525zM279 -240h-173q47 178 58 525h266q1 -314 -151 -525z" />
    <glyph glyph-name="dagger" unicode="&#x2020;" horiz-adv-x="1050" 
d="M86 782v234h315l-8 61q-8 47 -8 115v225h281v-225q0 -68 -9 -115l-6 -61h316v-234h-316q9 -46 15 -86t2 -118l-39 -719h-207l-39 719q-3 90 18 204h-315z" />
    <glyph glyph-name="daggerdbl" unicode="&#x2021;" horiz-adv-x="1050" 
d="M385 1235v182h281v-182q0 -57 -11 -115l-8 -63h320v-219h-324q2 -16 12 -68t11 -106v-52q0 -55 -10 -106t-13 -68h324v-219h-320l8 -63q10 -66 11 -115v-182h-281v182q0 68 21 178h-320v219h322l-13 54q-10 55 -10 120v52q0 66 10 120l13 54h-322v219h320
q-21 108 -21 178z" />
    <glyph glyph-name="bullet" unicode="&#x2022;" horiz-adv-x="1662" 
d="M831 -25q-305 0 -513 213q-208 214 -208 522t208 521t513 213t513 -213t208 -521t-207 -522q-209 -213 -514 -213z" />
    <glyph glyph-name="ellipsis" unicode="&#x2026;" horiz-adv-x="1828" 
d="M1370 0v272h303v-272h-303zM156 0v272h305v-272h-305zM762 0v272h305v-272h-305z" />
    <glyph glyph-name="perthousand" unicode="&#x2030;" horiz-adv-x="1513" 
d="M561 272q-1 -92 17 -130t63 -38t60 37t16 131v39q1 96 -15 133t-63 37t-62 -37t-16 -133v-39zM297 942q47 0 62 36t16 130v39q1 94 -15 131t-63 37t-63 -37t-17 -131v-37q1 -94 17 -131t63 -37zM1139 272q1 -94 17 -131t62 -37t62 37t16 131v39q0 94 -17 132t-62 38
t-61 -38t-17 -132v-39zM94 362v203l463 262l514 394v-201l-463 -260zM639 -25q-119 0 -187 78t-69 217v35q0 135 69 218q70 83 188 83t186 -82t67 -213v-32q1 -137 -67 -221t-187 -83zM1219 -25q-119 0 -189 78t-69 217v35q0 135 68 218q69 83 189 83t188 -82t67 -213v-32
q1 -137 -67 -221t-187 -83zM297 811q-119 0 -187 78t-69 217v35q0 137 68 220q67 83 187 83t188 -82t69 -213v-35q-1 -137 -69 -220t-187 -83z" />
    <glyph glyph-name="guilsinglleft" unicode="&#x2039;" horiz-adv-x="661" 
d="M354 119l-256 409v101l256 409h199l-219 -458l219 -461h-199z" />
    <glyph glyph-name="guilsinglright" unicode="&#x203a;" horiz-adv-x="661" 
d="M109 119l219 459l-219 460h198l256 -409v-101l-256 -409h-198z" />
    <glyph glyph-name="fraction" unicode="&#x2044;" horiz-adv-x="1001" 
d="M-6 -63l825 1513h176l-829 -1513h-172z" />
    <glyph glyph-name="Euro" unicode="&#x20ac;" 
d="M238 952q0 92 26 158q62 168 194 251t293 83t293 -58v-243q-127 53 -253 53q-178 0 -238 -129q-9 -18 -29 -60t-26 -55h401v-155h-410q12 -43 13 -74v-25q0 -25 -13 -77h410v-156h-395l45 -100q29 -78 91 -110t183 -32t234 70v-236q-145 -82 -323 -82q-178 1 -303 93
q-126 92 -181 272q-18 49 -14 125h-189v156h168q-12 43 -12 77v23q0 25 10 76h-166l-2 155h193z" />
    <glyph glyph-name="trademark" unicode="&#x2122;" horiz-adv-x="1994" 
d="M315 586v487q0 82 7 121l8 68h-254v155h676v-155h-254l6 -68q6 -117 6 -121v-487h-195zM889 586v831h328l90 -293q38 -115 61 -364h21l16 133q20 154 47 231l96 293h312v-831h-183v456q0 70 4 181l7 92h-23q-10 -35 -45 -177t-37 -145l-121 -407h-180l-121 407
q-35 101 -86 322h-20l4 -92q6 -166 6 -181v-456h-176z" />
    <glyph glyph-name="onethird" unicode="&#x2153;" 
d="M53 96v205l479 301l541 447v-203l-481 -301zM57 690v133h152l-8 37q-6 31 -6 70v315l-25 -14q-25 -14 -80 -21l-51 -8v115l233 115h125v-502q0 -39 -8 -70l-6 -37h147v-133h-473zM1100 -77q0 -93 -75 -151t-215 -59q-140 0 -239 43v135q89 -33 173 -33t114 22t31 72
q0 50 -24 70t-85 19h-100v137h86q115 0 115 84q0 46 -30 64q-29 18 -105 18t-146 -25v136q84 37 210 37t196 -48t70 -130q0 -81 -38 -123q-37 -42 -127 -64v-16q105 -15 147 -55t42 -133z" />
    <glyph glyph-name="twothirds" unicode="&#x2154;" 
d="M53 90v205l479 301l541 446v-202l-481 -301zM49 690v133l160 146q77 71 107 115t30 104q0 100 -131 100q-76 0 -152 -28v137q93 49 223 49t202 -65t71 -161q0 -96 -39 -154t-137 -140q-39 -37 -86 -62l-29 -14v-16h291v-144h-510zM1100 -77q0 -93 -75 -151t-215 -59
q-140 0 -239 43v135q89 -33 173 -33t114 22t31 72q0 50 -24 70t-85 19h-100v137h86q115 0 115 84q0 46 -30 64q-29 18 -105 18t-146 -25v136q84 37 210 37t196 -48t70 -130q0 -81 -38 -123q-37 -42 -127 -64v-16q105 -15 147 -55t42 -133z" />
    <glyph glyph-name="oneeighth" unicode="&#x215b;" 
d="M897 299q0 76 -102 76q-43 0 -70 -22q-27 -21 -27 -59t26 -64t89 -58q49 35 67 61q17 27 17 66zM786 -160q121 0 121 94q0 41 -34 70t-107 62q-100 -45 -100 -127q-1 -99 120 -99zM53 96v203l479 301l541 447v-203l-481 -301zM57 690v133h152l-8 37q-6 31 -6 70v315
l-25 -14q-25 -14 -80 -21l-51 -8v115l233 115h125v-502q0 -39 -8 -70l-6 -37h147v-133h-473zM791 -276q-295 0 -295 206q0 58 39 102t102 62v21q-61 33 -92 71t-31 101q0 94 76 149q76 56 207 56t199 -48t67 -137q0 -109 -131 -166v-20q80 -27 122 -66t42 -129t-81 -146
t-224 -56z" />
    <glyph glyph-name="threeeighths" unicode="&#x215c;" 
d="M897 299q0 76 -102 76q-43 0 -70 -22q-27 -21 -27 -59t26 -64t89 -58q49 35 67 61q17 27 17 66zM786 -160q121 0 121 94q0 41 -34 70t-107 62q-100 -45 -100 -127q-1 -99 120 -99zM53 102v205l479 301l541 447v-203l-481 -301zM584 878q0 -94 -75 -152t-215 -58t-239 43
v135q89 -33 173 -33t114 22q30 21 31 71q0 50 -24 70t-85 19h-100v138h86q117 0 117 84q0 45 -31 63q-30 18 -104 18t-148 -24v135q84 37 211 37t195 -48t69 -130q0 -82 -37 -122q-37 -42 -127 -65v-16q105 -16 147 -55t42 -132zM791 -276q-295 0 -295 206q0 58 39 102
t102 62v21q-61 33 -92 71t-31 101q0 94 76 149q76 56 207 56t199 -48t67 -137q0 -109 -131 -166v-20q80 -27 122 -66t42 -129t-81 -146t-224 -56z" />
    <glyph glyph-name="fiveeighths" unicode="&#x215d;" 
d="M897 299q0 76 -102 76q-43 0 -70 -22q-27 -21 -27 -59t26 -64t89 -58q49 35 67 61q17 27 17 66zM786 -160q121 0 121 94q0 41 -34 70t-107 62q-100 -45 -100 -127q-1 -99 120 -99zM53 117v202l479 302l541 448v-203l-481 -303zM358 918q0 108 -132 108q-62 0 -122 -18
h-20l22 415h420v-141h-290q0 -16 2 -22v-46q-7 -47 -14 -66t-7 -24h21q42 27 120 27t146 -60t68 -169q0 -110 -82 -182q-81 -72 -215 -72t-220 45v129q78 -31 148 -31q156 0 155 107zM791 -276q-295 0 -295 206q0 58 39 102t102 62v21q-61 33 -92 71t-31 101q0 94 76 149
q76 56 207 56t199 -48t67 -137q0 -109 -131 -166v-20q80 -27 122 -66t42 -129t-81 -146t-224 -56z" />
    <glyph glyph-name="seveneighths" unicode="&#x215e;" 
d="M897 299q0 76 -102 76q-43 0 -70 -22q-27 -21 -27 -59t26 -64t89 -58q49 35 67 61q17 27 17 66zM786 -160q121 0 121 94q0 41 -34 70t-107 62q-100 -45 -100 -127q-1 -99 120 -99zM53 137v205l479 301l541 447v-203l-481 -301zM432 1272h-362v151h534v-159l-270 -574
h-197l205 430q18 44 46 82t44 53v17zM791 -276q-295 0 -295 206q0 58 39 102t102 62v21q-61 33 -92 71t-31 101q0 94 76 149q76 56 207 56t199 -48t67 -137q0 -109 -131 -166v-20q80 -27 122 -66t42 -129t-81 -146t-224 -56z" />
    <glyph glyph-name="arrowleft" unicode="&#x2190;" horiz-adv-x="1755" 
d="M532 0l-380 631v153l380 633h418l-270 -471q-39 -68 -113 -158l-61 -69v-21l61 -69q68 -84 113 -158l270 -471h-418zM1227 0l-381 631v153l381 633h418l-271 -471q-39 -68 -112 -158l-62 -69v-21l62 -69q68 -84 112 -158l271 -471h-418z" />
    <glyph glyph-name="arrowright" unicode="&#x2192;" horiz-adv-x="1755" 
d="M111 0l270 471q37 63 113 158l61 69v21l-61 69q-80 100 -113 158l-270 471h417l381 -631v-153l-381 -633h-417zM805 0l270 471q37 63 113 158l61 69v21l-61 69q-80 100 -113 158l-270 471h418l381 -631v-153l-381 -633h-418z" />
    <glyph glyph-name="minus" unicode="&#x2212;" 
d="M131 596v229h864v-229h-864z" />
    <glyph glyph-name="lessequal" unicode="&#x2264;" horiz-adv-x="1755" 
d="M532 0l-380 631v153l380 633h418l-270 -471q-39 -68 -113 -158l-61 -69v-21l61 -69q68 -84 113 -158l270 -471h-418zM1227 0l-381 631v153l381 633h418l-271 -471q-39 -68 -112 -158l-62 -69v-21l62 -69q68 -84 112 -158l271 -471h-418z" />
    <glyph glyph-name="greaterequal" unicode="&#x2265;" horiz-adv-x="1755" 
d="M111 0l270 471q37 63 113 158l61 69v21l-61 69q-80 100 -113 158l-270 471h417l381 -631v-153l-381 -633h-417zM805 0l270 471q37 63 113 158l61 69v21l-61 69q-80 100 -113 158l-270 471h418l381 -631v-153l-381 -633h-418z" />
    <glyph glyph-name="blacksquare" unicode="&#x25a0;" horiz-adv-x="1859" 
d="M231 0v1417h1397v-1417h-1397z" />
    <glyph glyph-name="whitesquare" unicode="&#x25a1;" horiz-adv-x="1859" 
d="M1485 348v721q0 53 4 139l6 76h-1130l4 -76q6 -129 6 -139v-721q0 -10 -6 -139l-4 -76h1130l-6 76q-4 86 -4 139zM231 0v1417h1397v-1417h-1397z" />
    <glyph glyph-name="whitecircle" unicode="&#x25cb;" horiz-adv-x="1662" 
d="M831 100q250 0 412 176t162 434t-162 434q-162 175 -412 175q-249 0 -411 -175t-162 -433q0 -259 162 -435t411 -176zM831 -25q-305 0 -513 213q-208 214 -208 522t208 521t513 213t513 -213t208 -521t-207 -522q-209 -213 -514 -213z" />
    <glyph glyph-name="blackstar" unicode="&#x2605;" horiz-adv-x="1728" 
d="M401 -33l-45 31l211 555l-479 309v60l592 -29l156 573h57l156 -573l591 29v-60l-479 -309l211 -555l-45 -31l-463 367z" />
    <glyph glyph-name="whitestar" unicode="&#x2606;" horiz-adv-x="1728" 
d="M506 821q-72 0 -158 13l-72 12l-8 -17q110 -51 207 -116l184 -129l-71 -209q-38 -102 -62 -150t-34 -75l18 -13l53 56q80 74 117 102l180 137l189 -137q37 -29 116 -102l54 -56l18 13q-10 27 -40 85t-56 140l-72 209l184 129q144 94 207 116l-8 17l-72 -12
q-86 -12 -157 -13h-234l-76 238q-14 45 -25 115t-14 90h-20q-15 -132 -39 -205l-76 -238h-233zM88 922h571l177 544h57l176 -544h571v-60l-446 -319l178 -545l-45 -31l-463 332l-463 -332l-45 31l179 545l-447 319v60z" />
    <glyph glyph-name="quoteleft.titling" unicode="&#xe018;" horiz-adv-x="614" 
d="M147 895q0 311 156 524h189q-54 -202 -58 -524h-287z" />
    <glyph glyph-name="quoteright.titling" unicode="&#xe019;" horiz-adv-x="614" 
d="M469 1419q0 -307 -156 -524h-188q53 213 57 524h287z" />
    <glyph glyph-name="quotedblleft.titling" unicode="&#xe01c;" horiz-adv-x="960" 
d="M129 895q0 307 156 524h170q-54 -213 -64 -524h-262zM532 895q0 313 152 524h170q-47 -184 -57 -524h-265z" />
    <glyph glyph-name="inches" unicode="&#xe022;" horiz-adv-x="890" 
d="M500 905l30 512h265l-115 -512h-180zM113 905l30 512h265l-113 -512h-182z" />
    <glyph glyph-name="feet" unicode="&#xe027;" horiz-adv-x="567" 
d="M139 905l31 512h287l-121 -512h-197z" />
    <glyph glyph-name="zero.titling" unicode="&#xe030;" 
d="M367 621q0 -229 46 -329q47 -100 153 -99q106 0 151 92t45 325v178q0 236 -45 337t-152 101t-153 -98t-45 -329v-178zM1047 612q-1 -322 -133 -480t-356 -159q-224 0 -351 158t-127 473v180q0 326 135 493t355 167t348 -165t129 -486v-181z" />
    <glyph glyph-name="one.titling" unicode="&#xe031;" 
d="M209 0v197h256l-6 67q-6 39 -6 123v752l-45 -19q-53 -18 -125 -28l-97 -13v168l389 180h162v-1040q0 -6 -6 -123l-6 -67h252v-197h-768z" />
    <glyph glyph-name="two.titling" unicode="&#xe032;" 
d="M125 0v197l278 301q139 152 197 256q57 104 57 229t-56 177t-183 52t-266 -53v201q164 84 366 84t318 -111q115 -111 114 -311q0 -297 -309 -606l-27 -25q-93 -93 -142 -125t-54 -39v-10h555v-217h-848z" />
    <glyph glyph-name="three.titling" unicode="&#xe033;" 
d="M991 382q0 -178 -124 -292t-342 -113q-218 0 -390 76v203q154 -53 293 -53t204 51q64 51 64 163q0 113 -53 159t-172 47h-143v221h112q111 0 171 51q61 51 61 147t-60 136t-186 41q-127 0 -240 -41v198q145 68 342 68t308 -87t110 -257q0 -274 -291 -342v-21
q172 -20 254 -99q82 -78 82 -256z" />
    <glyph glyph-name="four.titling" unicode="&#xe034;" 
d="M279 549h356l-6 57q-6 51 -6 121v168q0 88 14 192l16 103h-24l-43 -107q-49 -117 -97 -202l-79 -140q-42 -76 -131 -168v-24zM899 0h-283v164q0 76 7 115l6 63h-555v238l504 837h321v-688q0 -6 -6 -111l-6 -61h176v-215h-176l6 -63l6 -115v-164z" />
    <glyph glyph-name="five.titling" unicode="&#xe035;" 
d="M490 -23q-230 0 -355 95v198q115 -68 281 -67q264 0 264 249t-258 248q-84 0 -195 -30h-39l43 747h682v-217h-491l4 -37q4 -45 4 -76l-8 -92q-2 -49 -14 -108l-13 -49h21q66 49 172 49q182 0 286 -110q104 -109 104 -323t-128 -346q-130 -132 -360 -131z" />
    <glyph glyph-name="six.titling" unicode="&#xe036;" 
d="M590 178q94 0 131 60t37 207q0 145 -43 203t-143 58t-181 -67v-70q0 -391 199 -391zM592 -27q-496 0 -496 658v71q0 572 354 704q100 38 246 38t254 -60v-200q-100 35 -223 35q-166 1 -246 -89t-96 -339h21q122 102 286 102t255 -111q91 -112 91 -324t-112 -348
t-334 -137z" />
    <glyph glyph-name="seven.titling" unicode="&#xe037;" 
d="M754 1200h-629v217h864v-231l-485 -1186h-287l408 969q39 92 129 211v20z" />
    <glyph glyph-name="eight.titling" unicode="&#xe038;" 
d="M564 1253q-87 0 -137 -48t-50 -134q0 -87 50 -143t163 -113q156 102 155 262q0 82 -47 129t-134 47zM554 166q108 0 164 53t56 153t-58 155q-58 54 -210 124q-172 -111 -172 -276q0 -100 55 -155q57 -54 165 -54zM548 -27q-234 1 -348 103q-116 102 -116 286
q0 115 80 205t192 138v20q-119 53 -181 130t-62 208q0 170 123 275q122 106 326 106t319 -97t114 -266q0 -203 -245 -317v-21q145 -59 220 -141t74 -221q0 -184 -131 -296t-365 -112z" />
    <glyph glyph-name="nine.titling" unicode="&#xe039;" 
d="M369 972q0 -146 43 -204t141 -57q98 0 182 69v70q0 389 -194 389q-94 0 -133 -60q-39 -61 -39 -207zM453 -27q-182 0 -297 64v203q113 -39 243 -39q174 0 256 89t86 339h-20q-117 -103 -284 -103t-258 111t-91 323t113 348t336 136q494 0 493 -658v-71q0 -401 -150 -572
q-151 -170 -427 -170z" />
    <glyph glyph-name="A.titling" unicode="&#xe041;" horiz-adv-x="1259" 
d="M541 836l-49 -172q-20 -70 -54 -152h344q-29 74 -51 152l-45 172q-20 76 -43 223l-18 119h-23l-16 -119q-20 -131 -45 -223zM39 0l422 1417h338l418 -1417h-310l-47 160q-20 66 -31 155h-442q-18 -111 -31 -153l-43 -162h-274z" />
    <glyph glyph-name="B.titling" unicode="&#xe042;" horiz-adv-x="1204" 
d="M586 813q94 0 147 45q53 46 53 154t-46 154t-148 46h-152l6 -51q6 -92 7 -94v-109q0 -2 -7 -94l-6 -51h146zM612 207q207 0 207 219q0 115 -51 165t-164 50h-164l6 -55q6 -92 7 -99v-129q0 -6 -7 -98l-6 -53h172zM162 0v1417h481q430 0 430 -358q0 -129 -58 -207
t-204 -102v-21q162 -18 237 -98q74 -80 74 -248q0 -167 -114 -275t-342 -108h-504z" />
    <glyph glyph-name="C.titling" unicode="&#xe043;" horiz-adv-x="1183" 
d="M717 -25q-291 1 -452 181t-161 516v69q0 185 50 325t140 220q176 158 439 158q197 0 338 -58v-243q-153 53 -307 53t-247 -95t-93 -339v-74q0 -252 85 -358t264 -106t308 73v-236q-147 -86 -364 -86z" />
    <glyph glyph-name="D.titling" unicode="&#xe044;" horiz-adv-x="1335" 
d="M594 225q168 -1 248 99t80 360v59q0 283 -97 370q-51 45 -110 61t-154 16h-117l7 -68q6 -117 6 -129v-571q0 -10 -6 -127l-7 -70h150zM162 0v1417h420q328 0 490 -159t163 -498v-55q0 -705 -641 -705h-432z" />
    <glyph glyph-name="E.titling" unicode="&#xe045;" horiz-adv-x="1148" 
d="M162 0v1417h842v-231h-562l7 -45q6 -80 6 -82v-90q0 -4 -6 -84l-7 -45h441v-222h-441l7 -49q6 -80 6 -86v-116q0 -8 -6 -88l-7 -48h572v-231h-852z" />
    <glyph glyph-name="F.titling" unicode="&#xe046;" horiz-adv-x="1069" 
d="M461 0h-299v1417h825v-231h-543l7 -51l6 -93v-116l-6 -92l-7 -52h412v-221h-407l6 -72l6 -102v-387z" />
    <glyph glyph-name="G.titling" unicode="&#xe047;" horiz-adv-x="1343" 
d="M740 -25q-284 0 -460 169q-177 169 -178 540v57q0 183 52 321t146 220q184 162 472 162q217 0 365 -66v-243q-131 63 -331 63t-295 -111t-95 -337v-58q0 -258 80 -378t272 -119q117 0 176 34l-6 35q-6 31 -6 84v72q0 47 6 80l6 37h-233v217h489v-682q-176 -97 -460 -97z
" />
    <glyph glyph-name="H.titling" unicode="&#xe048;" horiz-adv-x="1386" 
d="M162 0v1417h299v-368q0 -76 -8 -131l-7 -72h494l-8 72q-6 41 -6 131v368h299v-1417h-299v410q0 92 6 133l8 71h-494l7 -71q8 -55 8 -133v-410h-299z" />
    <glyph glyph-name="I.titling" unicode="&#xe049;" horiz-adv-x="632" 
d="M166 0v1417h301v-1417h-301z" />
    <glyph glyph-name="J.titling" unicode="&#xe04a;" horiz-adv-x="925" 
d="M384 -25q-178 0 -292 56v215q94 -33 193 -33q188 0 188 188v1016h301v-1040q0 -182 -106 -292t-284 -110z" />
    <glyph glyph-name="K.titling" unicode="&#xe04b;" horiz-adv-x="1239" 
d="M154 0v1417h297v-407q0 -86 -11 -185l-8 -106l8 -109q10 -106 11 -188v-422h-297zM877 0l-422 723l419 694h312l-268 -426q-49 -80 -125 -172l-68 -80l66 -82q39 -49 120 -174l301 -483h-335z" />
    <glyph glyph-name="L.titling" unicode="&#xe04c;" horiz-adv-x="1064" 
d="M162 0v1417h299v-981q0 -80 -8 -135l-7 -70h531v-231h-815z" />
    <glyph glyph-name="M.titling" unicode="&#xe04d;" horiz-adv-x="1665" 
d="M1231 748q0 222 18 481h-22l-37 -209q-53 -285 -78 -377l-166 -643h-287l-153 639q-8 33 -47 242t-60 348h-22l8 -170q8 -129 8 -311v-748h-231v1417h411l160 -653q31 -129 53 -299t29 -242h25q6 73 30 253t52 288l159 653h422v-1417h-272v748z" />
    <glyph glyph-name="N.titling" unicode="&#xe04e;" horiz-adv-x="1376" 
d="M162 0v1417h348l238 -452q96 -178 223 -574h24l-16 178q-14 176 -14 314v534h249v-1417h-309l-272 545q-37 74 -154 356q-33 86 -76 205h-22q8 -113 19 -239t12 -236v-631h-250z" />
    <glyph glyph-name="O.titling" unicode="&#xe04f;" horiz-adv-x="1402" 
d="M414 684q0 -260 67 -368t215 -109q148 1 218 109q69 108 69 343v76q0 254 -65 365q-66 112 -214 112t-220 -110q-71 -110 -70 -342v-76zM1300 676q0 -352 -169 -526t-438 -175q-269 0 -431 170t-162 527v71q0 353 168 527t438 174t433 -170q162 -170 161 -526v-72z" />
    <glyph glyph-name="P.titling" unicode="&#xe050;" horiz-adv-x="1161" 
d="M582 709q112 0 164 55t52 190q0 136 -50 188q-51 52 -158 52h-148l7 -57q6 -98 6 -105v-160q0 -6 -6 -104l-7 -59h140zM629 1417q469 0 469 -461q0 -223 -119 -339t-340 -115h-193l7 -70q8 -51 8 -127v-305h-299v1417h467z" />
    <glyph glyph-name="Q.titling" unicode="&#xe051;" horiz-adv-x="1402" 
d="M698 188q148 0 216 110q69 110 69 353v84q0 254 -65 365q-66 112 -214 112t-220 -110q-71 -110 -70 -342v-86q0 -256 68 -371t216 -115zM100 672v71q0 353 168 527t438 174t433 -170q162 -170 161 -526v-72q0 -498 -389 -578v-22l553 -131l-73 -244l-758 256
q-109 37 -175 67t-143 85q-75 55 -117 125q-98 166 -98 438z" />
    <glyph glyph-name="R.titling" unicode="&#xe052;" horiz-adv-x="1255" 
d="M621 741q205 0 204 238q0 109 -49 164t-158 55h-176l7 -53q6 -92 6 -94v-160q0 -4 -6 -96l-7 -54h179zM162 0v1417h475q483 0 483 -424q0 -139 -61 -219t-187 -125v-16l41 -51q53 -76 88 -150l205 -432h-307l-252 547h-201l7 -68q8 -51 8 -125v-354h-299z" />
    <glyph glyph-name="S.titling" unicode="&#xe053;" horiz-adv-x="1101" 
d="M508 -25q-233 0 -387 82v230q170 -70 356 -70q236 0 236 168q0 74 -43 114t-144 79l-106 43q-160 67 -233 155t-73 268t120 292q120 110 364 110q178 0 334 -76v-233q-174 68 -320 67q-219 0 -219 -153q0 -68 38 -108t130 -73l111 -41q172 -61 256 -148t84 -269
q0 -437 -504 -437z" />
    <glyph glyph-name="T.titling" unicode="&#xe054;" horiz-adv-x="1163" 
d="M430 0v985q0 88 6 129l6 70h-354v233h985v-233h-354l6 -70q6 -123 6 -129v-985h-301z" />
    <glyph glyph-name="U.titling" unicode="&#xe055;" horiz-adv-x="1366" 
d="M1208 467q0 -492 -525 -492t-525 490v952h299v-946q0 -152 62 -212t181 -60q236 0 236 272v946h272v-950z" />
    <glyph glyph-name="V.titling" unicode="&#xe056;" horiz-adv-x="1259" 
d="M453 0l-406 1417h313l199 -764q14 -53 51 -280l21 -156h22l21 154q33 205 53 282l203 764h282l-411 -1417h-348z" />
    <glyph glyph-name="W.titling" unicode="&#xe057;" horiz-adv-x="1734" 
d="M334 0l-273 1417h295l107 -592q48 -237 55 -600h21l20 215q33 281 53 385l113 592h307l117 -592q16 -78 51 -385l19 -215h20q25 424 61 600l107 592h266l-284 -1417h-345l-106 571q-43 201 -57 553h-23l-18 -196q-4 -33 -17 -156t-30 -201l-109 -571h-350z" />
    <glyph glyph-name="X.titling" unicode="&#xe058;" horiz-adv-x="1224" 
d="M57 0l340 725l-319 692h325l113 -243q34 -74 64 -193t38 -162h21q18 74 57 202t49 153l111 243h287l-316 -690l336 -727h-323l-129 268q-60 123 -109 357h-24l-31 -131q-35 -141 -76 -226l-125 -268h-289z" />
    <glyph glyph-name="Y.titling" unicode="&#xe059;" horiz-adv-x="1179" 
d="M446 0v520l-403 897h315l123 -299q69 -176 125 -420h23q20 98 56 234t56 186l115 299h281l-387 -889v-528h-304z" />
    <glyph glyph-name="Z.titling" unicode="&#xe05a;" horiz-adv-x="1155" 
d="M735 1184h-596v233h903v-227l-438 -701q-35 -55 -123 -155l-73 -80v-23h628v-231h-936l-2 225l443 703q33 53 121 155l73 80v21z" />
    <glyph glyph-name="registered.alt" unicode="&#xe0ae;" horiz-adv-x="1296" 
d="M657 903q74 0 74 76t-76 76h-80l5 -23l6 -39v-26l-6 -41l-5 -23h82zM449 639v510h217q94 0 149 -44t55 -122q0 -115 -112 -135v-17l20 -20q20 -20 56 -74l61 -98h-147l-111 180h-62l5 -24q6 -43 6 -45v-111h-137zM647 424q193 0 317 131t123 332q1 201 -123 329t-317 127
q-193 0 -315 -128q-122 -127 -121 -329q-1 -202 121 -332t315 -130zM648 1444q236 0 396 -163t160 -397t-160 -396q-160 -164 -396 -164t-396 164t-160 396q0 234 160 397t396 163z" />
    <glyph glyph-name="publish" unicode="&#xe0af;" horiz-adv-x="1525" 
d="M778 692q94 0 94 106t-98 107h-82l4 -26q6 -49 6 -52v-57q0 -2 -6 -51l-4 -27h86zM702 379h-165v637h247q127 0 192 -54t64 -153q0 -215 -243 -215h-105l4 -31l6 -55v-129zM762 143q231 0 380 156q148 157 148 397t-148 394t-380 154t-379 -154t-147 -395t148 -397
t378 -155zM760 35q-278 1 -464 193q-187 192 -187 467t187 465q186 190 464 192q278 0 468 -192t189 -464q0 -274 -189 -468q-190 -193 -468 -193z" />
    <glyph glyph-name="quotecapdblleft" unicode="&#xe11c;" horiz-adv-x="3026" 
d="M811 -25q-332 -1 -522 179t-191 495q0 201 86 353t239 240q301 175 753 183v-127q-403 -25 -603 -224q-199 -200 -153 -523h20q102 369 500 369q219 0 356 -118q138 -118 138 -339t-172 -355t-451 -133zM2310 -25q-332 -1 -522 179t-191 495q0 201 86 353t239 240
q301 175 753 183v-127q-403 -24 -602 -224t-154 -523h20q102 369 500 369q219 0 357 -118t137 -339q0 -221 -172 -355t-451 -133z" />
    <glyph glyph-name="quotecapdblright" unicode="&#xe11d;" horiz-adv-x="3026" 
d="M588 166q-219 0 -357 118q-137 118 -137 339t172 354t451 133q332 0 522 -179t191 -495q0 -200 -86 -352q-156 -273 -580 -375q-189 -45 -412 -49v127q403 25 602 225t154 523h-21q-102 -369 -499 -369zM2087 166q-219 0 -356 118t-138 339q0 221 172 354t451 133
q332 0 522 -179t191 -495q0 -568 -666 -727q-189 -45 -412 -49v127q403 25 603 224q199 200 153 524h-20q-102 -369 -500 -369z" />
    <glyph glyph-name="bullet.alt" unicode="&#xe122;" horiz-adv-x="952" 
d="M473 344q-143 0 -247 98q-103 98 -103 238t102 235q101 97 247 97t252 -98t105 -234q0 -137 -106 -237q-107 -99 -250 -99z" />
    <glyph glyph-name="ffsmall" unicode="&#xeb00;" horiz-adv-x="1892" 
d="M1100 0v1145h694v-209h-436l6 -39q8 -31 8 -72v-75q0 -41 -8 -72l-6 -39h338v-201h-334l6 -53q8 -41 8 -88v-297h-276zM158 0v1145h694v-209h-436l6 -39q8 -31 8 -72v-75q0 -41 -8 -72l-6 -39h338v-201h-334l6 -53q8 -41 8 -88v-297h-276z" />
    <glyph glyph-name="fismall" unicode="&#xeb01;" horiz-adv-x="1533" 
d="M1100 0v1145h276v-1145h-276zM158 0v1145h694v-209h-436l6 -39q8 -31 8 -72v-75q0 -41 -8 -72l-6 -39h338v-201h-334l6 -53q8 -41 8 -88v-297h-276z" />
    <glyph glyph-name="flsmall" unicode="&#xeb02;" horiz-adv-x="1888" 
d="M1100 0v1145h276v-768q0 -68 -8 -111l-6 -57h426v-209h-688zM158 0v1145h694v-209h-436l6 -39q8 -31 8 -72v-75q0 -41 -8 -72l-6 -39h338v-201h-334l6 -53q8 -41 8 -88v-297h-276z" />
    <glyph glyph-name="ffismall" unicode="&#xeb03;" horiz-adv-x="2476" 
d="M2042 0v1145h276v-1145h-276zM1100 0v1145h694v-209h-436l6 -39q8 -31 8 -72v-75q0 -41 -8 -72l-6 -39h338v-201h-334l6 -53q8 -41 8 -88v-297h-276zM158 0v1145h694v-209h-436l6 -39q8 -31 8 -72v-75q0 -41 -8 -72l-6 -39h338v-201h-334l6 -53q8 -41 8 -88v-297h-276z
" />
    <glyph glyph-name="fflsmall" unicode="&#xeb04;" horiz-adv-x="2830" 
d="M2042 0v1145h276v-768q0 -12 -6 -111l-6 -57h424v-209h-688zM1100 0v1145h694v-209h-436l6 -39q8 -31 8 -72v-75q0 -41 -8 -72l-6 -39h338v-201h-334l6 -53q8 -41 8 -88v-297h-276zM158 0v1145h694v-209h-436l6 -39q8 -31 8 -72v-75q0 -41 -8 -72l-6 -39h338v-201h-334
l6 -53q8 -41 8 -88v-297h-276z" />
    <glyph glyph-name="Asmall" unicode="&#xf761;" horiz-adv-x="1107" 
d="M526 936q-8 -128 -45 -277l-35 -133q-12 -47 -40 -116h258q-33 90 -39 118l-31 131q-37 156 -47 277h-21zM66 0l331 1145h314l327 -1145h-280l-33 119q-6 18 -20 117h-340q-16 -98 -21 -117l-31 -119h-247z" />
    <glyph glyph-name="Bsmall" unicode="&#xf762;" horiz-adv-x="1064" 
d="M516 662q74 0 113 34t39 116q0 83 -35 119t-109 36h-110l6 -41q8 -31 8 -76v-74q0 -43 -8 -74l-6 -40h102zM539 182q152 0 151 168q0 86 -38 125t-120 39h-118l6 -43q8 -33 8 -80v-90q0 -43 -8 -76l-6 -43h125zM158 0v1145h417q356 0 357 -289q0 -104 -50 -166t-171 -86
v-16q135 -14 196 -76t61 -200t-92 -225q-93 -87 -286 -87h-432z" />
    <glyph glyph-name="Csmall" unicode="&#xf763;" horiz-adv-x="1044" 
d="M627 -18q-242 0 -375 145t-133 414v59q0 291 146 429t374 138q166 0 281 -47v-217q-111 39 -238 39t-198 -70t-70 -256v-61q0 -193 66 -271t205 -79q140 0 247 51v-207q-125 -67 -305 -67z" />
    <glyph glyph-name="Dsmall" unicode="&#xf764;" horiz-adv-x="1171" 
d="M530 205q125 0 184 75q58 75 58 273v49q0 215 -72 281q-36 35 -80 46t-112 11h-90l6 -57q8 -43 8 -107v-409q0 -63 -8 -107l-6 -55h112zM158 0v1145h368q266 0 400 -127t135 -406v-43q0 -569 -529 -569h-374z" />
    <glyph glyph-name="Esmall" unicode="&#xf765;" horiz-adv-x="1017" 
d="M158 0v1145h704v-209h-446l6 -35q8 -31 8 -61v-56q0 -33 -8 -63l-6 -35h352v-199h-352l6 -34q8 -31 8 -66v-76q0 -35 -8 -65l-6 -37h461v-209h-719z" />
    <glyph glyph-name="Fsmall" unicode="&#xf766;" horiz-adv-x="950" 
d="M158 0v1145h694v-209h-436l6 -39q8 -31 8 -72v-75q0 -41 -8 -72l-6 -39h338v-201h-334l6 -53q8 -41 8 -88v-297h-276z" />
    <glyph glyph-name="Gsmall" unicode="&#xf767;" horiz-adv-x="1177" 
d="M797 289v51q0 40 7 60t7 24h-182v194h403v-561q-141 -75 -382 -75t-387 134t-146 437v51q0 285 153 424q154 139 398 139q182 0 309 -53v-213q-115 45 -273 45t-230 -82q-73 -82 -73 -256v-47q-1 -205 61 -295t208 -90q96 0 141 25l-8 24q-6 25 -6 64z" />
    <glyph glyph-name="Hsmall" unicode="&#xf768;" horiz-adv-x="1214" 
d="M160 0v1145h276v-283q0 -66 -8 -108l-6 -60h369l-7 60q-6 33 -6 108v283h277v-1145h-277v317q0 76 6 109l7 59h-369l6 -59q8 -43 8 -109v-317h-276z" />
    <glyph glyph-name="Ismall" unicode="&#xf769;" horiz-adv-x="591" 
d="M158 0v1145h276v-1145h-276z" />
    <glyph glyph-name="Jsmall" unicode="&#xf76a;" horiz-adv-x="831" 
d="M682 317q0 -155 -88 -245t-244 -90t-241 43v190q55 -23 151 -22q145 0 146 149v803h276v-828z" />
    <glyph glyph-name="Ksmall" unicode="&#xf76b;" horiz-adv-x="1093" 
d="M152 0v1145h278v-307q0 -31 -14 -160l-13 -94l13 -97q14 -129 14 -163v-324h-278zM737 0l-319 584l323 561h283l-203 -336q-27 -47 -87 -123t-68 -82l51 -67q55 -74 98 -146l229 -391h-307z" />
    <glyph glyph-name="Lsmall" unicode="&#xf76c;" horiz-adv-x="946" 
d="M158 0v1145h276v-768q0 -68 -8 -111l-6 -57h426v-209h-688z" />
    <glyph glyph-name="Msmall" unicode="&#xf76d;" horiz-adv-x="1441" 
d="M1040 569q0 172 21 414h-23l-28 -180q-27 -164 -64 -326l-117 -477h-264l-110 475q-55 234 -84 508h-23l8 -145q10 -139 11 -269v-569h-217v1145h385l106 -471q23 -90 45 -303l16 -168h23l16 168q18 180 50 303l110 471h391v-1145h-252v569z" />
    <glyph glyph-name="Nsmall" unicode="&#xf76e;" horiz-adv-x="1204" 
d="M815 772v373h229v-1145h-282l-189 381q-61 119 -131 321l-57 175h-23l13 -150q14 -197 14 -266v-461h-231v1145h323l152 -301q56 -127 186 -502h23q-27 230 -27 430z" />
    <glyph glyph-name="Osmall" unicode="&#xf76f;" horiz-adv-x="1226" 
d="M616 188q207 0 207 344v66q0 194 -50 276q-49 82 -159 82t-161 -80t-52 -262v-65q0 -199 51 -280t164 -81zM1112 545q0 -289 -142 -426t-365 -137q-222 0 -356 134t-134 425v61q0 289 141 427t362 138q222 0 358 -136t136 -425v-61z" />
    <glyph glyph-name="Psmall" unicode="&#xf770;" horiz-adv-x="1028" 
d="M514 575q84 0 123 41t39 147q0 107 -38 145t-120 38h-102l6 -47q8 -35 8 -84v-108q0 -49 -8 -84l-6 -48h98zM158 0v1145h403q385 0 385 -367q0 -385 -379 -385h-147l6 -59q8 -43 8 -107v-227h-276z" />
    <glyph glyph-name="Qsmall" unicode="&#xf771;" horiz-adv-x="1226" 
d="M401 539q0 -199 51 -282q50 -83 160 -83t161 79q50 79 50 269v76q0 194 -50 276q-49 82 -159 82t-161 -80t-52 -262v-75zM115 602q0 289 141 427t362 138q222 0 358 -136t136 -425v-61q0 -385 -315 -447v-20l356 -60l-59 -213l-525 156q-117 37 -187 70t-138 95
q-131 119 -129 415v61z" />
    <glyph glyph-name="Rsmall" unicode="&#xf772;" horiz-adv-x="1103" 
d="M547 604q153 0 153 172t-153 172h-131l6 -41q8 -31 8 -73v-115q0 -43 -8 -74l-6 -41h131zM158 0v1145h411q399 0 400 -348q0 -111 -47 -167t-150 -98v-20q56 -56 109 -168l163 -344h-278l-199 430h-145l6 -57q6 -98 6 -105v-268h-276z" />
    <glyph glyph-name="Ssmall" unicode="&#xf773;" horiz-adv-x="952" 
d="M438 -18q-207 0 -327 65v207q145 -57 269 -57t167 28q41 29 41 87t-34 90t-110 57l-86 28q-131 43 -194 119q-64 76 -64 228t102 243q102 90 284 90q180 0 307 -59v-209q-143 53 -263 53q-174 0 -174 -112q0 -47 29 -76t102 -55l84 -31q150 -53 220 -121t69 -217
q0 -186 -108 -272t-314 -86z" />
    <glyph glyph-name="Tsmall" unicode="&#xf774;" horiz-adv-x="1030" 
d="M377 0v764q0 59 6 113l6 59h-283v209h814v-209h-283l6 -59q8 -47 8 -113v-764h-274z" />
    <glyph glyph-name="Usmall" unicode="&#xf775;" horiz-adv-x="1193" 
d="M1040 381q0 -399 -442 -399t-442 397v766h274v-762q0 -111 45 -156t133 -45t133 45t45 156v762h254v-764z" />
    <glyph glyph-name="Vsmall" unicode="&#xf776;" horiz-adv-x="1107" 
d="M393 0l-323 1145h286l146 -578q34 -138 55 -374h21q20 231 57 374l147 578h256l-323 -1145h-322z" />
    <glyph glyph-name="Wsmall" unicode="&#xf777;" horiz-adv-x="1503" 
d="M297 0l-211 1145h266l70 -428q37 -265 45 -512h20l17 184q20 211 43 328l80 428h272l78 -428q20 -123 41 -328l16 -184h23q10 318 45 512l72 428h241l-225 -1145h-311l-70 408q-36 209 -45 469h-21q-21 -294 -53 -469l-74 -408h-319z" />
    <glyph glyph-name="Xsmall" unicode="&#xf778;" horiz-adv-x="1079" 
d="M76 0l266 586l-250 559h293l76 -164q25 -68 59 -199l25 -112h22q8 55 25 112q27 117 61 199l70 164h262l-248 -555l264 -590h-296l-84 184q-42 92 -89 312h-22l-29 -113q-31 -117 -63 -199l-78 -184h-264z" />
    <glyph glyph-name="Ysmall" unicode="&#xf779;" horiz-adv-x="1042" 
d="M389 0v416l-323 729h286l90 -219q55 -139 93 -348h22q25 168 84 348l80 219h256l-311 -723v-422h-277z" />
    <glyph glyph-name="Zsmall" unicode="&#xf77a;" horiz-adv-x="1019" 
d="M117 0v207l329 514q37 59 107 129l65 65v21h-471v209h752v-207l-332 -512q-57 -80 -108 -131l-66 -66v-20h502v-209h-778z" />
    <glyph glyph-name="Agravesmall" unicode="&#xf7e0;" horiz-adv-x="1107" 
d="M526 936q-8 -128 -45 -277l-35 -133q-12 -47 -40 -116h258q-33 90 -39 118l-31 131q-37 156 -47 277h-21zM453 1323l-258 356h331l174 -356h-247zM66 0l331 1145h314l327 -1145h-280l-33 119q-6 18 -20 117h-340q-16 -98 -21 -117l-31 -119h-247z" />
    <glyph glyph-name="Aacutesmall" unicode="&#xf7e1;" horiz-adv-x="1107" 
d="M526 936q-8 -128 -45 -277l-35 -133q-12 -47 -40 -116h258q-33 90 -39 118l-31 131q-37 156 -47 277h-21zM422 1323l160 356h311l-242 -356h-229zM66 0l331 1145h314l327 -1145h-280l-33 119q-6 18 -20 117h-340q-16 -98 -21 -117l-31 -119h-247z" />
    <glyph glyph-name="Acircumflexsmall" unicode="&#xf7e2;" horiz-adv-x="1107" 
d="M526 936q-8 -128 -45 -277l-35 -133q-12 -47 -40 -116h258q-33 90 -39 118l-31 131q-37 156 -47 277h-21zM172 1317l223 330h297l238 -330h-248l-61 84q-16 23 -52 96l-18 49h-19l-18 -49q-35 -72 -51 -96l-62 -84h-229zM66 0l331 1145h314l327 -1145h-280l-33 119
q-6 18 -20 117h-340q-16 -98 -21 -117l-31 -119h-247z" />
    <glyph glyph-name="Atildesmall" unicode="&#xf7e3;" horiz-adv-x="1107" 
d="M526 936q-8 -128 -45 -277l-35 -133q-12 -47 -40 -116h258q-33 90 -39 118l-31 131q-37 156 -47 277h-21zM414 1626q59 0 144 -43t120 -43t52 25t30 75h155q-10 -143 -70 -221t-157 -78q-59 0 -146 41t-118 41q-78 0 -94 -92h-156q8 139 74 217t166 78zM66 0l331 1145
h314l327 -1145h-280l-33 119q-6 18 -20 117h-340q-16 -98 -21 -117l-31 -119h-247z" />
    <glyph glyph-name="Adieresissmall" unicode="&#xf7e4;" horiz-adv-x="1107" 
d="M526 936q-8 -128 -45 -277l-35 -133q-12 -47 -40 -116h258q-33 90 -39 118l-31 131q-37 156 -47 277h-21zM641 1341v234h262v-234h-262zM190 1341v234h263v-234h-263zM66 0l331 1145h314l327 -1145h-280l-33 119q-6 18 -20 117h-340q-16 -98 -21 -117l-31 -119h-247z" />
    <glyph glyph-name="Aringsmall" unicode="&#xf7e5;" horiz-adv-x="1107" 
d="M553 1389q49 1 77 33t27 83q0 51 -28 84q-29 33 -76 33t-76 -33t-29 -84t28 -84q28 -32 77 -32zM526 936q-8 -128 -45 -277l-35 -133q-12 -47 -40 -116h258q-33 90 -39 118l-31 131q-37 156 -47 277h-21zM552 1284q-103 0 -169 65t-66 157t66 156t169 64t170 -64
q66 -64 66 -157t-66 -157t-170 -64zM66 0l331 1145h314l327 -1145h-280l-33 119q-6 18 -20 117h-340q-16 -98 -21 -117l-31 -119h-247z" />
    <glyph glyph-name="Ccedillasmall" unicode="&#xf7e7;" horiz-adv-x="1044" 
d="M119 541v59q0 291 146 429t374 138q166 0 281 -47v-217q-111 39 -238 39t-198 -70t-70 -256v-61q0 -193 66 -271t205 -79q140 0 247 51v-207q-98 -57 -264 -65l-103 -351h-266l84 179q47 100 127 180q-186 33 -289 175q-102 142 -102 374z" />
    <glyph glyph-name="Egravesmall" unicode="&#xf7e8;" horiz-adv-x="1017" 
d="M422 1323l-258 356h332l174 -356h-248zM158 0v1145h704v-209h-446l6 -35q8 -31 8 -61v-56q0 -33 -8 -63l-6 -35h352v-199h-352l6 -34q8 -31 8 -66v-76q0 -35 -8 -65l-6 -37h461v-209h-719z" />
    <glyph glyph-name="Eacutesmall" unicode="&#xf7e9;" horiz-adv-x="1017" 
d="M379 1323l160 356h311l-242 -356h-229zM158 0v1145h704v-209h-446l6 -35q8 -31 8 -61v-56q0 -33 -8 -63l-6 -35h352v-199h-352l6 -34q8 -31 8 -66v-76q0 -35 -8 -65l-6 -37h461v-209h-719z" />
    <glyph glyph-name="Ecircumflexsmall" unicode="&#xf7ea;" horiz-adv-x="1017" 
d="M117 1317l223 330h297l237 -330h-247l-62 84q-16 23 -51 96l-18 49h-19l-18 -49q-35 -72 -51 -96l-62 -84h-229zM158 0v1145h704v-209h-446l6 -35q8 -31 8 -61v-56q0 -33 -8 -63l-6 -35h352v-199h-352l6 -34q8 -31 8 -66v-76q0 -35 -8 -65l-6 -37h461v-209h-719z" />
    <glyph glyph-name="Edieresissmall" unicode="&#xf7eb;" horiz-adv-x="1017" 
d="M598 1341v234h262v-234h-262zM147 1341v234h263v-234h-263zM158 0v1145h704v-209h-446l6 -35q8 -31 8 -61v-56q0 -33 -8 -63l-6 -35h352v-199h-352l6 -34q8 -31 8 -66v-76q0 -35 -8 -65l-6 -37h461v-209h-719z" />
    <glyph glyph-name="Igravesmall" unicode="&#xf7ec;" horiz-adv-x="591" 
d="M195 1323l-258 356h331l174 -356h-247zM158 0v1145h276v-1145h-276z" />
    <glyph glyph-name="Iacutesmall" unicode="&#xf7ed;" horiz-adv-x="591" 
d="M164 1323l160 356h311l-242 -356h-229zM158 0v1145h276v-1145h-276z" />
    <glyph glyph-name="Icircumflexsmall" unicode="&#xf7ee;" horiz-adv-x="591" 
d="M-86 1317l223 330h297l238 -330h-248l-62 84q-16 23 -51 96l-18 49h-19l-18 -49q-35 -72 -51 -96l-62 -84h-229zM158 0v1145h276v-1145h-276z" />
    <glyph glyph-name="Idieresissmall" unicode="&#xf7ef;" horiz-adv-x="591" 
d="M389 1341v234h262v-234h-262zM-61 1341v234h262v-234h-262zM158 0v1145h276v-1145h-276z" />
    <glyph glyph-name="Ntildesmall" unicode="&#xf7f1;" horiz-adv-x="1204" 
d="M467 1626q59 0 144 -43t120 -43t52 25t30 75h156q-11 -143 -71 -221t-157 -78q-59 0 -146 41t-118 41q-78 0 -94 -92h-156q8 139 74 217t166 78zM815 772v373h229v-1145h-282l-189 381q-61 119 -131 321l-57 175h-23l13 -150q14 -197 14 -266v-461h-231v1145h323
l152 -301q56 -127 186 -502h23q-27 230 -27 430z" />
    <glyph glyph-name="Ogravesmall" unicode="&#xf7f2;" horiz-adv-x="1226" 
d="M522 1323l-258 356h332l174 -356h-248zM616 188q207 0 207 344v66q0 194 -50 276q-49 82 -159 82t-161 -80t-52 -262v-65q0 -199 51 -280t164 -81zM1112 545q0 -289 -142 -426t-365 -137q-222 0 -356 134t-134 425v61q0 289 141 427t362 138q222 0 358 -136t136 -425v-61
z" />
    <glyph glyph-name="Oacutesmall" unicode="&#xf7f3;" horiz-adv-x="1226" 
d="M494 1323l159 356h312l-242 -356h-229zM616 188q207 0 207 344v66q0 194 -50 276q-49 82 -159 82t-161 -80t-52 -262v-65q0 -199 51 -280t164 -81zM1112 545q0 -289 -142 -426t-365 -137q-222 0 -356 134t-134 425v61q0 289 141 427t362 138q222 0 358 -136t136 -425v-61
z" />
    <glyph glyph-name="Ocircumflexsmall" unicode="&#xf7f4;" horiz-adv-x="1226" 
d="M238 1317l223 330h297l237 -330h-247l-62 84q-16 23 -51 96l-19 49h-18l-18 -49q-35 -72 -52 -96l-61 -84h-229zM616 188q207 0 207 344v66q0 194 -50 276q-49 82 -159 82t-161 -80t-52 -262v-65q0 -199 51 -280t164 -81zM1112 545q0 -289 -142 -426t-365 -137
q-222 0 -356 134t-134 425v61q0 289 141 427t362 138q222 0 358 -136t136 -425v-61z" />
    <glyph glyph-name="Otildesmall" unicode="&#xf7f5;" horiz-adv-x="1226" 
d="M473 1626q59 0 144 -43t120 -43t53 25q17 25 29 75h156q-11 -143 -71 -221t-156 -78q-58 0 -146 41t-119 41q-78 0 -94 -92h-156q8 139 74 217t166 78zM616 188q207 0 207 344v66q0 194 -50 276q-49 82 -159 82t-161 -80t-52 -262v-65q0 -199 51 -280t164 -81zM1112 545
q0 -289 -142 -426t-365 -137q-222 0 -356 134t-134 425v61q0 289 141 427t362 138q222 0 358 -136t136 -425v-61z" />
    <glyph glyph-name="Odieresissmall" unicode="&#xf7f6;" horiz-adv-x="1226" 
d="M256 1341v234h262v-234h-262zM707 1341v234h262v-234h-262zM616 188q207 0 207 344v66q0 194 -50 276q-49 82 -159 82t-161 -80t-52 -262v-65q0 -199 51 -280t164 -81zM1112 545q0 -289 -142 -426t-365 -137q-222 0 -356 134t-134 425v61q0 289 141 427t362 138
q222 0 358 -136t136 -425v-61z" />
    <glyph glyph-name="Ugravesmall" unicode="&#xf7f9;" horiz-adv-x="1193" 
d="M516 1323l-258 356h332l174 -356h-248zM1040 381q0 -399 -442 -399t-442 397v766h274v-762q0 -111 45 -156t133 -45t133 45t45 156v762h254v-764z" />
    <glyph glyph-name="Uacutesmall" unicode="&#xf7fa;" horiz-adv-x="1193" 
d="M471 1323l160 356h311l-242 -356h-229zM1040 381q0 -399 -442 -399t-442 397v766h274v-762q0 -111 45 -156t133 -45t133 45t45 156v762h254v-764z" />
    <glyph glyph-name="Ucircumflexsmall" unicode="&#xf7fb;" horiz-adv-x="1193" 
d="M217 1317l223 330h297l238 -330h-248l-61 84q-16 23 -52 96l-18 49h-18l-19 -49q-35 -72 -51 -96l-62 -84h-229zM1040 381q0 -399 -442 -399t-442 397v766h274v-762q0 -111 45 -156t133 -45t133 45t45 156v762h254v-764z" />
    <glyph glyph-name="Udieresissmall" unicode="&#xf7fc;" horiz-adv-x="1193" 
d="M694 1341v234h262v-234h-262zM244 1341v234h262v-234h-262zM1040 381q0 -399 -442 -399t-442 397v766h274v-762q0 -111 45 -156t133 -45t133 45t45 156v762h254v-764z" />
    <glyph glyph-name="CR" horiz-adv-x="442" 
 />
    <glyph glyph-name="quotebigleft.alt" horiz-adv-x="3026" 
d="M811 -25q-332 -1 -522 179t-191 495q0 201 86 353t239 240q301 175 753 183v-127q-403 -25 -603 -224q-199 -200 -153 -523h20q102 369 500 369q219 0 356 -118q138 -118 138 -339t-172 -355t-451 -133zM2310 -25q-332 -1 -522 179t-191 495q0 201 86 353t239 240
q301 175 753 183v-127q-403 -24 -602 -224t-154 -523h20q102 369 500 369q219 0 357 -118t137 -339q0 -221 -172 -355t-451 -133z" />
    <glyph glyph-name="quotebigright.alt" horiz-adv-x="3026" 
d="M588 166q-219 0 -357 118q-137 118 -137 339t172 354t451 133q332 0 522 -179t191 -495q0 -200 -86 -352q-156 -273 -580 -375q-189 -45 -412 -49v127q403 25 602 225t154 523h-21q-102 -369 -499 -369zM2087 166q-219 0 -356 118t-138 339q0 221 172 354t451 133
q332 0 522 -179t191 -495q0 -568 -666 -727q-189 -45 -412 -49v127q403 25 603 224q199 200 153 524h-20q-102 -369 -500 -369z" />
    </font>
</defs>
</svg>
