<?xml version="1.0" standalone="no"?>
<!DOCTYPE svg PUBLIC "-//W3C//DTD SVG 1.1//EN" "http://www.w3.org/Graphics/SVG/1.1/DTD/svg11.dtd" >
<svg xmlns="http://www.w3.org/2000/svg">
<metadata>
Created by FontPrep 20130207 at Tue Feb 25 17:33:00 2014
 By Tom
Copyright (c) Christian Schwartz &#38; Paul Barnes, 2005. All rights reserved.
</metadata>
<defs>
<font id="29074f4a4cfa8d29a41e850988f0772c" horiz-adv-x='1024' >
  <font-face 
    font-family="DE2DisplayEgyptianLight"
    font-weight="350"
    font-stretch="normal"
    units-per-em="2048"
    panose-1="2 0 5 3 6 0 0 2 0 4"
    ascent="1638"
    descent="-410"
    x-height="1047"
    cap-height="1419"
    bbox="-348 -422 2949.01 1862"
    underline-thickness="40"
    underline-position="-231"
    unicode-range="U+0020-FB04"
  />
<missing-glyph horiz-adv-x="1011" 
 />
    <glyph glyph-name="ff" unicode="ff" horiz-adv-x="1200" 
d="M35 0v55l158 25v874h-156v56l156 37v135q0 166 85 244t220 79q90 0 159 -37v-69q-57 14 -141 14t-138 -55t-54 -191v-120h462v139q0 176 87 258t233 82q104 0 182 -41v-70q-78 18 -145 19q-113 0 -169 -56t-56 -200v-131h268v-93h-268v-874l186 -25v-55h-473v55l155 25
v874h-462v-874l153 -25v-55h-442z" />
    <glyph glyph-name="fi" unicode="fi" horiz-adv-x="1107" 
d="M844 1270q-37 0 -63 26q-25 26 -25 61t26 61t62 26t62 -26t26 -62t-26 -60q-26 -26 -62 -26zM35 0v55l158 25v874h-156v56l156 37v167q0 154 83 233q84 79 220 79q76 0 141 -35v-70q-57 12 -109 13q-100 0 -152 -54t-52 -180v-153h579l17 -11v-956l161 -25v-55h-450v55
l155 25v874h-462v-874l155 -25v-55h-444z" />
    <glyph glyph-name="fl" unicode="fl" horiz-adv-x="1107" 
d="M631 0v55l155 25v1315q-110 39 -224 39t-176 -58t-62 -194v-135h268v-93h-268v-874l155 -25v-55h-444v55l158 25v874h-156v56l156 37v151q0 168 101 248q100 80 240 80t285 -62l80 58l21 -9v-1433l161 -25v-55h-450z" />
    <glyph glyph-name="ffi" unicode="ffi" horiz-adv-x="1701" 
d="M1438 1270q-37 0 -63 26q-25 26 -25 61t26 61t62 26t62 -26t26 -62t-26 -60q-26 -26 -62 -26zM35 0v55l158 25v874h-156v56l156 37v135q0 166 85 244t220 79q90 0 159 -37v-69q-57 14 -141 14t-138 -55t-54 -191v-120h462v167q0 154 84 233t220 79q76 0 141 -35v-70
q-57 12 -109 13q-100 0 -152 -54t-52 -180v-153h579l16 -11v-956l162 -25v-55h-450v55l155 25v874h-462v-874l153 -25v-55h-438v55l153 25v874h-462v-874l153 -25v-55h-442z" />
    <glyph glyph-name="ffl" unicode="ffl" horiz-adv-x="1701" 
d="M35 0v55l158 25v874h-156v56l156 37v135q0 166 85 244t220 79q90 0 159 -37v-69q-57 14 -141 14t-138 -55t-54 -191v-120h462v151q0 168 102 248t240 80q140 0 285 -62l80 58l20 -9v-1433l162 -25v-55h-450v55l155 25v1315q-110 39 -224 39t-176 -58t-62 -194v-135h268
v-93h-268v-874l153 -25v-55h-438v55l153 25v874h-462v-874l153 -25v-55h-442z" />
    <glyph glyph-name=".notdef" horiz-adv-x="1011" 
 />
    <glyph glyph-name=".null" horiz-adv-x="0" 
 />
    <glyph glyph-name="nonmarkingreturn" horiz-adv-x="681" 
 />
    <glyph glyph-name="space" unicode=" " horiz-adv-x="389" 
 />
    <glyph glyph-name="exclam" unicode="!" horiz-adv-x="452" 
d="M229 -23q-39 0 -65 28t-27 66q0 39 27 65q28 26 66 26t66 -27t28 -65t-28 -65q-28 -28 -67 -28zM188 365l-36 1054h151l-35 -1054h-80z" />
    <glyph glyph-name="quotedbl" unicode="&#x22;" horiz-adv-x="626" 
d="M387 1419h150q0 -170 -105 -379h-86q41 123 41 379zM125 1419h151q0 -121 -48 -251q-16 -47 -36 -86q-20 -40 -20 -42h-88q41 98 41 379z" />
    <glyph glyph-name="numbersign" unicode="#" horiz-adv-x="991" 
d="M391 856l-43 -270h256l43 270h-256zM131 856v127h188l70 436h92l-69 -436h256l69 436h92l-69 -436h170v-127h-191l-43 -270h174v-127h-194l-72 -459h-92l72 459h-256l-72 -459h-92l72 459h-166v127h186l43 270h-168z" />
    <glyph glyph-name="dollar" unicode="$" horiz-adv-x="1026" 
d="M514 1354q-135 0 -213 -64t-78 -174q-1 -111 57 -173t193 -116l53 527h-12zM492 68q162 0 244 76t83 199q0 125 -60 189t-214 125l-60 -589h7zM100 1090q0 152 109 252q109 101 317 102h11l12 123h90l-14 -129q111 -10 243 -60l15 -266h-76l-41 188q-66 33 -150 46
l-57 -553l45 -17q172 -66 258 -148t86 -251q0 -170 -118 -285t-351 -115h-2l-22 -217h-90l22 222q-164 14 -297 71l-12 299h76l47 -219q92 -47 194 -59l64 618l-58 23q-147 55 -224 139t-77 236z" />
    <glyph glyph-name="percent" unicode="%" horiz-adv-x="1628" 
d="M252 -82l1001 1542h107l-1004 -1542h-104zM387 756q197 0 197 306t-197 306t-197 -306t197 -306zM1042 360q0 -306 198 -307q198 0 198 306t-195 307q-201 0 -201 -306zM388 682q-140 0 -231 99t-91 277t93 281t229 103t228 -100t92 -279q0 -177 -90 -279t-230 -102z
M1240 -20q-140 0 -230 99t-90 277t92 280t229 103q137 0 229 -100q92 -99 92 -277t-90 -280q-92 -102 -232 -102z" />
    <glyph glyph-name="ampersand" unicode="&#x26;" horiz-adv-x="1359" 
d="M784 1154q0 102 -50 152t-136 50t-146 -62t-59 -184q0 -121 119 -270q145 76 209 144q63 69 63 170zM518 70q197 0 340 149l-422 506q-125 -70 -183 -154q-58 -85 -58 -209q1 -124 87 -208t236 -84zM492 -23q-197 -1 -320 103t-123 258t84 254t256 192q-129 164 -129 319
t102 247t238 92t226 -73q89 -73 89 -202t-88 -212t-266 -175l379 -452q86 143 125 321l-158 29v65h402v-63l-144 -29q-55 -225 -168 -391l140 -166l182 -28v-66h-279l-129 156q-177 -179 -419 -179z" />
    <glyph glyph-name="quotesingle" unicode="'" horiz-adv-x="366" 
d="M125 1419h151q0 -121 -48 -251q-16 -47 -36 -86q-20 -40 -20 -42h-88q41 98 41 379z" />
    <glyph glyph-name="parenleft" unicode="(" horiz-adv-x="616" 
d="M82 611q0 415 295 761q70 82 149 152l49 -49q-145 -158 -247 -370t-103 -458q0 -504 350 -885l-49 -49q-86 76 -150 148t-138 184q-156 238 -156 566z" />
    <glyph glyph-name="parenright" unicode=")" horiz-adv-x="616" 
d="M393 590q0 508 -350 885l51 49q84 -76 149 -148t139 -184q156 -238 155 -574q0 -407 -295 -753q-70 -82 -148 -152l-51 49q145 158 248 370q102 212 102 458z" />
    <glyph glyph-name="asterisk" unicode="*" horiz-adv-x="681" 
d="M291 825l28 242l-200 -141l-53 90l227 104l-230 105l54 90l202 -141l-28 245h115l-29 -245l203 141l51 -90l-228 -105l228 -104l-53 -90l-201 141l29 -242h-115z" />
    <glyph glyph-name="plus" unicode="+" horiz-adv-x="1044" 
d="M121 659v95h352v366h100v-366h351v-95h-351v-366h-100v366h-352z" />
    <glyph glyph-name="comma" unicode="," horiz-adv-x="376" 
d="M123 158h151q-20 -211 -98 -377h-88q35 180 35 377z" />
    <glyph glyph-name="hyphen" unicode="-" horiz-adv-x="573" 
d="M74 518v115h426v-115h-426z" />
    <glyph glyph-name="period" unicode="." horiz-adv-x="376" 
d="M188 -25q-42 0 -70 29t-28 69q0 41 29 69t69 28t70 -28q29 -28 29 -68t-29 -70q-29 -29 -70 -29z" />
    <glyph glyph-name="slash" unicode="/" horiz-adv-x="661" 
d="M14 -246l492 1747h100l-491 -1747h-101z" />
    <glyph glyph-name="zero" unicode="0" horiz-adv-x="1269" 
d="M635 61q406 0 405 641q0 318 -101 486t-302 168q-410 0 -410 -643q1 -315 103 -483t305 -169zM1186 713q0 -358 -150 -548t-403 -190q-255 -1 -403 185t-148 544t151 548q152 190 402 190q251 0 401 -186t150 -543z" />
    <glyph glyph-name="one" unicode="1" horiz-adv-x="731" 
d="M86 0v66l217 24v1198l-242 -53v63l342 140h43v-1348l220 -24v-66h-580z" />
    <glyph glyph-name="two" unicode="2" horiz-adv-x="1030" 
d="M31 0v78l354 352q166 166 236 265q71 99 97 175t25 156q0 311 -329 311q-141 0 -320 -73v75q176 103 374 103t310 -102t113 -284q-1 -180 -107 -332t-329 -353l-271 -248v-4h613l67 198h72l-21 -317h-884z" />
    <glyph glyph-name="three" unicode="3" 
d="M442 -23q-221 0 -391 95v75q174 -69 351 -69t274 82q96 82 96 238t-91 229q-91 74 -284 73h-98v93h86q156 -1 244 71t88 205q0 274 -307 274q-145 0 -301 -55v74q168 80 349 80t290 -91t108 -259q0 -129 -76 -214t-194 -120v-6q145 -23 238 -111q94 -88 94 -267
t-128 -288t-348 -109z" />
    <glyph glyph-name="four" unicode="4" horiz-adv-x="1126" 
d="M158 516h542v719h-6l-536 -715v-4zM508 0v66l192 24v328h-665v88l688 913h117v-903h237v-98h-237v-328l192 -24v-66h-524z" />
    <glyph glyph-name="five" unicode="5" horiz-adv-x="1007" 
d="M414 -23q-193 0 -367 97v73q172 -67 348 -67t278 90q101 90 101 252q0 350 -389 350q-100 0 -246 -33l54 680h698l-12 -123h-600l-35 -450q94 25 192 24q233 0 360 -113q126 -114 126 -323t-133 -333t-375 -124z" />
    <glyph glyph-name="six" unicode="6" horiz-adv-x="1134" 
d="M915 424q-1 334 -353 334q-170 0 -333 -109v-26q0 -562 365 -562q154 1 238 97t83 266zM594 -25q-246 0 -378 173t-132 487q0 213 51 373t140 252q176 182 440 182q166 0 272 -66v-78q-104 47 -254 48q-469 0 -502 -617q184 127 384 127t323 -110t123 -312t-127 -331
q-127 -128 -340 -128z" />
    <glyph glyph-name="seven" unicode="7" horiz-adv-x="985" 
d="M860 1296h-704l-43 -168h-74l16 291h899v-106l-583 -1313h-158l647 1290v6z" />
    <glyph glyph-name="eight" unicode="8" horiz-adv-x="1142" 
d="M264 1106q0 -120 82 -186t270 -127q115 51 183 121q67 70 67 194q0 123 -83 186q-83 64 -217 64t-218 -66t-84 -186zM568 59q175 0 268 75q92 75 92 206q0 72 -25 124q-43 89 -213 163q-61 27 -178 69q-299 -121 -299 -342q0 -137 90 -216t265 -79zM1065 350
q-1 -162 -131 -270t-362 -107t-364 101t-132 274q0 144 101 238t251 145q-145 61 -220 147t-75 228q0 140 120 239q119 99 313 99t314 -88t120 -234t-82 -227q-80 -80 -216 -135q174 -66 268 -157t95 -253z" />
    <glyph glyph-name="nine" unicode="9" horiz-adv-x="1134" 
d="M219 996q0 -170 88 -252q87 -82 263 -82t335 112v23q0 559 -358 559q-154 0 -241 -95t-87 -265zM418 -25q-170 0 -271 68v76q111 -47 252 -47q236 0 362 141t140 479q-181 -131 -383 -131t-323 112q-121 113 -121 315t130 328t341 126q246 0 376 -175t130 -483
q0 -416 -166 -612t-467 -197z" />
    <glyph glyph-name="colon" unicode=":" horiz-adv-x="393" 
d="M199 -25q-41 0 -70 29t-29 69q0 41 29 69t70 28t69 -28t29 -68q-1 -40 -29 -70q-28 -29 -69 -29zM199 602q-41 0 -70 29t-29 69t29 68q29 29 70 29t69 -28t29 -69q-1 -42 -29 -70t-69 -28z" />
    <glyph glyph-name="semicolon" unicode=";" horiz-adv-x="393" 
d="M195 602q-41 0 -70 29t-29 69t29 68q29 29 70 29t69 -28t29 -69q-1 -42 -29 -70t-69 -28zM123 158h151q-20 -211 -98 -377h-88q35 180 35 377z" />
    <glyph glyph-name="less" unicode="&#x3c;" horiz-adv-x="995" 
d="M852 317l-731 342v82l731 344v-108l-614 -277l614 -276v-107z" />
    <glyph glyph-name="equal" unicode="=" horiz-adv-x="1009" 
d="M125 434v92h758v-92h-758zM125 756v94h758v-94h-758z" />
    <glyph glyph-name="greater" unicode="&#x3e;" horiz-adv-x="995" 
d="M141 315v109l615 274l-615 279v106l733 -342v-82z" />
    <glyph glyph-name="question" unicode="?" horiz-adv-x="811" 
d="M324 -23q-39 0 -66 28t-27 66q0 39 27 65t66 26q38 0 66 -27t28 -65t-28 -65q-28 -28 -66 -28zM242 534q0 86 45 142t143 128t137 132t39 156q0 252 -278 254q-128 0 -277 -54v78q154 72 317 72t268 -83t105 -263q0 -123 -56 -201q-55 -77 -165 -149t-148 -115t-39 -107
t25 -162h-75q-41 86 -41 172z" />
    <glyph glyph-name="at" unicode="@" horiz-adv-x="1775" 
d="M801 166q115 0 229 110l105 539q-61 90 -181 90q-154 1 -236 -151t-81 -370q0 -218 164 -218zM895 -305q-389 -1 -598 193t-209 550q0 252 110 467t315 347q206 132 466 132q327 0 523 -190t196 -520q0 -270 -136 -440t-345 -171q-172 0 -191 136h-10
q-123 -123 -247 -123t-197 80t-72 231q0 246 125 423t331 177q104 0 169 -37q24 -12 65 -39l43 58h67l-139 -693q-27 -131 74 -131q162 -1 263 143t101 382q0 301 -162 469q-163 168 -460 168q-357 0 -573 -252q-216 -253 -216 -599t178 -514t529 -167q254 0 463 78v-70
q-201 -88 -463 -88z" />
    <glyph glyph-name="A" unicode="A" horiz-adv-x="1310" 
d="M635 1237l-240 -692h482l-234 692h-8zM-6 0v66l137 28l469 1325h119l463 -1325l137 -28v-66h-459v66l170 26l-125 371h-538l-129 -371l172 -26v-66h-416z" />
    <glyph glyph-name="B" unicode="B" horiz-adv-x="1224" 
d="M379 776h246q309 0 309 271q0 168 -81 226t-251 58h-223v-555zM379 88h274q356 0 357 301q0 162 -90 235t-267 72h-274v-608zM53 0v66l183 26v1235l-181 27v65h559q232 0 352 -83t119 -265q-1 -121 -65 -209t-199 -114v-9q178 -27 259 -115t81 -254t-128 -268t-357 -102
h-623z" />
    <glyph glyph-name="C" unicode="C" horiz-adv-x="1232" 
d="M725 -25q-313 1 -483 181t-170 544q0 559 405 702q119 42 304 42t347 -60l13 -325h-74l-61 239q-119 57 -279 58q-252 0 -378 -163t-126 -466q0 -662 516 -661q150 0 277 61l61 254h76l-12 -332q-176 -74 -416 -74z" />
    <glyph glyph-name="D" unicode="D" horiz-adv-x="1357" 
d="M373 86h237q272 0 399 144q126 144 126 500t-143 484q-75 68 -173 94t-246 25h-200v-1247zM47 0v66l182 26v1235l-180 27v65h541q372 0 534 -172t162 -523q0 -352 -162 -538t-514 -186h-563z" />
    <glyph glyph-name="E" unicode="E" horiz-adv-x="1179" 
d="M47 0v66l182 26v1235l-180 27v65h1022l21 -334h-74l-66 248h-579v-561h332l38 195h70v-473h-70l-38 196h-332v-604h604l80 295h73l-22 -381h-1061z" />
    <glyph glyph-name="F" unicode="F" horiz-adv-x="1157" 
d="M47 0v66l182 26v1235l-180 27v65h1030l21 -344h-74l-65 258h-588v-583h329l37 192h68v-473h-70l-35 199h-329v-576l205 -26v-66h-531z" />
    <glyph glyph-name="G" unicode="G" horiz-adv-x="1351" 
d="M756 -25q-330 -1 -507 179t-177 552t188 556q188 182 490 182q252 0 403 -60l16 -319h-73l-62 231q-119 61 -299 62q-250 0 -381 -165t-131 -466q0 -664 527 -664q129 0 270 48v419l-195 27v64h498v-64l-158 -27v-489q-186 -66 -409 -66z" />
    <glyph glyph-name="H" unicode="H" horiz-adv-x="1466" 
d="M47 0v66l180 26v1235l-180 27v65h510v-65l-186 -27v-557h725v557l-189 27v65h512v-65l-178 -27v-1235l178 -26v-66h-512v66l189 26v596h-725v-596l186 -26v-66h-510z" />
    <glyph glyph-name="I" unicode="I" horiz-adv-x="604" 
d="M47 0v66l184 26v1235l-184 27v65h510v-65l-182 -27v-1235l182 -26v-66h-510z" />
    <glyph glyph-name="J" unicode="J" horiz-adv-x="794" 
d="M594 309q0 -157 -86 -241t-238 -84t-254 49v86q122 -39 226 -39t156 57t53 187v1003l-185 27v65h506v-65l-178 -27v-1018z" />
    <glyph glyph-name="K" unicode="K" horiz-adv-x="1302" 
d="M844 1419h407v-65l-135 -27l-514 -594l514 -641l158 -26v-66h-262l-541 678v37l518 612l-145 27v65zM47 0v66l180 26v1235l-180 27v65h516v-65l-192 -27v-1235l192 -26v-66h-516z" />
    <glyph glyph-name="L" unicode="L" horiz-adv-x="1114" 
d="M47 0v66l180 26v1235l-180 27v65h522v-65l-198 -27v-1241h559l74 317h73l-26 -403h-1004z" />
    <glyph glyph-name="M" unicode="M" horiz-adv-x="1734" 
d="M47 0v63l182 29v1235l-182 27v65h393l416 -1124h6l420 1124h406v-65l-191 -27v-1235l191 -26v-66h-506v66l172 26v1219h-4l-467 -1235h-86l-457 1235h-4v-1219l174 -26v-66h-463z" />
    <glyph glyph-name="N" unicode="N" horiz-adv-x="1439" 
d="M47 0v63l182 29v1235l-182 27v65h377l704 -1167h7v1073l-187 29v65h457v-63l-164 -29v-1327h-119l-780 1296h-6v-1204l192 -29v-63h-481z" />
    <glyph glyph-name="O" unicode="O" horiz-adv-x="1394" 
d="M690 66q227 0 352 168t125 478q0 308 -124 476t-349 168t-348 -169t-123 -473t120 -476t347 -172zM1319 710q-1 -349 -181 -541t-449 -192t-443 195t-174 543t180 537q180 190 449 190t443 -192t175 -540z" />
    <glyph glyph-name="P" unicode="P" horiz-adv-x="1116" 
d="M47 0v66l180 26v1235l-180 27v65h535q268 0 384 -100t116 -298t-122 -297q-120 -99 -319 -99q-102 0 -162 16v68q49 -8 142 -9q311 0 311 316q0 164 -76 238t-256 73h-229v-1235l211 -26v-66h-535z" />
    <glyph glyph-name="Q" unicode="Q" horiz-adv-x="1394" 
d="M690 66q227 0 352 168t125 478q0 308 -124 476t-349 168t-348 -169t-123 -473t120 -476t347 -172zM72 729q0 334 180 523q180 190 449 190t443 -192t175 -516q0 -324 -136 -504t-354 -220v-4l547 -112l-33 -127l-796 225q-209 55 -342 229t-133 508z" />
    <glyph glyph-name="R" unicode="R" horiz-adv-x="1275" 
d="M375 735h252q165 0 241 83q76 84 76 228t-74 212t-256 69h-239v-592zM47 0v66l184 26v1235l-180 27v65h567q475 0 476 -377q0 -285 -308 -356v-8l344 -586l150 -29v-63h-258l-375 653h-272v-561l178 -26v-66h-506z" />
    <glyph glyph-name="S" unicode="S" horiz-adv-x="1060" 
d="M981 372q1 -169 -117 -282t-348 -113t-407 76l-15 301h76l47 -217q139 -69 301 -69t246 76t84 199t-65 189t-224 125l-129 52q-150 57 -228 144t-79 239q0 152 109 251q110 101 310 101t359 -58l12 -280h-73l-41 190q-109 58 -252 58t-221 -62t-78 -172q0 -108 58 -172
t196 -117l129 -51q178 -68 264 -154t86 -254z" />
    <glyph glyph-name="T" unicode="T" horiz-adv-x="1191" 
d="M332 0v66l192 26v1241h-368l-58 -284h-73l20 370h1104l18 -370h-73l-58 284h-368v-1241l192 -26v-66h-528z" />
    <glyph glyph-name="U" unicode="U" horiz-adv-x="1384" 
d="M1208 449q0 -225 -128 -349t-374 -125q-247 0 -379 121t-132 340v891l-177 27v65h506v-65l-186 -27v-870q0 -385 387 -385q379 0 379 385v870l-182 27v65h448v-65l-162 -27v-878z" />
    <glyph glyph-name="V" unicode="V" horiz-adv-x="1300" 
d="M4 1419h455v-65l-172 -27l385 -1139h8l389 1139l-170 27v65h412v-65l-133 -27l-465 -1327h-113l-465 1327l-131 27v65z" />
    <glyph glyph-name="W" unicode="W" horiz-adv-x="1882" 
d="M8 1419h432v-65l-164 -27l285 -1106h6l340 1198h88l340 -1198h6l281 1106l-164 27v65h408v-65l-135 -27l-349 -1327h-116l-326 1169h-6l-336 -1169h-117l-348 1327l-125 27v65z" />
    <glyph glyph-name="X" unicode="X" horiz-adv-x="1374" 
d="M43 0v66l152 26l413 639l-379 596l-155 27v65h479v-65l-160 -27l314 -508l313 508l-166 27v65h432v-65l-153 -27l-371 -588l416 -647l153 -26v-66h-473v66l162 26l-358 561l-355 -561l166 -29v-63h-430z" />
    <glyph glyph-name="Y" unicode="Y" horiz-adv-x="1236" 
d="M373 0v66l182 26v543l-420 692l-127 27v65h434v-65l-153 -27l358 -602h6l344 602l-159 27v65h391v-65l-125 -27l-406 -694v-541l179 -26v-66h-504z" />
    <glyph glyph-name="Z" unicode="Z" horiz-adv-x="1093" 
d="M35 0v72l844 1251v8h-662l-61 -282h-76l16 370h957v-71l-846 -1252v-8h706l66 279h76l-19 -367h-1001z" />
    <glyph glyph-name="bracketleft" unicode="[" horiz-adv-x="608" 
d="M141 -246v1747h396v-63l-265 -27v-1565l265 -26v-66h-396z" />
    <glyph glyph-name="backslash" unicode="\" horiz-adv-x="661" 
d="M549 -246l-492 1747h101l491 -1747h-100z" />
    <glyph glyph-name="bracketright" unicode="]" horiz-adv-x="608" 
d="M72 -246v66l264 26v1565l-264 27v63h393v-1747h-393z" />
    <glyph glyph-name="asciicircum" unicode="^" horiz-adv-x="774" 
d="M51 948l293 471h86l291 -471h-82l-252 346l-252 -346h-84z" />
    <glyph glyph-name="underscore" unicode="_" horiz-adv-x="622" 
d="M-18 -246v82h663v-82h-663z" />
    <glyph glyph-name="grave" unicode="`" 
d="M655 1163l-374 185l65 104l340 -235z" />
    <glyph glyph-name="a" unicode="a" horiz-adv-x="956" 
d="M410 72q152 0 243 102v320l-243 -19q-121 -8 -172 -58t-52 -143q1 -202 224 -202zM365 -23q-143 0 -230 77q-86 77 -86 205t82 194t238 90l284 45v135q0 135 -47 185t-188 50t-289 -36v71q164 72 334 72t247 -74t76 -231v-606q0 -52 26 -72t75 -20t61 4v-56
q-49 -27 -135 -26q-129 0 -145 116h-9q-114 -123 -294 -123z" />
    <glyph glyph-name="b" unicode="b" horiz-adv-x="1087" 
d="M528 63q356 0 357 467q0 232 -87 330q-86 98 -234 98t-296 -84v-737q110 -74 260 -74zM528 -20q-224 0 -391 83v1338l-166 24v60l275 35l18 -9v-567h8q166 121 342 121t293 -117q117 -118 117 -396t-136 -425t-360 -147z" />
    <glyph glyph-name="c" unicode="c" horiz-adv-x="923" 
d="M555 -20q-240 0 -369 143t-129 407q-1 264 147 400q148 135 378 135q150 0 274 -43v-250h-80l-28 180q-68 27 -183 27q-170 0 -269 -112t-99 -335q0 -455 393 -454q166 0 289 63v-73q-134 -88 -324 -88z" />
    <glyph glyph-name="d" unicode="d" horiz-adv-x="1146" 
d="M541 84q131 0 278 92v725q-117 78 -256 78q-360 0 -360 -459q0 -436 338 -436zM578 1065q109 0 241 -47v383l-180 24v60l295 35l16 -9v-1413l160 -24v-56l-266 -34l-17 10v112h-10q-131 -126 -307 -126t-303 109q-66 57 -104 163t-37 250q0 281 137 422t375 141z" />
    <glyph glyph-name="e" unicode="e" horiz-adv-x="991" 
d="M510 981q-141 1 -222 -93t-91 -270l589 13q-2 350 -276 350zM553 -20q-258 0 -377 148t-119 398t131 394t334 145q203 0 307 -136t105 -388h-739q4 -463 383 -463q162 0 313 63v-69q-156 -92 -338 -92z" />
    <glyph glyph-name="f" unicode="f" horiz-adv-x="606" 
d="M35 0v55l158 25v874h-156v56l156 37v139q0 176 87 258t232 82q104 0 182 -41v-70q-78 18 -145 19q-113 0 -169 -56t-56 -200v-131h268v-93h-268v-874l186 -25v-55h-475z" />
    <glyph glyph-name="g" unicode="g" horiz-adv-x="1001" 
d="M481 465q117 -1 188 67t71 193t-72 191q-70 66 -187 67q-117 0 -185 -68q-68 -69 -67 -193q-1 -124 67 -190t185 -67zM455 -328q199 0 296 73t97 168t-51 132t-164 37h-322q-75 -33 -119 -89t-45 -126q1 -195 308 -195zM466 -416q-232 0 -340 76t-108 182q0 158 211 252
v8q-117 36 -117 140t121 209q-137 90 -137 258t109 261t278 93q100 0 176 -29l306 29v-102l-207 8q114 -88 114 -242t-110 -248t-281 -94q-109 0 -192 37q-68 -63 -68 -133q0 -35 27 -60t76 -24h329q317 0 318 -250q-1 -159 -137 -265t-368 -106z" />
    <glyph glyph-name="h" unicode="h" horiz-adv-x="1169" 
d="M29 0v55l159 25v1325l-165 25v59l276 35l16 -8v-568h9q203 117 362 117q158 0 232 -66t73 -211v-708l160 -25v-55h-451v55l160 25v672q0 110 -55 158t-181 48t-305 -79v-799l160 -25v-55h-450z" />
    <glyph glyph-name="i" unicode="i" horiz-adv-x="512" 
d="M248 1270q-37 0 -63 26q-25 26 -25 61t26 61t63 26q39 0 63 -26t24 -62t-26 -60q-26 -26 -62 -26zM31 0v55l159 25v858l-170 23v61l287 35l17 -8v-969l161 -25v-55h-454z" />
    <glyph glyph-name="j" unicode="j" horiz-adv-x="493" 
d="M258 1270q-36 0 -62 26t-26 61t26 61t64 26t62 -26t24 -62t-25 -61q-26 -25 -63 -25zM57 -401q-61 0 -135 26v66q61 -8 96 -8q182 0 183 204v1051l-170 23v61l286 35l17 -8v-1176q0 -133 -73 -203t-204 -71z" />
    <glyph glyph-name="k" unicode="k" horiz-adv-x="1044" 
d="M625 1047h376v-60l-137 -22l-346 -383l383 -502l143 -25v-55h-239l-406 530v25l353 410l-127 22v60zM29 0v55l159 23v1327l-165 22v62l280 35l16 -11v-1435l166 -23v-55h-456z" />
    <glyph glyph-name="l" unicode="l" horiz-adv-x="512" 
d="M29 0v55l161 25v1325l-176 22v62l293 35l17 -11v-1433l161 -25v-55h-456z" />
    <glyph glyph-name="m" unicode="m" horiz-adv-x="1785" 
d="M27 0v55l159 25v858l-159 23v61l268 35l16 -8v-99h8q197 115 372 115t241 -125h8q205 125 381 125q279 0 278 -281v-704l162 -25v-55h-452v55l159 25v670q0 112 -54 160t-174 48t-290 -77q8 -45 8 -97v-704l160 -25v-55h-450v55l159 25v668q0 114 -52 162t-170 48
t-288 -77v-801l160 -25v-55h-450z" />
    <glyph glyph-name="n" unicode="n" horiz-adv-x="1171" 
d="M27 0v55l159 25v858l-159 23v61l268 35l16 -8v-103h8q201 119 363 119t234 -66q73 -66 73 -211v-708l160 -25v-55h-451v55l160 25v672q0 110 -55 158t-181 48t-305 -79v-799l160 -25v-55h-450z" />
    <glyph glyph-name="o" unicode="o" horiz-adv-x="1085" 
d="M544 63q148 0 248 112q99 112 99 342t-101 346q-100 116 -248 116t-246 -112t-99 -342q0 -230 100 -346q99 -116 247 -116zM1030 526q0 -248 -141 -398t-348 -151t-345 145t-139 394t141 398t349 151q207 0 345 -145q138 -146 138 -394z" />
    <glyph glyph-name="p" unicode="p" horiz-adv-x="1134" 
d="M580 63q352 0 352 467q0 232 -86 330t-232 98t-299 -84v-743q120 -68 265 -68zM27 -403v55l157 20v1266l-161 23v61l270 35l14 -8v-107h10q162 123 335 123t295 -109t122 -398q0 -288 -135 -433t-371 -145q-137 0 -248 34v-338l179 -24v-55h-467z" />
    <glyph glyph-name="q" unicode="q" horiz-adv-x="1107" 
d="M203 518q0 -234 86 -334q87 -100 237 -100t293 90v735q-115 70 -262 70q-354 0 -354 -461zM641 -403v55l180 22v426h-10q-162 -120 -325 -120t-285 106q-63 56 -99 160t-36 246q0 281 136 426t355 145t395 -68v-1323l158 -20v-55h-469z" />
    <glyph glyph-name="r" unicode="r" horiz-adv-x="702" 
d="M27 0v55l159 25v858l-159 23v61l268 35l16 -8v-138h8q129 150 291 150q39 0 60 -8v-117q-33 6 -76 6q-154 0 -277 -104v-758l175 -25v-55h-465z" />
    <glyph glyph-name="s" unicode="s" horiz-adv-x="849" 
d="M414 -23q-171 0 -334 58l-17 256h76l41 -176q102 -53 226 -53t188 48q66 50 66 138t-46 131q-45 43 -161 78l-125 39q-250 74 -250 280q0 125 93 206t262 81t290 -43l4 -240h-72l-39 156q-72 43 -186 43q-233 0 -233 -172q0 -76 45 -120t159 -79l125 -37
q135 -43 197 -108q61 -65 61 -191t-99 -211q-100 -84 -271 -84z" />
    <glyph glyph-name="t" unicode="t" horiz-adv-x="661" 
d="M420 -16q-114 0 -177 55q-62 55 -63 186v729h-153v56l161 37l25 247h98v-247h287v-93h-287v-702q0 -96 38 -136t119 -40t153 20v-59q-87 -53 -201 -53z" />
    <glyph glyph-name="u" unicode="u" horiz-adv-x="1165" 
d="M469 -18q-295 0 -295 297v669l-160 23v61l275 25l16 -10v-740q0 -117 50 -170t183 -53t302 82v782l-156 23v61l270 25l17 -10v-949l159 -24v-56l-266 -34l-16 10v112h-10q-168 -124 -369 -124z" />
    <glyph glyph-name="v" unicode="v" horiz-adv-x="1077" 
d="M2 1047h395v-60l-139 -18l301 -815h8l301 815l-141 18v60h350v-60l-114 -22l-369 -965h-107l-370 965l-115 22v60z" />
    <glyph glyph-name="w" unicode="w" horiz-adv-x="1564" 
d="M2 1047h385v-60l-139 -22l229 -777h6l279 859h88l276 -859h7l225 777l-137 22v60h350v-60l-115 -22l-293 -965h-100l-268 846h-4l-283 -846h-100l-291 965l-115 22v60z" />
    <glyph glyph-name="x" unicode="x" horiz-adv-x="1056" 
d="M20 0v55l121 23l308 444l-304 443l-118 22v60h401v-60l-133 -20l250 -369h4l246 369l-140 20v60h357v-60l-115 -22l-299 -422l313 -465l121 -23v-55h-405v55l139 19l-260 387h-4l-260 -387l141 -19v-55h-363z" />
    <glyph glyph-name="y" unicode="y" horiz-adv-x="1071" 
d="M264 -403q-92 0 -153 30v80q70 -16 104 -16q86 0 134 41t85 135l66 164l-383 934l-115 22v60h406v-60l-148 -20l305 -772h6l281 770l-143 22v60h364v-60l-117 -22l-432 -1131q-45 -121 -106 -179q-62 -58 -154 -58z" />
    <glyph glyph-name="z" unicode="z" horiz-adv-x="940" 
d="M57 0v74l656 887v8h-502l-45 -217h-72l12 295h760v-74l-653 -889v-6h520l55 239h74l-20 -317h-785z" />
    <glyph glyph-name="braceleft" unicode="{" horiz-adv-x="727" 
d="M250 4q0 62 31 210t31 208t-47 100q-46 40 -199 56v100q154 18 200 57t45 99t-31 208q-30 150 -30 209q0 117 90 179t315 71v-65q-160 -20 -214 -54t-54 -122q0 -48 27 -188q26 -140 26 -202t-12 -98q-12 -37 -72 -77t-176 -62v-10q115 -23 175 -63q61 -40 73 -77t12 -98
t-26 -201t-27 -188q0 -88 54 -122t214 -54v-66q-225 8 -315 70t-90 180z" />
    <glyph glyph-name="bar" unicode="|" horiz-adv-x="419" 
d="M164 -246v1747h92v-1747h-92z" />
    <glyph glyph-name="braceright" unicode="}" horiz-adv-x="727" 
d="M338 -4q0 49 -26 188q-37 199 -18 277t109 119q55 25 144 43v10q-177 36 -222 101q-24 34 -31 62t-7 82q-1 54 25 192q26 140 26 190q0 88 -54 122t-212 54v65q225 -8 314 -70t89 -180q0 -59 -31 -209q-30 -150 -30 -209t46 -99t202 -56v-100q-156 -18 -202 -58t-46 -98
q0 -60 30 -208t31 -210q0 -118 -89 -180t-314 -70v66q158 20 212 54t54 122z" />
    <glyph glyph-name="asciitilde" unicode="~" horiz-adv-x="778" 
d="M735 711q-75 -191 -207 -191q-64 0 -149 45q-86 45 -119 45q-82 1 -143 -112l-68 30q77 193 207 193q64 0 152 -45q86 -45 118 -45q82 0 144 110z" />
    <glyph glyph-name="nbspace" unicode="&#xa0;" horiz-adv-x="389" 
 />
    <glyph glyph-name="exclamdown" unicode="&#xa1;" horiz-adv-x="452" 
d="M231 1012q-39 0 -67 26t-27 65q0 37 28 65q29 28 67 28t65 -28t27 -66t-27 -64t-66 -26zM156 -246l37 1055h79l35 -1055h-151z" />
    <glyph glyph-name="cent" unicode="&#xa2;" horiz-adv-x="923" 
d="M195 532q0 -362 249 -436l99 883q-162 -8 -255 -121t-93 -326zM856 772h-80l-28 182q-47 16 -117 23l-101 -897q18 -2 60 -2q168 0 291 63v-71q-135 -90 -326 -90q-25 0 -35 2l-24 -226h-90l26 236q-182 33 -278 170t-97 354q1 266 139 404t355 145l16 131h88l-16 -133
q111 -6 217 -43v-248z" />
    <glyph glyph-name="sterling" unicode="&#xa3;" horiz-adv-x="1054" 
d="M115 664v92h147v237q0 225 125 337t300 112t290 -78v-78q-119 49 -252 49q-315 0 -324 -346l-6 -233h398v-92h-400l-4 -175q-2 -135 -39 -216t-108 -146v-4h747l-14 -123h-905v76q100 59 146 146t46 233v209h-147z" />
    <glyph glyph-name="currency" unicode="&#xa4;" horiz-adv-x="1226" 
d="M47 778v82h160q65 582 617 582q134 0 290 -53l10 -306h-67l-62 228q-90 45 -213 45q-184 0 -298 -124t-138 -372h483v-82h-489v-55q0 -76 2 -111h487v-82h-479q28 -244 140 -349t294 -105t351 76v-74q-147 -100 -355 -101q-508 0 -573 553h-160v82h154l-2 86q0 53 2 80
h-154z" />
    <glyph glyph-name="yen" unicode="&#xa5;" horiz-adv-x="1171" 
d="M176 659v82h320l-365 586l-119 27v65h426v-65l-153 -27l344 -563h6l323 563l-159 27v65h375v-65l-111 -27l-348 -586h323v-82h-360v-165h360v-82h-360v-320l182 -26v-66h-506v66l183 26v320h-361v82h361v165h-361z" />
    <glyph glyph-name="brokenbar" unicode="&#xa6;" horiz-adv-x="423" 
d="M164 760v741h94v-741h-94zM164 -246v817h94v-817h-94z" />
    <glyph glyph-name="section" unicode="&#xa7;" horiz-adv-x="991" 
d="M811 561q0 84 -56 130q-57 46 -188 95l-161 60q-96 -16 -160 -70t-64 -137q0 -82 58 -131t182 -96l156 -60q102 16 168 70t65 139zM858 41q0 -133 -100 -219t-270 -86q-169 0 -332 59l-17 250h74l47 -172q111 -53 222 -53t182 50q70 50 70 136t-50 139q-49 53 -156 95
l-178 67q-145 55 -220 126t-75 183q0 201 254 277q-141 88 -141 254q0 133 97 214t253 81t291 -45v-230h-70l-34 152q-77 39 -183 39t-171 -48t-65 -133t42 -133q41 -48 143 -88l170 -65q149 -57 223 -124t74 -179q0 -211 -252 -285q172 -100 172 -262z" />
    <glyph glyph-name="dieresis" unicode="&#xa8;" 
d="M351 1184q-35 0 -61 26t-26 60q0 36 26 60t62 24t60 -25t24 -59t-24 -61q-25 -25 -61 -25zM575 1270q0 36 26 60t62 24q37 0 61 -25t24 -59t-24 -60t-61 -26q-36 0 -62 26t-26 60z" />
    <glyph glyph-name="copyright" unicode="&#xa9;" horiz-adv-x="1609" 
d="M823 322q-170 0 -271 97t-101 289t108 290q109 99 277 100q106 0 217 -31l10 -193h-57l-41 132q-53 27 -138 26q-121 0 -184 -82t-63 -235q0 -328 251 -328q90 0 136 23l43 151h61l-14 -201q-121 -38 -234 -38zM803 41q279 1 461 193t182 472t-182 472t-461 192
t-459 -192t-180 -472t180 -472t459 -193zM1532 705q0 -303 -212 -517t-518 -215q-306 0 -514 213q-208 212 -208 518t208 518t514 212t518 -213t212 -516z" />
    <glyph glyph-name="guillemotleft" unicode="&#xab;" horiz-adv-x="788" 
d="M301 121l-215 371v51l215 370h92l-184 -395l184 -397h-92zM608 121l-215 371v51l215 370h90l-182 -395l182 -397h-90z" />
    <glyph glyph-name="registered" unicode="&#xae;" horiz-adv-x="1609" 
d="M694 731h131q152 0 152 143q0 76 -39 109t-125 33h-119v-285zM485 332v53l93 16v615l-91 14v53h330q131 0 204 -51t73 -151q0 -160 -166 -193v-8l172 -279l90 -16v-53h-176l-199 332h-121v-263l92 -16v-53h-301zM803 41q279 1 461 193t182 472t-182 472t-461 192
t-459 -192t-180 -472t180 -472t459 -193zM1532 705q0 -303 -212 -517t-518 -215q-306 0 -514 213q-208 212 -208 518t208 518t514 212t518 -213t212 -516z" />
    <glyph glyph-name="macron" unicode="&#xaf;" 
d="M264 1278v92h471v-92h-471z" />
    <glyph glyph-name="degree" unicode="&#xb0;" horiz-adv-x="657" 
d="M332 971q84 0 135 59q51 60 51 144t-51 142t-135 58t-135 -58t-51 -142t50 -144q52 -60 136 -59zM332 903q-117 0 -195 79t-78 191q0 113 78 191t195 78q116 0 194 -79t78 -191t-78 -190q-78 -79 -194 -79z" />
    <glyph glyph-name="twosuperior" unicode="&#xb2;" horiz-adv-x="645" 
d="M29 588v65l215 209q98 94 147 168t49 152q0 172 -186 172q-76 0 -193 -45v63q115 68 238 68t193 -62t70 -168t-64 -195q-63 -89 -191 -198l-160 -135v-2h342l41 111h60l-15 -203h-546z" />
    <glyph glyph-name="threesuperior" unicode="&#xb3;" horiz-adv-x="649" 
d="M250 655q212 0 211 173q0 85 -49 124t-150 39h-72v72h64q180 0 180 148t-176 149q-98 0 -180 -31v60q106 51 220 51t182 -54t69 -153q0 -152 -158 -197v-4q191 -31 191 -223q0 -103 -79 -169t-217 -65q-138 0 -241 58v59q103 -37 205 -37z" />
    <glyph glyph-name="acute" unicode="&#xb4;" 
d="M344 1163l-31 54l340 235l66 -104z" />
    <glyph glyph-name="paragraph" unicode="&#xb6;" horiz-adv-x="1134" 
d="M625 -246v961q-66 -10 -119 -10q-178 0 -292 92t-114 268t112 265t361 89h557v-65l-159 -27v-1573h-97v1581h-153v-1581h-96z" />
    <glyph glyph-name="periodcentered" unicode="&#xb7;" horiz-adv-x="372" 
d="M188 555q-42 0 -70 28q-28 29 -28 71t29 71t69 29t69 -29q28 -29 28 -72t-28 -71t-69 -27z" />
    <glyph glyph-name="cedilla" unicode="&#xb8;" 
d="M643 -252q0 42 -40 58q-40 17 -134 18v176h74v-100q217 -6 217 -142q0 -157 -336 -180v62q123 16 171 41t48 67z" />
    <glyph glyph-name="onesuperior" unicode="&#xb9;" horiz-adv-x="522" 
d="M82 588v57l135 17v655l-149 -29v55l223 93h43v-774l131 -17v-57h-383z" />
    <glyph glyph-name="guillemotright" unicode="&#xbb;" horiz-adv-x="788" 
d="M90 121l184 395l-184 397h92l215 -370v-51l-215 -371h-92zM397 121l183 395l-183 397h92l213 -370v-51l-213 -371h-92z" />
    <glyph glyph-name="onequarter" unicode="&#xbc;" horiz-adv-x="1581" 
d="M1018 317h297v381h-4l-293 -379v-2zM82 588v57l135 17v655l-149 -29v55l223 93h43v-774l131 -17v-57h-383zM219 -82l1002 1542h106l-1001 -1542h-107zM1192 0v55l123 17v172h-391v65l407 527h94v-519h136v-73h-136v-172l119 -17v-55h-352z" />
    <glyph glyph-name="onehalf" unicode="&#xbd;" horiz-adv-x="1624" 
d="M82 588v57l135 17v655l-149 -29v55l223 93h43v-774l131 -17v-57h-383zM209 -82l1001 1542h109l-1002 -1542h-108zM1012 0v63l217 211q100 96 148 169t48 151q0 170 -188 170q-86 0 -193 -45v65q113 66 237 66t194 -62q69 -62 69 -168q0 -104 -63 -193t-191 -198
l-160 -137v-2h345l38 111h60l-14 -201h-547z" />
    <glyph glyph-name="threequarters" unicode="&#xbe;" horiz-adv-x="1662" 
d="M1098 317h299v381h-6l-293 -379v-2zM250 655q212 0 211 173q0 85 -49 124t-150 39h-72v72h64q180 0 180 148t-176 149q-98 0 -180 -31v60q106 51 220 51t182 -54t69 -153q0 -152 -158 -197v-4q191 -31 191 -223q0 -103 -79 -169t-217 -65q-138 0 -241 58v59
q103 -37 205 -37zM311 -82l1002 1542h106l-1001 -1542h-107zM1274 0v55l123 17v172h-393v65l409 527h94v-519h133v-73h-133v-172l117 -17v-55h-350z" />
    <glyph glyph-name="questiondown" unicode="&#xbf;" horiz-adv-x="811" 
d="M489 1012q-39 0 -67 26t-27 65q0 37 28 65q29 28 67 28t65 -28t27 -66t-27 -64t-66 -26zM443 -268q-163 0 -268 82t-105 264q0 127 56 202t166 147q110 71 149 115q38 44 38 112t-24 157h75q39 -90 39 -174t-44 -137q-44 -54 -143 -124t-140 -135t-41 -159
q0 -254 282 -254q135 0 277 51v-76q-154 -71 -317 -71z" />
    <glyph glyph-name="Agrave" unicode="&#xc0;" horiz-adv-x="1310" 
d="M811 1526l-375 184l66 105l340 -236zM635 1237l-240 -692h482l-234 692h-8zM-6 0v66l137 28l469 1325h119l463 -1325l137 -28v-66h-459v66l170 26l-125 371h-538l-129 -371l172 -26v-66h-416z" />
    <glyph glyph-name="Aacute" unicode="&#xc1;" horiz-adv-x="1310" 
d="M500 1526l-31 53l340 236l65 -105zM635 1237l-240 -692h482l-234 692h-8zM-6 0v66l137 28l469 1325h119l463 -1325l137 -28v-66h-459v66l170 26l-125 371h-538l-129 -371l172 -26v-66h-416z" />
    <glyph glyph-name="Acircumflex" unicode="&#xc2;" horiz-adv-x="1310" 
d="M428 1526l-33 43l228 233h69l228 -233l-33 -43l-230 164zM635 1237l-240 -692h482l-234 692h-8zM-6 0v66l137 28l469 1325h119l463 -1325l137 -28v-66h-459v66l170 26l-125 371h-538l-129 -371l172 -26v-66h-416z" />
    <glyph glyph-name="Atilde" unicode="&#xc3;" horiz-adv-x="1310" 
d="M766 1694q61 0 108 84l62 -27q-63 -162 -176 -162q-43 0 -117 35t-100 35q-60 0 -109 -86l-61 29q63 162 176 161q43 -1 117 -35t100 -34zM635 1237l-240 -692h482l-234 692h-8zM-6 0v66l137 28l469 1325h119l463 -1325l137 -28v-66h-459v66l170 26l-125 371h-538
l-129 -371l172 -26v-66h-416z" />
    <glyph glyph-name="Adieresis" unicode="&#xc4;" horiz-adv-x="1310" 
d="M517 1546q-35 0 -61 26t-26 60t26 60q26 24 62 24t60 -24t24 -60q0 -34 -24 -60t-61 -26zM828 1546q-36 0 -62 26t-25 60q0 34 26 60q25 24 61 24t61 -24t25 -60q0 -34 -26 -60q-24 -26 -60 -26zM635 1237l-240 -692h482l-234 692h-8zM-6 0v66l137 28l469 1325h119
l463 -1325l137 -28v-66h-459v66l170 26l-125 371h-538l-129 -371l172 -26v-66h-416z" />
    <glyph glyph-name="Aring" unicode="&#xc5;" horiz-adv-x="1310" 
d="M659 1585q47 0 76 30t29 77q0 48 -29 78t-76 30t-75 -31t-29 -77q1 -46 29 -77q28 -30 75 -30zM659 1522q-75 0 -125 50t-50 121t50 119t126 50q76 0 125 -50q51 -50 51 -120t-50 -120t-127 -50zM635 1237l-240 -692h482l-234 692h-8zM-6 0v66l137 28l469 1325h119
l463 -1325l137 -28v-66h-459v66l170 26l-125 371h-538l-129 -371l172 -26v-66h-416z" />
    <glyph glyph-name="AE" unicode="&#xc6;" horiz-adv-x="1873" 
d="M946 1327h-6l-453 -795h459v795zM2 0v68l127 26l713 1243l-164 17v65h1087l21 -334h-74l-65 248h-560v-561h312l39 195h69v-473h-69l-39 196h-312v-604h584l80 295h74l-23 -381h-1038v66l182 26v361h-504l-204 -359l161 -28v-66h-397z" />
    <glyph glyph-name="Ccedilla" unicode="&#xc7;" horiz-adv-x="1232" 
d="M782 -252q0 42 -40 58q-40 17 -134 18v160q-258 31 -397 209t-139 507q0 559 405 702q119 42 304 42t347 -60l13 -325h-74l-61 239q-119 57 -279 58q-252 0 -378 -163t-126 -466q0 -662 516 -661q150 0 277 61l61 254h76l-12 -332q-176 -74 -416 -74q-29 0 -43 2v-77
q217 -6 217 -142q0 -157 -336 -180v62q123 16 171 41t48 67z" />
    <glyph glyph-name="Egrave" unicode="&#xc8;" horiz-adv-x="1179" 
d="M756 1526l-375 184l65 105l340 -236zM47 0v66l182 26v1235l-180 27v65h1022l21 -334h-74l-66 248h-579v-561h332l38 195h70v-473h-70l-38 196h-332v-604h604l80 295h73l-22 -381h-1061z" />
    <glyph glyph-name="Eacute" unicode="&#xc9;" horiz-adv-x="1179" 
d="M453 1526l-31 53l340 236l65 -105zM47 0v66l182 26v1235l-180 27v65h1022l21 -334h-74l-66 248h-579v-561h332l38 195h70v-473h-70l-38 196h-332v-604h604l80 295h73l-22 -381h-1061z" />
    <glyph glyph-name="Ecircumflex" unicode="&#xca;" horiz-adv-x="1179" 
d="M375 1526l-33 43l227 233h70l227 -233l-32 -43l-230 164zM47 0v66l182 26v1235l-180 27v65h1022l21 -334h-74l-66 248h-579v-561h332l38 195h70v-473h-70l-38 196h-332v-604h604l80 295h73l-22 -381h-1061z" />
    <glyph glyph-name="Edieresis" unicode="&#xcb;" horiz-adv-x="1179" 
d="M779 1546q-35 0 -61 26t-26 60t26 60q26 24 62 24t60 -24t24 -60q0 -34 -24 -60t-61 -26zM553 1632q-1 -34 -25 -60t-60 -26t-62 26t-25 60q0 34 26 60q25 24 61 24t60 -24t25 -60zM47 0v66l182 26v1235l-180 27v65h1022l21 -334h-74l-66 248h-579v-561h332l38 195h70
v-473h-70l-38 196h-332v-604h604l80 295h73l-22 -381h-1061z" />
    <glyph glyph-name="Igrave" unicode="&#xcc;" horiz-adv-x="604" 
d="M463 1526l-375 184l66 105l340 -236zM47 0v66l184 26v1235l-184 27v65h510v-65l-182 -27v-1235l182 -26v-66h-510z" />
    <glyph glyph-name="Iacute" unicode="&#xcd;" horiz-adv-x="604" 
d="M152 1526l-31 53l340 236l65 -105zM47 0v66l184 26v1235l-184 27v65h510v-65l-182 -27v-1235l182 -26v-66h-510z" />
    <glyph glyph-name="Icircumflex" unicode="&#xce;" horiz-adv-x="604" 
d="M74 1526l-33 43l227 233h70l227 -233l-33 -43l-229 164zM41 0v66l184 26v1235l-184 27v65h510v-65l-182 -27v-1235l182 -26v-66h-510z" />
    <glyph glyph-name="Idieresis" unicode="&#xcf;" horiz-adv-x="604" 
d="M480 1546q-36 0 -62 26t-25 60q0 34 26 60q25 24 61 24t61 -24t25 -60q0 -34 -26 -60q-24 -26 -60 -26zM254 1632q0 -34 -24 -60t-61 -26q-35 0 -61 26t-26 60t26 60q26 24 62 24t60 -24t24 -60zM47 0v66l184 26v1235l-184 27v65h510v-65l-182 -27v-1235l182 -26v-66
h-510z" />
    <glyph glyph-name="Eth" unicode="&#xd0;" horiz-adv-x="1357" 
d="M369 86h237q272 0 399 144q126 144 125 485q0 186 -33 309q-62 226 -282 284q-98 26 -246 25h-200v-573h372v-92h-372v-582zM51 668v92h174v567l-180 27v65h541q372 0 534 -172t162 -523q0 -352 -162 -538t-514 -186h-563v66l182 26v576h-174z" />
    <glyph glyph-name="Ntilde" unicode="&#xd1;" horiz-adv-x="1439" 
d="M831 1694q61 0 109 84l61 -27q-63 -162 -176 -162q-43 0 -117 35t-100 35q-59 0 -108 -86l-62 29q63 162 176 161q43 -1 117 -35t100 -34zM47 0v63l182 29v1235l-182 27v65h377l704 -1167h7v1073l-187 29v65h457v-63l-164 -29v-1327h-119l-780 1296h-6v-1204l192 -29v-63
h-481z" />
    <glyph glyph-name="Ograve" unicode="&#xd2;" horiz-adv-x="1394" 
d="M856 1526l-375 184l66 105l340 -236zM690 66q227 0 352 168t125 478q0 308 -124 476t-349 168t-348 -169t-123 -473t120 -476t347 -172zM1319 710q-1 -349 -181 -541t-449 -192t-443 195t-174 543t180 537q180 190 449 190t443 -192t175 -540z" />
    <glyph glyph-name="Oacute" unicode="&#xd3;" horiz-adv-x="1394" 
d="M545 1526l-31 53l340 236l66 -105zM690 66q227 0 352 168t125 478q0 308 -124 476t-349 168t-348 -169t-123 -473t120 -476t347 -172zM1319 710q-1 -349 -181 -541t-449 -192t-443 195t-174 543t180 537q180 190 449 190t443 -192t175 -540z" />
    <glyph glyph-name="Ocircumflex" unicode="&#xd4;" horiz-adv-x="1394" 
d="M473 1526l-33 43l228 233h69l228 -233l-33 -43l-230 164zM690 66q227 0 352 168t125 478q0 308 -124 476t-349 168t-348 -169t-123 -473t120 -476t347 -172zM1319 710q-1 -349 -181 -541t-449 -192t-443 195t-174 543t180 537q180 190 449 190t443 -192t175 -540z" />
    <glyph glyph-name="Otilde" unicode="&#xd5;" horiz-adv-x="1394" 
d="M811 1694q61 0 109 84l61 -27q-63 -162 -176 -162q-43 0 -117 35t-100 35q-60 0 -109 -86l-61 29q63 162 176 161q43 -1 117 -35t100 -34zM690 66q227 0 352 168t125 478q0 308 -124 476t-349 168t-348 -169t-123 -473t120 -476t347 -172zM1319 710q-1 -349 -181 -541
t-449 -192t-443 195t-174 543t180 537q180 190 449 190t443 -192t175 -540z" />
    <glyph glyph-name="Odieresis" unicode="&#xd6;" horiz-adv-x="1394" 
d="M562 1546q-36 0 -62 26t-25 60q0 34 26 60q25 24 61 24t61 -24t25 -60q0 -34 -26 -60q-24 -26 -60 -26zM873 1546q-35 0 -61 26t-26 60t26 60q26 24 62 24t60 -24t24 -60q0 -34 -24 -60t-61 -26zM690 66q227 0 352 168t125 478q0 308 -124 476t-349 168t-348 -169
t-123 -473t120 -476t347 -172zM1319 710q-1 -349 -181 -541t-449 -192t-443 195t-174 543t180 537q180 190 449 190t443 -192t175 -540z" />
    <glyph glyph-name="multiply" unicode="&#xd7;" horiz-adv-x="1036" 
d="M219 334l-65 65l299 303l-299 306l65 65l299 -305l299 305l66 -67l-299 -304l299 -303l-64 -65l-301 303z" />
    <glyph glyph-name="Oslash" unicode="&#xd8;" horiz-adv-x="1392" 
d="M709 66q208 0 333 168t125 466q0 297 -106 463l-674 -981q114 -116 322 -116zM223 719q0 -299 107 -467l676 983q-117 121 -326 121t-333 -169t-124 -468zM72 709q0 354 181 543t445 190q213 0 369 -119l109 158h104l-150 -215q190 -197 190 -551q0 -353 -180 -545
q-181 -192 -446 -193q-213 0 -366 119l-123 -178h-105l162 236q-190 201 -190 555z" />
    <glyph glyph-name="Ugrave" unicode="&#xd9;" horiz-adv-x="1384" 
d="M852 1526l-375 184l66 105l340 -236zM1208 449q0 -225 -128 -349t-374 -125q-247 0 -379 121t-132 340v891l-177 27v65h506v-65l-186 -27v-870q0 -385 387 -385q379 0 379 385v870l-182 27v65h448v-65l-162 -27v-878z" />
    <glyph glyph-name="Uacute" unicode="&#xda;" horiz-adv-x="1384" 
d="M553 1526l-31 53l340 236l66 -105zM1208 449q0 -225 -128 -349t-374 -125q-247 0 -379 121t-132 340v891l-177 27v65h506v-65l-186 -27v-870q0 -385 387 -385q379 0 379 385v870l-182 27v65h448v-65l-162 -27v-878z" />
    <glyph glyph-name="Ucircumflex" unicode="&#xdb;" horiz-adv-x="1384" 
d="M471 1526l-33 43l228 233h69l228 -233l-33 -43l-230 164zM1208 449q0 -225 -128 -349t-374 -125q-247 0 -379 121t-132 340v891l-177 27v65h506v-65l-186 -27v-870q0 -385 387 -385q379 0 379 385v870l-182 27v65h448v-65l-162 -27v-878z" />
    <glyph glyph-name="Udieresis" unicode="&#xdc;" horiz-adv-x="1384" 
d="M869 1546q-35 0 -61 26t-26 60t26 60q26 24 62 24t60 -24t24 -60q0 -34 -24 -60t-61 -26zM643 1632q-1 -34 -25 -60t-60 -26t-62 26t-25 60q0 34 26 60q25 24 61 24t60 -24t25 -60zM1208 449q0 -225 -128 -349t-374 -125q-247 0 -379 121t-132 340v891l-177 27v65h506
v-65l-186 -27v-870q0 -385 387 -385q379 0 379 385v870l-182 27v65h448v-65l-162 -27v-878z" />
    <glyph glyph-name="Yacute" unicode="&#xdd;" horiz-adv-x="1236" 
d="M492 1526l-31 53l340 236l65 -105zM373 0v66l182 26v543l-420 692l-127 27v65h434v-65l-153 -27l358 -602h6l344 602l-159 27v65h391v-65l-125 -27l-406 -694v-541l179 -26v-66h-504z" />
    <glyph glyph-name="Thorn" unicode="&#xde;" horiz-adv-x="1122" 
d="M47 0v66l180 26v1235l-180 27v65h510v-65l-186 -27v-199h223q262 0 375 -98t113 -281t-124 -279q-123 -96 -317 -97q-84 0 -162 14v70q49 -8 142 -8q151 -1 231 75t80 224t-74 218q-74 71 -252 70h-235v-944l211 -26v-66h-535z" />
    <glyph glyph-name="germandbls" unicode="&#xdf;" horiz-adv-x="1171" 
d="M786 -23q-150 0 -282 46l-12 219h73l39 -142q78 -39 177 -39q99 -1 157 47t57 129q0 81 -48 122q-48 42 -132 90l-94 53q-61 36 -94 60t-61 69q-61 98 6 215q34 57 81 105l95 95q114 114 114 206t-60 140t-165 48q-154 0 -234 -88t-79 -240v-1112h-289v55l158 25v874
h-156v56l156 37v81q0 172 123 285q124 113 302 113t276 -71q99 -71 99 -191q0 -70 -52 -145q-51 -75 -115 -127q-167 -137 -169 -224q0 -45 27 -77t96 -70l92 -52q70 -39 96 -55t70 -54q80 -68 80 -191q0 -124 -91 -208t-241 -84z" />
    <glyph glyph-name="agrave" unicode="&#xe0;" horiz-adv-x="956" 
d="M637 1163l-375 185l66 104l340 -235zM410 72q152 0 243 102v320l-243 -19q-121 -8 -172 -58t-52 -143q1 -202 224 -202zM365 -23q-143 0 -230 77q-86 77 -86 205t82 194t238 90l284 45v135q0 135 -47 185t-188 50t-289 -36v71q164 72 334 72t247 -74t76 -231v-606
q0 -52 26 -72t75 -20t61 4v-56q-49 -27 -135 -26q-129 0 -145 116h-9q-114 -123 -294 -123z" />
    <glyph glyph-name="aacute" unicode="&#xe1;" horiz-adv-x="956" 
d="M324 1163l-31 54l340 235l65 -104zM410 72q152 0 243 102v320l-243 -19q-121 -8 -172 -58t-52 -143q1 -202 224 -202zM365 -23q-143 0 -230 77q-86 77 -86 205t82 194t238 90l284 45v135q0 135 -47 185t-188 50t-289 -36v71q164 72 334 72t247 -74t76 -231v-606
q0 -52 26 -72t75 -20t61 4v-56q-49 -27 -135 -26q-129 0 -145 116h-9q-114 -123 -294 -123z" />
    <glyph glyph-name="acircumflex" unicode="&#xe2;" horiz-adv-x="956" 
d="M244 1163l-33 43l227 234h70l227 -234l-33 -43l-229 164zM410 72q152 0 243 102v320l-243 -19q-121 -8 -172 -58t-52 -143q1 -202 224 -202zM365 -23q-143 0 -230 77q-86 77 -86 205t82 194t238 90l284 45v135q0 135 -47 185t-188 50t-289 -36v71q164 72 334 72t247 -74
t76 -231v-606q0 -52 26 -72t75 -20t61 4v-56q-49 -27 -135 -26q-129 0 -145 116h-9q-114 -123 -294 -123z" />
    <glyph glyph-name="atilde" unicode="&#xe3;" horiz-adv-x="956" 
d="M367 1401q43 0 117 -35t100 -35q61 0 108 84l62 -26q-63 -162 -176 -162q-43 0 -117 35t-101 34q-59 0 -108 -86l-62 29q63 162 177 162zM410 72q152 0 243 102v320l-243 -19q-121 -8 -172 -58t-52 -143q1 -202 224 -202zM365 -23q-143 0 -230 77q-86 77 -86 205t82 194
t238 90l284 45v135q0 135 -47 185t-188 50t-289 -36v71q164 72 334 72t247 -74t76 -231v-606q0 -52 26 -72t75 -20t61 4v-56q-49 -27 -135 -26q-129 0 -145 116h-9q-114 -123 -294 -123z" />
    <glyph glyph-name="adieresis" unicode="&#xe4;" horiz-adv-x="956" 
d="M335 1354q37 0 61 -25t24 -59t-24 -60t-61 -26q-36 0 -62 26t-25 60q0 36 26 60t61 24zM646 1184q-36 0 -62 26t-25 60q0 36 26 60q25 24 61 24t61 -25t25 -59t-25 -61q-25 -25 -61 -25zM410 72q152 0 243 102v320l-243 -19q-121 -8 -172 -58t-52 -143q1 -202 224 -202z
M365 -23q-143 0 -230 77q-86 77 -86 205t82 194t238 90l284 45v135q0 135 -47 185t-188 50t-289 -36v71q164 72 334 72t247 -74t76 -231v-606q0 -52 26 -72t75 -20t61 4v-56q-49 -27 -135 -26q-129 0 -145 116h-9q-114 -123 -294 -123z" />
    <glyph glyph-name="aring" unicode="&#xe5;" horiz-adv-x="956" 
d="M477 1237q47 0 76 30q29 31 29 77t-29 77t-76 31t-76 -31t-29 -78t30 -77q28 -30 75 -29zM477 1174q-76 0 -126 50t-50 120t50 120q50 49 126 49t126 -49t50 -120q0 -70 -50 -120t-126 -50zM410 72q152 0 243 102v320l-243 -19q-121 -8 -172 -58t-52 -143
q1 -202 224 -202zM365 -23q-143 0 -230 77q-86 77 -86 205t82 194t238 90l284 45v135q0 135 -47 185t-188 50t-289 -36v71q164 72 334 72t247 -74t76 -231v-606q0 -52 26 -72t75 -20t61 4v-56q-49 -27 -135 -26q-129 0 -145 116h-9q-114 -123 -294 -123z" />
    <glyph glyph-name="ae" unicode="&#xe6;" horiz-adv-x="1568" 
d="M1096 981q-138 1 -218 -95t-92 -278l582 13q-2 360 -272 360zM705 225q-51 119 -56 283l-241 -16q-223 -16 -224 -213q0 -99 56 -153t168 -54q170 -1 297 153zM349 -23q-130 0 -216 77t-86 208q0 246 320 297l284 41v123q0 135 -48 185t-193 50t-283 -36v71
q164 72 342 72q240 0 287 -180q121 180 338 180q420 0 422 -535h-730q0 -453 377 -452q158 0 310 63v-69q-156 -92 -336 -92q-279 0 -400 184q-59 -80 -159 -134t-229 -53z" />
    <glyph glyph-name="ccedilla" unicode="&#xe7;" horiz-adv-x="923" 
d="M739 -242q0 -157 -336 -180v62q123 16 171 41t48 67t-39 58q-40 17 -134 18v164q-190 31 -291 169q-100 138 -101 359q-1 279 147 414t378 135q150 0 274 -43v-250h-80l-28 180q-68 27 -183 27q-170 0 -269 -112t-99 -335q0 -455 393 -454q166 0 289 63v-73
q-133 -88 -324 -88l-33 2v-82q217 -6 217 -142z" />
    <glyph glyph-name="egrave" unicode="&#xe8;" horiz-adv-x="991" 
d="M655 1163l-374 185l65 104l340 -235zM510 981q-141 1 -222 -93t-91 -270l589 13q-2 350 -276 350zM553 -20q-258 0 -377 148t-119 398t131 394t334 145q203 0 307 -136t105 -388h-739q4 -463 383 -463q162 0 313 63v-69q-156 -92 -338 -92z" />
    <glyph glyph-name="eacute" unicode="&#xe9;" horiz-adv-x="991" 
d="M344 1163l-31 54l340 235l66 -104zM510 981q-141 1 -222 -93t-91 -270l589 13q-2 350 -276 350zM553 -20q-258 0 -377 148t-119 398t131 394t334 145q203 0 307 -136t105 -388h-739q4 -463 383 -463q162 0 313 63v-69q-156 -92 -338 -92z" />
    <glyph glyph-name="ecircumflex" unicode="&#xea;" horiz-adv-x="991" 
d="M281 1163l-33 43l227 234h70l227 -234l-33 -43l-229 164zM510 981q-141 1 -222 -93t-91 -270l589 13q-2 350 -276 350zM553 -20q-258 0 -377 148t-119 398t131 394t334 145q203 0 307 -136t105 -388h-739q4 -463 383 -463q162 0 313 63v-69q-156 -92 -338 -92z" />
    <glyph glyph-name="edieresis" unicode="&#xeb;" horiz-adv-x="991" 
d="M368 1354q36 0 60 -25t25 -59q-1 -34 -25 -60t-60 -26t-62 26t-25 60q-1 36 25 60t62 24zM679 1354q37 0 61 -25t24 -59t-24 -60t-61 -26q-36 0 -62 26t-25 60q0 36 26 60t61 24zM510 981q-141 1 -222 -93t-91 -270l589 13q-2 350 -276 350zM553 -20q-258 0 -377 148
t-119 398t131 394t334 145q203 0 307 -136t105 -388h-739q4 -463 383 -463q162 0 313 63v-69q-156 -92 -338 -92z" />
    <glyph glyph-name="igrave" unicode="&#xec;" horiz-adv-x="512" 
d="M369 1163l-375 185l65 104l340 -235zM16 0v55l160 25v858l-170 23v61l287 35l16 -8v-969l162 -25v-55h-455z" />
    <glyph glyph-name="iacute" unicode="&#xed;" horiz-adv-x="512" 
d="M109 1163l-31 54l340 235l65 -104zM31 0v55l159 25v858l-170 23v61l287 35l17 -8v-969l161 -25v-55h-454z" />
    <glyph glyph-name="icircumflex" unicode="&#xee;" horiz-adv-x="512" 
d="M20 1163l-32 43l227 234h70l227 -234l-33 -43l-229 164zM25 0v55l159 25v858l-170 23v61l287 35l16 -8v-969l162 -25v-55h-454z" />
    <glyph glyph-name="idieresis" unicode="&#xef;" horiz-adv-x="512" 
d="M413 1354q37 0 61 -25t24 -59t-24 -60t-61 -26q-36 0 -62 26t-25 60q0 36 26 60t61 24zM101 1184q-35 0 -61 26t-26 60q0 36 26 60t62 24t60 -25t24 -59t-24 -61q-25 -25 -61 -25zM14 0v55l160 25v858l-170 23v61l287 35l16 -8v-969l162 -25v-55h-455z" />
    <glyph glyph-name="eth" unicode="&#xf0;" horiz-adv-x="1089" 
d="M547 61q152 0 245 112t93 346q-1 234 -103 347t-248 113t-242 -110q-95 -110 -95 -341t99 -349t251 -118zM1024 580q0 -293 -134 -448t-349 -155q-215 1 -349 147t-135 393q1 247 137 397t336 151q200 0 316 -172q-78 221 -279 391l-274 -121v82l209 92q-96 70 -215 136
l35 63q158 -70 280 -154l252 113v-84l-182 -82q352 -285 352 -749z" />
    <glyph glyph-name="ntilde" unicode="&#xf1;" horiz-adv-x="1171" 
d="M483 1401q43 0 117 -35t100 -35q61 0 109 84l61 -26q-63 -162 -176 -162q-42 0 -116 35t-101 34q-59 0 -108 -86l-62 29q63 162 176 162zM27 0v55l159 25v858l-159 23v61l268 35l16 -8v-103h8q201 119 363 119t234 -66q73 -66 73 -211v-708l160 -25v-55h-451v55l160 25
v672q0 110 -55 158t-181 48t-305 -79v-799l160 -25v-55h-450z" />
    <glyph glyph-name="ograve" unicode="&#xf2;" horiz-adv-x="1085" 
d="M705 1163l-375 185l65 104l340 -235zM544 63q148 0 248 112q99 112 99 342t-101 346q-100 116 -248 116t-246 -112t-99 -342q0 -230 100 -346q99 -116 247 -116zM1030 526q0 -248 -141 -398t-348 -151t-345 145t-139 394t141 398t349 151q207 0 345 -145
q138 -146 138 -394z" />
    <glyph glyph-name="oacute" unicode="&#xf3;" horiz-adv-x="1085" 
d="M393 1163l-31 54l340 235l66 -104zM544 63q148 0 248 112q99 112 99 342t-101 346q-100 116 -248 116t-246 -112t-99 -342q0 -230 100 -346q99 -116 247 -116zM1030 526q0 -248 -141 -398t-348 -151t-345 145t-139 394t141 398t349 151q207 0 345 -145q138 -146 138 -394
z" />
    <glyph glyph-name="ocircumflex" unicode="&#xf4;" horiz-adv-x="1085" 
d="M322 1163l-33 43l227 234h70l227 -234l-33 -43l-229 164zM544 63q148 0 248 112q99 112 99 342t-101 346q-100 116 -248 116t-246 -112t-99 -342q0 -230 100 -346q99 -116 247 -116zM1030 526q0 -248 -141 -398t-348 -151t-345 145t-139 394t141 398t349 151
q207 0 345 -145q138 -146 138 -394z" />
    <glyph glyph-name="otilde" unicode="&#xf5;" horiz-adv-x="1085" 
d="M442 1401q43 0 117 -35t100 -35q61 0 109 84l61 -26q-63 -162 -176 -162q-43 0 -117 35t-100 34q-59 0 -108 -86l-62 29q63 162 176 162zM544 63q148 0 248 112q99 112 99 342t-101 346q-100 116 -248 116t-246 -112t-99 -342q0 -230 100 -346q99 -116 247 -116z
M1030 526q0 -248 -141 -398t-348 -151t-345 145t-139 394t141 398t349 151q207 0 345 -145q138 -146 138 -394z" />
    <glyph glyph-name="odieresis" unicode="&#xf6;" horiz-adv-x="1085" 
d="M411 1354q37 0 61 -25t24 -59t-24 -60t-61 -26q-36 0 -62 26t-25 60q0 36 26 60t61 24zM722 1354q36 0 60 -25t25 -59q-1 -34 -25 -60t-60 -26t-62 26t-25 60q-1 36 25 60t62 24zM544 63q148 0 248 112q99 112 99 342t-101 346q-100 116 -248 116t-246 -112t-99 -342
q0 -230 100 -346q99 -116 247 -116zM1030 526q0 -248 -141 -398t-348 -151t-345 145t-139 394t141 398t349 151q207 0 345 -145q138 -146 138 -394z" />
    <glyph glyph-name="divide" unicode="&#xf7;" horiz-adv-x="1044" 
d="M521 305q-41 0 -69 28q-28 29 -28 67t29 66t69 28t69 -28q27 -28 27 -67t-28 -67t-69 -27zM521 918q-41 0 -69 28t-28 68q0 38 29 66t69 28t69 -28q27 -28 27 -66t-28 -68q-29 -28 -69 -28zM121 659v95h803v-95h-803z" />
    <glyph glyph-name="oslash" unicode="&#xf8;" horiz-adv-x="1085" 
d="M536 979q-142 0 -240 -112t-99 -323q0 -211 69 -325l500 674q-88 86 -230 86zM550 63q142 0 241 111q98 110 98 320t-70 329l-500 -671q89 -89 231 -89zM541 1065q166 0 286 -90l97 129h104l-137 -184q137 -146 137 -394t-141 -398t-342 -151q-166 0 -289 89l-109 -148
h-106l152 205q-135 147 -135 394t140 397q142 150 343 151z" />
    <glyph glyph-name="ugrave" unicode="&#xf9;" horiz-adv-x="1165" 
d="M731 1163l-375 185l66 104l340 -235zM469 -18q-295 0 -295 297v669l-160 23v61l275 25l16 -10v-740q0 -117 50 -170t183 -53t302 82v782l-156 23v61l270 25l17 -10v-949l159 -24v-56l-266 -34l-16 10v112h-10q-168 -124 -369 -124z" />
    <glyph glyph-name="uacute" unicode="&#xfa;" horiz-adv-x="1165" 
d="M434 1163l-31 54l340 235l66 -104zM469 -18q-295 0 -295 297v669l-160 23v61l275 25l16 -10v-740q0 -117 50 -170t183 -53t302 82v782l-156 23v61l270 25l17 -10v-949l159 -24v-56l-266 -34l-16 10v112h-10q-168 -124 -369 -124z" />
    <glyph glyph-name="ucircumflex" unicode="&#xfb;" horiz-adv-x="1165" 
d="M358 1163l-32 43l227 234h70l227 -234l-33 -43l-229 164zM469 -18q-295 0 -295 297v669l-160 23v61l275 25l16 -10v-740q0 -117 50 -170t183 -53t302 82v782l-156 23v61l270 25l17 -10v-949l159 -24v-56l-266 -34l-16 10v112h-10q-168 -124 -369 -124z" />
    <glyph glyph-name="udieresis" unicode="&#xfc;" horiz-adv-x="1165" 
d="M755 1354q37 0 61 -25t24 -59t-24 -60t-61 -26q-36 0 -62 26t-25 60q0 36 26 60t61 24zM443 1184q-35 0 -61 26t-26 60q0 36 26 60t62 24t60 -25t24 -59t-24 -61q-25 -25 -61 -25zM469 -18q-295 0 -295 297v669l-160 23v61l275 25l16 -10v-740q0 -117 50 -170t183 -53
t302 82v782l-156 23v61l270 25l17 -10v-949l159 -24v-56l-266 -34l-16 10v112h-10q-168 -124 -369 -124z" />
    <glyph glyph-name="yacute" unicode="&#xfd;" horiz-adv-x="1071" 
d="M403 1163l-30 54l340 235l65 -104zM264 -403q-92 0 -153 30v80q70 -16 104 -16q86 0 134 41t85 135l66 164l-383 934l-115 22v60h406v-60l-148 -20l305 -772h6l281 770l-143 22v60h364v-60l-117 -22l-432 -1131q-45 -121 -106 -179q-62 -58 -154 -58z" />
    <glyph glyph-name="thorn" unicode="&#xfe;" horiz-adv-x="1120" 
d="M567 63q352 0 353 467q0 230 -88 328t-238 98q-149 0 -293 -82v-741q119 -70 266 -70zM12 -403v55l156 20v1729l-166 24v60l274 35l17 -9v-569h10q162 123 335 123t295 -109t122 -398q0 -288 -133 -433t-369 -145q-133 0 -252 36v-340l178 -24v-55h-467z" />
    <glyph glyph-name="ydieresis" unicode="&#xff;" horiz-adv-x="1071" 
d="M722 1354q36 0 60 -25t25 -59q-1 -34 -25 -60t-60 -26t-62 26t-25 60q-1 36 25 60t62 24zM411 1354q37 0 61 -25t24 -59t-24 -60t-61 -26q-36 0 -62 26t-25 60q0 36 26 60t61 24zM264 -403q-92 0 -153 30v80q70 -16 104 -16q86 0 134 41t85 135l66 164l-383 934l-115 22
v60h406v-60l-148 -20l305 -772h6l281 770l-143 22v60h364v-60l-117 -22l-432 -1131q-45 -121 -106 -179q-62 -58 -154 -58z" />
    <glyph glyph-name="dotlessi" unicode="&#x131;" horiz-adv-x="512" 
d="M31 0v55l159 25v858l-170 23v61l287 35l17 -8v-969l161 -25v-55h-454z" />
    <glyph glyph-name="Lslash" unicode="&#x141;" horiz-adv-x="1114" 
d="M47 1419h522v-65l-198 -27v-635l428 193v-94l-428 -193v-512h559l74 317h73l-26 -403h-1004v66l180 26v440l-170 -75v94l170 76v700l-180 27v65z" />
    <glyph glyph-name="lslash" unicode="&#x142;" horiz-adv-x="512" 
d="M485 0h-456v55l161 25v569l-190 -112v96l190 112v660l-176 22v62l293 35l17 -11v-690l204 121v-96l-204 -121v-647l161 -25v-55z" />
    <glyph glyph-name="OE" unicode="&#x152;" horiz-adv-x="1880" 
d="M799 86h159v1247h-196q-279 0 -409 -144t-130 -500t147 -484q77 -67 177 -93t252 -26zM780 0q-374 0 -542 173t-168 523t167 536t523 187h1020l20 -334h-74l-63 248h-561v-563h313l39 197h68v-473h-68l-39 196h-313v-604h584l79 295h74l-22 -381h-1037z" />
    <glyph glyph-name="oe" unicode="&#x153;" horiz-adv-x="1818" 
d="M1337 981q-141 1 -222 -93t-93 -270l592 13q-2 350 -277 350zM544 63q148 0 247 111q98 111 98 342q-1 231 -101 347t-247 116t-245 -112t-99 -342q0 -230 100 -346q99 -116 247 -116zM541 1065q141 0 249 -69t164 -193q54 125 156 193t236 69q207 0 311 -137t104 -387
h-739q0 -463 383 -463q162 0 313 63v-69q-156 -92 -340 -92q-330 0 -430 258q-59 -123 -167 -192t-236 -69q-215 1 -351 145t-136 393t140 399q142 150 343 151z" />
    <glyph glyph-name="Scaron" unicode="&#x160;" horiz-adv-x="1060" 
d="M510 1522l-227 233l32 43l230 -164l229 164l33 -43l-227 -233h-70zM981 372q1 -169 -117 -282t-348 -113t-407 76l-15 301h76l47 -217q139 -69 301 -69t246 76t84 199t-65 189t-224 125l-129 52q-150 57 -228 144t-79 239q0 152 109 251q110 101 310 101t359 -58l12 -280
h-73l-41 190q-109 58 -252 58t-221 -62t-78 -172q0 -108 58 -172t196 -117l129 -51q178 -68 264 -154t86 -254z" />
    <glyph glyph-name="scaron" unicode="&#x161;" horiz-adv-x="849" 
d="M397 1159l-227 234l33 43l229 -164l230 164l32 -43l-227 -234h-70zM414 -23q-171 0 -334 58l-17 256h76l41 -176q102 -53 226 -53t188 48q66 50 66 138t-46 131q-45 43 -161 78l-125 39q-250 74 -250 280q0 125 93 206t262 81t290 -43l4 -240h-72l-39 156q-72 43 -186 43
q-233 0 -233 -172q0 -76 45 -120t159 -79l125 -37q135 -43 197 -108q61 -65 61 -191t-99 -211q-100 -84 -271 -84z" />
    <glyph glyph-name="Ydieresis" unicode="&#x178;" horiz-adv-x="1236" 
d="M891 1632q-1 -34 -25 -60t-60 -26t-62 26t-26 60t26 60q26 24 62 24t60 -24t25 -60zM580 1632q0 -34 -24 -60t-61 -26q-36 0 -62 26q-25 26 -25 60t25 60q26 24 62 24q37 0 61 -24t24 -60zM373 0v66l182 26v543l-420 692l-127 27v65h434v-65l-153 -27l358 -602h6l344 602
l-159 27v65h391v-65l-125 -27l-406 -694v-541l179 -26v-66h-504z" />
    <glyph glyph-name="Zcaron" unicode="&#x17d;" horiz-adv-x="1093" 
d="M520 1522l-227 233l33 43l229 -164l229 164l33 -43l-227 -233h-70zM35 0v72l844 1251v8h-662l-61 -282h-76l16 370h957v-71l-846 -1252v-8h706l66 279h76l-19 -367h-1001z" />
    <glyph glyph-name="zcaron" unicode="&#x17e;" horiz-adv-x="940" 
d="M449 1159l-228 234l33 43l229 -164l230 164l32 -43l-227 -234h-69zM57 0v74l656 887v8h-502l-45 -217h-72l12 295h760v-74l-653 -889v-6h520l55 239h74l-20 -317h-785z" />
    <glyph glyph-name="florin" unicode="&#x192;" horiz-adv-x="778" 
d="M78 762v92h184l47 268q29 166 117 242t196 76t177 -37v-72q-82 16 -135 17q-94 0 -148 -56t-78 -198l-43 -240h250v-92h-266l-150 -871q-43 -250 -266 -249q-76 0 -141 32v74q57 -14 110 -14q139 0 170 182l146 846h-170z" />
    <glyph glyph-name="circumflex" unicode="&#x2c6;" 
d="M272 1163l-32 43l227 234h70l227 -234l-33 -43l-229 164z" />
    <glyph glyph-name="caron" unicode="&#x2c7;" 
d="M467 1159l-227 234l32 43l230 -164l229 164l33 -43l-227 -234h-70z" />
    <glyph glyph-name="breve" unicode="&#x2d8;" 
d="M553 1233q-104 -1 -176 65t-80 170h86q29 -139 170 -139t170 139h86q-8 -104 -80 -170t-176 -65z" />
    <glyph glyph-name="dotaccent" unicode="&#x2d9;" 
d="M501 1354q35 0 61 -25t26 -59t-26 -60t-61 -26q-36 0 -61 26t-24 60q0 36 24 60t61 24z" />
    <glyph glyph-name="ring" unicode="&#x2da;" 
d="M506 1237q47 0 76 30q28 31 28 77t-28 77q-29 31 -76 31t-76 -31t-29 -78t29 -77t76 -29zM506 1174q-76 0 -126 50t-50 120t50 120q50 49 126 49t126 -49t50 -120q0 -70 -50 -120t-126 -50z" />
    <glyph glyph-name="ogonek" unicode="&#x2db;" 
d="M496 -377q-72 0 -120 40t-48 109t58 131t136 97h70q-145 -117 -146 -221q0 -84 111 -84q20 0 70 6v-61q-59 -17 -131 -17z" />
    <glyph glyph-name="tilde" unicode="&#x2dc;" 
d="M391 1401q43 0 117 -35t100 -35q61 0 109 84l61 -26q-63 -162 -176 -162q-43 0 -117 35t-100 34q-60 0 -109 -86l-61 29q63 162 176 162z" />
    <glyph glyph-name="hungarumlaut" unicode="&#x2dd;" 
d="M330 1145l-54 33l209 307l90 -70zM616 1145l-53 33l207 307l92 -70z" />
    <glyph glyph-name="endash" unicode="&#x2013;" horiz-adv-x="761" 
d="M55 547v80h650v-80h-650z" />
    <glyph glyph-name="emdash" unicode="&#x2014;" horiz-adv-x="1306" 
d="M55 547v80h1194v-80h-1194z" />
    <glyph glyph-name="quoteleft" unicode="&#x2018;" horiz-adv-x="366" 
d="M242 1040h-148q25 217 103 379h86q-41 -199 -41 -379z" />
    <glyph glyph-name="quoteright" unicode="&#x2019;" horiz-adv-x="366" 
d="M127 1419h147q-25 -213 -104 -379h-84q41 195 41 379z" />
    <glyph glyph-name="quotesinglbase" unicode="&#x201a;" horiz-adv-x="366" 
d="M127 174h147q-25 -213 -104 -379h-84q41 195 41 379z" />
    <glyph glyph-name="quotedblleft" unicode="&#x201c;" horiz-adv-x="626" 
d="M242 1040h-148q25 217 103 379h86q-41 -199 -41 -379zM502 1040h-148q25 217 103 379h86q-41 -199 -41 -379z" />
    <glyph glyph-name="quotedblright" unicode="&#x201d;" horiz-adv-x="626" 
d="M127 1419h147q-25 -213 -104 -379h-84q41 195 41 379zM387 1419h148q-25 -211 -103 -379h-86q41 195 41 379z" />
    <glyph glyph-name="quotedblbase" unicode="&#x201e;" horiz-adv-x="626" 
d="M127 174h147q-25 -213 -104 -379h-84q41 195 41 379zM387 174h148q-25 -211 -103 -379h-86q41 195 41 379z" />
    <glyph glyph-name="dagger" unicode="&#x2020;" horiz-adv-x="792" 
d="M55 930v131l305 -33l-26 391h129l-29 -391l305 33v-131l-305 31l29 -263v-96l-35 -602h-59l-35 602v96l26 263z" />
    <glyph glyph-name="bullet" unicode="&#x2022;" horiz-adv-x="1667" 
d="M831 -33q-315 0 -537 224q-222 223 -222 539t222 538t537 223q315 0 541 -223q226 -224 225 -538q0 -314 -225 -539q-226 -224 -541 -224z" />
    <glyph glyph-name="ellipsis" unicode="&#x2026;" horiz-adv-x="1179" 
d="M188 -25q-42 0 -70 29t-28 69q0 41 29 69t69 28t70 -28q29 -28 29 -68t-29 -70q-29 -29 -70 -29zM592 -25q-41 0 -70 29t-28 70q0 40 28 68t70 28q41 0 70 -29q28 -29 28 -69t-28 -68q-28 -29 -70 -29zM995 -25q-41 0 -69 29t-29 70q0 40 29 68q30 28 70 28t69 -29
t29 -69t-29 -68q-29 -29 -70 -29z" />
    <glyph glyph-name="perthousand" unicode="&#x2030;" horiz-adv-x="2385" 
d="M252 -82l1001 1542h107l-1004 -1542h-104zM387 756q197 0 197 306t-197 306t-197 -306t197 -306zM1800 360q0 -306 198 -307q198 0 198 306t-195 307q-201 0 -201 -306zM1042 360q0 -306 198 -307q198 0 198 306t-195 307q-201 0 -201 -306zM388 682q-140 0 -231 99
t-91 277t93 281t229 103t228 -100t92 -279q0 -177 -90 -279t-230 -102zM1240 -20q-140 0 -230 99t-90 277t92 280t229 103q137 0 229 -100q92 -99 92 -277t-90 -280q-92 -102 -232 -102zM1998 -20q-140 0 -231 99q-90 99 -90 277t92 280q91 102 229 103q138 0 230 -100
q92 -99 92 -277t-91 -280t-231 -102z" />
    <glyph glyph-name="guilsinglleft" unicode="&#x2039;" horiz-adv-x="483" 
d="M301 121l-215 371v51l215 370h92l-184 -395l184 -397h-92z" />
    <glyph glyph-name="guilsinglright" unicode="&#x203a;" horiz-adv-x="483" 
d="M90 121l184 395l-184 397h92l215 -370v-51l-215 -371h-92z" />
    <glyph glyph-name="fraction" unicode="&#x2044;" horiz-adv-x="421" 
d="M-348 -82l1001 1542h107l-1004 -1542h-104z" />
    <glyph glyph-name="Euro" unicode="&#x20ac;" horiz-adv-x="1226" 
d="M47 778v82h160q65 582 617 582q134 0 290 -53l10 -306h-67l-62 228q-90 45 -213 45q-184 0 -298 -124t-138 -372h483v-82h-489v-55q0 -76 2 -111h487v-82h-479q28 -244 140 -349t294 -105t351 76v-74q-147 -100 -355 -101q-508 0 -573 553h-160v82h154l-2 86q0 53 2 80
h-154z" />
    <glyph glyph-name="trademark" unicode="&#x2122;" horiz-adv-x="1400" 
d="M172 862v43l76 13v448h-117l-29 -125h-55l8 178h482l10 -178h-58l-28 125h-117v-448l78 -13v-43h-250zM623 862v43l77 13v446l-77 12v43h213l153 -399h4l158 399h217v-43l-82 -12v-446l82 -13v-43h-244v43l68 13v423h-6l-180 -452h-58l-176 452h-6v-423l70 -13v-43h-213z
" />
    <glyph glyph-name="onethird" unicode="&#x2153;" horiz-adv-x="1632" 
d="M82 588v57l135 17v655l-149 -29v55l223 93h43v-774l131 -17v-57h-383zM1384 442q191 -31 191 -222q0 -104 -79 -169t-213 -65t-245 57v61q102 -37 207 -36q209 0 209 170q0 164 -197 163h-73v74h63q180 1 180 149t-176 148q-90 0 -178 -31v60q98 49 215 49t186 -53
q68 -53 68 -141q-1 -165 -158 -210v-4zM207 -82l1001 1542h109l-1002 -1542h-108z" />
    <glyph glyph-name="twothirds" unicode="&#x2154;" horiz-adv-x="1728" 
d="M1487 442q190 -31 190 -222q0 -104 -79 -169t-214 -65t-241 57v61q102 -37 205 -36q209 0 208 170q0 164 -196 163h-74v74h64q180 1 180 149t-176 148q-90 0 -178 -31v60q98 49 214 49t186 -53q69 -53 69 -154q0 -152 -158 -197v-4zM322 -82l1001 1542h107l-1002 -1542
h-106zM29 588v65l215 209q98 94 147 168t49 152q0 172 -186 172q-76 0 -193 -45v63q115 68 238 68t193 -62t70 -168t-64 -195q-63 -89 -191 -198l-160 -135v-2h342l41 111h60l-15 -203h-546z" />
    <glyph glyph-name="oneeighth" unicode="&#x215b;" horiz-adv-x="1658" 
d="M1485 645q0 68 -48 103q-48 34 -122 34t-120 -36t-46 -100q1 -64 47 -102t150 -65q139 53 139 166zM1110 211q0 -74 52 -116t150 -42q99 0 151 40q53 40 53 112q0 73 -56 111t-186 79q-164 -66 -164 -184zM82 588v57l135 17v655l-149 -29v55l223 93h43v-774l131 -17v-57
h-383zM215 -82l1002 1542h106l-1001 -1542h-107zM1626 221q0 -107 -83 -171t-229 -64t-227 59q-79 59 -79 149q1 163 202 230q-170 68 -170 213q0 93 75 153t198 60t199 -53t75 -148q0 -133 -172 -198q211 -76 211 -230z" />
    <glyph glyph-name="threeeighths" unicode="&#x215c;" horiz-adv-x="1751" 
d="M1231 646q0 -64 46 -102t150 -65q139 53 140 166q0 68 -48 103q-48 34 -122 34t-120 -36t-46 -100zM1192 211q0 -74 52 -116t150 -42q99 0 151 40t52 112q0 73 -56 111t-185 79q-164 -66 -164 -184zM250 655q212 0 211 173q0 85 -49 124t-150 39h-72v72h64q180 0 180 148
t-176 149q-98 0 -180 -31v60q106 51 220 51t182 -54t69 -153q0 -152 -158 -197v-4q191 -31 191 -223q0 -103 -79 -169t-217 -65q-138 0 -241 58v59q103 -37 205 -37zM283 -82l1001 1542h109l-1002 -1542h-108zM1708 221q0 -107 -83 -171t-229 -64t-227 59q-79 59 -79 149
q1 163 202 230q-170 68 -170 213q0 93 75 153t197 60t198 -53t77 -148q0 -133 -172 -198q211 -76 211 -230z" />
    <glyph glyph-name="fiveeighths" unicode="&#x215d;" horiz-adv-x="1728" 
d="M1546 645q0 68 -48 103q-48 34 -122 34t-120 -36t-46 -100t46 -102t151 -65q139 53 139 166zM1171 211q-1 -74 51 -116t151 -42t151 40q51 40 51 112q0 73 -56 111t-184 79q-164 -66 -164 -184zM268 -82l1002 1542h106l-1001 -1542h-107zM270 575q-138 0 -233 58v59
q94 -37 195 -37q100 -1 160 49t61 140q0 186 -213 186q-70 0 -154 -24l31 419h432l-10 -96h-353l-18 -239q59 18 117 18q137 0 214 -69t77 -191t-84 -198q-84 -75 -222 -75zM1375 -14q-146 0 -227 59t-81 162q0 152 205 217q-170 68 -170 213q0 93 74 153t196 60t199 -53
q76 -53 76 -148q0 -135 -172 -198q211 -76 211 -230q0 -106 -82 -171q-83 -64 -229 -64z" />
    <glyph glyph-name="seveneighths" unicode="&#x215e;" horiz-adv-x="1685" 
d="M1503 645q0 68 -48 103q-48 34 -122 34t-120 -36t-46 -100q-1 -64 47 -100q48 -38 150 -67q139 53 139 166zM1128 211q0 -74 52 -116t150 -42q99 0 152 40q52 40 52 112q0 73 -56 111t-186 79q-164 -66 -164 -184zM535 1329h-398l-26 -104h-62l10 200h553v-82l-319 -755
h-127l369 737v4zM182 -82l1002 1542h108l-1001 -1542h-109zM1334 -14q-146 0 -227 59t-81 149q0 163 203 230q-170 68 -170 213q0 93 75 153q76 60 198 60t198 -53t76 -148q0 -133 -172 -198q211 -76 211 -230q0 -106 -82 -171q-83 -64 -229 -64z" />
    <glyph glyph-name="arrowleft" unicode="&#x2190;" horiz-adv-x="1150" 
d="M524 0l-424 682v51l424 686h105l-391 -710l391 -709h-105zM932 0l-424 682v51l424 686h106l-393 -710l393 -709h-106z" />
    <glyph glyph-name="arrowright" unicode="&#x2192;" horiz-adv-x="1150" 
d="M520 0l393 711l-393 708h105l424 -682v-51l-424 -686h-105zM113 0l391 711l-391 708h104l424 -682v-51l-424 -686h-104z" />
    <glyph glyph-name="minus" unicode="&#x2212;" horiz-adv-x="1044" 
d="M121 657v97h803v-97h-803z" />
    <glyph glyph-name="lessequal" unicode="&#x2264;" horiz-adv-x="1150" 
d="M524 0l-424 682v51l424 686h105l-391 -710l391 -709h-105zM932 0l-424 682v51l424 686h106l-393 -710l393 -709h-106z" />
    <glyph glyph-name="greaterequal" unicode="&#x2265;" horiz-adv-x="1150" 
d="M520 0l393 711l-393 708h105l424 -682v-51l-424 -686h-105zM113 0l391 711l-391 708h104l424 -682v-51l-424 -686h-104z" />
    <glyph glyph-name="whitecircle" unicode="&#x25cb;" horiz-adv-x="1667" 
d="M831 66q274 0 465 194q190 195 191 471q-1 276 -191 470t-464 194t-464 -194t-190 -470q0 -277 190 -471t463 -194zM831 -33q-315 0 -537 224q-222 223 -222 539t222 538t537 223q315 0 541 -223q226 -224 225 -538q0 -314 -225 -539q-226 -224 -541 -224z" />
    <glyph glyph-name="blackstar" unicode="&#x2605;" horiz-adv-x="1716" 
d="M-2 950h651l203 625h16l203 -625h651v-16l-522 -373l205 -620l-16 -9l-529 377l-530 -381l-15 9l205 624l-522 373v16z" />
    <glyph glyph-name="whitestar" unicode="&#x2606;" horiz-adv-x="1716" 
d="M481 150l381 282l377 -282l-152 452l383 260h-464l-146 449l-145 -449h-463l381 -260zM-2 950h651l203 625h16l203 -625h651v-16l-522 -373l205 -620l-16 -9l-529 377l-530 -381l-15 9l205 624l-522 373v16z" />
    <glyph glyph-name="quoteleft.titling" unicode="&#xe018;" horiz-adv-x="290" 
d="M147 1040h-147q25 217 102 379h86q-41 -199 -41 -379z" />
    <glyph glyph-name="quoteright.titling" unicode="&#xe019;" horiz-adv-x="290" 
d="M41 1419h147q-25 -213 -104 -379h-84q41 195 41 379z" />
    <glyph glyph-name="quotedblleft.titling" unicode="&#xe01c;" horiz-adv-x="550" 
d="M147 1040h-147q25 217 102 379h86q-41 -199 -41 -379zM408 1040h-148q25 217 102 379h87q-41 -199 -41 -379z" />
    <glyph glyph-name="inches" unicode="&#xe022;" horiz-adv-x="626" 
d="M346 1040l41 379h150l-105 -379h-86zM84 1040l43 379h149l-104 -379h-88z" />
    <glyph glyph-name="feet" unicode="&#xe027;" horiz-adv-x="366" 
d="M84 1040l43 379h149l-104 -379h-88z" />
    <glyph glyph-name="zero.titling" unicode="&#xe030;" horiz-adv-x="1206" 
d="M553 61q406 0 405 641q0 318 -101 486t-302 168q-410 0 -410 -643q1 -315 103 -483t305 -169zM1104 713q0 -358 -150 -548t-403 -190q-255 -1 -403 185t-148 544t152 548t402 190t400 -186t150 -543z" />
    <glyph glyph-name="one.titling" unicode="&#xe031;" horiz-adv-x="706" 
d="M25 0v66l217 24v1198l-242 -53v63l342 140h43v-1348l219 -24v-66h-579z" />
    <glyph glyph-name="two.titling" unicode="&#xe032;" horiz-adv-x="1007" 
d="M0 0v78l354 352q171 171 239 268q68 96 94 172t26 156q0 311 -330 311q-141 0 -320 -73v75q176 103 374 103t311 -102q112 -102 112 -284q0 -180 -106 -332t-330 -353l-270 -248v-4h612l68 198h71l-20 -317h-885z" />
    <glyph glyph-name="three.titling" unicode="&#xe033;" horiz-adv-x="968" 
d="M391 -23q-221 0 -391 95v75q174 -69 351 -69t274 82q96 82 96 238t-91 229q-91 74 -284 73h-98v93h86q156 -1 244 71t88 205q0 274 -308 274q-145 0 -301 -55v74q167 80 349 80t290 -91t109 -259q0 -129 -76 -214t-194 -120v-6q145 -23 238 -111t93 -267t-127 -288
t-348 -109z" />
    <glyph glyph-name="four.titling" unicode="&#xe034;" horiz-adv-x="1144" 
d="M123 516h543v719h-7l-536 -715v-4zM473 0v66l193 24v328h-666v88l688 913h117v-903h237v-98h-237v-328l192 -24v-66h-524z" />
    <glyph glyph-name="five.titling" unicode="&#xe035;" horiz-adv-x="976" 
d="M367 -23q-193 0 -367 97v73q172 -67 348 -67t278 90q101 90 101 252q0 350 -389 350q-100 0 -246 -33l53 680h699l-13 -123h-600l-34 -450q94 25 192 24q233 0 360 -113q125 -114 125 -323t-132 -333t-375 -124z" />
    <glyph glyph-name="six.titling" unicode="&#xe036;" horiz-adv-x="1079" 
d="M510 61q154 1 238 97t84 266t-92 252t-262 82t-333 -109v-26q0 -562 365 -562zM510 -25q-246 0 -378 173t-132 487q0 213 51 373t140 252q176 182 440 182q166 0 272 -66v-78q-104 47 -254 48q-469 0 -502 -617q184 127 384 127t323 -110t123 -312t-127 -331
q-127 -128 -340 -128z" />
    <glyph glyph-name="seven.titling" unicode="&#xe037;" horiz-adv-x="1017" 
d="M821 1296h-704l-43 -168h-74l16 291h899v-106l-583 -1313h-158l647 1290v6z" />
    <glyph glyph-name="eight.titling" unicode="&#xe038;" horiz-adv-x="1091" 
d="M791 1108q0 123 -83 186q-84 64 -218 64t-218 -66t-84 -186t82 -186t271 -127q115 51 183 121t67 194zM137 354q1 -137 91 -216t265 -79t267 75t92 206q0 72 -25 124q-43 89 -213 163q-61 27 -178 69q-299 -121 -299 -342zM989 350q0 -162 -130 -270t-362 -107
q-233 1 -365 101t-132 274q0 144 101 238t251 145q-145 61 -220 147t-75 228q0 140 120 239q119 99 313 99t314 -88t120 -234t-81 -227q-81 -80 -216 -135q174 -66 268 -157t94 -253z" />
    <glyph glyph-name="nine.titling" unicode="&#xe039;" horiz-adv-x="1079" 
d="M145 996q0 -170 88 -252q87 -82 263 -82t335 112v23q0 559 -358 559q-154 0 -241 -95t-87 -265zM344 -25q-170 0 -270 68v76q111 -47 252 -47q236 0 362 141t139 479q-181 -131 -383 -131t-323 112q-121 113 -121 315t130 328t341 126q246 0 376 -175t130 -483
q0 -416 -166 -612t-467 -197z" />
    <glyph glyph-name="A.titling" unicode="&#xe041;" horiz-adv-x="1427" 
d="M641 1237l-240 -692h482l-234 692h-8zM0 0v66l137 28l469 1325h119l463 -1325l137 -28v-66h-459v66l170 26l-125 371h-538l-129 -371l172 -26v-66h-416z" />
    <glyph glyph-name="B.titling" unicode="&#xe042;" horiz-adv-x="1210" 
d="M326 776h245q309 0 310 271q0 168 -81 226t-251 58h-223v-555zM326 88h274q356 0 356 301q0 162 -90 235t-266 72h-274v-608zM0 0v66l182 26v1235l-180 27v65h559q233 0 352 -83t119 -265q0 -121 -64 -209t-200 -114v-9q178 -27 259 -115t81 -254t-128 -268t-357 -102
h-623z" />
    <glyph glyph-name="C.titling" unicode="&#xe043;" horiz-adv-x="1183" 
d="M653 -25q-313 1 -483 181t-170 544q0 559 406 702q119 42 304 42t347 -60l12 -325h-74l-61 239q-119 57 -279 58q-251 0 -377 -163t-126 -466q0 -662 516 -661q150 0 276 61l62 254h75l-12 -332q-176 -74 -416 -74z" />
    <glyph glyph-name="D.titling" unicode="&#xe044;" horiz-adv-x="1341" 
d="M326 86h237q272 0 399 144q126 144 125 485q0 186 -33 309q-62 226 -282 284q-98 26 -246 25h-200v-1247zM0 0v66l182 26v1235l-180 27v65h541q371 0 533 -172t163 -523q0 -352 -162 -538t-514 -186h-563z" />
    <glyph glyph-name="E.titling" unicode="&#xe045;" horiz-adv-x="1185" 
d="M0 0v66l182 26v1235l-180 27v65h1022l20 -334h-73l-66 248h-579v-561h331l39 195h70v-473h-70l-39 196h-331v-604h604l80 295h73l-22 -381h-1061z" />
    <glyph glyph-name="F.titling" unicode="&#xe046;" horiz-adv-x="1155" 
d="M0 0v66l182 26v1235l-180 27v65h1030l21 -344h-74l-66 258h-587v-583h329l37 192h68v-473h-70l-35 199h-329v-576l204 -26v-66h-530z" />
    <glyph glyph-name="G.titling" unicode="&#xe047;" horiz-adv-x="1353" 
d="M684 -25q-330 -1 -507 179t-177 552t188 556q188 182 490 182q252 0 403 -60l17 -319h-74l-61 231q-119 61 -299 62q-250 0 -381 -165t-131 -466q0 -664 526 -664q129 0 270 48v419l-194 27v64h497v-64l-157 -27v-489q-187 -66 -410 -66z" />
    <glyph glyph-name="H.titling" unicode="&#xe048;" horiz-adv-x="1474" 
d="M0 0v66l180 26v1235l-180 27v65h510v-65l-186 -27v-557h725v557l-189 27v65h512v-65l-178 -27v-1235l178 -26v-66h-512v66l189 26v596h-725v-596l186 -26v-66h-510z" />
    <glyph glyph-name="I.titling" unicode="&#xe049;" horiz-adv-x="612" 
d="M0 0v66l184 26v1235l-184 27v65h510v-65l-182 -27v-1235l182 -26v-66h-510z" />
    <glyph glyph-name="J.titling" unicode="&#xe04a;" horiz-adv-x="858" 
d="M578 309q0 -157 -86 -241t-238 -84t-254 49v86q122 -39 226 -39t156 57t52 187v1003l-184 27v65h506v-65l-178 -27v-1018z" />
    <glyph glyph-name="K.titling" unicode="&#xe04b;" horiz-adv-x="1329" 
d="M797 1419h407v-65l-135 -27l-514 -594l514 -641l158 -26v-66h-262l-541 678v37l518 612l-145 27v65zM0 0v66l180 26v1235l-180 27v65h516v-65l-192 -27v-1235l192 -26v-66h-516z" />
    <glyph glyph-name="L.titling" unicode="&#xe04c;" horiz-adv-x="1132" 
d="M0 0v66l180 26v1235l-180 27v65h522v-65l-198 -27v-1241h559l73 317h74l-26 -403h-1004z" />
    <glyph glyph-name="M.titling" unicode="&#xe04d;" horiz-adv-x="1742" 
d="M0 0v63l182 29v1235l-182 27v65h393l416 -1124h6l420 1124h405v-65l-190 -27v-1235l190 -26v-66h-505v66l172 26v1219h-4l-467 -1235h-86l-457 1235h-4v-1219l174 -26v-66h-463z" />
    <glyph glyph-name="N.titling" unicode="&#xe04e;" horiz-adv-x="1460" 
d="M0 0v63l182 29v1235l-182 27v65h377l704 -1167h6v1073l-186 29v65h457v-63l-164 -29v-1327h-119l-780 1296h-6v-1204l192 -29v-63h-481z" />
    <glyph glyph-name="O.titling" unicode="&#xe04f;" horiz-adv-x="1349" 
d="M623 1356q-225 0 -349 -169t-122 -473q0 -304 120 -476t347 -172t352 168t125 478q0 308 -124 476t-349 168zM618 -23q-269 0 -444 195q-174 195 -174 543t180 537q180 190 450 190t443 -192q174 -192 174 -540q0 -349 -180 -541t-449 -192z" />
    <glyph glyph-name="P.titling" unicode="&#xe050;" horiz-adv-x="1136" 
d="M0 0v66l180 26v1235l-180 27v65h535q268 0 384 -100q115 -100 115 -298t-121 -297t-319 -99q-102 0 -162 16v68q49 -8 141 -9q311 0 312 316q0 164 -76 238t-256 73h-229v-1235l211 -26v-66h-535z" />
    <glyph glyph-name="Q.titling" unicode="&#xe051;" horiz-adv-x="1406" 
d="M623 1356q-225 0 -349 -169t-122 -473q0 -304 120 -476t347 -172t352 168t125 478q0 308 -124 476t-349 168zM0 729q0 334 180 523q180 190 450 190t443 -192q174 -192 174 -516t-136 -504t-353 -220v-4l547 -112l-33 -127l-797 225q-209 55 -342 229t-133 508z" />
    <glyph glyph-name="R.titling" unicode="&#xe052;" horiz-adv-x="1335" 
d="M328 735h252q164 0 240 83q76 84 77 228q0 144 -74 212t-256 69h-239v-592zM0 0v66l184 26v1235l-180 27v65h567q475 0 476 -377q0 -285 -308 -356v-8l344 -586l150 -29v-63h-258l-375 653h-272v-561l178 -26v-66h-506z" />
    <glyph glyph-name="S.titling" unicode="&#xe053;" horiz-adv-x="989" 
d="M887 372q1 -169 -117 -282t-348 -113t-408 76l-14 301h76l47 -217q139 -69 301 -69t246 76t84 199t-65 189t-224 125l-129 52q-150 57 -228 144t-79 239q0 152 109 251q110 101 310 101t359 -58l12 -280h-74l-40 190q-109 58 -252 58t-221 -62t-78 -172q0 -108 58 -172
t196 -117l129 -51q178 -68 264 -154t86 -254z" />
    <glyph glyph-name="T.titling" unicode="&#xe054;" horiz-adv-x="1245" 
d="M307 0v66l193 26v1241h-369l-57 -284h-74l20 370h1104l19 -370h-74l-57 284h-369v-1241l193 -26v-66h-529z" />
    <glyph glyph-name="U.titling" unicode="&#xe055;" horiz-adv-x="1454" 
d="M1190 449q0 -225 -128 -349t-375 -125q-247 0 -379 121t-132 340v891l-176 27v65h506v-65l-187 -27v-870q0 -385 388 -385q379 0 378 385v870l-182 27v65h449v-65l-162 -27v-878z" />
    <glyph glyph-name="V.titling" unicode="&#xe056;" horiz-adv-x="1409" 
d="M0 1419h455v-65l-172 -27l385 -1139h8l389 1139l-170 27v65h412v-65l-133 -27l-465 -1327h-113l-465 1327l-131 27v65z" />
    <glyph glyph-name="W.titling" unicode="&#xe057;" horiz-adv-x="1959" 
d="M0 1419h432v-65l-164 -27l285 -1106h6l340 1198h88l340 -1198h6l281 1106l-164 27v65h408v-65l-136 -27l-348 -1327h-117l-325 1169h-6l-336 -1169h-117l-348 1327l-125 27v65z" />
    <glyph glyph-name="X.titling" unicode="&#xe058;" horiz-adv-x="1390" 
d="M0 0v66l152 26l413 639l-379 596l-155 27v65h479v-65l-160 -27l314 -508l313 508l-166 27v65h432v-65l-153 -27l-371 -588l416 -647l153 -26v-66h-473v66l162 26l-359 561l-354 -561l166 -29v-63h-430z" />
    <glyph glyph-name="Y.titling" unicode="&#xe059;" horiz-adv-x="1323" 
d="M365 0v66l182 26v543l-420 692l-127 27v65h434v-65l-153 -27l358 -602h6l344 602l-160 27v65h392v-65l-125 -27l-406 -694v-541l178 -26v-66h-503z" />
    <glyph glyph-name="Z.titling" unicode="&#xe05a;" horiz-adv-x="1122" 
d="M0 0v72l844 1251v8h-662l-61 -282h-76l16 370h957v-71l-846 -1252v-8h707l65 279h76l-19 -367h-1001z" />
    <glyph glyph-name="quotecapdblleft" unicode="&#xe11c;" horiz-adv-x="3016" 
d="M2294 -35q-346 0 -543 181t-197 493q0 201 90 353t248 244q312 179 787 187v-45q-426 -23 -665 -212t-228 -482q172 317 577 317q270 0 428 -133q158 -132 158 -372t-185 -386t-470 -145zM807 -35q-346 0 -543 181t-196 493q0 201 89 353t247 244q312 179 788 187v-45
q-426 -23 -665 -212t-228 -482q172 317 578 317q270 0 428 -133q157 -132 157 -372t-185 -386t-470 -145z" />
    <glyph glyph-name="quotecapdblright" unicode="&#xe11d;" horiz-adv-x="3016" 
d="M723 1096q346 0 543 -182t196 -492q0 -202 -89 -354q-162 -277 -603 -380q-197 -46 -432 -50v45q426 23 664 212t229 482q-172 -317 -578 -318q-270 -1 -428 133q-157 134 -157 374t185 384q185 146 470 146zM2210 1096q346 0 543 -182t196 -492q0 -202 -89 -354
q-162 -277 -603 -380q-197 -46 -432 -50v45q427 23 665 212t228 482q-172 -317 -578 -318q-270 -1 -428 133t-158 374t186 384q186 146 470 146z" />
    <glyph glyph-name="zerooldstyle" unicode="&#xf730;" horiz-adv-x="1202" 
d="M981 596q0 266 -99 408q-100 142 -282 141q-182 0 -282 -137q-100 -138 -99 -402t101 -404t283 -139q183 -1 281 133t97 400zM600 1231q230 0 376 -160q148 -160 148 -464t-144 -467t-378 -163t-380 159t-146 463t147 468t377 164z" />
    <glyph glyph-name="oneoldstyle" unicode="&#xf731;" horiz-adv-x="743" 
d="M86 0v61l225 25v993l-250 -45v60l349 133h43v-1141l227 -25v-61h-594z" />
    <glyph glyph-name="twooldstyle" unicode="&#xf732;" horiz-adv-x="956" 
d="M31 0v70l346 292q168 142 248 258t80 236q0 272 -312 272q-145 0 -315 -75v75q174 102 366 102t300 -93q108 -94 108 -267q0 -102 -54 -199t-136 -176t-228 -192l-235 -184v-4h573l68 176h61l-22 -291h-848z" />
    <glyph glyph-name="threeoldstyle" unicode="&#xf733;" horiz-adv-x="960" 
d="M885 169q0 -175 -127 -283t-340 -107q-213 0 -387 92v74q180 -70 351 -70t267 81q96 82 96 236t-90 228t-280 74h-99v90h86q154 0 242 74t88 206q0 270 -301 271q-145 0 -301 -56v72q160 80 345 80t289 -90q104 -91 103 -241q1 -150 -75 -235t-201 -114v-8
q152 -23 243 -111t91 -263z" />
    <glyph glyph-name="fouroldstyle" unicode="&#xf734;" horiz-adv-x="1124" 
d="M147 291h545v731h-6l-539 -727v-4zM692 -201v398h-661v84l688 929h108v-919h238v-94h-238v-398h-135z" />
    <glyph glyph-name="fiveoldstyle" unicode="&#xf735;" horiz-adv-x="968" 
d="M397 -221q-184 0 -354 90v74q172 -68 341 -68t269 90q101 90 101 261t-96 253t-287 82q-109 0 -244 -31l53 680h676l-10 -120h-580l-37 -455q80 25 195 24q229 -1 350 -111t121 -317q-1 -207 -133 -329t-365 -123z" />
    <glyph glyph-name="sixoldstyle" unicode="&#xf736;" horiz-adv-x="1101" 
d="M889 424q0 338 -342 338q-168 0 -324 -115v-24q0 -564 352 -564q150 -1 232 97t82 268zM578 -25q-238 1 -367 177t-129 483q0 592 391 761q109 46 255 46t247 -66v-73q-104 45 -250 45q-209 0 -346 -146t-154 -477q173 131 371 131t316 -110t118 -312t-122 -331
q-122 -128 -330 -128z" />
    <glyph glyph-name="sevenoldstyle" unicode="&#xf737;" horiz-adv-x="956" 
d="M827 1090h-692l-43 -168h-63l16 288h875v-106l-553 -1305h-150l610 1282v9z" />
    <glyph glyph-name="eightoldstyle" unicode="&#xf738;" horiz-adv-x="1128" 
d="M558 1362q-130 0 -212 -68t-82 -188t80 -186q80 -68 266 -127q117 51 183 121q65 70 65 194q0 122 -85 188t-215 66zM564 57q173 0 262 76t89 210t-93 204t-316 149q-295 -109 -295 -342q0 -137 90 -217t263 -80zM568 -27q-228 1 -357 101t-129 274q0 142 101 240
t243 145q-141 57 -214 143t-73 228t116 241q115 99 305 99t306 -88t117 -236q0 -148 -79 -227q-79 -80 -212 -135q172 -62 264 -154t92 -254t-126 -270t-354 -107z" />
    <glyph glyph-name="nineoldstyle" unicode="&#xf739;" horiz-adv-x="1101" 
d="M215 782q0 -336 344 -336q170 0 322 115v23q0 563 -353 563q-150 0 -232 -97t-81 -268zM397 -223q-166 0 -268 65v74q104 -45 250 -45q225 0 354 139t146 473q-169 -131 -369 -131t-319 110q-117 110 -117 312t123 329q123 128 329 128q238 0 367 -175t129 -485
q0 -412 -170 -603t-455 -191z" />
    </font>
</defs>
</svg>
