<?xml version="1.0" standalone="no"?>
<!DOCTYPE svg PUBLIC "-//W3C//DTD SVG 1.1//EN" "http://www.w3.org/Graphics/SVG/1.1/DTD/svg11.dtd" >
<svg xmlns="http://www.w3.org/2000/svg">
<metadata>
Created by FontPrep 20130207 at Tue Feb 25 17:33:02 2014
 By Tom
Copyright (c) Christian Schwartz &#38; Paul Barnes, 2005. All rights reserved.
</metadata>
<defs>
<font id="8a5c181327edc8adbea67eae28cf8e77" horiz-adv-x='1024' >
  <font-face 
    font-family="TE31TextEgyptian"
    font-weight="300"
    font-stretch="normal"
    units-per-em="2048"
    panose-1="2 0 5 3 6 0 0 2 0 4"
    ascent="1638"
    descent="-410"
    x-height="1094"
    cap-height="1477"
    bbox="-322 -492 3301 2048"
    underline-thickness="40"
    underline-position="-231"
    unicode-range="U+0020-FB04"
  />
<missing-glyph 
 />
    <glyph glyph-name="ff" unicode="ff" horiz-adv-x="1417" 
d="M885 1251q0 92 30 162q-104 105 -236 105q-267 1 -265 -304v-120h471v157zM57 0v61l160 35v891h-154v66l154 53v121q0 184 127 283q128 100 318 100t333 -84q119 109 314 108q141 0 231 -28v-242h-119l-43 172q-35 6 -78 6q-100 0 -159 -78t-60 -225v-145h291v-107h-291
v-891l189 -35v-61h-543v61l158 35v891h-471v-891l157 -35v-61h-514z" />
    <glyph glyph-name="fi" unicode="fi" horiz-adv-x="1306" 
d="M727 0v61l158 35v891h-471v-891l157 -35v-61h-514v61l160 35v891h-154v66l154 53v145q0 183 129 283t335 100t273 -24v-246h-118l-41 166q-53 12 -101 12q-131 0 -206 -77t-74 -226v-145h536l109 16l22 -12v-1002l162 -35v-61h-516z" />
    <glyph glyph-name="fl" unicode="fl" horiz-adv-x="1296" 
d="M57 0v61l160 35v891h-154v66l154 53v145q0 183 127 283q126 100 316 100t315 -67l82 65l24 -12v-1524l162 -35v-61h-516v61l158 35v1366q-51 40 -99 60t-124 20q-248 0 -248 -303v-145h291v-107h-291v-891l157 -35v-61h-514z" />
    <glyph glyph-name="ffi" unicode="ffi" horiz-adv-x="1974" 
d="M885 1251q0 84 33 160q-56 57 -114 82t-158 25t-166 -77q-67 -77 -66 -227v-120h471v157zM57 0v61l160 35v891h-154v66l154 53v121q0 184 127 283q126 100 316 100t339 -86q127 110 336 110t287 -24v-246h-119l-41 166q-53 12 -100 12q-131 0 -206 -77t-75 -226v-145h537
l108 16l23 -12v-1002l162 -35v-61h-516v61l157 35v891h-471v-891l158 -35v-61h-512v61l158 35v891h-471v-891l157 -35v-61h-514z" />
    <glyph glyph-name="ffl" unicode="ffl" horiz-adv-x="1964" 
d="M885 1251q0 88 33 160q-56 57 -114 82t-158 25t-166 -77q-67 -77 -66 -227v-120h471v157zM57 0v61l160 35v891h-154v66l154 53v121q0 184 127 283q126 100 318 100t337 -86q123 111 347 110q172 0 296 -67l82 65l25 -12v-1524l162 -35v-61h-516v61l157 35v1366
q-51 40 -98 60t-125 20q-248 0 -248 -303v-145h291v-107h-291v-891l158 -35v-61h-514v61l160 35v891h-471v-891l157 -35v-61h-514z" />
    <glyph glyph-name=".notdef" 
 />
    <glyph glyph-name=".null" horiz-adv-x="0" 
 />
    <glyph glyph-name="nonmarkingreturn" horiz-adv-x="681" 
 />
    <glyph glyph-name="space" unicode=" " horiz-adv-x="475" 
 />
    <glyph glyph-name="exclam" unicode="!" horiz-adv-x="532" 
d="M266 -25q-53 0 -91 39t-38 91q0 51 38 89t91 38t92 -38t39 -90t-39 -90q-39 -39 -92 -39zM213 410l-63 1067h225l-64 -1067h-98z" />
    <glyph glyph-name="quotedbl" unicode="&#x22;" horiz-adv-x="1087" 
d="M747 1253q-57 0 -90 32t-33 90t43 92t113 34t122 -58t52 -165q1 -274 -366 -395l-27 65q152 72 210 154t60 198q-27 -47 -84 -47zM280 1253q-58 0 -90 32t-32 90t42 92t112 34t123 -58q52 -58 52 -165q1 -274 -366 -395l-27 65q152 72 210 154t61 198q-27 -47 -85 -47z
" />
    <glyph glyph-name="numbersign" unicode="#" horiz-adv-x="1155" 
d="M461 854l-49 -315h282l49 315h-282zM164 850v160h213l57 360h109l-58 -360h283l57 360h109l-57 -360h182v-160h-207l-49 -307h188v-160h-213l-59 -383h-109l60 383h-283l-59 -383h-109l60 383h-183v160h207l49 307h-188z" />
    <glyph glyph-name="dollar" unicode="$" horiz-adv-x="1099" 
d="M541 1309q-119 0 -191 -59t-71 -161q0 -102 45 -152t165 -99l15 -7l51 478h-14zM817 324q0 108 -52 164t-179 110l-60 -535q291 3 291 261zM106 1032q0 164 115 263t338 100h4l23 198h106l-22 -204q80 -8 243 -58l15 -266h-99l-55 195q-68 29 -115 36l-53 -505l53 -21
q162 -63 252 -147t90 -250q-1 -166 -119 -279t-364 -117l-29 -268h-106l29 271q-164 10 -306 63l-14 305h98l68 -221q80 -41 164 -55l61 569l-80 33q-297 119 -297 358z" />
    <glyph glyph-name="percent" unicode="%" horiz-adv-x="1845" 
d="M1419 59q170 0 170 292t-170 292t-170 -292t170 -292zM424 690q170 0 170 292t-170 292t-170 -292t170 -292zM358 -63l990 1433h127l-990 -1433h-127zM768 983q0 -173 -98 -273t-248 -100q-148 0 -244 96t-96 273q0 176 98 274q98 99 244 99t244 -98q100 -98 100 -271z
M1420 -18q-148 0 -245 95t-97 270t98 275q100 100 245 101q145 0 243 -97q98 -96 99 -272q0 -176 -97 -274q-98 -98 -246 -98z" />
    <glyph glyph-name="ampersand" unicode="&#x26;" horiz-adv-x="1478" 
d="M664 1403q-84 0 -134 -65t-51 -160q0 -95 32 -157t99 -142q111 63 162 140t51 183q0 201 -159 201zM614 92q160 0 306 123l-443 520q-193 -129 -192 -340q0 -137 84 -220q85 -83 245 -83zM568 -25q-232 0 -367 110t-135 288q0 139 88 235t268 195q-139 174 -139 337
t113 262q114 99 268 99t252 -78q100 -78 100 -211t-88 -220t-262 -179l383 -448q90 139 122 313l-163 45v76h446v-76l-154 -43q-57 -223 -182 -395l146 -168l172 -39v-78h-332l-119 139q-185 -164 -417 -164z" />
    <glyph glyph-name="quotesingle" unicode="'" horiz-adv-x="620" 
d="M280 1253q-58 0 -90 32t-32 90t42 92t112 34t123 -58q52 -58 52 -165q1 -274 -366 -395l-27 65q152 72 210 154t61 198q-27 -47 -85 -47z" />
    <glyph glyph-name="parenleft" unicode="(" horiz-adv-x="718" 
d="M106 652q0 148 48 297q109 342 452 632l60 -55q-152 -166 -248 -384t-96 -456q0 -549 344 -924l-60 -57q-76 63 -133 117t-131 147q-236 293 -236 683z" />
    <glyph glyph-name="parenright" unicode=")" horiz-adv-x="718" 
d="M397 600q0 549 -344 924l60 57q76 -63 133 -117t131 -147q74 -92 121 -184q47 -91 81 -221q76 -290 -14 -575q-109 -342 -452 -632l-60 55q152 166 248 384t96 456z" />
    <glyph glyph-name="asterisk" unicode="*" horiz-adv-x="956" 
d="M391 737l76 353l-268 -242l-84 141l344 117l-344 117l84 141l268 -242l-76 355h174l-78 -353l271 240l84 -141l-346 -117l346 -117l-84 -141l-271 242l78 -353h-174z" />
    <glyph glyph-name="plus" unicode="+" horiz-adv-x="1263" 
d="M150 608v113h421v432h121v-432h422v-113h-422v-432h-121v432h-421z" />
    <glyph glyph-name="comma" unicode="," horiz-adv-x="638" 
d="M314 270q72 0 128 -57q55 -57 56 -166q0 -272 -381 -395l-27 65q156 74 218 150t67 199q-29 -58 -89 -58t-97 36q-36 36 -35 93q0 57 44 95t116 38z" />
    <glyph glyph-name="hyphen" unicode="-" horiz-adv-x="739" 
d="M113 528v166h514v-166h-514z" />
    <glyph glyph-name="period" unicode="." horiz-adv-x="638" 
d="M319 -37q-65 0 -111 44t-46 110q0 65 46 109t112 44t111 -44q46 -44 46 -110t-46 -109q-46 -44 -112 -44z" />
    <glyph glyph-name="slash" unicode="/" horiz-adv-x="768" 
d="M41 -256l526 1817h119l-526 -1817h-119z" />
    <glyph glyph-name="zero" unicode="0" horiz-adv-x="1296" 
d="M652 70q175 0 251 123t76 426t-80 438t-253 135t-252 -129t-79 -428t81 -432t256 -133zM650 -29q-248 0 -398 163t-150 491q0 327 153 495t393 168t392 -163t152 -491t-148 -496q-148 -167 -394 -167z" />
    <glyph glyph-name="one" unicode="1" horiz-adv-x="890" 
d="M111 0v72l254 34v977l-275 -22v69l432 152h58v-1176l251 -34v-72h-720z" />
    <glyph glyph-name="two" unicode="2" horiz-adv-x="1069" 
d="M455 1180q-86 0 -174 -21l-62 -235h-119v276q197 88 407 88t328 -95t117 -271q0 -126 -82 -245q-32 -48 -110 -118t-134 -113t-180 -135l-192 -143v-4h735l-18 -164h-930v96l346 297q176 149 261 265t85 249q1 273 -278 273z" />
    <glyph glyph-name="three" unicode="3" horiz-adv-x="1073" 
d="M434 1186q-74 0 -145 -10l-64 -238h-119v276q184 74 383 74t312 -96t112 -272q0 -276 -295 -351v-8q354 -57 355 -381q0 -190 -138 -303q-139 -113 -371 -113t-411 99v86q184 -63 348 -63t265 81q100 82 100 217q0 170 -85 239t-275 69h-95v110h78q156 0 240 78t84 212
t-70 214t-209 80z" />
    <glyph glyph-name="four" unicode="4" horiz-adv-x="1267" 
d="M205 315h520v697h-10l-510 -690v-7zM725 -213v410h-670v108l711 959h160v-949h241v-118h-241v-410h-201z" />
    <glyph glyph-name="five" unicode="5" horiz-adv-x="1085" 
d="M442 -236q-195 0 -372 99v86q197 -66 323 -66q170 0 277 94q106 94 106 261t-91 251t-284 84q-57 0 -241 -28l57 719h721l-18 -170h-598l-33 -416q94 20 207 20q242 0 366 -118t123 -334q-1 -214 -151 -348t-392 -134z" />
    <glyph glyph-name="six" unicode="6" horiz-adv-x="1204" 
d="M616 66q287 0 287 372q0 193 -76 272q-75 78 -225 78t-299 -108v-33q0 -581 313 -581zM1114 458q0 -208 -134 -348t-370 -139q-238 -1 -377 187t-139 506q0 214 58 380t155 264q194 194 465 193q190 0 299 -71v-89q-106 43 -270 43q-199 0 -335 -143t-161 -479
q154 143 381 143q186 0 307 -119q121 -120 121 -328z" />
    <glyph glyph-name="seven" unicode="7" horiz-adv-x="1064" 
d="M897 1094h-694l-62 -164h-90l19 334h929v-148l-561 -1329h-219l678 1296v11z" />
    <glyph glyph-name="eight" unicode="8" horiz-adv-x="1251" 
d="M899 1130q0 135 -82 208t-200 73q-119 0 -195 -75q-76 -76 -76 -192t80 -180t287 -135q61 45 95 76t62 90q29 59 29 135zM289 373q0 -143 86 -227t249 -83q164 0 246 79t82 194t-50 170q-30 32 -56 54q-55 45 -332 151q-225 -131 -225 -338zM632 -29q-245 -1 -385 103
t-141 288q0 138 98 238t234 148v10q-141 66 -206 152t-64 214q0 160 123 269t327 109t332 -94q127 -93 127 -261q0 -238 -282 -352v-11q174 -70 261 -162t87 -231q0 -186 -133 -303t-378 -117z" />
    <glyph glyph-name="nine" unicode="9" horiz-adv-x="1204" 
d="M590 473q164 0 313 109v32q0 582 -315 582q-143 0 -214 -99t-71 -280q0 -344 287 -344zM434 -242q-190 0 -299 74v88q96 -43 268 -43q213 0 343 140t155 483q-154 -143 -381 -144q-188 0 -308 119t-120 328t132 347t370 138t378 -186t140 -506q0 -424 -188 -631
t-490 -207z" />
    <glyph glyph-name="colon" unicode=":" horiz-adv-x="659" 
d="M330 -37q-66 0 -112 44t-46 110q0 65 46 109t112 44t112 -44t45 -110q1 -66 -45 -109q-46 -44 -112 -44zM330 623q-66 0 -112 44q-46 43 -46 109t46 110t112 44t112 -44t45 -110q1 -66 -45 -110t-112 -43z" />
    <glyph glyph-name="semicolon" unicode=";" horiz-adv-x="659" 
d="M330 623q-66 0 -112 44q-46 43 -46 109t46 110t112 44t112 -44t45 -110q1 -66 -45 -110t-112 -43zM164 137q0 57 44 95t116 38t128 -57t56 -166q0 -272 -381 -395l-27 65q156 74 218 150t67 199q-29 -58 -89 -58t-96 36t-36 93z" />
    <glyph glyph-name="less" unicode="&#x3c;" horiz-adv-x="1200" 
d="M1022 193l-866 415v109l866 413v-129l-735 -337l735 -340v-131z" />
    <glyph glyph-name="equal" unicode="=" horiz-adv-x="1220" 
d="M156 344v113h909v-113h-909zM156 745v113h909v-113h-909z" />
    <glyph glyph-name="greater" unicode="&#x3e;" horiz-adv-x="1200" 
d="M178 193v129l735 337l-735 340v131l866 -415v-109z" />
    <glyph glyph-name="question" unicode="?" horiz-adv-x="927" 
d="M371 -25q-53 0 -91 39t-38 91q0 51 38 89t91 38t92 -38t39 -90t-39 -90q-39 -39 -92 -39zM346 1405q-45 0 -106 -8l-45 -185h-119v236q150 53 338 53t304 -86t116 -266q0 -133 -62 -214t-209 -173q-35 -17 -53 -32t-52 -39t-51 -63q-16 -39 -16 -83q0 -43 23 -135h-92
q-41 98 -41 181t43 136t141 129t131 134q33 60 33 170t-73 178t-210 67z" />
    <glyph glyph-name="at" unicode="@" horiz-adv-x="1966" 
d="M776 406q0 -98 30 -144t110 -45q79 0 169 82l103 524q-39 76 -146 76q-130 0 -198 -144t-68 -349zM983 -330q-418 0 -643 205t-225 574q0 268 117 495q118 228 340 366t503 138q354 0 565 -200t211 -548q1 -270 -155 -435t-381 -165q-184 0 -221 133h-7
q-115 -119 -237 -119t-191 76q-70 76 -69 220q0 233 125 403t325 170q101 0 158 -34q20 -11 57 -36l58 52h82l-127 -652q-25 -115 75 -114q164 0 273 128t108 367q0 322 -169 490t-484 168q-381 0 -602 -253t-221 -648q0 -348 183 -514t552 -166q272 0 496 77v-84
q-205 -94 -496 -94z" />
    <glyph glyph-name="A" unicode="A" horiz-adv-x="1449" 
d="M578 944l-129 -379h458l-121 379l-94 346h-10q-61 -219 -104 -346zM18 0v78l150 39l477 1360h176l463 -1360l148 -39v-78h-551v78l170 39l-113 350h-522l-119 -350l172 -39v-78h-451z" />
    <glyph glyph-name="B" unicode="B" horiz-adv-x="1351" 
d="M475 813h191q299 0 299 260q0 169 -73 231t-230 62h-187v-553zM475 109h227q170 1 255 73t85 230t-82 230t-249 73h-236v-606zM68 0v78l192 39v1243l-190 39v78h610q260 0 388 -89t128 -274q0 -123 -80 -214t-260 -118v-12q228 -27 322 -118t94 -262q0 -170 -139 -280
t-398 -110h-667z" />
    <glyph glyph-name="C" unicode="C" horiz-adv-x="1347" 
d="M791 -25q-329 1 -517 181t-188 565q0 213 60 369t166 242q206 168 503 169q244 0 410 -55l10 -361h-88l-88 265q-125 53 -271 53q-475 0 -475 -641q0 -352 118 -519t380 -167q152 0 256 59l88 285h94l-14 -371q-174 -74 -444 -74z" />
    <glyph glyph-name="D" unicode="D" horiz-adv-x="1492" 
d="M475 106h217q256 0 372 138t116 499q0 287 -66 417q-35 69 -77 111q-74 74 -241 92q-65 7 -163 7h-158v-1264zM68 0v78l192 39v1241l-190 41v78h594q393 1 570 -177t177 -524q0 -776 -723 -776h-620z" />
    <glyph glyph-name="E" unicode="E" horiz-adv-x="1308" 
d="M68 0v78l192 39v1241l-190 41v78h1106l24 -367h-94l-92 260h-539v-559h293l59 207h82v-516h-82l-59 211h-293v-607h561l115 320h94l-28 -426h-1149z" />
    <glyph glyph-name="F" unicode="F" horiz-adv-x="1298" 
d="M68 0v78l192 37v1243l-190 41v78h1108l24 -379h-94l-92 272h-541v-586h297l57 205h82v-518h-84l-55 215h-297v-569l207 -39v-78h-614z" />
    <glyph glyph-name="G" unicode="G" horiz-adv-x="1468" 
d="M827 -29q-741 0 -741 750q0 211 62 368t170 243q210 168 509 169q254 0 426 -53l17 -365h-88l-90 263q-109 57 -287 57q-242 0 -367 -165q-125 -164 -125 -494t119 -499t381 -169q127 0 236 39v442l-197 37v78h571v-78l-159 -37v-518q-193 -68 -437 -68z" />
    <glyph glyph-name="H" unicode="H" horiz-adv-x="1607" 
d="M68 0v78l190 37v1243l-190 41v78h591v-78l-186 -41v-553h666v553l-191 41v78h592v-78l-186 -41v-1243l186 -37v-78h-592v78l191 37v592h-666v-592l186 -37v-78h-591z" />
    <glyph glyph-name="I" unicode="I" horiz-adv-x="724" 
d="M68 0v78l190 37v1245l-190 39v78h591v-78l-186 -39v-1245l186 -37v-78h-591z" />
    <glyph glyph-name="J" unicode="J" horiz-adv-x="917" 
d="M297 -20q-123 0 -250 63v98q115 -37 216 -37t155 50t55 176v1028l-190 41v78h591v-78l-186 -41v-1039q0 -163 -102 -251t-289 -88z" />
    <glyph glyph-name="K" unicode="K" horiz-adv-x="1460" 
d="M68 0v78l190 37v1245l-190 39v78h600v-78l-195 -39v-676l604 676l-147 39v78h450v-78l-145 -39l-457 -498l477 -745l162 -39v-78h-334l-452 709l-158 -136v-458l195 -37v-78h-600z" />
    <glyph glyph-name="L" unicode="L" horiz-adv-x="1241" 
d="M68 0v88l190 27v1245l-190 39v78h612v-78l-207 -39v-1254h512l107 361h90l-27 -467h-1087z" />
    <glyph glyph-name="M" unicode="M" horiz-adv-x="1908" 
d="M68 0v76l190 39v1245l-190 39v78h493l246 -709q56 -159 106 -408l19 -81h10q74 301 137 489l248 709h514v-78l-207 -39v-1243l207 -39v-78h-581v78l163 39v741l9 526h-11q-90 -307 -159 -501l-289 -811h-142l-278 811q-43 119 -131 420l-23 81h-10q8 -322 8 -526v-741
l168 -39v-78h-497z" />
    <glyph glyph-name="N" unicode="N" horiz-adv-x="1570" 
d="M68 0v74l192 41v1243l-192 41v78h467l499 -820q55 -91 146 -284l26 -58h11v1041l-191 43v78h498v-76l-170 -43v-1358h-160l-612 1012q-52 87 -146 278l-26 56h-11v-1229l193 -41v-76h-524z" />
    <glyph glyph-name="O" unicode="O" horiz-adv-x="1517" 
d="M313 742q-1 -666 437 -666q228 0 342 172q113 172 112 467q0 688 -450 688q-219 0 -330 -172q-111 -173 -111 -489zM756 -25q-291 0 -481 203q-189 203 -189 561q0 190 58 341t156 240q198 181 475 181q278 0 467 -201t190 -557q0 -190 -58 -342q-105 -273 -372 -378
q-117 -48 -246 -48z" />
    <glyph glyph-name="P" unicode="P" horiz-adv-x="1245" 
d="M473 1366v-623q94 -16 203 -16q158 0 232 78t75 244q0 165 -72 241t-231 76h-207zM68 0v78l190 39v1243l-190 39v78h610q530 0 530 -410q0 -215 -137 -330t-362 -114q-113 0 -236 20v-526l225 -39v-78h-630z" />
    <glyph glyph-name="Q" unicode="Q" horiz-adv-x="1517" 
d="M313 744q1 -316 105 -490t332 -174t342 170q113 170 112 465q0 688 -450 688q-219 0 -330 -172q-111 -171 -111 -487zM86 747q0 182 58 333t156 240q198 181 475 181q278 0 467 -201q190 -202 190 -534t-140 -512t-370 -215v-10l686 -138l-54 -184l-970 285
q-185 54 -330 212q-168 183 -168 543z" />
    <glyph glyph-name="R" unicode="R" horiz-adv-x="1417" 
d="M477 760h217q158 0 229 90t71 230t-71 210t-231 70h-215v-600zM68 0v78l194 39v1241l-188 41v78h624q516 0 516 -400q0 -266 -305 -364v-8l342 -590l152 -39v-76h-320l-378 662h-228v-545l185 -39v-78h-594z" />
    <glyph glyph-name="S" unicode="S" horiz-adv-x="1167" 
d="M1079 409q0 -177 -130 -305t-379 -129q-249 0 -431 72l-14 336h92l70 -238q123 -67 281 -67t241 76q82 76 82 194q1 118 -63 176q-64 57 -216 123l-180 78q-135 57 -209 148q-73 91 -73 250t120 270q121 111 341 111t376 -54l14 -315h-90l-59 211q-111 55 -241 55
q-130 -1 -210 -61q-79 -60 -79 -164t56 -163q56 -58 177 -108l180 -74q168 -69 256 -157t88 -265z" />
    <glyph glyph-name="T" unicode="T" horiz-adv-x="1327" 
d="M358 0v78l197 37v1255h-336l-82 -315h-92l23 422h1192l22 -422h-92l-82 315h-336v-1255l195 -37v-78h-609z" />
    <glyph glyph-name="U" unicode="U" horiz-adv-x="1501" 
d="M1311 469q1 -233 -139 -365t-407 -133q-267 0 -410 128q-142 128 -142 350v911l-186 39v78h591v-78l-188 -39v-875q0 -197 91 -291t284 -96q371 0 371 389v871l-191 39v80h490v-78l-164 -39v-891z" />
    <glyph glyph-name="V" unicode="V" horiz-adv-x="1431" 
d="M29 1477h536v-78l-172 -41l230 -709q37 -111 106 -375l19 -73h10q80 279 137 448l231 709l-170 41v78h445v-78l-137 -41l-465 -1358h-168l-465 1358l-137 41v78z" />
    <glyph glyph-name="W" unicode="W" horiz-adv-x="2062" 
d="M35 1477h504v-78l-160 -41l158 -613q47 -181 94 -426l14 -81h10q80 313 136 507l196 732h143l199 -736q28 -100 103 -422l18 -83h10q78 313 127 509l156 613l-162 41v78h449v-78l-152 -41l-365 -1358h-174l-192 688q-50 176 -92 434l-15 88h-10q-76 -315 -133 -514
l-197 -696h-174l-362 1358l-129 41v78z" />
    <glyph glyph-name="X" unicode="X" horiz-adv-x="1492" 
d="M68 0v78l159 39l402 647l-375 596l-162 39v78h565v-78l-153 -39l289 -502h10l268 502l-162 39v78h471v-78l-161 -39l-349 -604l396 -641l159 -37v-78h-555v78l158 37l-326 551h-10l-317 -549l162 -41v-76h-469z" />
    <glyph glyph-name="Y" unicode="Y" horiz-adv-x="1357" 
d="M397 0v78l189 39v536l-430 705l-131 41v78h512v-78l-148 -41l348 -596h8l326 596l-158 41v78h420v-78l-129 -41l-403 -709v-532l186 -39v-78h-590z" />
    <glyph glyph-name="Z" unicode="Z" horiz-adv-x="1189" 
d="M49 0v84l825 1278v8h-587l-92 -280h-105l21 387h1024v-82l-828 -1280v-9h639l94 283h103l-21 -389h-1073z" />
    <glyph glyph-name="bracketleft" unicode="[" horiz-adv-x="765" 
d="M164 -256v1817h506v-76l-314 -39v-1585l314 -39v-78h-506z" />
    <glyph glyph-name="backslash" unicode="\" horiz-adv-x="768" 
d="M727 -256h-119l-526 1817h119z" />
    <glyph glyph-name="bracketright" unicode="]" horiz-adv-x="765" 
d="M96 -256v78l314 39v1585l-314 39v76h508v-1817h-508z" />
    <glyph glyph-name="asciicircum" unicode="^" horiz-adv-x="978" 
d="M80 883l348 594h125l346 -594h-100l-310 411l-309 -411h-100z" />
    <glyph glyph-name="underscore" unicode="_" horiz-adv-x="716" 
d="M-4 -248v90h725v-90h-725z" />
    <glyph glyph-name="grave" unicode="`" 
d="M733 1245l-483 187l72 157l442 -276z" />
    <glyph glyph-name="a" unicode="a" horiz-adv-x="1067" 
d="M262 299q0 -89 52 -147t158 -58q104 0 208 88v336l-221 -16q-197 -14 -197 -203zM432 1012q-49 0 -131 -15l-47 -196h-119v246q213 67 393 67t264 -79t85 -242v-639q0 -47 24 -61q25 -13 80 -13h68v-64q-111 -37 -189 -36q-158 0 -160 133h-12q-136 -141 -290 -141
t-246 84t-92 220t83 196q84 60 254 95l283 58v112q0 159 -46 217t-202 58z" />
    <glyph glyph-name="b" unicode="b" horiz-adv-x="1214" 
d="M594 68q150 0 239 110t89 358q0 246 -81 344t-239 99q-80 0 -167 -36q-17 -7 -47 -19t-34 -15v-766q90 -75 240 -75zM559 -25q-213 0 -401 78v1422l-162 32v72l321 49l27 -10v-643h10q58 43 98 67t108 49q141 50 295 0q274 -93 271 -503q0 -297 -152 -455t-415 -158z" />
    <glyph glyph-name="c" unicode="c" horiz-adv-x="1021" 
d="M612 -25q-254 0 -393 151q-139 152 -139 428t162 418t415 142q158 0 287 -43v-274h-113l-43 200q-57 20 -155 21q-164 0 -257 -120t-93 -348t104 -340q104 -114 264 -114t314 74v-78q-156 -117 -353 -117z" />
    <glyph glyph-name="d" unicode="d" horiz-adv-x="1284" 
d="M616 104q84 0 244 80v756q-16 16 -45 32q-29 17 -39 20t-28 10q-46 18 -117 18q-162 0 -250 -108t-88 -353q-1 -245 81 -350t242 -105zM90 520q0 295 151 445t414 149q102 0 205 -31v381l-176 33v82l348 49l25 -10v-1483l162 -35v-71l-322 -49l-25 10v121h-12
q-131 -136 -304 -136t-308 113q-72 59 -115 170t-43 262z" />
    <glyph glyph-name="e" unicode="e" horiz-adv-x="1110" 
d="M811 629q0 205 -58 298q-59 93 -187 93t-198 -90t-85 -301h528zM616 -25q-270 0 -403 157t-133 418t144 413t360 151q451 0 450 -571h-751q8 -213 106 -331t252 -118t254 44q35 15 90 44v-76q-148 -131 -369 -131z" />
    <glyph glyph-name="f" unicode="f" horiz-adv-x="759" 
d="M633 1542q-99 0 -159 -78t-60 -225v-145h291v-107h-291v-891l188 -35v-61h-545v61l160 35v891h-154v66l154 53v145q0 183 120 283q119 100 285 100t250 -26v-244h-118l-43 172q-33 6 -78 6z" />
    <glyph glyph-name="g" unicode="g" horiz-adv-x="1134" 
d="M545 494q104 0 166 66q61 67 61 202t-63 203q-63 67 -167 67t-164 -68q-60 -69 -60 -203q0 -135 61 -201q62 -66 166 -66zM545 -358q170 0 274 68t105 186q0 139 -201 139h-395q-98 -59 -99 -195q0 -86 73 -142t243 -56zM525 -459q-254 0 -368 79t-114 183q0 158 211 248
v12q-117 41 -117 146q0 65 39 137t109 125q-162 91 -162 271t120 276t302 96q123 0 213 -39l344 45v-145l-264 33v-9q129 -85 129 -245t-121 -252t-303 -92q-119 0 -203 32q-29 -30 -45 -78t-16 -78q-1 -30 25 -52t67 -21h385q332 0 331 -264q0 -182 -154 -295t-408 -113z
" />
    <glyph glyph-name="h" unicode="h" horiz-adv-x="1298" 
d="M55 0v61l162 35v1385l-162 32v72l336 49l23 -12v-635h12q210 127 364 127t230 -68t76 -225v-725l161 -35v-61h-516v61l158 35v674q0 111 -56 158q-57 47 -155 47t-274 -62v-817l157 -35v-61h-516z" />
    <glyph glyph-name="i" unicode="i" horiz-adv-x="628" 
d="M307 1323q-53 0 -91 38t-38 89t38 88t91 37t91 -37t38 -88t-38 -89t-91 -38zM57 0v61l160 35v858l-172 33v72l346 51l23 -12v-1002l161 -35v-61h-518z" />
    <glyph glyph-name="j" unicode="j" horiz-adv-x="612" 
d="M319 1323q-53 0 -91 38t-38 89t38 88t91 37t91 -37t39 -88q-1 -51 -39 -89t-91 -38zM144 -440q-124 0 -205 43v67q45 -6 98 -6q193 0 192 217v1073l-172 33v72l346 51l25 -12v-1237q0 -143 -80 -222t-204 -79z" />
    <glyph glyph-name="k" unicode="k" horiz-adv-x="1187" 
d="M580 0h-525v61l162 33v1385l-162 32v72l334 49l25 -12v-1059l116 43l291 389l-129 33v68h424v-68l-168 -33l-303 -372l387 -525l131 -35v-61h-293l-354 489l-102 9v-404l166 -33v-61z" />
    <glyph glyph-name="l" unicode="l" horiz-adv-x="628" 
d="M55 0v61l162 35v1383l-174 32v72l346 49l25 -12v-1524l161 -35v-61h-520z" />
    <glyph glyph-name="m" unicode="m" horiz-adv-x="1939" 
d="M877 758q1 217 -213 217q-102 0 -250 -60v-819l157 -35v-61h-516v61l162 35v858l-162 33v72l326 51l22 -12v-115h13q67 45 139 76t89 35t50 12t111 8q77 0 148 -37t85 -104h13q229 141 383 141q299 0 299 -303v-715l159 -35v-61h-514v61l156 35v662q0 117 -56 167
t-162 50t-253 -60q10 -37 10 -104v-715l156 -35v-61h-512v61l160 35v662z" />
    <glyph glyph-name="n" unicode="n" horiz-adv-x="1302" 
d="M55 0v61l162 35v858l-162 33v72l326 51l22 -12v-117h13q236 133 382 133t222 -68t76 -225v-725l161 -35v-61h-516v61l158 35v674q0 109 -56 156q-55 47 -157 47t-272 -60v-817l157 -35v-61h-516z" />
    <glyph glyph-name="o" unicode="o" horiz-adv-x="1214" 
d="M285 550q0 -250 93 -366q93 -114 232 -114t229 107q89 107 89 359t-93 367t-231 115t-229 -109q-90 -109 -90 -359zM602 -29q-230 0 -376 156t-146 411q0 256 152 416t380 160q230 0 376 -155t146 -409t-151 -416q-151 -163 -381 -163z" />
    <glyph glyph-name="p" unicode="p" horiz-adv-x="1265" 
d="M633 68q340 0 340 468q0 246 -80 346t-234 99q-93 0 -167 -32t-86 -40v-770l22 -14q23 -14 30 -17q8 -2 30 -14q50 -26 145 -26zM49 -444v61l160 31v1306l-162 33v72l322 51l24 -12v-123h13q186 139 352 139t282 -103q136 -121 136 -420q0 -300 -152 -458t-414 -158
q-113 0 -204 19v-342l188 -35v-61h-545z" />
    <glyph glyph-name="q" unicode="q" horiz-adv-x="1236" 
d="M623 1020q-330 0 -330 -461q-1 -245 81 -349t242 -104q100 0 244 78v756q-2 2 -17 12t-28 21t-62 29t-130 18zM672 -444v61l190 35v463h-14q-113 -90 -175 -115t-141 -25q-165 0 -294 108q-68 56 -108 166t-40 261q0 292 152 448t405 156q209 0 410 -65v-1401l160 -31
v-61h-545z" />
    <glyph glyph-name="r" unicode="r" horiz-adv-x="827" 
d="M55 0v61l162 35v858l-162 33v72l326 51l22 -12v-160h13q131 176 305 176q39 0 59 -8v-174q-39 6 -84 6q-174 0 -282 -72v-770l184 -35v-61h-543z" />
    <glyph glyph-name="s" unicode="s" horiz-adv-x="950" 
d="M868 294q0 -132 -112 -228t-294 -95q-184 0 -364 62l-16 262h102l58 -172q88 -53 210 -53t186 50t64 132t-47 120t-174 79l-119 38q-268 86 -268 308q0 135 104 225t286 90t313 -41v-246h-97l-51 150q-70 43 -173 43q-102 0 -162 -41t-60 -118t47 -120t176 -84l119 -37
q147 -45 210 -118q62 -74 62 -206z" />
    <glyph glyph-name="t" unicode="t" horiz-adv-x="806" 
d="M478 -18q-136 0 -204 66t-67 208v731h-168v66l168 51v262h196v-272h310v-107h-310v-702q0 -95 42 -141t151 -46q61 0 137 15v-58q-119 -73 -255 -73z" />
    <glyph glyph-name="u" unicode="u" horiz-adv-x="1302" 
d="M512 -20q-315 0 -315 319v668l-162 34v72l334 35l24 -12v-748q0 -123 45 -181t172 -58t267 71v787l-158 34v72l332 35l24 -12v-971l160 -35v-61l-322 -49l-24 10v129h-12q-181 -139 -365 -139z" />
    <glyph glyph-name="v" unicode="v" horiz-adv-x="1198" 
d="M25 1094h473v-64l-136 -24l187 -555q33 -101 69 -254l13 -54h10q49 195 90 308l195 555l-135 24v64h380v-64l-120 -33l-371 -997h-166l-369 997l-120 33v64z" />
    <glyph glyph-name="w" unicode="w" horiz-adv-x="1732" 
d="M20 1094h451v-64l-139 -33l145 -497q31 -109 58 -295l8 -60h10q49 225 90 355l188 594h136l188 -594q33 -104 62 -295l8 -60h10q47 227 84 355l141 497l-135 33v64h387v-64l-115 -33l-307 -997h-155l-158 504q-37 122 -76 332l-16 75h-11q-66 -287 -106 -407l-172 -504
h-156l-305 997l-115 33v64z" />
    <glyph glyph-name="x" unicode="x" horiz-adv-x="1200" 
d="M45 0v61l131 33l309 449l-305 454l-127 33v64h473v-64l-127 -26l242 -390h4l234 390l-138 26v64h392v-64l-125 -33l-297 -434l313 -469l131 -33v-61h-479v61l135 29l-254 397h-4l-248 -397l137 -29v-61h-397z" />
    <glyph glyph-name="y" unicode="y" horiz-adv-x="1181" 
d="M296 -444q-112 0 -175 63v90q88 -18 112 -18q94 0 153 43q58 43 101 145l60 139l-406 979l-121 33v64h484v-64l-146 -29l189 -497q42 -114 74 -240l12 -47h10q51 176 90 287l170 493l-139 33v64h397v-64l-121 -33l-436 -1159q-56 -152 -126 -217t-182 -65z" />
    <glyph glyph-name="z" unicode="z" horiz-adv-x="1064" 
d="M84 0v82l643 915v11h-440l-64 -217h-100l16 303h819v-78l-643 -922v-8h465l80 260h103l-29 -346h-850z" />
    <glyph glyph-name="braceleft" unicode="{" horiz-adv-x="882" 
d="M274 20q0 64 34 212t34 206t-49 100t-207 58v115q158 18 207 59q49 40 49 98t-34 205t-34 211q0 129 114 199t398 78v-76q-180 -27 -243 -63t-64 -126q0 -47 26 -179q39 -197 15 -280q-23 -83 -136 -130q-69 -29 -179 -50v-10q216 -39 277 -113q30 -36 39 -68t9 -88
t-26 -190q-26 -133 -25 -180q-1 -90 63 -126t244 -60v-78q-284 8 -398 78t-114 198z" />
    <glyph glyph-name="bar" unicode="|" horiz-adv-x="509" 
d="M199 -256v1817h112v-1817h-112z" />
    <glyph glyph-name="braceright" unicode="}" horiz-adv-x="882" 
d="M403 8q0 47 -25 180q-26 134 -26 190t9 88q24 86 138 132q69 29 179 49v10q-213 38 -278 114q-30 36 -39 68q-9 31 -9 89t26 190t25 178q0 90 -63 126t-244 63v76q285 -8 399 -78t113 -199q0 -62 -34 -210t-33 -191q0 -72 49 -114t207 -58v-115q-158 -20 -207 -61
t-49 -97q-1 -56 33 -206q34 -148 34 -212q0 -128 -114 -198t-398 -78v78q180 25 244 60q63 36 63 126z" />
    <glyph glyph-name="asciitilde" unicode="~" horiz-adv-x="911" 
d="M306 768q74 0 178 -44t137 -44q80 0 149 119l72 -35q-90 -232 -238 -234q-74 0 -176 44q-104 44 -137 44q-78 1 -152 -120l-71 34q51 124 108 180q56 56 130 56z" />
    <glyph glyph-name="nbspace" unicode="&#xa0;" horiz-adv-x="1075" 
 />
    <glyph glyph-name="exclamdown" unicode="&#xa1;" horiz-adv-x="532" 
d="M266 991q-53 0 -92 38t-39 89t39 90t92 39t91 -39t38 -91t-38 -89t-91 -37zM158 -254l63 1067h98l64 -1067h-225z" />
    <glyph glyph-name="cent" unicode="&#xa2;" horiz-adv-x="1021" 
d="M283 561q0 -336 211 -432l94 885q-143 -16 -224 -134t-81 -319zM612 -25h-28l-31 -290h-107l31 303q-190 39 -294 182q-103 143 -103 367q0 274 143 416t375 159l20 197h107l-20 -197q135 -6 239 -41v-274h-113l-43 200q-53 16 -94 19l-98 -916q20 -4 61 -4q154 0 308 74
v-78q-156 -117 -353 -117z" />
    <glyph glyph-name="sterling" unicode="&#xa3;" horiz-adv-x="1099" 
d="M123 627v104h139v182q0 244 141 363t353 119q133 0 264 -37v-295h-119l-61 227q-37 6 -86 6q-135 0 -212 -89t-85 -302l-8 -174h382v-104h-387l-4 -80q-8 -145 -49 -222t-131 -149v-8h772l-22 -168h-942v100q100 60 147 152t47 242v133h-139z" />
    <glyph glyph-name="currency" unicode="&#xa4;" horiz-adv-x="1325" 
d="M90 782v97h178q33 182 129 302t218 167t279 47t323 -56l10 -335h-92l-88 251q-80 45 -185 45q-346 0 -399 -421h463v-97h-471v-57q0 -82 6 -150h465v-96h-455q33 -201 137 -295t276 -94t351 88v-72q-169 -131 -391 -131t-376 127t-200 377h-178v96h166q-4 70 -4 108t4 99
h-166z" />
    <glyph glyph-name="yen" unicode="&#xa5;" horiz-adv-x="1269" 
d="M160 594v96h348l-356 561l-117 41v78h485v-78l-143 -41l307 -526h8l295 526l-145 41v78h393v-78l-115 -41l-334 -561h355v-96h-393v-174h393v-96h-393v-207l192 -39v-78h-584v78l195 39v207h-391v96h391v174h-391z" />
    <glyph glyph-name="brokenbar" unicode="&#xa6;" horiz-adv-x="509" 
d="M199 791v770h112v-770h-112zM199 -256v850h112v-850h-112z" />
    <glyph glyph-name="section" unicode="&#xa7;" horiz-adv-x="1153" 
d="M250 667q0 -73 64 -119t210 -102l170 -65q86 19 146 73t61 128q-1 74 -65 119t-209 100l-166 63q-87 -18 -149 -71t-62 -126zM979 53q-1 -141 -111 -237t-296 -97q-186 0 -367 64l-17 258h103l59 -174q106 -51 210 -51t175 48q70 48 70 133t-53 137t-166 97l-174 70
q-164 67 -248 141t-84 191q0 207 278 278q-147 92 -147 271q0 143 106 231q105 88 283 88t322 -45v-235h-99l-51 147q-62 37 -166 37t-169 -45t-65 -129t42 -128q41 -44 151 -87l174 -68q166 -63 250 -136t84 -189q0 -217 -274 -291q180 -106 180 -279z" />
    <glyph glyph-name="dieresis" unicode="&#xa8;" 
d="M297 1247q-49 0 -83 34t-34 81t34 81t83 34t83 -34t34 -81t-34 -81t-83 -34zM727 1247q-49 0 -83 34t-34 81t34 81t83 34t83 -34t34 -81t-34 -81t-83 -34z" />
    <glyph glyph-name="copyright" unicode="&#xa9;" horiz-adv-x="1718" 
d="M887 1040q-197 0 -197 -302t192 -302q98 0 119 17l58 155h71l-14 -205q-120 -36 -233 -36q-164 0 -265 94q-100 94 -100 275q0 180 108 276t273 96q111 0 213 -27l10 -196h-69l-52 131q-57 25 -114 24zM201 733q0 -289 184 -487t472 -197q288 0 474 198q187 199 187 487
t-186 483t-474 195q-289 0 -473 -196q-184 -194 -184 -483zM858 -31q-322 -1 -542 223t-220 541t220 537t542 221q322 0 543 -221q221 -222 221 -538t-221 -540t-543 -223z" />
    <glyph glyph-name="ordfeminine" unicode="&#xaa;" horiz-adv-x="1003" 
d="M462 584q102 0 175 61v311l-188 -14q-180 -14 -181 -182q0 -82 46 -129t148 -47zM412 1393q-37 0 -80 -7l-51 -165h-119v221q150 55 338 55q326 0 325 -289v-563q0 -43 22 -57t71 -15h47v-61q-61 -37 -156 -37q-137 0 -154 103h-10q-109 -109 -254 -109t-228 76
q-83 77 -83 197t81 182t232 92l244 47v94q0 125 -46 181t-179 55z" />
    <glyph glyph-name="guillemotleft" unicode="&#xab;" horiz-adv-x="1011" 
d="M414 55l-322 453v61l322 451h108l-243 -481l243 -484h-108zM807 55l-322 453v61l322 451h108l-243 -481l243 -484h-108z" />
    <glyph glyph-name="registered" unicode="&#xae;" horiz-adv-x="1718" 
d="M776 754h92q131 0 131 131q-1 67 -31 97t-100 30h-92v-258zM545 369v59l84 18v566l-82 20v55h323q133 0 207 -49t74 -145q0 -139 -147 -182v-11l159 -254l74 -18v-59h-193l-184 313h-84v-236l84 -18v-59h-315zM201 733q0 -289 184 -487t472 -197q288 0 474 198
q187 199 187 487t-186 483t-474 195q-289 0 -473 -196q-184 -194 -184 -483zM858 -31q-322 -1 -542 223t-220 541t220 537t542 221q322 0 543 -221q221 -222 221 -538t-221 -540t-543 -223z" />
    <glyph glyph-name="macron" unicode="&#xaf;" 
d="M227 1366v111h568v-111h-568z" />
    <glyph glyph-name="degree" unicode="&#xb0;" horiz-adv-x="911" 
d="M456 1405q-106 0 -168 -71q-62 -72 -62 -180t62 -180q63 -72 168 -73q105 0 168 73q62 73 62 180t-62 179t-168 72zM456 811q-148 0 -249 101q-101 100 -101 242t100 242t251 99q150 0 249 -99q99 -98 99 -240t-100 -244q-101 -101 -249 -101z" />
    <glyph glyph-name="twosuperior" unicode="&#xb2;" horiz-adv-x="745" 
d="M285 1362q-39 0 -70 -6l-49 -156h-84v205q102 39 252 39t234 -66q83 -66 83 -178t-76 -208t-233 -222l-145 -117v-4h475l-10 -123h-617v84l223 219q104 103 156 179t53 168q0 186 -192 186z" />
    <glyph glyph-name="threesuperior" unicode="&#xb3;" horiz-adv-x="737" 
d="M283 1366q-33 0 -74 -4l-45 -162h-84v209q88 35 238 35t227 -62q76 -62 76 -156q1 -94 -61 -149t-161 -80v-4q250 -35 250 -223q0 -118 -93 -188q-94 -70 -244 -70t-261 68v69q109 -41 209 -41q215 0 215 162q0 96 -48 135t-153 39h-67v84h55q90 0 141 44t51 121t-43 125
q-44 48 -128 48z" />
    <glyph glyph-name="acute" unicode="&#xb4;" 
d="M291 1245l-31 68l442 276l72 -157z" />
    <glyph glyph-name="paragraph" unicode="&#xb6;" horiz-adv-x="1310" 
d="M616 -256v969q-70 -8 -118 -8q-186 0 -312 101q-125 101 -125 294q0 377 514 377h668v-78l-168 -39v-1616h-123v1630h-213v-1630h-123z" />
    <glyph glyph-name="periodcentered" unicode="&#xb7;" horiz-adv-x="638" 
d="M319 549q-65 0 -111 44q-46 43 -46 109t46 110t112 44t111 -44q46 -44 46 -110t-46 -110t-112 -43z" />
    <glyph glyph-name="cedilla" unicode="&#xb8;" 
d="M659 -305q0 78 -194 78v227h92v-137q268 -10 268 -154q1 -91 -99 -143t-370 -58v68q233 15 283 68q20 20 20 51z" />
    <glyph glyph-name="onesuperior" unicode="&#xb9;" horiz-adv-x="614" 
d="M100 526v64l131 22v678l-145 -12v59l254 103h59v-828l133 -22v-64h-432z" />
    <glyph glyph-name="ordmasculine" unicode="&#xba;" horiz-adv-x="1095" 
d="M553 561q274 0 274 412q0 227 -79 330q-80 102 -204 102t-201 -95q-77 -96 -77 -320t81 -326t206 -103zM1024 990q0 -228 -137 -374t-344 -147q-207 0 -339 140q-132 141 -132 369t136 374t343 145q207 0 340 -139q133 -140 133 -368z" />
    <glyph glyph-name="guillemotright" unicode="&#xbb;" horiz-adv-x="1011" 
d="M96 55l244 482l-244 483h109l321 -453v-61l-321 -451h-109zM489 55l244 482l-244 483h109l322 -453v-61l-322 -451h-109z" />
    <glyph glyph-name="onequarter" unicode="&#xbc;" horiz-adv-x="1855" 
d="M1194 205h293v383h-6l-287 -377v-6zM100 526v64l131 22v678l-145 -12v59l254 103h59v-828l133 -22v-64h-432zM387 -82l985 1542h127l-985 -1542h-127zM1487 -150v265h-408v80l430 559h140v-549h135v-90h-135v-265h-162z" />
    <glyph glyph-name="onehalf" unicode="&#xbd;" horiz-adv-x="1910" 
d="M100 526v64l131 22v678l-145 -12v59l254 103h59v-828l133 -22v-64h-432zM387 -82l985 1542h127l-985 -1542h-127zM1450 686q-39 0 -70 -6l-49 -156h-84v205q103 39 253 39t234 -66t83 -178q0 -112 -76 -208t-234 -222l-145 -117v-4h475l-10 -123h-617v84l224 220
q104 104 156 179t52 167q0 186 -192 186z" />
    <glyph glyph-name="threequarters" unicode="&#xbe;" horiz-adv-x="1896" 
d="M1235 205h293v383h-6l-287 -377v-6zM449 -82l985 1542h127l-986 -1542h-126zM283 1366q-33 0 -74 -4l-45 -162h-84v209q88 35 238 35t227 -62q76 -62 76 -156q1 -94 -61 -149t-161 -80v-4q250 -35 250 -223q0 -118 -93 -188q-94 -70 -244 -70t-261 68v69q109 -41 209 -41
q215 0 215 162q0 96 -48 135t-153 39h-67v84h55q90 0 141 44t51 121t-43 125q-44 48 -128 48zM1528 -150v265h-408v80l430 559h140v-549h135v-90h-135v-265h-162z" />
    <glyph glyph-name="questiondown" unicode="&#xbf;" horiz-adv-x="927" 
d="M557 1247q53 0 91 -39t38 -91t-38 -89t-91 -37t-92 38t-39 89t39 90t92 39zM582 -182q43 0 104 8l47 184h119v-235q-150 -53 -338 -53t-304 85q-116 86 -116 267q0 133 62 214t209 173q36 18 54 33q17 14 37 28t28 22q7 8 29 35q46 56 1 234h92q41 -98 41 -181t-43 -136
q-44 -53 -142 -129q-98 -75 -130 -135t-33 -170q0 -110 73 -176q73 -68 210 -68z" />
    <glyph glyph-name="Agrave" unicode="&#xc0;" horiz-adv-x="1449" 
d="M946 1593l-483 187l72 157l442 -276zM578 944l-129 -379h458l-121 379l-94 346h-10q-61 -219 -104 -346zM18 0v78l150 39l477 1360h176l463 -1360l148 -39v-78h-551v78l170 39l-113 350h-522l-119 -350l172 -39v-78h-451z" />
    <glyph glyph-name="Aacute" unicode="&#xc1;" horiz-adv-x="1449" 
d="M504 1593l-31 68l442 276l72 -157zM578 944l-129 -379h458l-121 379l-94 346h-10q-61 -219 -104 -346zM18 0v78l150 39l477 1360h176l463 -1360l148 -39v-78h-551v78l170 39l-113 350h-522l-119 -350l172 -39v-78h-451z" />
    <glyph glyph-name="Acircumflex" unicode="&#xc2;" horiz-adv-x="1449" 
d="M436 1583l-35 45l273 316h100l273 -316l-35 -45l-287 197zM578 944l-129 -379h458l-121 379l-94 346h-10q-61 -219 -104 -346zM18 0v78l150 39l477 1360h176l463 -1360l148 -39v-78h-551v78l170 39l-113 350h-522l-119 -350l172 -39v-78h-451z" />
    <glyph glyph-name="Atilde" unicode="&#xc3;" horiz-adv-x="1449" 
d="M596 1874q52 0 154 -39t129 -39q74 0 137 109l69 -31q-92 -219 -231 -219q-48 0 -152 39t-131 39q-76 -1 -137 -105l-69 31q90 215 231 215zM578 944l-129 -379h458l-121 379l-94 346h-10q-61 -219 -104 -346zM18 0v78l150 39l477 1360h176l463 -1360l148 -39v-78h-551
v78l170 39l-113 350h-522l-119 -350l172 -39v-78h-451z" />
    <glyph glyph-name="Adieresis" unicode="&#xc4;" horiz-adv-x="1449" 
d="M510 1595q-49 0 -83 34t-34 81t34 81t83 34t83 -34t34 -81t-34 -81t-83 -34zM940 1595q-49 0 -83 34t-34 81t34 81t83 34t83 -34t34 -81t-34 -81t-83 -34zM578 944l-129 -379h458l-121 379l-94 346h-10q-61 -219 -104 -346zM18 0v78l150 39l477 1360h176l463 -1360
l148 -39v-78h-551v78l170 39l-113 350h-522l-119 -350l172 -39v-78h-451z" />
    <glyph glyph-name="Aring" unicode="&#xc5;" horiz-adv-x="1449" 
d="M725 1647q72 0 113 43q41 44 41 116t-42 115t-112 43t-112 -43t-42 -116t41 -115t113 -43zM578 944l-129 -379h458l-121 379l-94 346h-10q-61 -219 -104 -346zM725 1563q-106 1 -180 71t-74 171t74 172t180 71t180 -71t74 -172t-74 -171t-180 -71zM18 0v78l150 39
l477 1360h176l463 -1360l148 -39v-78h-551v78l170 39l-113 350h-522l-119 -350l172 -39v-78h-451z" />
    <glyph glyph-name="AE" unicode="&#xc6;" horiz-adv-x="2019" 
d="M999 586v469l15 327h-8q-76 -154 -166 -313l-279 -483h438zM18 0v78l134 39l737 1257l-162 25v78h1167l25 -367h-94l-92 260h-523v-559h277l59 207h82v-516h-82l-59 211h-277v-607h545l115 320h94l-29 -426h-1126v78l190 39v360h-501l-207 -360l170 -39v-78h-443z" />
    <glyph glyph-name="Ccedilla" unicode="&#xc7;" horiz-adv-x="1347" 
d="M987 -291q1 -91 -99 -143t-370 -58v68q233 15 283 68q20 20 20 51q0 78 -194 78v215q-541 86 -541 733q0 213 60 369t166 242q206 168 503 169q244 0 410 -55l10 -361h-88l-88 265q-125 53 -271 53q-475 0 -475 -641q0 -352 118 -519t380 -167q152 0 256 59l88 285h94
l-14 -371q-174 -74 -444 -74l-72 2v-114q268 -10 268 -154z" />
    <glyph glyph-name="Egrave" unicode="&#xc8;" horiz-adv-x="1308" 
d="M874 1593l-483 187l72 157l442 -276zM68 0v78l192 39v1241l-190 41v78h1106l24 -367h-94l-92 260h-539v-559h293l59 207h82v-516h-82l-59 211h-293v-607h561l115 320h94l-28 -426h-1149z" />
    <glyph glyph-name="Eacute" unicode="&#xc9;" horiz-adv-x="1308" 
d="M432 1593l-31 68l443 276l71 -157zM68 0v78l192 39v1241l-190 41v78h1106l24 -367h-94l-92 260h-539v-559h293l59 207h82v-516h-82l-59 211h-293v-607h561l115 320h94l-28 -426h-1149z" />
    <glyph glyph-name="Ecircumflex" unicode="&#xca;" horiz-adv-x="1308" 
d="M365 1583l-35 45l272 316h100l273 -316l-35 -45l-287 197zM68 0v78l192 39v1241l-190 41v78h1106l24 -367h-94l-92 260h-539v-559h293l59 207h82v-516h-82l-59 211h-293v-607h561l115 320h94l-28 -426h-1149z" />
    <glyph glyph-name="Edieresis" unicode="&#xcb;" horiz-adv-x="1308" 
d="M868 1595q-49 0 -83 34t-33 81q0 47 33 81q34 34 83 34t83 -34t34 -81t-34 -81t-83 -34zM438 1595q-49 0 -83 34t-33 81q0 47 33 81q34 34 83 34t83 -34t34 -81t-34 -81t-83 -34zM68 0v78l192 39v1241l-190 41v78h1106l24 -367h-94l-92 260h-539v-559h293l59 207h82v-516
h-82l-59 211h-293v-607h561l115 320h94l-28 -426h-1149z" />
    <glyph glyph-name="Igrave" unicode="&#xcc;" horiz-adv-x="724" 
d="M584 1593l-484 187l72 157l442 -276zM68 0v78l190 37v1245l-190 39v78h591v-78l-186 -39v-1245l186 -37v-78h-591z" />
    <glyph glyph-name="Iacute" unicode="&#xcd;" horiz-adv-x="724" 
d="M141 1593l-30 68l442 276l72 -157zM68 0v78l190 37v1245l-190 39v78h591v-78l-186 -39v-1245l186 -37v-78h-591z" />
    <glyph glyph-name="Icircumflex" unicode="&#xce;" horiz-adv-x="724" 
d="M74 1583l-35 45l272 316h101l272 -316l-35 -45l-287 197zM68 0v78l190 37v1245l-190 39v78h591v-78l-186 -39v-1245l186 -37v-78h-591z" />
    <glyph glyph-name="Idieresis" unicode="&#xcf;" horiz-adv-x="724" 
d="M578 1595q-49 0 -83 34t-34 81t34 81t83 34q48 0 82 -34t34 -81t-34 -81t-82 -34zM147 1595q-49 0 -83 34t-33 81q0 47 34 81q35 34 83 34t82 -34t34 -81t-34 -81t-83 -34zM68 0v78l190 37v1245l-190 39v78h591v-78l-186 -39v-1245l186 -37v-78h-591z" />
    <glyph glyph-name="Eth" unicode="&#xd0;" horiz-adv-x="1492" 
d="M475 106h217q256 0 372 138t116 499q0 287 -66 417q-35 69 -77 111q-74 74 -241 92q-65 7 -163 7h-158v-573h385v-109h-385v-582zM86 688v109h174v561l-190 41v78h594q393 1 570 -177t177 -524q0 -776 -723 -776h-620v78l192 39v571h-174z" />
    <glyph glyph-name="Ntilde" unicode="&#xd1;" horiz-adv-x="1570" 
d="M655 1874q49 0 153 -39t130 -39q74 0 137 109l70 -31q-92 -219 -232 -219q-49 0 -153 39t-129 39q-76 -1 -137 -105l-70 31q90 215 231 215zM68 0v74l192 41v1243l-192 41v78h467l499 -820q55 -91 146 -284l26 -58h11v1041l-191 43v78h498v-76l-170 -43v-1358h-160
l-612 1012q-52 87 -146 278l-26 56h-11v-1229l193 -41v-76h-524z" />
    <glyph glyph-name="Ograve" unicode="&#xd2;" horiz-adv-x="1517" 
d="M979 1593l-483 187l71 157l443 -276zM313 742q-1 -666 437 -666q228 0 342 172q113 172 112 467q0 688 -450 688q-219 0 -330 -172q-111 -173 -111 -489zM756 -25q-291 0 -481 203q-189 203 -189 561q0 190 58 341t156 240q198 181 475 181q278 0 467 -201t190 -557
q0 -190 -58 -342q-105 -273 -372 -378q-117 -48 -246 -48z" />
    <glyph glyph-name="Oacute" unicode="&#xd3;" horiz-adv-x="1517" 
d="M537 1593l-31 68l442 276l72 -157zM313 742q-1 -666 437 -666q228 0 342 172q113 172 112 467q0 688 -450 688q-219 0 -330 -172q-111 -173 -111 -489zM756 -25q-291 0 -481 203q-189 203 -189 561q0 190 58 341t156 240q198 181 475 181q278 0 467 -201t190 -557
q0 -190 -58 -342q-105 -273 -372 -378q-117 -48 -246 -48z" />
    <glyph glyph-name="Ocircumflex" unicode="&#xd4;" horiz-adv-x="1517" 
d="M469 1583l-35 45l273 316h100l272 -316l-35 -45l-286 197zM313 742q-1 -666 437 -666q228 0 342 172q113 172 112 467q0 688 -450 688q-219 0 -330 -172q-111 -173 -111 -489zM756 -25q-291 0 -481 203q-189 203 -189 561q0 190 58 341t156 240q198 181 475 181
q278 0 467 -201t190 -557q0 -190 -58 -342q-105 -273 -372 -378q-117 -48 -246 -48z" />
    <glyph glyph-name="Otilde" unicode="&#xd5;" horiz-adv-x="1517" 
d="M629 1874q51 0 153 -39t129 -39q74 0 138 109l69 -31q-92 -219 -231 -219q-51 0 -155 39t-128 39q-76 -1 -137 -105l-70 31q90 215 232 215zM313 742q-1 -666 437 -666q228 0 342 172q113 172 112 467q0 688 -450 688q-219 0 -330 -172q-111 -173 -111 -489zM756 -25
q-291 0 -481 203q-189 203 -189 561q0 190 58 341t156 240q198 181 475 181q278 0 467 -201t190 -557q0 -190 -58 -342q-105 -273 -372 -378q-117 -48 -246 -48z" />
    <glyph glyph-name="Odieresis" unicode="&#xd6;" horiz-adv-x="1517" 
d="M543 1595q-49 0 -83 34t-34 81t34 81t83 34t83 -34t34 -81t-34 -81t-83 -34zM973 1595q-49 0 -83 34t-34 81t34 81t83 34t83 -34t34 -81t-34 -81t-83 -34zM313 742q-1 -666 437 -666q228 0 342 172q113 172 112 467q0 688 -450 688q-219 0 -330 -172q-111 -173 -111 -489
zM756 -25q-291 0 -481 203q-189 203 -189 561q0 190 58 341t156 240q198 181 475 181q278 0 467 -201t190 -557q0 -190 -58 -342q-105 -273 -372 -378q-117 -48 -246 -48z" />
    <glyph glyph-name="multiply" unicode="&#xd7;" horiz-adv-x="1245" 
d="M270 219l-84 84l353 350l-353 351l84 83l353 -350l350 348l84 -84l-350 -348l352 -350l-84 -84l-352 350z" />
    <glyph glyph-name="Oslash" unicode="&#xd8;" horiz-adv-x="1517" 
d="M764 76q215 0 329 174q113 174 113 475t-71 457l-693 -994q107 -112 322 -112zM311 744q0 -310 70 -459l694 995q-104 123 -322 123t-330 -175q-112 -174 -112 -484zM86 739q0 190 58 341t156 240q198 181 462 181q217 0 385 -117l108 156h129l-157 -225
q205 -205 205 -572q0 -190 -58 -342q-105 -273 -372 -378q-118 -47 -246 -48q-219 0 -381 115l-123 -176h-129l170 246q-207 211 -207 579z" />
    <glyph glyph-name="Ugrave" unicode="&#xd9;" horiz-adv-x="1501" 
d="M971 1593l-484 187l72 157l442 -276zM1311 469q1 -233 -139 -365t-407 -133q-267 0 -410 128q-142 128 -142 350v911l-186 39v78h591v-78l-188 -39v-875q0 -197 91 -291t284 -96q371 0 371 389v871l-191 39v80h490v-78l-164 -39v-891z" />
    <glyph glyph-name="Uacute" unicode="&#xda;" horiz-adv-x="1501" 
d="M528 1593l-30 68l442 276l72 -157zM1311 469q1 -233 -139 -365t-407 -133q-267 0 -410 128q-142 128 -142 350v911l-186 39v78h591v-78l-188 -39v-875q0 -197 91 -291t284 -96q371 0 371 389v871l-191 39v80h490v-78l-164 -39v-891z" />
    <glyph glyph-name="Ucircumflex" unicode="&#xdb;" horiz-adv-x="1501" 
d="M461 1583l-35 45l272 316h101l272 -316l-35 -45l-286 197zM1311 469q1 -233 -139 -365t-407 -133q-267 0 -410 128q-142 128 -142 350v911l-186 39v78h591v-78l-188 -39v-875q0 -197 91 -291t284 -96q371 0 371 389v871l-191 39v80h490v-78l-164 -39v-891z" />
    <glyph glyph-name="Udieresis" unicode="&#xdc;" horiz-adv-x="1501" 
d="M965 1595q-49 0 -83 34t-34 81t34 81t83 34t83 -34t34 -81t-34 -81t-83 -34zM535 1595q-49 0 -83 34t-34 81t34 81t83 34t83 -34t33 -81q1 -47 -33 -81t-83 -34zM1311 469q1 -233 -139 -365t-407 -133q-267 0 -410 128q-142 128 -142 350v911l-186 39v78h591v-78
l-188 -39v-875q0 -197 91 -291t284 -96q371 0 371 389v871l-191 39v80h490v-78l-164 -39v-891z" />
    <glyph glyph-name="Yacute" unicode="&#xdd;" horiz-adv-x="1357" 
d="M457 1593l-31 68l442 276l72 -157zM397 0v78l189 39v536l-430 705l-131 41v78h512v-78l-148 -41l348 -596h8l326 596l-158 41v78h420v-78l-129 -41l-403 -709v-532l186 -39v-78h-590z" />
    <glyph glyph-name="Thorn" unicode="&#xde;" horiz-adv-x="1251" 
d="M473 1057v-551q94 -16 203 -17q301 0 301 279q0 152 -68 220t-221 69h-215zM68 0v78l190 39v1241l-190 41v78h591v-78l-186 -41v-187h193q288 0 412 -101t124 -295t-133 -292t-360 -98q-113 0 -236 21v-289l225 -39v-78h-630z" />
    <glyph glyph-name="germandbls" unicode="&#xdf;" horiz-adv-x="1333" 
d="M1255 297q0 -139 -98 -229t-269 -91q-171 0 -286 48l-16 229h104l53 -148q74 -30 156 -30t134 44t52 117q1 73 -39 113t-124 86l-95 53q-69 39 -103 64t-66 76t-32 117t48 144q47 77 104 135q152 155 152 305q0 88 -56 148t-157 60q-303 0 -303 -367v-1171h-357v61
l160 35v891h-154v66l154 53v92q0 186 139 311t340 125t315 -80t113 -219q0 -73 -54 -155t-120 -142q-174 -160 -174 -229q0 -45 31 -72t115 -73l94 -54q187 -105 222 -203q17 -48 17 -110z" />
    <glyph glyph-name="agrave" unicode="&#xe0;" horiz-adv-x="1067" 
d="M754 1245l-484 187l72 157l442 -276zM262 299q0 -89 52 -147t158 -58q104 0 208 88v336l-221 -16q-197 -14 -197 -203zM432 1012q-49 0 -131 -15l-47 -196h-119v246q213 67 393 67t264 -79t85 -242v-639q0 -47 24 -61q25 -13 80 -13h68v-64q-111 -37 -189 -36
q-158 0 -160 133h-12q-136 -141 -290 -141t-246 84t-92 220t83 196q84 60 254 95l283 58v112q0 159 -46 217t-202 58z" />
    <glyph glyph-name="aacute" unicode="&#xe1;" horiz-adv-x="1067" 
d="M311 1245l-30 68l442 276l72 -157zM262 299q0 -89 52 -147t158 -58q104 0 208 88v336l-221 -16q-197 -14 -197 -203zM432 1012q-49 0 -131 -15l-47 -196h-119v246q213 67 393 67t264 -79t85 -242v-639q0 -47 24 -61q25 -13 80 -13h68v-64q-111 -37 -189 -36
q-158 0 -160 133h-12q-136 -141 -290 -141t-246 84t-92 220t83 196q84 60 254 95l283 58v112q0 159 -46 217t-202 58z" />
    <glyph glyph-name="acircumflex" unicode="&#xe2;" horiz-adv-x="1067" 
d="M244 1235l-35 45l272 315h101l272 -315l-35 -45l-287 197zM262 299q0 -89 52 -147t158 -58q104 0 208 88v336l-221 -16q-197 -14 -197 -203zM432 1012q-49 0 -131 -15l-47 -196h-119v246q213 67 393 67t264 -79t85 -242v-639q0 -47 24 -61q25 -13 80 -13h68v-64
q-111 -37 -189 -36q-158 0 -160 133h-12q-136 -141 -290 -141t-246 84t-92 220t83 196q84 60 254 95l283 58v112q0 159 -46 217t-202 58z" />
    <glyph glyph-name="atilde" unicode="&#xe3;" horiz-adv-x="1067" 
d="M403 1526q51 0 153 -39t130 -39q74 0 137 108l70 -30q-92 -219 -231 -219q-52 0 -154 39t-129 38q-76 0 -137 -104l-70 31q90 215 231 215zM262 299q0 -89 52 -147t158 -58q104 0 208 88v336l-221 -16q-197 -14 -197 -203zM432 1012q-49 0 -131 -15l-47 -196h-119v246
q213 67 393 67t264 -79t85 -242v-639q0 -47 24 -61q25 -13 80 -13h68v-64q-111 -37 -189 -36q-158 0 -160 133h-12q-136 -141 -290 -141t-246 84t-92 220t83 196q84 60 254 95l283 58v112q0 159 -46 217t-202 58z" />
    <glyph glyph-name="adieresis" unicode="&#xe4;" horiz-adv-x="1067" 
d="M317 1247q-49 0 -83 34t-33 81q0 47 33 81q34 34 83 34t83 -34t34 -81t-34 -81t-83 -34zM748 1247q-49 0 -83 34t-34 81t34 81t83 34q48 0 82 -34t34 -81t-34 -81t-82 -34zM262 299q0 -89 52 -147t158 -58q104 0 208 88v336l-221 -16q-197 -14 -197 -203zM432 1012
q-49 0 -131 -15l-47 -196h-119v246q213 67 393 67t264 -79t85 -242v-639q0 -47 24 -61q25 -13 80 -13h68v-64q-111 -37 -189 -36q-158 0 -160 133h-12q-136 -141 -290 -141t-246 84t-92 220t83 196q84 60 254 95l283 58v112q0 159 -46 217t-202 58z" />
    <glyph glyph-name="aring" unicode="&#xe5;" horiz-adv-x="1067" 
d="M532 1298q72 0 113 43t41 116t-42 116t-112 43t-112 -43t-41 -116t41 -116t112 -43zM262 299q0 -89 52 -147t158 -58q104 0 208 88v336l-221 -16q-197 -14 -197 -203zM532 1214q-106 0 -180 71t-74 172t74 172t180 71t180 -71t74 -172t-74 -172t-180 -71zM432 1012
q-49 0 -131 -15l-47 -196h-119v246q213 67 393 67t264 -79t85 -242v-639q0 -47 24 -61q25 -13 80 -13h68v-64q-111 -37 -189 -36q-158 0 -160 133h-12q-136 -141 -290 -141t-246 84t-92 220t83 196q84 60 254 95l283 58v112q0 159 -46 217t-202 58z" />
    <glyph glyph-name="ae" unicode="&#xe6;" horiz-adv-x="1701" 
d="M262 299q0 -205 211 -205q136 0 277 129q-59 121 -66 293l-219 -14q-111 -8 -157 -60t-46 -143zM1403 629q0 205 -58 298t-182 93q-256 0 -276 -391h516zM1208 -25q-293 0 -422 189q-170 -193 -385 -193q-149 0 -245 85q-96 86 -96 220t85 196q86 62 258 97l281 56v112
q0 143 -49 209t-203 66q-49 0 -131 -15l-47 -196h-119v246q213 68 400 67q240 0 294 -174q127 174 353 174q444 0 444 -571h-739q2 -221 96 -335t249 -114t255 44q35 15 90 44v-76q-148 -131 -369 -131z" />
    <glyph glyph-name="ccedilla" unicode="&#xe7;" horiz-adv-x="1021" 
d="M657 -305q0 78 -194 78v219q-184 41 -284 183q-99 142 -99 362q0 293 162 435t415 142q158 0 287 -43v-274h-113l-43 200q-57 20 -155 21q-164 0 -257 -120t-93 -348t104 -340q104 -114 264 -114t314 74v-78q-156 -117 -353 -117q-20 0 -57 5v-117q268 -10 268 -154
q1 -91 -99 -143t-370 -58v68q233 15 283 68q20 20 20 51z" />
    <glyph glyph-name="egrave" unicode="&#xe8;" horiz-adv-x="1110" 
d="M776 1245l-483 187l72 157l442 -276zM811 629q0 205 -58 298q-59 93 -187 93t-198 -90t-85 -301h528zM616 -25q-270 0 -403 157t-133 418t144 413t360 151q451 0 450 -571h-751q8 -213 106 -331t252 -118t254 44q35 15 90 44v-76q-148 -131 -369 -131z" />
    <glyph glyph-name="eacute" unicode="&#xe9;" horiz-adv-x="1110" 
d="M334 1245l-31 68l442 276l72 -157zM811 629q0 205 -58 298q-59 93 -187 93t-198 -90t-85 -301h528zM616 -25q-270 0 -403 157t-133 418t144 413t360 151q451 0 450 -571h-751q8 -213 106 -331t252 -118t254 44q35 15 90 44v-76q-148 -131 -369 -131z" />
    <glyph glyph-name="ecircumflex" unicode="&#xea;" horiz-adv-x="1110" 
d="M266 1235l-35 45l273 315h100l273 -315l-35 -45l-287 197zM811 629q0 205 -58 298q-59 93 -187 93t-198 -90t-85 -301h528zM616 -25q-270 0 -403 157t-133 418t144 413t360 151q451 0 450 -571h-751q8 -213 106 -331t252 -118t254 44q35 15 90 44v-76
q-148 -131 -369 -131z" />
    <glyph glyph-name="edieresis" unicode="&#xeb;" horiz-adv-x="1110" 
d="M340 1247q-49 0 -83 34t-34 81t34 81t83 34t83 -34t34 -81t-34 -81t-83 -34zM770 1247q-49 0 -83 34t-34 81t34 81t83 34t83 -34t34 -81t-34 -81t-83 -34zM811 629q0 205 -58 298q-59 93 -187 93t-198 -90t-85 -301h528zM616 -25q-270 0 -403 157t-133 418t144 413
t360 151q451 0 450 -571h-751q8 -213 106 -331t252 -118t254 44q35 15 90 44v-76q-148 -131 -369 -131z" />
    <glyph glyph-name="igrave" unicode="&#xec;" horiz-adv-x="628" 
d="M535 1245l-484 187l72 157l442 -276zM57 0v72l160 34v838l-172 33v82l346 51l23 -12v-992l161 -34v-72h-518z" />
    <glyph glyph-name="iacute" unicode="&#xed;" horiz-adv-x="628" 
d="M92 1245l-31 68l443 276l71 -157zM57 0v72l160 34v838l-172 33v82l346 51l23 -12v-992l161 -34v-72h-518z" />
    <glyph glyph-name="icircumflex" unicode="&#xee;" horiz-adv-x="628" 
d="M25 1235l-35 45l272 315h100l273 -315l-35 -45l-287 197zM57 0v72l160 34v838l-172 33v82l346 51l23 -12v-992l161 -34v-72h-518z" />
    <glyph glyph-name="idieresis" unicode="&#xef;" horiz-adv-x="628" 
d="M528 1247q-49 0 -83 34t-33 81q0 47 33 81q34 34 83 34t83 -34t34 -81t-34 -81t-83 -34zM98 1247q-49 0 -83 34t-33 81q0 47 33 81q34 34 83 34t83 -34t34 -81t-34 -81t-83 -34zM57 0v72l160 34v838l-172 33v82l346 51l23 -12v-992l161 -34v-72h-518z" />
    <glyph glyph-name="eth" unicode="&#xf0;" horiz-adv-x="1214" 
d="M285 550q0 -250 94 -364q94 -116 232 -116t228 108q89 110 89 358t-98 365t-235 117q-138 0 -224 -109t-86 -359zM1135 614q-1 -305 -149 -474t-381 -169t-379 156t-146 411q0 256 145 416t357 160q172 0 292 -143q-88 213 -251 381l-283 -119v102l207 86
q-92 78 -211 150l45 71q160 -66 301 -163l279 118v-102l-193 -82q367 -313 367 -799z" />
    <glyph glyph-name="ntilde" unicode="&#xf1;" horiz-adv-x="1302" 
d="M522 1526q52 0 154 -39t129 -39q74 0 137 108l70 -30q-92 -219 -232 -219q-51 0 -153 39t-129 38q-77 0 -138 -104l-69 31q90 215 231 215zM55 0v61l162 35v858l-162 33v72l326 51l22 -12v-117h13q236 133 382 133t222 -68t76 -225v-725l161 -35v-61h-516v61l158 35v674
q0 109 -56 156q-55 47 -157 47t-272 -60v-817l157 -35v-61h-516z" />
    <glyph glyph-name="ograve" unicode="&#xf2;" horiz-adv-x="1214" 
d="M827 1245l-483 187l72 157l442 -276zM285 550q0 -250 93 -366q93 -114 232 -114t229 107q89 107 89 359t-93 367t-231 115t-229 -109q-90 -109 -90 -359zM602 -29q-230 0 -376 156t-146 411q0 256 152 416t380 160q230 0 376 -155t146 -409t-151 -416
q-151 -163 -381 -163z" />
    <glyph glyph-name="oacute" unicode="&#xf3;" horiz-adv-x="1214" 
d="M385 1245l-31 68l443 276l71 -157zM285 550q0 -250 93 -366q93 -114 232 -114t229 107q89 107 89 359t-93 367t-231 115t-229 -109q-90 -109 -90 -359zM602 -29q-230 0 -376 156t-146 411q0 256 152 416t380 160q230 0 376 -155t146 -409t-151 -416q-151 -163 -381 -163z
" />
    <glyph glyph-name="ocircumflex" unicode="&#xf4;" horiz-adv-x="1214" 
d="M317 1235l-34 45l272 315h100l273 -315l-35 -45l-287 197zM285 550q0 -250 93 -366q93 -114 232 -114t229 107q89 107 89 359t-93 367t-231 115t-229 -109q-90 -109 -90 -359zM602 -29q-230 0 -376 156t-146 411q0 256 152 416t380 160q230 0 376 -155t146 -409
t-151 -416q-151 -163 -381 -163z" />
    <glyph glyph-name="otilde" unicode="&#xf5;" horiz-adv-x="1214" 
d="M477 1526q51 0 153 -39t130 -39q74 0 137 108l70 -30q-92 -219 -232 -219q-51 0 -153 39t-129 38q-77 0 -138 -104l-69 31q90 215 231 215zM285 550q0 -250 93 -366q93 -114 232 -114t229 107q89 107 89 359t-93 367t-231 115t-229 -109q-90 -109 -90 -359zM602 -29
q-230 0 -376 156t-146 411q0 256 152 416t380 160q230 0 376 -155t146 -409t-151 -416q-151 -163 -381 -163z" />
    <glyph glyph-name="odieresis" unicode="&#xf6;" horiz-adv-x="1214" 
d="M391 1247q-49 0 -83 34t-34 81t34 81t83 34t83 -34t34 -81t-34 -81t-83 -34zM821 1247q-49 0 -83 34t-33 81q0 47 33 81q34 34 83 34t83 -34t34 -81t-34 -81t-83 -34zM285 550q0 -250 93 -366q93 -114 232 -114t229 107q89 107 89 359t-93 367t-231 115t-229 -109
q-90 -109 -90 -359zM602 -29q-230 0 -376 156t-146 411q0 256 152 416t380 160q230 0 376 -155t146 -409t-151 -416q-151 -163 -381 -163z" />
    <glyph glyph-name="divide" unicode="&#xf7;" horiz-adv-x="1263" 
d="M629 944q-55 0 -94 39t-39 92t39 91t94 38t96 -38t41 -91t-41 -92t-96 -39zM629 123q-55 0 -94 40t-39 93t39 91t94 38t96 -38t41 -91t-41 -93t-96 -40zM150 608v113h964v-113h-964z" />
    <glyph glyph-name="oslash" unicode="&#xf8;" horiz-adv-x="1214" 
d="M606 70q146 0 236 106t90 356q0 178 -43 295l-510 -661q81 -96 227 -96zM281 553q0 -178 45 -295l508 664q-82 96 -226 96t-236 -106q-91 -106 -91 -359zM80 539q0 255 152 415t372 160q174 0 309 -90l103 133h125l-152 -199q145 -156 145 -408t-151 -416
q-152 -163 -373 -163q-184 0 -311 90l-113 -147h-125l164 213q-145 158 -145 412z" />
    <glyph glyph-name="ugrave" unicode="&#xf9;" horiz-adv-x="1302" 
d="M872 1245l-483 187l72 157l442 -276zM512 -20q-315 0 -315 319v668l-162 34v72l334 35l24 -12v-748q0 -123 45 -181t172 -58t267 71v787l-158 34v72l332 35l24 -12v-971l160 -35v-61l-322 -49l-24 10v129h-12q-181 -139 -365 -139z" />
    <glyph glyph-name="uacute" unicode="&#xfa;" horiz-adv-x="1302" 
d="M430 1245l-31 68l443 276l71 -157zM512 -20q-315 0 -315 319v668l-162 34v72l334 35l24 -12v-748q0 -123 45 -181t172 -58t267 71v787l-158 34v72l332 35l24 -12v-971l160 -35v-61l-322 -49l-24 10v129h-12q-181 -139 -365 -139z" />
    <glyph glyph-name="ucircumflex" unicode="&#xfb;" horiz-adv-x="1302" 
d="M362 1235l-34 45l272 315h100l273 -315l-35 -45l-287 197zM512 -20q-315 0 -315 319v668l-162 34v72l334 35l24 -12v-748q0 -123 45 -181t172 -58t267 71v787l-158 34v72l332 35l24 -12v-971l160 -35v-61l-322 -49l-24 10v129h-12q-181 -139 -365 -139z" />
    <glyph glyph-name="udieresis" unicode="&#xfc;" horiz-adv-x="1302" 
d="M866 1247q-49 0 -83 34t-33 81q0 47 33 81q34 34 83 34t83 -34t34 -81t-34 -81t-83 -34zM436 1247q-49 0 -83 34t-34 81t34 81t83 34t83 -34t34 -81t-34 -81t-83 -34zM512 -20q-315 0 -315 319v668l-162 34v72l334 35l24 -12v-748q0 -123 45 -181t172 -58t267 71v787
l-158 34v72l332 35l24 -12v-971l160 -35v-61l-322 -49l-24 10v129h-12q-181 -139 -365 -139z" />
    <glyph glyph-name="yacute" unicode="&#xfd;" horiz-adv-x="1181" 
d="M369 1245l-31 68l442 276l72 -157zM296 -444q-112 0 -175 63v90q88 -18 112 -18q94 0 153 43q58 43 101 145l60 139l-406 979l-121 33v64h484v-64l-146 -29l189 -497q42 -114 74 -240l12 -47h10q51 176 90 287l170 493l-139 33v64h397v-64l-121 -33l-436 -1159
q-56 -152 -126 -217t-182 -65z" />
    <glyph glyph-name="thorn" unicode="&#xfe;" horiz-adv-x="1243" 
d="M610 68q340 0 340 468q0 246 -80 346t-233 99q-110 0 -254 -72v-770l23 -14q24 -14 30 -17q6 -4 43 -22t131 -18zM27 -444v61l159 31v1827l-163 32v72l335 49l25 -10v-631h14q61 43 93 61t101 43q143 50 294 0q268 -92 268 -503q0 -297 -152 -455t-413 -158
q-117 0 -205 19v-342l188 -35v-61h-544z" />
    <glyph glyph-name="ydieresis" unicode="&#xff;" horiz-adv-x="1181" 
d="M840 1247q-49 0 -83 34t-34 81t34 81t83 34t83 -34q33 -34 33 -81t-34 -81t-82 -34zM410 1247q-49 0 -83 34t-34 81t34 81t83 34t83 -34q33 -34 33 -81t-34 -81t-82 -34zM296 -444q-112 0 -175 63v90q88 -18 112 -18q94 0 153 43q58 43 101 145l60 139l-406 979l-121 33
v64h484v-64l-146 -29l189 -497q42 -114 74 -240l12 -47h10q51 176 90 287l170 493l-139 33v64h397v-64l-121 -33l-436 -1159q-56 -152 -126 -217t-182 -65z" />
    <glyph glyph-name="dotlessi" unicode="&#x131;" horiz-adv-x="628" 
d="M57 0v72l160 34v838l-172 33v82l346 51l23 -12v-992l161 -34v-72h-518z" />
    <glyph glyph-name="Lslash" unicode="&#x141;" horiz-adv-x="1241" 
d="M68 1477h612v-78l-207 -39v-608l430 174v-117l-430 -174v-529h512l107 361h90l-27 -467h-1087v78l190 37v434l-172 -70v117l172 70v694l-190 39v78z" />
    <glyph glyph-name="lslash" unicode="&#x142;" horiz-adv-x="628" 
d="M575 0h-520v61l162 35v574l-192 -111v119l192 110v691l-174 32v72l346 49l25 -12v-719l211 123v-119l-211 -123v-686l161 -35v-61z" />
    <glyph glyph-name="OE" unicode="&#x152;" horiz-adv-x="2007" 
d="M887 106h100v1264h-158q-262 0 -389 -145t-127 -492q0 -449 219 -563q76 -40 157 -52t198 -12zM858 0q-401 0 -588 178q-186 178 -186 522q0 776 750 777h1046l25 -367h-95l-92 260h-516v-559h271l59 207h82v-516h-82l-59 211h-271v-607h539l114 320h95l-29 -426h-1063z
" />
    <glyph glyph-name="oe" unicode="&#x153;" horiz-adv-x="1951" 
d="M1653 629q-1 205 -59 298t-186 93t-199 -90t-85 -301h529zM285 550q0 -250 93 -366q93 -114 232 -114t229 107q89 107 89 359t-93 367t-231 115t-229 -109q-90 -109 -90 -359zM1458 -25q-328 0 -438 246q-62 -119 -168 -185t-242 -65q-238 0 -384 156t-146 411
q0 256 152 416t372 160q299 0 422 -246q121 246 399 246q451 0 451 -571h-752q8 -213 106 -331t269 -118q135 0 238 44q35 15 90 44v-76q-148 -131 -369 -131z" />
    <glyph glyph-name="Scaron" unicode="&#x160;" horiz-adv-x="1167" 
d="M872 1954l35 -45l-272 -316h-100l-273 316l35 45l287 -197zM1079 409q0 -177 -130 -305t-379 -129q-249 0 -431 72l-14 336h92l70 -238q123 -67 281 -67t241 76q82 76 82 194q1 118 -63 176q-64 57 -216 123l-180 78q-135 57 -209 148q-73 91 -73 250t120 270
q121 111 341 111t376 -54l14 -315h-90l-59 211q-111 55 -241 55q-130 -1 -210 -61q-79 -60 -79 -164t56 -163q56 -58 177 -108l180 -74q168 -69 256 -157t88 -265z" />
    <glyph glyph-name="scaron" unicode="&#x161;" horiz-adv-x="950" 
d="M764 1606l35 -45l-273 -316h-100l-272 316l34 45l287 -197zM868 294q0 -132 -112 -228t-294 -95q-184 0 -364 62l-16 262h102l58 -172q88 -53 210 -53t186 50t64 132t-47 120t-174 79l-119 38q-268 86 -268 308q0 135 104 225t286 90t313 -41v-246h-97l-51 150
q-70 43 -173 43q-102 0 -162 -41t-60 -118t47 -120t176 -84l119 -37q147 -45 210 -118q62 -74 62 -206z" />
    <glyph glyph-name="Ydieresis" unicode="&#x178;" horiz-adv-x="1357" 
d="M930 1595q-49 0 -83 34t-34 81t34 81t83 34t83 -34t34 -81t-34 -81t-83 -34zM500 1595q-49 0 -83 34t-34 81t34 81t83 34t83 -34q33 -34 33 -81t-34 -81t-82 -34zM397 0v78l189 39v536l-430 705l-131 41v78h512v-78l-148 -41l348 -596h8l326 596l-158 41v78h420v-78
l-129 -41l-403 -709v-532l186 -39v-78h-590z" />
    <glyph glyph-name="Zcaron" unicode="&#x17d;" horiz-adv-x="1189" 
d="M883 1954l35 -45l-273 -316h-100l-273 316l35 45l287 -197zM49 0v84l825 1278v8h-587l-92 -280h-105l21 387h1024v-82l-828 -1280v-9h639l94 283h103l-21 -389h-1073z" />
    <glyph glyph-name="zcaron" unicode="&#x17e;" horiz-adv-x="1064" 
d="M821 1606l35 -45l-272 -316h-101l-272 316l35 45l286 -197zM84 0v82l643 915v11h-440l-64 -217h-100l16 303h819v-78l-643 -922v-8h465l80 260h103l-29 -346h-850z" />
    <glyph glyph-name="florin" unicode="&#x192;" horiz-adv-x="841" 
d="M111 770v104h182l53 289q31 176 133 257q101 81 233 81t214 -47v-84q-82 14 -168 14t-140 -56t-81 -206l-45 -248h268v-104h-289l-160 -879q-51 -281 -311 -280q-92 0 -162 43v82q53 -8 119 -8q67 0 107 45t61 153l149 844h-163z" />
    <glyph glyph-name="circumflex" unicode="&#x2c6;" 
d="M223 1235l-35 45l273 315h100l273 -315l-35 -45l-287 197z" />
    <glyph glyph-name="caron" unicode="&#x2c7;" 
d="M801 1606l35 -45l-273 -316h-100l-273 316l35 45l287 -197z" />
    <glyph glyph-name="breve" unicode="&#x2d8;" 
d="M567 1313q-123 0 -201 75t-81 193h102q27 -129 179 -129t182 129h100q-4 -119 -81 -193t-200 -75z" />
    <glyph glyph-name="dotaccent" unicode="&#x2d9;" 
d="M512 1323q-53 0 -91 38t-38 89t38 88t91 37t91 -37t38 -88t-38 -89t-91 -38z" />
    <glyph glyph-name="ring" unicode="&#x2da;" 
d="M512 1298q72 0 113 43t41 116t-42 116t-112 43t-112 -43t-42 -116t41 -116t113 -43zM512 1214q-106 0 -180 71t-74 172t74 172t180 71t180 -71t74 -172t-74 -172t-180 -71z" />
    <glyph glyph-name="ogonek" unicode="&#x2db;" 
d="M537 -420q-254 0 -254 162q-1 76 75 146t193 112h84q-176 -123 -176 -233q0 -92 114 -93q66 0 127 21v-80q-73 -35 -163 -35z" />
    <glyph glyph-name="tilde" unicode="&#x2dc;" 
d="M383 1526q51 0 153 -39t130 -39q74 0 137 108l69 -30q-92 -219 -231 -219q-51 0 -153 39t-130 38q-76 0 -137 -104l-69 31q90 215 231 215z" />
    <glyph glyph-name="hungarumlaut" unicode="&#x2dd;" 
d="M291 1229l-55 41l229 332l127 -109zM659 1229l-55 41l230 332l127 -109z" />
    <glyph glyph-name="endash" unicode="&#x2013;" horiz-adv-x="933" 
d="M113 565v113h708v-113h-708z" />
    <glyph glyph-name="emdash" unicode="&#x2014;" horiz-adv-x="1536" 
d="M113 565v113h1310v-113h-1310z" />
    <glyph glyph-name="quoteleft" unicode="&#x2018;" horiz-adv-x="620" 
d="M340 1141q57 0 90 -32t33 -90t-42 -92t-113 -34t-123 58t-52 165q0 274 367 395l26 -65q-152 -72 -210 -154t-60 -198q27 47 84 47z" />
    <glyph glyph-name="quoteright" unicode="&#x2019;" horiz-adv-x="620" 
d="M280 1253q-58 0 -90 32t-32 90t42 92t112 34t123 -58q52 -58 52 -165q1 -274 -366 -395l-27 65q152 72 210 154t61 198q-27 -47 -85 -47z" />
    <glyph glyph-name="quotesinglbase" unicode="&#x201a;" horiz-adv-x="620" 
d="M312 350q70 0 123 -58q52 -58 52 -165q1 -274 -366 -395l-27 65q152 72 210 154t61 199q-27 -48 -85 -48t-90 32t-32 90t42 92t112 34z" />
    <glyph glyph-name="quotedblleft" unicode="&#x201c;" horiz-adv-x="1087" 
d="M340 1141q57 0 90 -32t33 -90t-42 -92t-113 -34t-123 58t-52 165q0 274 367 395l26 -65q-152 -72 -210 -154t-60 -198q27 47 84 47zM807 1141q57 0 90 -32t33 -90t-42 -92t-113 -34t-123 58t-52 165q0 274 367 395l26 -65q-152 -72 -210 -154t-60 -198q27 47 84 47z" />
    <glyph glyph-name="quotedblright" unicode="&#x201d;" horiz-adv-x="1087" 
d="M747 1253q-57 0 -90 32t-33 90t43 92t113 34t122 -58t52 -165q1 -274 -366 -395l-27 65q152 72 210 154t60 198q-27 -47 -84 -47zM280 1253q-58 0 -90 32t-32 90t42 92t112 34t123 -58q52 -58 52 -165q1 -274 -366 -395l-27 65q152 72 210 154t61 198q-27 -47 -85 -47z
" />
    <glyph glyph-name="quotedblbase" unicode="&#x201e;" horiz-adv-x="1087" 
d="M780 350q70 0 122 -58t52 -165q1 -274 -366 -395l-27 65q152 72 210 154t60 199q-27 -48 -84 -48t-90 32t-33 90t43 92t113 34zM312 350q70 0 123 -58q52 -58 52 -165q1 -274 -366 -395l-27 65q152 72 210 154t61 199q-27 -48 -85 -48t-90 32t-32 90t42 92t112 34z" />
    <glyph glyph-name="dagger" unicode="&#x2020;" horiz-adv-x="960" 
d="M82 920v182l352 -51l-47 426h186l-49 -426l355 51v-182l-353 49l47 -273v-92l-63 -809h-61l-62 809v92l47 275z" />
    <glyph glyph-name="daggerdbl" unicode="&#x2021;" horiz-adv-x="960" 
d="M82 920v182l352 -51l-47 426h186l-49 -426l355 51v-182l-353 49l54 -283v-102l-54 -283l353 51v-182l-355 51l49 -426h-186l47 426l-352 -51v182l350 -51l-51 283v102l53 285z" />
    <glyph glyph-name="bullet" unicode="&#x2022;" horiz-adv-x="1800" 
d="M1702 760q0 -328 -236 -562t-568 -233q-331 -1 -564 233t-234 562q0 328 234 559t564 231q332 0 568 -231t236 -559z" />
    <glyph glyph-name="ellipsis" unicode="&#x2026;" horiz-adv-x="1835" 
d="M918 -37q-66 0 -112 44t-46 110q0 65 46 109t112 44t112 -44t45 -110q1 -66 -45 -109q-46 -44 -112 -44zM319 -37q-65 0 -111 44t-46 110q0 65 46 109t112 44t111 -44q46 -44 46 -110t-46 -109q-46 -44 -112 -44zM1516 -37q-66 0 -112 44t-46 110q0 65 46 109t112 44
t112 -44t45 -110q1 -66 -45 -109q-46 -44 -112 -44z" />
    <glyph glyph-name="perthousand" unicode="&#x2030;" horiz-adv-x="2658" 
d="M1403 59q170 0 170 292t-170 292t-170 -292t170 -292zM2232 59q170 0 170 292t-170 292t-170 -292t170 -292zM424 690q170 0 170 292t-170 292t-170 -292t170 -292zM350 -63l989 1433h127l-989 -1433h-127zM768 983q0 -173 -98 -273t-248 -100q-148 0 -244 96t-96 273
q0 176 98 274q98 99 244 99t244 -98q100 -98 100 -271zM2234 -18q-148 0 -246 95t-98 270t100 275t244 101q146 0 244 -97q98 -96 98 -272t-97 -274t-245 -98zM1404 -18q-148 0 -246 95q-97 95 -97 270t99 275q98 100 244 101q146 0 244 -97q98 -96 99 -272q0 -176 -97 -274
q-98 -98 -246 -98z" />
    <glyph glyph-name="guilsinglleft" unicode="&#x2039;" horiz-adv-x="618" 
d="M414 55l-322 453v61l322 451h108l-243 -481l243 -484h-108z" />
    <glyph glyph-name="guilsinglright" unicode="&#x203a;" horiz-adv-x="618" 
d="M96 55l244 482l-244 483h109l321 -453v-61l-321 -451h-109z" />
    <glyph glyph-name="fraction" unicode="&#x2044;" horiz-adv-x="473" 
d="M-322 -63l990 1433h127l-990 -1433h-127z" />
    <glyph glyph-name="Euro" unicode="&#x20ac;" horiz-adv-x="1325" 
d="M90 782v97h178q33 182 129 302t218 167t279 47t323 -56l10 -335h-92l-88 251q-80 45 -185 45q-346 0 -399 -421h463v-97h-471v-57q0 -82 6 -150h465v-96h-455q33 -201 137 -295t276 -94t351 88v-72q-169 -131 -391 -131t-376 127t-200 377h-178v96h166q-4 70 -4 108t4 99
h-166z" />
    <glyph glyph-name="trademark" unicode="&#x2122;" horiz-adv-x="2185" 
d="M289 664v67l106 21v643h-147l-53 -199h-95l15 281h741l16 -281h-94l-53 199h-152v-643l109 -21v-67h-393zM985 664v67l105 21v632l-105 25v68h338l104 -283q36 -99 82 -260l15 -51h10q43 190 90 311l109 283h358v-68l-117 -25v-630l117 -23v-67h-381v67l88 23v319l12 332
h-10q-59 -193 -108 -320l-148 -385h-96l-145 385q-60 165 -86 267l-17 53h-10q12 -199 12 -332v-319l94 -23v-67h-311z" />
    <glyph glyph-name="onethird" unicode="&#x2153;" horiz-adv-x="1902" 
d="M100 526v64l131 22v678l-145 -12v59l254 103h59v-828l133 -22v-64h-432zM387 -82l985 1542h127l-985 -1542h-127zM1448 690q-33 0 -74 -4l-45 -162h-84v209q89 35 239 35t226 -62t76 -156t-62 -148q-62 -56 -159 -80v-5q250 -35 250 -223q1 -118 -93 -188t-244 -70
t-261 68v69q109 -41 208 -41q215 0 215 162q0 96 -48 135t-152 39h-68v84h55q90 0 142 44q51 44 51 121t-44 125t-128 48z" />
    <glyph glyph-name="twothirds" unicode="&#x2154;" horiz-adv-x="2033" 
d="M518 -82l985 1542h127l-985 -1542h-127zM1579 690q-33 0 -74 -4l-45 -162h-84v209q86 35 238 35t227 -62q76 -62 76 -156q1 -94 -61 -148q-62 -56 -160 -80v-5q250 -35 250 -223q0 -118 -94 -188t-243 -70q-150 0 -261 68v69q109 -41 208 -41q215 0 216 162q0 96 -48 135
t-153 39h-68v84h56q90 0 141 44t51 121t-44 125t-128 48zM285 1362q-39 0 -70 -6l-49 -156h-84v205q102 39 252 39t234 -66q83 -66 83 -178t-76 -208t-233 -222l-145 -117v-4h475l-10 -123h-617v84l223 219q104 103 156 179t53 168q0 186 -192 186z" />
    <glyph glyph-name="oneeighth" unicode="&#x215b;" horiz-adv-x="1927" 
d="M1669 543q0 71 -43 111q-42 40 -112 40t-112 -40t-42 -104t47 -102t162 -71q100 55 100 166zM1506 -92q97 0 143 44q45 44 45 116t-56 110t-200 88q-121 -61 -121 -186q0 -78 46 -125t143 -47zM100 526v64l131 22v678l-145 -12v59l254 103h59v-828l133 -22v-64h-432z
M387 -82l985 1542h127l-985 -1542h-127zM1511 -166q-164 0 -253 64t-89 176q0 143 207 225v8q-170 78 -170 225q0 102 82 169t221 67t223 -58t83 -148t-49 -135q-48 -46 -130 -81v-8q219 -84 219 -242q0 -118 -90 -190t-254 -72z" />
    <glyph glyph-name="threeeighths" unicode="&#x215c;" horiz-adv-x="1984" 
d="M1726 543q0 71 -43 111t-113 40t-111 -40q-42 -40 -42 -104t47 -102t162 -71q100 55 100 166zM1374 80q0 -78 46 -125t144 -47q97 0 142 44t45 116t-55 110t-201 88q-121 -61 -121 -186zM434 -82l985 1542h127l-985 -1542h-127zM283 1366q-33 0 -74 -4l-45 -162h-84v209
q88 35 238 35t227 -62q76 -62 76 -156q1 -94 -61 -149t-161 -80v-4q250 -35 250 -223q0 -118 -93 -188q-94 -70 -244 -70t-261 68v69q109 -41 209 -41q215 0 215 162q0 96 -48 135t-153 39h-67v84h55q90 0 141 44t51 121t-43 125q-44 48 -128 48zM1569 -166q-164 0 -253 64
t-89 176q0 143 207 225v8q-170 78 -170 225q0 102 82 169t221 67t222 -58t83 -148t-48 -135q-48 -46 -130 -81v-8q219 -84 219 -242q0 -118 -90 -190t-254 -72z" />
    <glyph glyph-name="fiveeighths" unicode="&#x215d;" horiz-adv-x="1949" 
d="M1536 694q-70 0 -112 -40t-42 -104t47 -102t162 -71q100 55 101 166q0 71 -43 111t-113 40zM1339 80q1 -78 47 -125t143 -47t142 44t45 116t-55 110t-201 88q-121 -61 -121 -186zM416 -82l985 1542h127l-985 -1542h-127zM308 512q-148 0 -261 72v61q106 -41 201 -41
q219 0 219 199q0 186 -223 186q-59 0 -146 -16l35 457h475l-14 -132h-383l-16 -229q66 18 127 18q152 -1 236 -73t85 -205q0 -133 -94 -215q-93 -82 -241 -82zM1534 -166q-164 0 -253 64t-89 176q0 143 207 225v8q-170 78 -170 225q0 102 82 169t221 67t222 -58t83 -148
t-48 -135q-48 -46 -130 -81v-8q219 -84 219 -242q0 -118 -90 -190t-254 -72z" />
    <glyph glyph-name="seveneighths" unicode="&#x215e;" horiz-adv-x="1914" 
d="M1501 694q-69 0 -111 -40t-42 -104t46 -102t162 -71q100 55 101 166q0 71 -43 111t-113 40zM1494 -92q97 0 142 44t45 116t-55 110t-201 88q-121 -61 -120 -186q0 -78 46 -125t143 -47zM606 1298h-418l-36 -98h-84l12 230h610v-111l-342 -793h-186l444 766v6zM348 -82
l985 1542h127l-985 -1542h-127zM1499 -166q-164 0 -253 64t-89 176q0 143 207 225v8q-170 78 -170 225q0 102 82 169t221 67t222 -58t83 -148t-48 -135q-48 -46 -130 -81v-8q219 -84 219 -242q0 -118 -90 -190t-254 -72z" />
    <glyph glyph-name="arrowleft" unicode="&#x2190;" horiz-adv-x="1632" 
d="M524 0l-428 694v84l428 699h326l-311 -740l311 -737h-326zM1217 0l-426 694v84l426 699h327l-311 -740l311 -737h-327z" />
    <glyph glyph-name="arrowright" unicode="&#x2192;" horiz-adv-x="1632" 
d="M782 0l312 739l-312 738h326l428 -695v-84l-428 -698h-326zM88 0l311 739l-311 738h328l426 -695v-84l-426 -698h-328z" />
    <glyph glyph-name="minus" unicode="&#x2212;" horiz-adv-x="1263" 
d="M150 608v113h964v-113h-964z" />
    <glyph glyph-name="lessequal" unicode="&#x2264;" horiz-adv-x="1632" 
d="M524 0l-428 694v84l428 699h326l-311 -740l311 -737h-326zM1217 0l-426 694v84l426 699h327l-311 -740l311 -737h-327z" />
    <glyph glyph-name="greaterequal" unicode="&#x2265;" horiz-adv-x="1632" 
d="M782 0l312 739l-312 738h326l428 -695v-84l-428 -698h-326zM88 0l311 739l-311 738h328l426 -695v-84l-426 -698h-328z" />
    <glyph glyph-name="whitecircle" unicode="&#x25cb;" horiz-adv-x="1800" 
d="M899 68q287 0 487 202t201 490q1 286 -199 488t-488 202t-488 -202t-199 -488q-1 -286 199 -490q200 -202 487 -202zM1702 760q0 -328 -236 -562t-568 -233q-331 -1 -564 233t-234 562q0 328 234 559t564 231q332 0 568 -231t236 -559z" />
    <glyph glyph-name="blackstar" unicode="&#x2605;" horiz-adv-x="1853" 
d="M63 989h642l192 588h57l193 -588h641v-49l-504 -356l201 -602l-39 -27l-520 367l-520 -367l-39 27l202 602l-506 356v49z" />
    <glyph glyph-name="whitestar" unicode="&#x2606;" horiz-adv-x="1853" 
d="M528 156l400 293l397 -293l-160 471l402 270h-488l-153 467l-152 -467h-487l401 -270zM63 989h642l192 588h57l193 -588h641v-49l-504 -356l201 -602l-39 -27l-520 367l-520 -367l-39 27l202 602l-506 356v49z" />
    <glyph glyph-name="quoteleft.titling" unicode="&#xe018;" horiz-adv-x="495" 
d="M207 1141q57 0 90 -32t33 -90t-42 -92t-113 -34t-123 58t-52 165q0 274 367 395l26 -65q-152 -72 -210 -154t-60 -198q27 47 84 47z" />
    <glyph glyph-name="quoteright.titling" unicode="&#xe019;" horiz-adv-x="495" 
d="M186 1253q-57 0 -90 32t-33 90t42 92t113 34t123 -58t52 -165q1 -274 -366 -395l-27 65q152 72 210 154t60 198q-27 -47 -84 -47z" />
    <glyph glyph-name="quotedblleft.titling" unicode="&#xe01c;" horiz-adv-x="962" 
d="M207 1141q57 0 90 -32t33 -90t-42 -92t-113 -34t-123 58t-52 165q0 274 367 395l26 -65q-152 -72 -210 -154t-60 -198q27 47 84 47zM674 1141q57 0 90 -32t33 -90t-42 -92t-113 -34t-123 58t-52 165q0 274 367 395l26 -65q-152 -72 -210 -154t-60 -198q27 47 84 47z" />
    <glyph glyph-name="inches" unicode="&#xe022;" horiz-adv-x="880" 
d="M127 979l51 498h223l-155 -498h-119zM485 979l52 498h223l-156 -498h-119z" />
    <glyph glyph-name="feet" unicode="&#xe027;" horiz-adv-x="522" 
d="M127 979l51 498h223l-155 -498h-119z" />
    <glyph glyph-name="zero.titling" unicode="&#xe030;" horiz-adv-x="1191" 
d="M550 70q175 0 251 123t76 426t-80 438t-253 135t-252 -129t-79 -428t81 -432t256 -133zM548 -29q-248 0 -398 163t-150 491q0 327 153 495t393 168t392 -163t152 -491t-148 -496q-148 -167 -394 -167z" />
    <glyph glyph-name="one.titling" unicode="&#xe031;" horiz-adv-x="843" 
d="M20 0v72l254 34v977l-274 -22v69l432 152h57v-1176l252 -34v-72h-721z" />
    <glyph glyph-name="two.titling" unicode="&#xe032;" horiz-adv-x="1050" 
d="M414 1180q-86 0 -174 -21l-62 -235h-119v276q197 88 407 88t328 -95t117 -271q0 -126 -82 -245q-33 -48 -111 -118t-133 -113q-56 -43 -179 -135l-193 -143v-4h735l-18 -164h-930v96l346 297q176 149 261 265t85 249q1 273 -278 273z" />
    <glyph glyph-name="three.titling" unicode="&#xe033;" horiz-adv-x="1021" 
d="M381 1186q-74 0 -145 -10l-64 -238h-119v276q184 74 383 74t312 -96t112 -272q0 -276 -295 -351v-8q354 -57 355 -381q0 -190 -138 -303t-371 -113q-232 0 -411 99v86q184 -63 348 -63t264 81q100 82 101 217q0 170 -85 239t-276 69h-94v110h78q156 0 240 78t83 212
q0 134 -69 214q-70 80 -209 80z" />
    <glyph glyph-name="four.titling" unicode="&#xe034;" horiz-adv-x="1214" 
d="M150 315h520v697h-11l-509 -690v-7zM670 -213v410h-670v108l711 959h159v-949h242v-118h-242v-410h-200z" />
    <glyph glyph-name="five.titling" unicode="&#xe035;" horiz-adv-x="1017" 
d="M373 -236q-195 0 -373 99v86q197 -66 324 -66q170 0 276 94t106 261q1 335 -374 335q-57 0 -242 -28l57 719h721l-18 -170h-598l-33 -416q94 20 207 20q242 0 366 -118t124 -334q0 -214 -151 -348q-150 -134 -392 -134z" />
    <glyph glyph-name="six.titling" unicode="&#xe036;" horiz-adv-x="1122" 
d="M522 66q287 0 287 372q0 193 -76 272q-75 78 -225 78t-299 -108v-33q0 -581 313 -581zM1020 458q0 -208 -134 -348t-370 -139q-238 -1 -377 187t-139 506q0 214 57 380t155 264q195 194 466 193q190 0 299 -71v-89q-109 43 -270 43q-199 0 -335 -143t-161 -479
q154 143 381 143q186 0 307 -119q121 -120 121 -328z" />
    <glyph glyph-name="seven.titling" unicode="&#xe037;" horiz-adv-x="1050" 
d="M846 1094h-694l-62 -164h-90l18 334h930v-148l-561 -1329h-219l678 1296v11z" />
    <glyph glyph-name="eight.titling" unicode="&#xe038;" horiz-adv-x="1138" 
d="M793 1130q0 135 -82 208t-200 73t-195 -75q-76 -76 -76 -192t80 -180t286 -135q61 45 95 76t63 90t29 135zM517 63q163 0 246 79t83 194t-50 170q-30 32 -57 54q-57 46 -331 151q-225 -131 -226 -338q0 -143 86 -227t249 -83zM525 -29q-245 -1 -385 103t-140 288
q0 138 97 238t235 148v10q-141 66 -206 152t-65 214q0 160 123 269t328 109t332 -94q127 -93 127 -261q0 -238 -283 -352v-11q174 -70 261 -162t87 -231q0 -186 -133 -303t-378 -117z" />
    <glyph glyph-name="nine.titling" unicode="&#xe039;" horiz-adv-x="1122" 
d="M498 473q164 0 313 109v32q0 582 -315 582q-143 0 -214 -99t-71 -280q0 -344 287 -344zM342 -242q-190 0 -299 74v88q96 -43 268 -43q213 0 343 140t155 483q-154 -143 -381 -144q-188 0 -308 119t-120 328t132 347t370 138t378 -186t140 -506q0 -424 -188 -631
t-490 -207z" />
    <glyph glyph-name="A.titling" unicode="&#xe041;" horiz-adv-x="1515" 
d="M559 944l-129 -379h459l-121 379l-94 346h-10q-62 -219 -105 -346zM0 0v78l150 39l477 1360h176l463 -1360l147 -39v-78h-551v78l170 39l-112 350h-523l-118 -350l172 -39v-78h-451z" />
    <glyph glyph-name="B.titling" unicode="&#xe042;" horiz-adv-x="1306" 
d="M408 813h190q299 0 299 260q0 169 -73 231t-230 62h-186v-553zM408 109h227q170 1 255 73t85 230t-82 230t-250 73h-235v-606zM0 0v78l193 39v1243l-191 39v78h610q260 0 388 -89t128 -274q0 -123 -80 -214t-260 -118v-12q228 -27 322 -118t94 -262q0 -170 -139 -280
t-397 -110h-668z" />
    <glyph glyph-name="C.titling" unicode="&#xe043;" horiz-adv-x="1265" 
d="M705 -25q-329 1 -517 181t-188 565q0 213 60 369t166 242q206 168 503 169q244 0 410 -55l10 -361h-88l-88 265q-125 53 -271 53q-475 0 -475 -641q0 -352 118 -519t380 -167q152 0 256 59l88 285h94l-14 -371q-174 -74 -444 -74z" />
    <glyph glyph-name="D.titling" unicode="&#xe044;" horiz-adv-x="1445" 
d="M408 106h217q255 0 371 138t116 499q0 289 -65 417q-35 69 -77 111q-74 74 -242 92q-65 7 -163 7h-157v-1264zM0 0v78l193 39v1241l-191 41v78h594q393 1 570 -177t177 -524q0 -776 -722 -776h-621z" />
    <glyph glyph-name="E.titling" unicode="&#xe045;" horiz-adv-x="1280" 
d="M0 0v78l193 39v1241l-191 41v78h1106l25 -367h-95l-92 260h-538v-559h292l60 207h82v-516h-82l-60 211h-292v-607h561l114 320h95l-29 -426h-1149z" />
    <glyph glyph-name="F.titling" unicode="&#xe046;" horiz-adv-x="1236" 
d="M0 0v78l193 37v1243l-191 41v78h1108l25 -379h-95l-92 272h-540v-586h297l57 205h82v-518h-84l-55 215h-297v-569l206 -39v-78h-614z" />
    <glyph glyph-name="G.titling" unicode="&#xe047;" horiz-adv-x="1439" 
d="M741 -29q-741 0 -741 750q0 211 62 368t170 243q210 168 509 169q254 0 426 -53l17 -365h-88l-90 263q-109 57 -287 57q-242 0 -367 -165q-125 -164 -125 -494t119 -499t381 -169q127 0 236 39v442l-197 37v78h571v-78l-159 -37v-518q-193 -68 -437 -68z" />
    <glyph glyph-name="H.titling" unicode="&#xe048;" horiz-adv-x="1574" 
d="M0 0v78l190 37v1243l-190 41v78h592v-78l-186 -41v-553h665v553l-190 41v78h592v-78l-187 -41v-1243l187 -37v-78h-592v78l190 37v592h-665v-592l186 -37v-78h-592z" />
    <glyph glyph-name="I.titling" unicode="&#xe049;" horiz-adv-x="694" 
d="M0 0v78l190 37v1245l-190 39v78h592v-78l-186 -39v-1245l186 -37v-78h-592z" />
    <glyph glyph-name="J.titling" unicode="&#xe04a;" horiz-adv-x="929" 
d="M250 -20q-123 0 -250 63v98q115 -37 216 -37q102 0 156 50t54 176v1028l-190 41v78h591v-78l-186 -41v-1039q-1 -163 -103 -251t-288 -88z" />
    <glyph glyph-name="K.titling" unicode="&#xe04b;" horiz-adv-x="1452" 
d="M0 0v78l190 37v1245l-190 39v78h600v-78l-194 -39v-676l604 676l-148 39v78h451v-78l-146 -39l-456 -498l477 -745l162 -39v-78h-334l-453 709l-157 -136v-458l194 -37v-78h-600z" />
    <glyph glyph-name="L.titling" unicode="&#xe04c;" horiz-adv-x="1216" 
d="M0 0v88l190 27v1245l-190 39v78h612v-78l-206 -39v-1254h512l106 361h90l-27 -467h-1087z" />
    <glyph glyph-name="M.titling" unicode="&#xe04d;" horiz-adv-x="1875" 
d="M0 0v76l190 39v1245l-190 39v78h494l245 -709q47 -134 109 -408l16 -81h10q74 301 138 489l248 709h514v-78l-207 -39v-1243l207 -39v-78h-582v78l164 39v741l8 526h-10q-90 -307 -160 -501l-289 -811h-141l-279 811q-50 140 -129 420l-24 81h-10q8 -322 8 -526v-741
l168 -39v-78h-498z" />
    <glyph glyph-name="N.titling" unicode="&#xe04e;" horiz-adv-x="1558" 
d="M0 0v74l193 41v1243l-193 41v78h467l500 -820q50 -83 145 -284l27 -58h10v1041l-191 43v78h498v-76l-170 -43v-1358h-160l-612 1012q-64 107 -145 278l-27 56h-10v-1229l192 -41v-76h-524z" />
    <glyph glyph-name="O.titling" unicode="&#xe04f;" horiz-adv-x="1447" 
d="M227 742q-1 -666 437 -666q228 0 342 172q113 172 112 467q0 688 -450 688q-219 0 -330 -172q-111 -173 -111 -489zM670 -25q-291 0 -481 203q-189 203 -189 561q0 190 58 341t156 240q198 181 475 181q278 0 467 -201t190 -557q0 -190 -58 -342q-105 -273 -372 -378
q-117 -48 -246 -48z" />
    <glyph glyph-name="P.titling" unicode="&#xe050;" horiz-adv-x="1243" 
d="M406 1366v-623q94 -16 202 -16q158 0 233 78t75 244q0 165 -72 241t-232 76h-206zM0 0v78l190 39v1243l-190 39v78h610q530 0 531 -410q0 -215 -137 -330t-363 -114q-113 0 -235 20v-526l225 -39v-78h-631z" />
    <glyph glyph-name="Q.titling" unicode="&#xe051;" horiz-adv-x="1624" 
d="M227 744q1 -316 105 -490t332 -174t342 170q113 170 112 465q0 688 -450 688q-219 0 -330 -172q-111 -171 -111 -487zM0 747q0 182 58 333t156 240q198 181 475 181q278 0 467 -201q190 -202 190 -534t-140 -512t-370 -215v-10l686 -138l-54 -184l-970 285
q-185 54 -330 212q-168 183 -168 543z" />
    <glyph glyph-name="R.titling" unicode="&#xe052;" horiz-adv-x="1437" 
d="M410 760h217q159 0 229 90t70 230t-71 210t-230 70h-215v-600zM0 0v78l195 39v1241l-189 41v78h625q516 0 516 -400q0 -266 -305 -364v-8l342 -590l151 -39v-76h-319l-379 662h-227v-545l184 -39v-78h-594z" />
    <glyph glyph-name="S.titling" unicode="&#xe053;" horiz-adv-x="1056" 
d="M954 409q0 -177 -130 -305t-379 -129q-249 0 -431 72l-14 336h92l70 -238q124 -67 282 -67t240 76t82 194t-64 176q-64 57 -215 123l-180 78q-135 57 -209 148t-74 250t121 270t341 111t376 -54l15 -315h-91l-59 211q-111 55 -241 55q-130 -1 -210 -61t-80 -164t57 -163
q56 -58 177 -108l180 -74q168 -69 256 -157t88 -265z" />
    <glyph glyph-name="T.titling" unicode="&#xe054;" horiz-adv-x="1339" 
d="M313 0v78l197 37v1255h-336l-82 -315h-92l23 422h1191l23 -422h-92l-82 315h-336v-1255l195 -37v-78h-609z" />
    <glyph glyph-name="U.titling" unicode="&#xe055;" horiz-adv-x="1550" 
d="M1284 469q0 -233 -139 -365t-406 -133q-267 0 -410 128q-142 128 -143 350v911l-186 39v78h592v-78l-189 -39v-875q-1 -197 91 -291t284 -96q371 0 371 389v871l-191 39v80h490v-78l-164 -39v-891z" />
    <glyph glyph-name="V.titling" unicode="&#xe056;" horiz-adv-x="1474" 
d="M0 1477h537v-78l-172 -41l229 -709q37 -111 106 -375l19 -73h10q80 279 137 448l232 709l-170 41v78h444v-78l-137 -41l-465 -1358h-168l-465 1358l-137 41v78z" />
    <glyph glyph-name="W.titling" unicode="&#xe057;" horiz-adv-x="2097" 
d="M0 1477h504v-78l-160 -41l158 -613q58 -222 92 -426l16 -81h11q80 313 135 507l196 732h144l198 -736q66 -232 103 -422l18 -83h10q78 313 127 509l156 613l-162 41v78h449v-78l-152 -41l-364 -1358h-174l-193 688q-50 176 -92 434l-14 88h-11q-76 -315 -133 -514
l-196 -696h-174l-363 1358l-129 41v78z" />
    <glyph glyph-name="X.titling" unicode="&#xe058;" horiz-adv-x="1460" 
d="M0 0v78l160 39l401 647l-375 596l-161 39v78h565v-78l-154 -39l289 -502h10l269 502l-162 39v78h471v-78l-162 -39l-348 -604l395 -641l160 -37v-78h-555v78l158 37l-326 551h-10l-318 -549l162 -41v-76h-469z" />
    <glyph glyph-name="Y.titling" unicode="&#xe059;" horiz-adv-x="1411" 
d="M373 0v78l188 39v536l-430 705l-131 41v78h512v-78l-147 -41l348 -596h8l326 596l-158 41v78h420v-78l-129 -41l-404 -709v-532l187 -39v-78h-590z" />
    <glyph glyph-name="Z.titling" unicode="&#xe05a;" horiz-adv-x="1196" 
d="M0 0v84l825 1278v8h-587l-93 -280h-104l20 387h1024v-82l-827 -1280v-9h639l94 283h103l-21 -389h-1073z" />
    <glyph glyph-name="registered.alt" unicode="&#xe0ae;" horiz-adv-x="1304" 
d="M590 963h84q90 0 90 94q0 88 -102 88h-72v-182zM664 1212q223 0 225 -149q0 -94 -111 -129v-8l119 -181l45 -12v-53h-135l-133 211h-84v-143l61 -15v-53h-250v53l72 15v395l-72 16v53h263zM176 935q0 -219 131 -355t343 -136t345 138t133 353q0 216 -133 354t-345 138
t-343 -137t-131 -355zM1225 938q0 -238 -167 -404t-408 -167q-242 -1 -406 165t-164 405t165 403t407 165q242 0 407 -165q166 -164 166 -402z" />
    <glyph glyph-name="publish" unicode="&#xe0af;" horiz-adv-x="1718" 
d="M797 1030v-303q57 -4 92 -4q149 -1 149 153t-151 154h-90zM563 360v56l88 24v590l-88 17v55h314q155 0 231 -60t76 -166q0 -104 -73 -162t-185 -59q-59 0 -129 9v-224l104 -24v-56h-338zM201 733q0 -289 184 -487t472 -197q288 0 474 198q187 199 187 487t-186 483
t-474 195q-289 0 -473 -196q-184 -194 -184 -483zM858 -31q-322 -1 -542 223t-220 541t220 537t542 221q322 0 543 -221q221 -222 221 -538t-221 -540t-543 -223z" />
    <glyph glyph-name="quotecapdblleft" unicode="&#xe11c;" horiz-adv-x="3158" 
d="M862 -35q-346 0 -548 182t-201 492q0 205 97 359t270 243q338 176 849 184v-94q-413 -27 -657 -223t-234 -487q62 133 196 220t368 87t374 -114q142 -114 142 -348t-184 -368t-472 -133zM2390 -35q-346 0 -548 182t-202 492q0 205 98 359t270 243q338 176 849 184v-94
q-413 -27 -657 -223t-234 -487q62 133 196 220t368 87t374 -114q141 -114 141 -348t-183 -368t-472 -133z" />
    <glyph glyph-name="quotecapdblright" unicode="&#xe11d;" horiz-adv-x="3158" 
d="M2156 184q-234 0 -374 114q-142 114 -142 348t184 368t472 133q346 0 548 -182t201 -492q0 -205 -97 -359t-270 -243q-338 -176 -849 -184v94q413 27 657 223t234 488q-62 -132 -196 -220t-368 -88zM628 184q-234 0 -374 114q-141 114 -141 348t183 368t472 133
q346 0 548 -182t202 -492q0 -205 -98 -359t-270 -243q-338 -176 -849 -184v94q413 27 657 223t234 488q-62 -132 -196 -220t-368 -88z" />
    <glyph glyph-name="bullet.alt" unicode="&#xe122;" horiz-adv-x="784" 
d="M670 689q0 -115 -84 -197t-198 -82t-194 82t-81 198q0 116 81 197q82 80 196 80t197 -81t83 -197z" />
    <glyph glyph-name="ffsmall" unicode="&#xeb00;" horiz-adv-x="2260" 
d="M1208 0v78l160 33v1040l-158 35v78h959l20 -332h-90l-78 227h-446v-483h237l46 170h77v-443h-77l-46 179h-237v-471l170 -33v-78h-537zM78 0v78l160 33v1040l-158 35v78h958l21 -332h-90l-78 227h-447v-483h238l45 170h78v-443h-78l-45 179h-238v-471l170 -33v-78h-536z
" />
    <glyph glyph-name="fismall" unicode="&#xeb01;" horiz-adv-x="1800" 
d="M1208 0v78l156 33v1042l-156 33v78h516v-78l-153 -33v-1042l153 -33v-78h-516zM78 0v78l160 33v1040l-158 35v78h958l21 -332h-90l-78 227h-447v-483h238l45 170h78v-443h-78l-45 179h-238v-471l170 -33v-78h-536z" />
    <glyph glyph-name="flsmall" unicode="&#xeb02;" horiz-adv-x="2242" 
d="M1210 0v78l158 33v1042l-158 33v78h535v-78l-170 -33v-1049h414l92 306h90l-23 -410h-938zM78 0v78l160 33v1040l-158 35v78h958l21 -332h-90l-78 227h-447v-483h238l45 170h78v-443h-78l-45 179h-238v-471l170 -33v-78h-536z" />
    <glyph glyph-name="ffismall" unicode="&#xeb03;" horiz-adv-x="2930" 
d="M2339 0v78l155 33v1042l-155 33v78h516v-78l-154 -33v-1042l154 -33v-78h-516zM1208 0v78l160 33v1040l-158 35v78h959l20 -332h-90l-78 227h-446v-483h237l46 170h77v-443h-77l-46 179h-237v-471l170 -33v-78h-537zM78 0v78l160 33v1040l-158 35v78h958l21 -332h-90
l-78 227h-447v-483h238l45 170h78v-443h-78l-45 179h-238v-471l170 -33v-78h-536z" />
    <glyph glyph-name="fflsmall" unicode="&#xeb04;" horiz-adv-x="3373" 
d="M2341 0v78l158 33v1042l-158 33v78h534v-78l-170 -33v-1049h414l92 306h90l-22 -410h-938zM1208 0v78l160 33v1040l-158 35v78h959l20 -332h-90l-78 227h-446v-483h237l46 170h77v-443h-77l-46 179h-237v-471l170 -33v-78h-537zM78 0v78l160 33v1040l-158 35v78h958
l21 -332h-90l-78 227h-447v-483h238l45 170h78v-443h-78l-45 179h-238v-471l170 -33v-78h-536z" />
    <glyph glyph-name="Asmall" unicode="&#xf761;" horiz-adv-x="1290" 
d="M516 788l-102 -299h374l-92 289q-16 51 -34 134t-31 141l-10 55h-11q-55 -203 -94 -320zM37 0v78l119 33l407 1153h178l394 -1153l118 -33v-78h-489v78l145 33l-92 284h-436l-96 -284l147 -33v-78h-395z" />
    <glyph glyph-name="Bsmall" unicode="&#xf762;" horiz-adv-x="1206" 
d="M444 698h152q240 0 240 217q0 137 -60 191t-184 53h-148v-461zM444 104h183q272 0 272 248q0 133 -66 193q-67 59 -202 59h-187v-500zM78 0v78l160 33v1042l-158 33v78h532q442 0 443 -310q0 -244 -299 -286v-11q202 -25 282 -101t80 -224q0 -146 -119 -239t-342 -93
h-579z" />
    <glyph glyph-name="Csmall" unicode="&#xf763;" horiz-adv-x="1202" 
d="M672 -20q-262 0 -422 154q-158 154 -158 482q0 508 392 633q108 35 278 35t311 -47l10 -317h-92l-73 225q-100 43 -220 43q-384 0 -386 -553q0 -275 96 -416t307 -141q119 0 213 49l73 240h93l-13 -324q-147 -63 -409 -63z" />
    <glyph glyph-name="Dsmall" unicode="&#xf764;" horiz-adv-x="1327" 
d="M446 104h172q205 0 302 121q96 121 96 430t-118 413q-62 54 -136 72t-189 19h-127v-1055zM80 0v78l160 33v1040l-158 35v78h518q332 0 484 -151t151 -451q0 -662 -614 -662h-541z" />
    <glyph glyph-name="Esmall" unicode="&#xf765;" horiz-adv-x="1169" 
d="M80 0v78l158 33v1040l-156 35v78h954l21 -320h-94l-76 217h-443v-461h236l47 168h78v-438h-78l-47 174h-236v-500h461l96 265h93l-25 -369h-989z" />
    <glyph glyph-name="Fsmall" unicode="&#xf766;" horiz-adv-x="1130" 
d="M78 0v78l160 33v1040l-158 35v78h958l21 -332h-90l-78 227h-447v-483h238l45 170h78v-443h-78l-45 179h-238v-471l170 -33v-78h-536z" />
    <glyph glyph-name="Gsmall" unicode="&#xf767;" horiz-adv-x="1306" 
d="M731 -25q-637 0 -637 641q0 508 402 633q110 35 286 35t318 -47l14 -315h-90l-76 219q-88 47 -235 47q-397 0 -399 -553q0 -275 96 -416t309 -141q98 0 188 28v367l-159 31v78h495v-78l-131 -31v-438q-168 -60 -381 -60z" />
    <glyph glyph-name="Hsmall" unicode="&#xf768;" horiz-adv-x="1425" 
d="M80 0v78l158 33v1040l-158 35v78h518v-78l-154 -35v-457h539v457l-156 35v78h516v-78l-153 -35v-1040l156 -33v-78h-519v78l156 31v491h-539v-491l154 -31v-78h-518z" />
    <glyph glyph-name="Ismall" unicode="&#xf769;" horiz-adv-x="669" 
d="M78 0v78l155 33v1042l-155 33v78h516v-78l-154 -33v-1042l154 -33v-78h-516z" />
    <glyph glyph-name="Jsmall" unicode="&#xf76a;" horiz-adv-x="833" 
d="M625 289q0 -147 -85 -227q-86 -80 -228 -80t-253 59v94q96 -29 185 -29q174 0 174 199v846l-158 35v78h518v-78l-153 -35v-862z" />
    <glyph glyph-name="Ksmall" unicode="&#xf76b;" horiz-adv-x="1298" 
d="M80 0v78l158 33v1042l-158 33v78h522v-78l-158 -33v-580l488 580l-129 33v78h409v-78l-129 -33l-362 -412l393 -630l133 -33v-78h-297l-368 590l-138 -121v-360l158 -31v-78h-522z" />
    <glyph glyph-name="Lsmall" unicode="&#xf76c;" horiz-adv-x="1112" 
d="M80 0v78l158 33v1042l-158 33v78h534v-78l-170 -33v-1049h414l92 306h90l-22 -410h-938z" />
    <glyph glyph-name="Msmall" unicode="&#xf76d;" horiz-adv-x="1683" 
d="M80 0v78l158 33v1042l-158 33v78h440l195 -598q54 -155 88 -349l14 -67h10q61 250 117 416l197 598h463v-78l-170 -33v-1042l170 -33v-78h-508v78l135 33v624l6 441h-8q-72 -252 -129 -420l-236 -701h-135l-237 701l-125 418h-9q8 -268 9 -441v-622l139 -33v-78h-426z
" />
    <glyph glyph-name="Nsmall" unicode="&#xf76e;" horiz-adv-x="1394" 
d="M80 0v78l160 33v1040l-160 35v78h405l414 -666q62 -96 131 -262l23 -51h10v864l-156 37v78h420v-78l-139 -35v-1151h-152l-510 831q-40 65 -131 254l-22 52h-8v-1024l159 -35v-78h-444z" />
    <glyph glyph-name="Osmall" unicode="&#xf76f;" horiz-adv-x="1347" 
d="M315 635q-1 -557 351 -557q184 0 276 145t92 391q0 573 -364 574q-176 0 -266 -146t-89 -407zM665 -20q-243 0 -406 172t-163 479q0 164 50 293q50 130 134 206q171 154 410 154q238 0 400 -170t162 -482t-172 -482t-415 -170z" />
    <glyph glyph-name="Psmall" unicode="&#xf770;" horiz-adv-x="1114" 
d="M444 1151v-510q68 -12 178 -12t170 61q58 60 58 200t-58 200t-188 61h-160zM80 0v78l158 33v1042l-158 33v78h518q465 0 465 -359q0 -186 -115 -280t-313 -95q-92 0 -191 17v-436l187 -33v-78h-551z" />
    <glyph glyph-name="Qsmall" unicode="&#xf771;" horiz-adv-x="1347" 
d="M676 78q176 0 267 145t91 391q0 573 -364 574q-176 0 -266 -146t-89 -393q1 -571 361 -571zM96 637q0 158 50 287q50 130 134 206q171 154 410 154q238 0 400 -170t161 -477q1 -262 -117 -414t-319 -188v-6l576 -101l-45 -174l-818 238q-164 46 -287 180
q-145 156 -145 465z" />
    <glyph glyph-name="Rsmall" unicode="&#xf772;" horiz-adv-x="1261" 
d="M446 659h179q129 0 186 72q57 73 57 189t-58 174t-187 59h-177v-494zM80 0v78l162 33v1040l-156 35v78h549q446 0 446 -346q0 -225 -260 -310v-8l285 -491l117 -31v-78h-281l-315 561h-181v-450l148 -33v-78h-514z" />
    <glyph glyph-name="Ssmall" unicode="&#xf773;" horiz-adv-x="1048" 
d="M512 -20q-215 0 -375 61l-14 291h96l62 -199q104 -55 229 -55t195 61q69 61 69 159t-53 144q-53 47 -184 103l-144 61q-121 53 -185 131q-64 79 -65 219t105 235t300 95t326 -45l13 -274h-92l-54 176q-96 45 -197 45t-168 -48t-67 -134t49 -137q49 -50 152 -91l143 -55
q150 -61 225 -138q74 -77 74 -233t-112 -264t-328 -108z" />
    <glyph glyph-name="Tsmall" unicode="&#xf774;" horiz-adv-x="1185" 
d="M326 0v78l163 33v1048h-264l-67 -266h-95l19 371h1020l20 -371h-94l-67 266h-265v-1048l162 -33v-78h-532z" />
    <glyph glyph-name="Usmall" unicode="&#xf775;" horiz-adv-x="1333" 
d="M1149 403q0 -201 -119 -315q-120 -114 -352 -113q-232 0 -354 111t-121 301v766l-154 33v78h516v-78l-153 -33v-735q0 -164 72 -243t232 -79t234 79t74 243v733l-156 35v78h416v-78l-135 -33v-750z" />
    <glyph glyph-name="Vsmall" unicode="&#xf776;" horiz-adv-x="1273" 
d="M47 1264h475v-78l-145 -35l180 -559q49 -149 94 -346l17 -68h8q76 256 127 414l180 559l-141 35v78h387v-78l-117 -35l-391 -1151h-168l-393 1151l-113 35v78z" />
    <glyph glyph-name="Wsmall" unicode="&#xf777;" horiz-adv-x="1814" 
d="M51 1264h451v-78l-133 -35l118 -471q30 -117 86 -418l15 -88h8q72 336 117 502l161 588h134l161 -584q45 -165 84 -418l15 -88h10q80 340 121 508l114 469l-135 35v78h385v-78l-125 -35l-303 -1151h-176l-151 567q-45 162 -78 363l-15 74h-8q-59 -274 -104 -437
l-162 -567h-178l-303 1151l-109 35v78z" />
    <glyph glyph-name="Xsmall" unicode="&#xf778;" horiz-adv-x="1327" 
d="M80 0v78l127 33l342 536l-322 506l-127 33v78h496v-78l-129 -31l240 -412h8l233 412l-137 31v78h401v-78l-129 -33l-301 -504l336 -538l129 -33v-78h-487v78l131 31l-270 454h-9l-268 -452l135 -35v-76h-399z" />
    <glyph glyph-name="Ysmall" unicode="&#xf779;" horiz-adv-x="1212" 
d="M358 0v78l156 33v430l-360 610l-109 35v78h449v-78l-121 -33l286 -514h7l268 514l-127 33v78h360v-78l-108 -35l-336 -612v-428l154 -33v-78h-519z" />
    <glyph glyph-name="Zsmall" unicode="&#xf77a;" horiz-adv-x="1067" 
d="M68 0v90l692 1057v8h-488l-79 -233h-95l19 342h878v-90l-696 -1059v-6h530l80 239h95l-19 -348h-917z" />
    <glyph glyph-name="Agravesmall" unicode="&#xf7e0;" horiz-adv-x="1290" 
d="M866 1378l-483 187l72 157l442 -276zM516 788l-102 -299h374l-92 289q-16 51 -34 134t-31 141l-10 55h-11q-55 -203 -94 -320zM37 0v78l119 33l407 1153h178l394 -1153l118 -33v-78h-489v78l145 33l-92 284h-436l-96 -284l147 -33v-78h-395z" />
    <glyph glyph-name="Aacutesmall" unicode="&#xf7e1;" horiz-adv-x="1290" 
d="M424 1378l-31 68l443 276l71 -157zM516 788l-102 -299h374l-92 289q-16 51 -34 134t-31 141l-10 55h-11q-55 -203 -94 -320zM37 0v78l119 33l407 1153h178l394 -1153l118 -33v-78h-489v78l145 33l-92 284h-436l-96 -284l147 -33v-78h-395z" />
    <glyph glyph-name="Acircumflexsmall" unicode="&#xf7e2;" horiz-adv-x="1290" 
d="M356 1368l-34 45l272 316h100l273 -316l-35 -45l-287 197zM516 788l-102 -299h374l-92 289q-16 51 -34 134t-31 141l-10 55h-11q-55 -203 -94 -320zM37 0v78l119 33l407 1153h178l394 -1153l118 -33v-78h-489v78l145 33l-92 284h-436l-96 -284l147 -33v-78h-395z" />
    <glyph glyph-name="Atildesmall" unicode="&#xf7e3;" horiz-adv-x="1290" 
d="M516 1659q50 0 154 -39t129 -39q74 0 137 109l70 -31q-92 -219 -232 -219q-49 0 -153 39t-129 39q-77 -1 -138 -105l-69 31q90 215 231 215zM516 788l-102 -299h374l-92 289q-16 51 -34 134t-31 141l-10 55h-11q-55 -203 -94 -320zM37 0v78l119 33l407 1153h178
l394 -1153l118 -33v-78h-489v78l145 33l-92 284h-436l-96 -284l147 -33v-78h-395z" />
    <glyph glyph-name="Adieresissmall" unicode="&#xf7e4;" horiz-adv-x="1290" 
d="M430 1380q-49 0 -83 34t-34 81t34 81t83 34t83 -34t34 -81t-34 -81t-83 -34zM860 1380q-49 0 -83 34t-34 81t34 81t83 34t83 -34t34 -81t-34 -81t-83 -34zM516 788l-102 -299h374l-92 289q-16 51 -34 134t-31 141l-10 55h-11q-55 -203 -94 -320zM37 0v78l119 33l407 1153
h178l394 -1153l118 -33v-78h-489v78l145 33l-92 284h-436l-96 -284l147 -33v-78h-395z" />
    <glyph glyph-name="Aringsmall" unicode="&#xf7e5;" horiz-adv-x="1290" 
d="M645 1432q72 0 113 43t41 115t-42 116q-42 43 -112 43q-69 0 -111 -43t-42 -116q0 -74 40 -116t113 -42zM516 788l-102 -299h374l-92 289q-16 51 -34 134t-31 141l-10 55h-11q-55 -203 -94 -320zM645 1348q-106 0 -180 70t-74 172q0 101 74 172t180 71t180 -71t74 -172
q0 -102 -74 -172t-180 -70zM37 0v78l119 33l407 1153h178l394 -1153l118 -33v-78h-489v78l145 33l-92 284h-436l-96 -284l147 -33v-78h-395z" />
    <glyph glyph-name="Ccedillasmall" unicode="&#xf7e7;" horiz-adv-x="1202" 
d="M553 -227v217q-461 68 -461 626q0 508 392 633q108 35 278 35t311 -47l10 -317h-92l-73 225q-100 43 -220 43q-384 0 -386 -553q0 -275 96 -416t307 -141q119 0 213 49l73 240h93l-13 -324q-147 -63 -393 -63q-29 0 -43 2v-119q268 -10 268 -154q1 -91 -99 -143t-370 -58
v68q233 15 283 68q20 20 21 51q0 78 -195 78z" />
    <glyph glyph-name="Egravesmall" unicode="&#xf7e8;" horiz-adv-x="1169" 
d="M805 1378l-483 187l71 157l443 -276zM80 0v78l158 33v1040l-156 35v78h954l21 -320h-94l-76 217h-443v-461h236l47 168h78v-438h-78l-47 174h-236v-500h461l96 265h93l-25 -369h-989z" />
    <glyph glyph-name="Eacutesmall" unicode="&#xf7e9;" horiz-adv-x="1169" 
d="M362 1378l-30 68l442 276l72 -157zM80 0v78l158 33v1040l-156 35v78h954l21 -320h-94l-76 217h-443v-461h236l47 168h78v-438h-78l-47 174h-236v-500h461l96 265h93l-25 -369h-989z" />
    <glyph glyph-name="Ecircumflexsmall" unicode="&#xf7ea;" horiz-adv-x="1169" 
d="M305 1368l-35 45l273 316h100l272 -316l-34 -45l-287 197zM80 0v78l158 33v1040l-156 35v78h954l21 -320h-94l-76 217h-443v-461h236l47 168h78v-438h-78l-47 174h-236v-500h461l96 265h93l-25 -369h-989z" />
    <glyph glyph-name="Edieresissmall" unicode="&#xf7eb;" horiz-adv-x="1169" 
d="M817 1380q-49 0 -83 34t-34 81t34 81t83 34t83 -34t34 -81t-34 -81t-83 -34zM387 1380q-49 0 -83 34t-34 81t34 81t83 34t83 -34t34 -81t-34 -81t-83 -34zM80 0v78l158 33v1040l-156 35v78h954l21 -320h-94l-76 217h-443v-461h236l47 168h78v-438h-78l-47 174h-236v-500
h461l96 265h93l-25 -369h-989z" />
    <glyph glyph-name="Igravesmall" unicode="&#xf7ec;" horiz-adv-x="669" 
d="M555 1378l-483 187l71 157l443 -276zM78 0v78l155 33v1042l-155 33v78h516v-78l-154 -33v-1042l154 -33v-78h-516z" />
    <glyph glyph-name="Iacutesmall" unicode="&#xf7ed;" horiz-adv-x="669" 
d="M113 1378l-31 68l442 276l72 -157zM78 0v78l155 33v1042l-155 33v78h516v-78l-154 -33v-1042l154 -33v-78h-516z" />
    <glyph glyph-name="Icircumflexsmall" unicode="&#xf7ee;" horiz-adv-x="669" 
d="M45 1368l-35 45l273 316h100l272 -316l-34 -45l-287 197zM78 0v78l155 33v1042l-155 33v78h516v-78l-154 -33v-1042l154 -33v-78h-516z" />
    <glyph glyph-name="Idieresissmall" unicode="&#xf7ef;" horiz-adv-x="669" 
d="M549 1380q-49 0 -83 34t-34 81t34 81t83 34t83 -34t34 -81t-34 -81t-83 -34zM119 1380q-49 0 -83 34t-34 81t34 81t83 34t83 -34t34 -81t-34 -81t-83 -34zM78 0v78l155 33v1042l-155 33v78h516v-78l-154 -33v-1042l154 -33v-78h-516z" />
    <glyph glyph-name="Ntildesmall" unicode="&#xf7f1;" horiz-adv-x="1394" 
d="M567 1659q51 0 153 -39t130 -39q74 0 137 109l70 -31q-92 -219 -232 -219q-51 0 -153 39t-129 39q-76 -1 -137 -105l-70 31q90 215 231 215zM80 0v78l160 33v1040l-160 35v78h405l414 -666q62 -96 131 -262l23 -51h10v864l-156 37v78h420v-78l-139 -35v-1151h-152
l-510 831q-40 65 -131 254l-22 52h-8v-1024l159 -35v-78h-444z" />
    <glyph glyph-name="Ogravesmall" unicode="&#xf7f2;" horiz-adv-x="1347" 
d="M895 1378l-483 187l71 157l443 -276zM315 635q-1 -557 351 -557q184 0 276 145t92 391q0 573 -364 574q-176 0 -266 -146t-89 -407zM665 -20q-243 0 -406 172t-163 479q0 164 50 293q50 130 134 206q171 154 410 154q238 0 400 -170t162 -482t-172 -482t-415 -170z" />
    <glyph glyph-name="Oacutesmall" unicode="&#xf7f3;" horiz-adv-x="1347" 
d="M453 1378l-31 68l442 276l72 -157zM315 635q-1 -557 351 -557q184 0 276 145t92 391q0 573 -364 574q-176 0 -266 -146t-89 -407zM665 -20q-243 0 -406 172t-163 479q0 164 50 293q50 130 134 206q171 154 410 154q238 0 400 -170t162 -482t-172 -482t-415 -170z" />
    <glyph glyph-name="Ocircumflexsmall" unicode="&#xf7f4;" horiz-adv-x="1347" 
d="M385 1368l-35 45l273 316h100l272 -316l-34 -45l-287 197zM315 635q-1 -557 351 -557q184 0 276 145t92 391q0 573 -364 574q-176 0 -266 -146t-89 -407zM665 -20q-243 0 -406 172t-163 479q0 164 50 293q50 130 134 206q171 154 410 154q238 0 400 -170t162 -482
t-172 -482t-415 -170z" />
    <glyph glyph-name="Otildesmall" unicode="&#xf7f5;" horiz-adv-x="1347" 
d="M545 1659q49 0 153 -39t129 -39q74 0 138 109l69 -31q-92 -219 -231 -219q-49 0 -153 39t-130 39q-76 -1 -137 -105l-70 31q90 215 232 215zM315 635q-1 -557 351 -557q184 0 276 145t92 391q0 573 -364 574q-176 0 -266 -146t-89 -407zM665 -20q-243 0 -406 172
t-163 479q0 164 50 293q50 130 134 206q171 154 410 154q238 0 400 -170t162 -482t-172 -482t-415 -170z" />
    <glyph glyph-name="Odieresissmall" unicode="&#xf7f6;" horiz-adv-x="1347" 
d="M459 1380q-49 0 -83 34t-34 81t34 81t83 34t83 -34t34 -81t-34 -81t-83 -34zM889 1380q-49 0 -83 34t-34 81t34 81t83 34t83 -34t34 -81t-34 -81t-83 -34zM315 635q-1 -557 351 -557q184 0 276 145t92 391q0 573 -364 574q-176 0 -266 -146t-89 -407zM665 -20
q-243 0 -406 172t-163 479q0 164 50 293q50 130 134 206q171 154 410 154q238 0 400 -170t162 -482t-172 -482t-415 -170z" />
    <glyph glyph-name="Ugravesmall" unicode="&#xf7f9;" horiz-adv-x="1333" 
d="M887 1378l-484 187l72 157l443 -276zM1149 403q0 -201 -119 -315q-120 -114 -352 -113q-232 0 -354 111t-121 301v766l-154 33v78h516v-78l-153 -33v-735q0 -164 72 -243t232 -79t234 79t74 243v733l-156 35v78h416v-78l-135 -33v-750z" />
    <glyph glyph-name="Uacutesmall" unicode="&#xf7fa;" horiz-adv-x="1333" 
d="M465 1378l-31 68l443 276l71 -157zM1149 403q0 -201 -119 -315q-120 -114 -352 -113q-232 0 -354 111t-121 301v766l-154 33v78h516v-78l-153 -33v-735q0 -164 72 -243t232 -79t234 79t74 243v733l-156 35v78h416v-78l-135 -33v-750z" />
    <glyph glyph-name="Ucircumflexsmall" unicode="&#xf7fb;" horiz-adv-x="1333" 
d="M418 1368l-35 45l272 316h101l272 -316l-35 -45l-286 197zM1149 403q0 -201 -119 -315q-120 -114 -352 -113q-232 0 -354 111t-121 301v766l-154 33v78h516v-78l-153 -33v-735q0 -164 72 -243t232 -79t234 79t74 243v733l-156 35v78h416v-78l-135 -33v-750z" />
    <glyph glyph-name="Udieresissmall" unicode="&#xf7fc;" horiz-adv-x="1333" 
d="M928 1380q-49 0 -83 34t-34 81t34 81t83 34t83 -34q33 -34 33 -81t-34 -81t-82 -34zM498 1380q-49 0 -83 34t-34 81t34 81t83 34t83 -34q33 -34 33 -81t-34 -81t-82 -34zM1149 403q0 -201 -119 -315q-120 -114 -352 -113q-232 0 -354 111t-121 301v766l-154 33v78h516
v-78l-153 -33v-735q0 -164 72 -243t232 -79t234 79t74 243v733l-156 35v78h416v-78l-135 -33v-750z" />
    </font>
</defs>
</svg>
