<?xml version="1.0" standalone="no"?>
<!DOCTYPE svg PUBLIC "-//W3C//DTD SVG 1.1//EN" "http://www.w3.org/Graphics/SVG/1.1/DTD/svg11.dtd" >
<svg xmlns="http://www.w3.org/2000/svg">
<metadata>
Created by FontPrep 20130207 at Tue Feb 25 17:33:03 2014
 By Tom
Copyright (c) Christian Schwartz &#38; Paul Barnes, 2005. All rights reserved.
</metadata>
<defs>
<font id="40ffedbf9988b13ce6b5877aa2acdbf4" horiz-adv-x='1024' >
  <font-face 
    font-family="TE31TextEgyptian-Bold"
    font-weight="700"
    font-stretch="normal"
    units-per-em="2048"
    panose-1="2 0 5 3 6 0 0 2 0 4"
    ascent="1638"
    descent="-410"
    x-height="1124"
    cap-height="1477"
    bbox="-303 -489 3045 2038"
    underline-thickness="40"
    underline-position="-231"
    unicode-range="U+0020-FB04"
  />
<missing-glyph 
 />
    <glyph glyph-name="ff" unicode="ff" horiz-adv-x="1437" 
d="M831 1247q0 80 25 146q-74 67 -171 67t-141 -56t-44 -187v-93h331v123zM49 0v127l131 33v792h-131v125l131 49v101q0 190 132 283q132 94 338 94t325 -60q121 82 291 82t325 -35v-276h-190l-27 158q-37 4 -55 4q-168 0 -168 -232v-121h238v-172h-238v-792l164 -33v-127
h-588v127l104 31v794h-331v-798l108 -27v-127h-559z" />
    <glyph glyph-name="fi" unicode="fi" horiz-adv-x="1329" 
d="M727 0v127l113 31v794h-340v-798l108 -27v-127h-559v127l131 33v792h-131v125l131 49v107q0 201 140 297t353 96q212 0 365 -37v-276h-215l-28 160q-41 4 -76 4q-117 -1 -168 -63t-51 -195v-95h477l151 21l31 -17v-968l127 -33v-127h-559z" />
    <glyph glyph-name="fl" unicode="fl" horiz-adv-x="1329" 
d="M51 0v127l131 33v792h-129v125l129 49v107q0 201 135 297t337 96t347 -49l132 51l30 -16v-1452l121 -33v-127h-555v127l113 31v1274q-68 41 -150 41q-190 0 -190 -254v-95h211v-172h-211v-798l108 -27v-127h-559z" />
    <glyph glyph-name="ffi" unicode="ffi" horiz-adv-x="1982" 
d="M836 1233q0 88 26 149q-74 78 -176 78t-146 -56t-44 -187v-93h340v109zM45 0v127l131 33v792h-129v125l129 49v101q0 190 132 283q132 94 339 94t338 -66q129 88 341 88t370 -41v-272h-215l-29 157q-35 6 -78 7q-117 -1 -168 -63t-51 -195v-95h479l152 21l31 -17v-968
l127 -33v-127h-558v127l109 31l2 794h-342v-798l109 -27v-127h-539v127l111 31v794h-340v-798l108 -27v-127h-559z" />
    <glyph glyph-name="ffl" unicode="ffl" horiz-adv-x="1982" 
d="M838 1233q0 84 24 151q-70 76 -173 76t-147 -56t-44 -187v-93h340v109zM47 0v127l131 33v792h-129v125l129 49v101q0 190 132 283q132 94 341 94t334 -64q127 86 327 86t345 -49l131 51l29 -16v-1452l122 -33v-127h-555v127l113 31v1274q-68 41 -149 41q-190 0 -191 -250
v-99h211v-172h-211v-798l109 -27v-127h-541v127l113 31v794h-340v-798l108 -27v-127h-559z" />
    <glyph glyph-name=".notdef" 
 />
    <glyph glyph-name=".null" horiz-adv-x="0" 
 />
    <glyph glyph-name="nonmarkingreturn" horiz-adv-x="681" 
 />
    <glyph glyph-name="space" unicode=" " horiz-adv-x="411" 
 />
    <glyph glyph-name="exclam" unicode="!" horiz-adv-x="571" 
d="M285 -25q-74 -1 -123 51t-49 122t49 120q49 51 123 51t124 -51t50 -121t-50 -121t-124 -51zM186 457l-75 1020h348l-84 -1020h-189z" />
    <glyph glyph-name="quotedbl" unicode="&#x22;" horiz-adv-x="1146" 
d="M255 1192q-50 0 -92 41t-42 109t51 114q51 45 135 45t146 -65q61 -66 61 -174q0 -314 -379 -441l-47 92q123 74 179 141t65 158q-27 -20 -77 -20zM771 1192q-50 0 -92 41t-42 109t51 114q51 45 135 45t146 -65q61 -66 61 -174q0 -314 -379 -441l-47 92q123 74 179 141
t65 158q-27 -20 -77 -20z" />
    <glyph glyph-name="numbersign" unicode="#" horiz-adv-x="1122" 
d="M463 819l-37 -244h231l39 244h-233zM133 805v254h203l51 313h164l-49 -313h233l49 313h166l-51 -313h158v-254h-197l-35 -215h160v-254h-199l-53 -336h-166l54 336h-234l-51 -336h-166l53 336h-157v254h196l35 215h-164z" />
    <glyph glyph-name="dollar" unicode="$" horiz-adv-x="1153" 
d="M354 1073q0 -76 37 -117t129 -75l49 358q-99 -2 -157 -46t-58 -120zM786 327q0 83 -40 129t-136 83l-55 -404q115 1 173 55t58 137zM80 1006q0 173 126 282t376 111l24 174h154l-25 -180q127 -12 254 -56l19 -301h-189l-41 170q-41 14 -78 21l-51 -389l60 -19
q188 -61 277 -149t89 -272t-135 -301q-135 -116 -397 -120l-37 -270h-152l35 277q-186 12 -301 59l-18 338h192l55 -207q47 -20 105 -29l59 437l-59 20q-170 49 -256 140t-86 264z" />
    <glyph glyph-name="percent" unicode="%" horiz-adv-x="1863" 
d="M1431 109q67 0 93 58t24 193q0 135 -25 199q-27 63 -93 63t-92 -60q-26 -62 -26 -194t26 -196q26 -63 93 -63zM430 733q66 -1 92 59t27 194q0 134 -27 198q-26 64 -92 63q-66 0 -92 -60q-26 -61 -25 -195q-1 -134 25 -196t92 -63zM352 -72l965 1467h178l-963 -1467h-180z
M430 1378q154 0 262 -99t109 -287t-107 -290q-108 -100 -265 -100t-262 97t-105 287t107 291t261 101zM1429 -23q-157 1 -263 99t-105 288q0 190 108 289q109 101 262 101t263 -98t108 -287q0 -188 -108 -290t-265 -102z" />
    <glyph glyph-name="ampersand" unicode="&#x26;" horiz-adv-x="1581" 
d="M594 1163q0 -82 28 -135t85 -119q81 53 115 113t34 147q0 170 -125 170q-63 0 -100 -47t-37 -129zM667 174q126 0 232 55l-389 447q-12 12 -16 18q-96 -90 -97 -254q0 -122 72 -194t198 -72zM570 -25q-232 0 -373 109t-142 307q0 147 88 243t258 177q-113 155 -113 315
t122 268q121 108 309 108t299 -90q110 -89 110 -226t-82 -218t-247 -159l321 -363q55 94 80 213l-106 35v135h438v-135l-129 -35q-47 -174 -174 -333l133 -150l135 -37v-139h-395l-101 113q-199 -138 -431 -138z" />
    <glyph glyph-name="quotesingle" unicode="'" horiz-adv-x="618" 
d="M249 1192q-50 0 -92 41t-42 109t51 114q51 45 135 45q84 1 145 -65t62 -174q0 -314 -379 -441l-47 92q123 74 179 141t65 158q-27 -20 -77 -20z" />
    <glyph glyph-name="parenleft" unicode="(" horiz-adv-x="747" 
d="M78 643q0 535 532 944l92 -86q-313 -367 -313 -821q0 -303 79 -507t234 -388l-92 -86q-389 291 -488 623q-44 147 -44 321z" />
    <glyph glyph-name="parenright" unicode=")" horiz-adv-x="747" 
d="M358 606q0 303 -78 507q-79 204 -235 388l92 86q115 -86 196 -165q81 -78 165 -194q172 -236 172 -585q-1 -534 -533 -944l-92 86q313 367 313 821z" />
    <glyph glyph-name="asterisk" unicode="*" horiz-adv-x="913" 
d="M334 735l92 320l-236 -230l-114 199l317 82l-317 82l114 201l236 -232l-92 320h246l-95 -320l238 232l113 -201l-318 -82l318 -82l-113 -199l-238 230l95 -320h-246z" />
    <glyph glyph-name="plus" unicode="+" horiz-adv-x="1208" 
d="M98 575v179h408v432h194v-432h408v-179h-408v-432h-194v432h-408z" />
    <glyph glyph-name="comma" unicode="," horiz-adv-x="620" 
d="M246 29q-47 0 -89 44q-42 45 -42 115t51 116t137 46t147 -66q60 -67 60 -180q0 -328 -401 -458l-48 94q127 74 189 144q61 71 72 163q-29 -18 -76 -18z" />
    <glyph glyph-name="hyphen" unicode="-" horiz-adv-x="755" 
d="M92 485v242h572v-242h-572z" />
    <glyph glyph-name="period" unicode="." horiz-adv-x="620" 
d="M309 -29q-82 1 -136 57t-54 135t54 133t136 54t136 -54q55 -54 55 -133t-54 -135t-137 -57z" />
    <glyph glyph-name="slash" unicode="/" horiz-adv-x="802" 
d="M18 -256l531 1817h188l-528 -1817h-191z" />
    <glyph glyph-name="zero" unicode="0" horiz-adv-x="1325" 
d="M422 630q0 -268 58 -376t181 -109q122 0 181 108q59 109 59 379t-57 378t-179 108t-183 -109q-60 -111 -60 -379zM668 1290q254 0 420 -165t165 -486q0 -168 -48 -298t-132 -208q-169 -156 -421 -156t-418 163q-164 163 -164 488q0 326 172 494t426 168z" />
    <glyph glyph-name="one" unicode="1" horiz-adv-x="952" 
d="M86 0v133l231 37v803l-239 -23v140l428 188h151v-1108l228 -37v-133h-799z" />
    <glyph glyph-name="two" unicode="2" horiz-adv-x="1089" 
d="M113 1042l92 37q-53 -19 -92 -37zM410 1112q-49 0 -88 -6l-41 -205h-201v311q190 76 430 76t363 -98q124 -98 124 -266t-102 -286q-102 -116 -356 -286l-174 -116v-5h651l-21 -231h-946v180l322 277q260 225 260 417q0 238 -221 238z" />
    <glyph glyph-name="three" unicode="3" horiz-adv-x="1095" 
d="M406 1118q-35 0 -84 -4l-41 -205h-201v312q188 67 420 67t353 -95q120 -95 120 -280q0 -131 -78 -218t-219 -124v-8q160 -25 253 -116t93 -254q0 -197 -148 -311t-404 -114q-257 0 -427 103v152q164 -57 322 -58q299 0 299 246q0 133 -66 190t-205 58h-112v174h90
q129 0 199 62t69 173q0 250 -233 250z" />
    <glyph glyph-name="four" unicode="4" horiz-adv-x="1282" 
d="M264 348h422v574h-8l-414 -568v-6zM686 -217v379h-635v166l690 936h285v-916h184v-186h-184v-379h-340z" />
    <glyph glyph-name="five" unicode="5" horiz-adv-x="1101" 
d="M1024 260q0 -219 -148 -356t-392 -137q-242 0 -427 100v149q160 -53 310 -53q305 0 305 281q0 146 -79 208t-239 62q-102 0 -223 -27l47 777h785l-21 -256h-588l-24 -338q76 33 215 32q223 0 351 -112t128 -330z" />
    <glyph glyph-name="six" unicode="6" horiz-adv-x="1253" 
d="M422 604q0 -238 50 -350t160 -113q110 0 158 76t48 236q0 283 -207 282q-125 0 -207 -59q-2 -18 -2 -72zM754 920q198 0 312 -116t114 -328t-140 -358t-403 -145q-264 0 -414 194t-149 519q0 207 55 367t151 255q194 191 472 191q231 0 350 -80v-155q-98 33 -273 32
q-387 0 -405 -491q133 115 330 115z" />
    <glyph glyph-name="seven" unicode="7" horiz-adv-x="1071" 
d="M831 1016h-563l-49 -156h-176l20 404h963v-201l-471 -1276h-369l645 1219v10z" />
    <glyph glyph-name="eight" unicode="8" horiz-adv-x="1273" 
d="M652 1321q-92 0 -150 -51t-58 -141q0 -91 62 -143t211 -107q150 92 149 237q0 100 -61 152t-153 53zM356 383q0 -109 68 -170t192 -61q125 0 192 60q66 60 66 162t-79 157q-80 56 -275 128q-164 -94 -164 -276zM1200 420q0 -211 -148 -330t-419 -119q-271 1 -415 107
t-144 297q0 121 92 212t237 138v8q-279 113 -278 365q0 178 138 291t378 113t372 -99q132 -98 132 -266q0 -219 -303 -324v-10q172 -55 265 -147t93 -236z" />
    <glyph glyph-name="nine" unicode="9" horiz-adv-x="1253" 
d="M618 528q115 0 211 56v73q0 233 -51 349t-168 114q-197 0 -196 -311q-1 -281 204 -281zM496 -238q-233 0 -359 88v158q111 -43 281 -43q403 0 411 490q-129 -109 -329 -109t-314 114t-114 326t139 356q139 146 403 146t414 -190t150 -523q0 -409 -188 -611t-494 -202z
" />
    <glyph glyph-name="colon" unicode=":" horiz-adv-x="636" 
d="M317 590q-82 0 -137 55t-55 134t54 134t137 55q84 0 138 -54q54 -56 54 -135t-54 -134t-137 -55zM317 -29q-82 1 -137 57t-55 135t54 133t137 54q84 0 138 -54t54 -133t-54 -135t-137 -57z" />
    <glyph glyph-name="semicolon" unicode=";" horiz-adv-x="636" 
d="M317 590q-82 0 -137 55t-55 134t54 134t137 55q84 0 138 -54q54 -56 54 -135t-54 -134t-137 -55zM254 29q-47 0 -89 44q-42 45 -42 115t51 116t137 46t147 -66q60 -67 60 -180q0 -328 -401 -458l-47 94q127 74 188 144t72 163q-29 -18 -76 -18z" />
    <glyph glyph-name="less" unicode="&#x3c;" horiz-adv-x="1153" 
d="M1026 154l-905 401v180l905 400v-203l-686 -287l686 -289v-202z" />
    <glyph glyph-name="equal" unicode="=" horiz-adv-x="1216" 
d="M111 293v178h995v-178h-995zM111 702v181h995v-181h-995z" />
    <glyph glyph-name="greater" unicode="&#x3e;" horiz-adv-x="1153" 
d="M127 154v202l686 287l-686 289v203l905 -402v-178z" />
    <glyph glyph-name="question" unicode="?" horiz-adv-x="980" 
d="M395 -25q-76 1 -125 53t-49 124t49 122t125 52q76 0 126 -52t50 -122q0 -72 -50 -124t-126 -53zM371 1325q-59 0 -86 -4l-33 -160h-195v285q164 53 365 53q481 0 481 -366q0 -131 -63 -210t-213 -179t-168 -143q-10 -23 -10 -61t12 -85h-158q-37 79 -37 159t33 131
t117 127q74 64 110 120t35 134q0 199 -190 199z" />
    <glyph glyph-name="at" unicode="@" horiz-adv-x="1943" 
d="M913 285q51 0 89 32q13 10 40 35l78 432q-32 74 -110 74t-136 -123t-57 -287q0 -164 96 -163zM958 -330q-397 0 -625 213t-229 586q0 264 119 487q119 224 339 358t493 134q352 0 568 -203t216 -551q-1 -284 -153 -444t-361 -160t-262 141h-10q-115 -125 -244 -125
t-201 86t-71 240q0 244 131 406t331 161q121 0 224 -67l49 49h160l-121 -623q-10 -59 2 -86t59 -26q117 0 213 112t96 330q0 297 -162 461q-163 164 -466 164q-351 0 -567 -241t-216 -583t178 -512t519 -170q254 0 473 76v-123q-212 -90 -482 -90z" />
    <glyph glyph-name="A" unicode="A" horiz-adv-x="1509" 
d="M578 840l-80 -254h360l-76 254q-53 175 -80 319l-12 62h-10q-55 -231 -102 -381zM35 0v139l121 37l446 1301h326l432 -1301l123 -37v-139h-652v139l152 37l-78 258h-456l-80 -258l153 -37v-139h-487z" />
    <glyph glyph-name="B" unicode="B" horiz-adv-x="1384" 
d="M557 834h137q100 0 154 50q53 50 53 181t-52 186t-159 56h-133v-473zM557 170h158q121 0 178 60t57 196t-57 194t-176 58h-160v-508zM51 0v139l158 37v1127l-156 34v140h686q512 0 512 -369q1 -133 -73 -219t-250 -119v-10q213 -25 303 -111t90 -263q0 -178 -134 -282
t-407 -104h-729z" />
    <glyph glyph-name="C" unicode="C" horiz-adv-x="1378" 
d="M764 -25q-320 1 -510 183t-191 567q0 209 63 365q62 156 170 242q210 168 501 169q291 0 450 -63l15 -394h-201l-64 224q-100 41 -204 41q-185 0 -271 -130q-86 -131 -86 -441t85 -440t286 -130q121 0 207 47l63 234h199l-16 -394q-176 -80 -496 -80z" />
    <glyph glyph-name="D" unicode="D" horiz-adv-x="1503" 
d="M561 180h152q188 0 273 116t85 419t-66 437q-57 113 -189 135q-54 9 -136 9h-119v-1116zM51 0v139l158 37v1127l-156 34v140h664q723 0 723 -711q0 -382 -186 -574t-525 -192h-678z" />
    <glyph glyph-name="E" unicode="E" horiz-adv-x="1329" 
d="M51 0v139l158 37v1127l-156 34v140h1170l18 -402h-180l-66 230h-442v-467h190l43 161h148v-491h-148l-43 166h-190v-500h459l84 279h182l-23 -453h-1204z" />
    <glyph glyph-name="F" unicode="F" horiz-adv-x="1320" 
d="M51 0v139l158 37v1127l-156 34v140h1182l18 -420h-182l-67 239h-443v-491h193l39 166h147v-500h-147l-39 168h-193v-463l174 -37v-139h-684z" />
    <glyph glyph-name="G" unicode="G" horiz-adv-x="1472" 
d="M819 -27q-754 0 -753 752q0 481 322 670q188 108 453 107t433 -64l16 -381h-198l-66 211q-82 41 -219 41q-371 0 -371 -541q0 -334 85 -470t286 -136q80 0 164 26v338l-154 35v139h613v-139l-125 -35v-475q-207 -78 -486 -78z" />
    <glyph glyph-name="H" unicode="H" horiz-adv-x="1605" 
d="M53 0v139l156 37v1127l-156 34v140h652v-140l-144 -34v-463h483v463l-143 34v140h649v-140l-153 -34v-1127l155 -37v-139h-651v139l143 35v498h-483v-498l144 -35v-139h-652z" />
    <glyph glyph-name="I" unicode="I" horiz-adv-x="782" 
d="M51 0v139l164 37v1127l-164 34v140h680v-140l-164 -34v-1127l164 -37v-139h-680z" />
    <glyph glyph-name="J" unicode="J" horiz-adv-x="980" 
d="M784 403q0 -205 -112 -312t-304 -107q-194 0 -325 65v182q247 -63 337 23q50 49 50 164v885l-156 34v140h660v-140l-150 -34v-900z" />
    <glyph glyph-name="K" unicode="K" horiz-adv-x="1521" 
d="M51 0v139l156 37v1127l-156 34v140h651v-140l-143 -32v-605l510 603l-147 34v140h524v-140l-129 -37l-379 -428l424 -696l125 -37v-139h-414l-375 627l-139 -105v-348l143 -35v-139h-651z" />
    <glyph glyph-name="L" unicode="L" horiz-adv-x="1261" 
d="M51 0v139l156 37v1127l-156 34v140h678v-140l-168 -32v-1129h389l86 326h189l-27 -502h-1147z" />
    <glyph glyph-name="M" unicode="M" horiz-adv-x="1912" 
d="M47 0v139l156 37v1127l-156 34v140h604l164 -551q56 -209 94 -467l17 -92h8q61 348 121 559l164 551h645v-140l-166 -34v-1127l166 -37v-139h-635v139l129 37v615q0 134 14 442l4 86h-10q-84 -322 -139 -514l-228 -772h-235l-232 762q-50 172 -110 430l-19 86h-10
q18 -324 19 -525v-610l129 -37v-139h-494z" />
    <glyph glyph-name="N" unicode="N" horiz-adv-x="1492" 
d="M49 0v139l158 39v1125l-158 34v140h524l328 -576q78 -134 170 -350l29 -68h10v815l-154 39v140h504v-140l-137 -37v-1300h-283l-417 739q-93 165 -166 355l-27 65h-8v-983l151 -37v-139h-524z" />
    <glyph glyph-name="O" unicode="O" horiz-adv-x="1495" 
d="M748 162q313 0 313 559q0 324 -76 459t-240 135q-313 0 -313 -557q0 -322 73 -459t243 -137zM741 -25q-303 0 -490 195t-188 561q-1 195 57 347q104 275 376 377q121 46 256 46q303 1 491 -193t189 -560q0 -195 -58 -347q-105 -277 -376 -379q-122 -47 -257 -47z" />
    <glyph glyph-name="P" unicode="P" horiz-adv-x="1323" 
d="M559 1292v-544q71 -10 167 -10q200 -1 202 280q0 143 -54 209t-165 65h-150zM51 0v139l156 37v1127l-156 34v140h662q565 0 565 -447q0 -227 -131 -343t-369 -116q-127 0 -219 21v-416l184 -37v-139h-692z" />
    <glyph glyph-name="Q" unicode="Q" horiz-adv-x="1495" 
d="M742 160q164 0 242 136t77 442q0 306 -76 442q-76 135 -240 135q-313 0 -313 -557q0 -322 73 -460t237 -138zM63 738q-1 188 57 340q104 275 376 377q121 46 256 46q303 1 491 -193t189 -560q0 -293 -126 -454t-370 -214v-10l600 -72l-57 -270l-895 252q-109 32 -194 80
t-163 133q-164 176 -164 545z" />
    <glyph glyph-name="R" unicode="R" horiz-adv-x="1464" 
d="M559 784h168q121 0 173 62t52 196t-54 194t-173 60h-166v-512zM51 0v139l160 37v1122l-156 39v140h711q541 0 541 -428q0 -250 -279 -357v-8l311 -512l101 -33v-139h-391l-351 618h-135v-444l133 -35v-139h-645z" />
    <glyph glyph-name="S" unicode="S" horiz-adv-x="1185" 
d="M546 -25q-282 0 -452 72l-18 354h203l53 -198q90 -45 212 -45t190 55t69 142q-1 87 -61 137t-197 104l-113 47q-166 66 -253 163q-87 96 -87 280t137 300t393 117q256 0 414 -57l19 -324h-201l-39 160q-78 41 -186 41q-107 0 -171 -45t-64 -125t53 -129q54 -49 174 -92
l112 -43q103 -39 163 -71t118 -83q113 -99 113 -301q-1 -203 -151 -331q-148 -128 -430 -128z" />
    <glyph glyph-name="T" unicode="T" horiz-adv-x="1378" 
d="M344 0v139l168 37v1127h-217l-55 -285h-195l21 459h1245l18 -459h-192l-58 285h-215v-1127l166 -37v-139h-686z" />
    <glyph glyph-name="U" unicode="U" horiz-adv-x="1482" 
d="M1317 489q1 -236 -137 -376t-424 -140t-432 130q-147 130 -148 364v836l-147 34v140h649v-140l-148 -32v-805q0 -174 71 -252t217 -78t220 78t74 252v803l-149 34v140h489v-140l-135 -34v-814z" />
    <glyph glyph-name="V" unicode="V" horiz-adv-x="1470" 
d="M27 1477h632v-140l-151 -34l162 -504q57 -182 112 -455l17 -90h10q80 342 143 545l156 504l-150 34v140h488v-140l-119 -34l-430 -1303h-317l-441 1303l-112 34v140z" />
    <glyph glyph-name="W" unicode="W" horiz-adv-x="2072" 
d="M31 1477h602v-140l-133 -34l82 -375q38 -167 92 -520l16 -105h10q72 395 127 617l138 557h258l141 -535q46 -176 109 -524l20 -117h10q76 446 121 649l76 353l-141 34v140h483v-140l-123 -34l-305 -1303h-334l-133 543q-40 168 -82 438l-12 90h-11q-55 -338 -104 -528
l-141 -543h-338l-318 1303l-110 34v140z" />
    <glyph glyph-name="X" unicode="X" horiz-adv-x="1501" 
d="M51 0v139l123 33l365 576l-346 555l-127 36v138h649v-138l-121 -30l233 -414h11l227 414l-129 30v138h485v-138l-121 -36l-337 -555l360 -572l127 -37v-139h-641v139l123 31l-258 444h-10l-250 -442l125 -35v-137h-488z" />
    <glyph glyph-name="Y" unicode="Y" horiz-adv-x="1398" 
d="M375 0v139l164 37v426l-402 701l-110 34v140h600v-140l-123 -32l278 -521h9l260 523l-125 30v140h448v-140l-112 -34l-373 -697v-430l160 -37v-139h-674z" />
    <glyph glyph-name="Z" unicode="Z" horiz-adv-x="1243" 
d="M49 0v172l744 1118v10h-439l-80 -260h-194l20 437h1086v-174l-746 -1119v-8h478l83 283h193l-20 -459h-1125z" />
    <glyph glyph-name="bracketleft" unicode="[" horiz-adv-x="784" 
d="M137 -256v1817h559v-140l-254 -37v-1466l254 -35v-139h-559z" />
    <glyph glyph-name="backslash" unicode="\" horiz-adv-x="802" 
d="M592 -256l-529 1817h189l530 -1817h-190z" />
    <glyph glyph-name="bracketright" unicode="]" horiz-adv-x="780" 
d="M86 -256v139l254 35v1466l-254 37v140h559v-1817h-559z" />
    <glyph glyph-name="asciicircum" unicode="^" horiz-adv-x="968" 
d="M78 934l307 543h197l309 -543h-162l-246 283l-243 -283h-162z" />
    <glyph glyph-name="underscore" unicode="_" horiz-adv-x="727" 
d="M-4 -301v182h733v-182h-733z" />
    <glyph glyph-name="grave" unicode="`" 
d="M729 1245l-530 168l112 236l471 -289z" />
    <glyph glyph-name="a" unicode="a" horiz-adv-x="1128" 
d="M508 147q78 0 137 60v303l-133 -8q-78 -4 -112 -46t-33 -128q0 -181 141 -181zM436 981q-27 0 -76 -4l-30 -178h-199v280q185 68 415 68t325 -87t96 -272v-571q0 -74 82 -74h43v-120q-76 -47 -209 -48q-164 0 -201 140h-12q-104 -143 -295 -144q-147 0 -237 86
q-89 86 -89 232q0 145 91 213t288 106l217 43v82q0 121 -45 185t-164 63z" />
    <glyph glyph-name="b" unicode="b" horiz-adv-x="1247" 
d="M606 139q119 0 178 92q60 91 60 313t-54 305t-156 83t-183 -39v-705q75 -49 155 -49zM1182 606q0 -324 -157 -478t-435 -155q-278 0 -459 97v1333l-131 33v135l414 49l32 -12v-590h13q143 131 310 131t283 -112q60 -58 95 -169t35 -262z" />
    <glyph glyph-name="c" unicode="c" horiz-adv-x="1052" 
d="M618 -27q-274 0 -417 154q-143 153 -143 439t161 433q162 147 436 148q195 0 322 -45v-332h-201l-28 193q-45 16 -111 16q-242 0 -242 -393q0 -222 83 -314t241 -92t268 51v-149q-152 -109 -369 -109z" />
    <glyph glyph-name="d" unicode="d" horiz-adv-x="1300" 
d="M612 180q100 0 183 49v697q-63 49 -169 49t-165 -87q-59 -86 -59 -308t54 -311q56 -89 156 -89zM504 -25q-170 0 -295 117q-66 61 -105 175t-38 268q0 315 146 463t396 149q104 0 187 -39v301l-146 35v133l434 49l31 -14v-1422l131 -32v-127l-391 -51l-29 14v123h-12
q-100 -142 -309 -142z" />
    <glyph glyph-name="e" unicode="e" horiz-adv-x="1140" 
d="M760 672q0 174 -43 244t-129 69q-185 0 -203 -313h375zM627 -27q-283 0 -426 156t-143 432t148 431t394 155q246 -1 363 -149t116 -472h-692q10 -188 91 -270q80 -82 230 -82t318 53v-137q-166 -117 -399 -117z" />
    <glyph glyph-name="f" unicode="f" horiz-adv-x="790" 
d="M670 1477q-168 0 -168 -238v-115h235v-172h-235v-792l164 -33v-127h-615v127l131 33v792h-131v125l131 49v127q0 193 128 283t302 90t328 -35v-276h-188l-27 158q-37 4 -55 4z" />
    <glyph glyph-name="g" unicode="g" horiz-adv-x="1196" 
d="M569 555q72 0 116 54t44 169q0 225 -160 226q-160 0 -160 -224t160 -225zM549 -297q153 0 231 49t78 123q0 75 -35 101t-114 26h-299q-43 -18 -73 -58t-30 -91q0 -150 242 -150zM528 -455q-248 0 -376 73t-127 187q0 164 254 240v10q-152 43 -152 169t162 259
q-188 82 -189 285q0 178 129 278t340 99q137 0 238 -39l342 51v-194l-219 18v-8q100 -61 100 -214t-126 -247t-335 -94q-86 0 -172 20q-41 -47 -41 -102q0 -66 90 -66h361q336 0 336 -299q0 -186 -155 -306t-460 -120z" />
    <glyph glyph-name="h" unicode="h" horiz-adv-x="1318" 
d="M45 0v127l133 33v1253l-137 35v131l420 51l31 -16v-608h12q180 141 356 141q291 0 291 -285v-702l127 -33v-127h-557v127l108 27v622q0 80 -37 112q-38 32 -114 32t-180 -35v-731l108 -27v-127h-561z" />
    <glyph glyph-name="i" unicode="i" horiz-adv-x="673" 
d="M332 1278q-76 0 -127 46t-51 119t51 120t126 47t125 -46t50 -120t-49 -120t-125 -46zM49 0v127l131 33v766l-143 35v133l432 51l29 -17v-968l129 -33v-127h-578z" />
    <glyph glyph-name="j" unicode="j" horiz-adv-x="645" 
d="M336 1278q-76 0 -127 46t-51 119t51 120t126 47t125 -46t50 -120t-49 -120t-125 -46zM115 -442q-119 0 -211 43v153q51 -6 106 -6q174 0 174 168v1010l-141 35v133l430 51l31 -17v-1194q0 -376 -389 -376z" />
    <glyph glyph-name="k" unicode="k" horiz-adv-x="1253" 
d="M616 0h-567v127l131 31v1251l-135 35v135l424 49l31 -16v-1002l114 17l232 338l-135 28v131h475v-131l-139 -30l-234 -324l322 -483l88 -29v-127h-344l-295 475l-84 12v-333l116 -27v-127z" />
    <glyph glyph-name="l" unicode="l" horiz-adv-x="679" 
d="M45 0v127l137 33v1249l-149 37v133l438 49l29 -16v-1452l135 -33v-127h-590z" />
    <glyph glyph-name="m" unicode="m" horiz-adv-x="1935" 
d="M47 0v127l133 33v766l-137 35v133l414 51l28 -17v-120h13q170 139 355 139t249 -150h10q172 150 369 150q133 0 210 -72t76 -219v-696l125 -33v-127h-549v127l105 27v614q0 84 -37 118t-115 34t-168 -35q6 -18 7 -66v-665l102 -27v-127h-526v127l102 27v614q0 84 -35 118
q-36 34 -110 34t-168 -35v-731l104 -27v-127h-557z" />
    <glyph glyph-name="n" unicode="n" horiz-adv-x="1320" 
d="M47 0v127l131 33v766l-135 35v133l412 51l28 -17v-124h13q186 143 364 143q293 0 293 -285v-702l125 -33v-127h-557v127l110 27v616q0 82 -37 115q-38 33 -118 33t-178 -33v-731l108 -27v-127h-559z" />
    <glyph glyph-name="o" unicode="o" horiz-adv-x="1224" 
d="M614 143q100 0 157 90q56 90 56 324t-58 327q-59 93 -161 93t-158 -87t-57 -319q0 -428 221 -428zM622 1147q250 0 396 -154t147 -427t-157 -434t-407 -161t-396 158t-147 428t157 430t407 160z" />
    <glyph glyph-name="p" unicode="p" horiz-adv-x="1290" 
d="M651 150q117 0 176 90t59 305t-53 301t-155 86t-184 -39v-700q69 -43 157 -43zM43 -444v122l131 31v1213l-135 34v138l412 51l28 -17v-118h13q139 139 313 139t296 -118t122 -431q-1 -313 -149 -464t-400 -150q-100 0 -180 28v-305l153 -31v-122h-604z" />
    <glyph glyph-name="q" unicode="q" horiz-adv-x="1280" 
d="M633 979q-233 1 -233 -399t214 -400q102 0 181 45v705q-70 49 -162 49zM641 -444v122l154 35v387h-13q-111 -116 -282 -116t-293 109q-66 58 -104 170t-37 265q0 317 157 468q158 151 429 151t462 -76v-1362l127 -31v-122h-600z" />
    <glyph glyph-name="r" unicode="r" horiz-adv-x="899" 
d="M45 0v127l131 33v766l-135 35v133l414 51l28 -17v-190h13q49 92 129 148t172 57q39 0 57 -6v-285q-33 8 -92 8q-182 0 -266 -45v-655l161 -33v-127h-612z" />
    <glyph glyph-name="s" unicode="s" horiz-adv-x="1009" 
d="M474 -29q-228 0 -392 70l-19 278h195l45 -149q66 -39 160 -39t145 37t51 100t-35 96q-36 32 -135 58l-120 33q-154 41 -229 119q-74 78 -74 226t118 248q119 99 339 99t358 -55v-263h-189l-33 132q-57 29 -141 29t-133 -34q-49 -33 -49 -92t41 -91t143 -60l129 -33
q160 -43 231 -121t70 -205q0 -176 -124 -280t-352 -103z" />
    <glyph glyph-name="t" unicode="t" horiz-adv-x="845" 
d="M508 -23q-160 0 -240 68t-80 231v676h-145v125l145 51v258h318v-262h266v-172h-266v-622q0 -88 35 -122t101 -34t142 14v-135q-116 -76 -276 -76z" />
    <glyph glyph-name="u" unicode="u" horiz-adv-x="1320" 
d="M475 -25q-315 0 -315 318v641l-131 35v131l422 43l28 -17v-764q0 -88 34 -126t115 -39q81 0 185 43v694l-121 35v131l412 43l31 -17v-936l133 -32v-127l-410 -51l-31 14v133h-12q-137 -152 -340 -152z" />
    <glyph glyph-name="v" unicode="v" horiz-adv-x="1224" 
d="M23 1124h540v-131l-110 -22l116 -353q48 -147 90 -335l17 -70h8q59 262 109 408l116 350l-114 22v131h403v-131l-96 -28l-348 -965h-273l-364 965l-94 28v131z" />
    <glyph glyph-name="w" unicode="w" horiz-adv-x="1699" 
d="M12 1124h514v-129l-106 -28l78 -291q26 -112 63 -332l10 -65h9q41 240 84 393l127 452h229l129 -452q44 -169 72 -326l14 -67h8q39 252 76 397l76 291l-103 28v129h394v-129l-89 -30l-272 -965h-264l-131 467q-35 134 -60 283l-8 53h-6q-31 -195 -72 -336l-139 -467h-270
l-275 965l-88 30v129z" />
    <glyph glyph-name="x" unicode="x" horiz-adv-x="1259" 
d="M51 0v127l103 31l280 403l-268 402l-100 30v131h563v-131l-101 -24l187 -297h8l178 297l-110 24v131h399v-131l-86 -28l-264 -406l262 -401l104 -31v-127h-565v127l109 25l-195 303h-6l-191 -303l113 -25v-127h-420z" />
    <glyph glyph-name="y" unicode="y" horiz-adv-x="1245" 
d="M365 -451q-128 0 -224 62v164q188 -42 272 21q50 38 83 120l32 82l-403 967l-96 28v131h553v-131l-119 -26l127 -336q48 -122 86 -307l12 -60h8q53 225 103 367l110 336l-114 26v131h413v-131l-90 -28l-403 -1104q-61 -168 -141 -240t-209 -72z" />
    <glyph glyph-name="z" unicode="z" horiz-adv-x="1067" 
d="M59 0v145l566 816v8h-328l-49 -187h-164l20 342h881v-149l-557 -807v-8h340l63 207h166l-28 -367h-910z" />
    <glyph glyph-name="braceleft" unicode="{" horiz-adv-x="864" 
d="M313 410q0 66 -47 100t-190 53v180q143 21 190 55t47 99q0 35 -38 166t-37 188q0 147 121 225q122 77 419 85v-150q-131 -20 -176 -51t-45 -103q0 -37 18 -167t19 -179q0 -98 -68 -157t-243 -97v-10q175 -37 243 -96t68 -158q0 -47 -18 -178t-19 -168q0 -71 46 -103
t175 -50v-150q-297 8 -419 85t-121 226q0 57 38 189t37 166z" />
    <glyph glyph-name="bar" unicode="|" horiz-adv-x="491" 
d="M152 -256v1817h188v-1817h-188z" />
    <glyph glyph-name="braceright" unicode="}" horiz-adv-x="864" 
d="M307 47q0 37 -19 168t-20 178q0 97 68 157t244 97v10q-176 37 -244 97t-68 157q0 47 20 179t19 167q0 72 -46 104t-177 50v150q297 -8 419 -85t122 -225q0 -57 -38 -188t-38 -166q0 -67 47 -101t190 -53v-182q-143 -20 -190 -54t-47 -99q0 -35 38 -166t38 -189
q0 -147 -122 -224t-419 -85v150q131 20 177 52t46 101z" />
    <glyph glyph-name="asciitilde" unicode="~" horiz-adv-x="989" 
d="M348 823q66 0 172 -46t139 -46q76 0 140 107l137 -80q-109 -276 -293 -277q-68 0 -173 46t-138 46q-74 1 -142 -108l-135 82q115 276 293 276z" />
    <glyph glyph-name="nbspace" unicode="&#xa0;" horiz-adv-x="1036" 
 />
    <glyph glyph-name="exclamdown" unicode="&#xa1;" horiz-adv-x="571" 
d="M287 903q-74 0 -124 51t-50 121t50 120t124 50t123 -50t49 -120t-49 -121t-123 -51zM113 -254l84 1020h188l76 -1020h-348z" />
    <glyph glyph-name="cent" unicode="&#xa2;" horiz-adv-x="1118" 
d="M387 582q0 -311 150 -392l96 795q-246 -26 -246 -403zM1026 788h-160l-35 183q-45 12 -55 12l-98 -827q18 -2 61 -2q154 0 299 61v-139q-57 -41 -158 -71t-225 -32l-34 -290h-156l35 305q-205 39 -316 186t-110 379q0 285 154 432q155 147 415 160l21 180h155l-22 -184
q137 -12 229 -43v-310z" />
    <glyph glyph-name="sterling" unicode="&#xa3;" horiz-adv-x="1099" 
d="M868 752v-158h-356l-4 -45q-10 -115 -54 -187t-130 -126v-5h731l-29 -231h-965v164q158 90 158 315v115h-127v158h127v163q0 233 138 357t344 123q206 0 341 -45v-314h-194l-41 201l-45 2q-111 0 -159 -79t-66 -286l-13 -122h344z" />
    <glyph glyph-name="currency" unicode="&#xa4;" horiz-adv-x="1290" 
d="M61 762v125h148q49 264 219 387t396 123t378 -54l12 -331h-192l-57 180q-55 31 -138 31q-252 0 -295 -336h377v-125h-385v-41q0 -88 4 -125h381v-125h-366q31 -163 115 -229t234 -66t322 66v-148q-164 -117 -402 -117t-396 122t-205 372h-150v125h134q-2 27 -2 83t2 83
h-134z" />
    <glyph glyph-name="yen" unicode="&#xa5;" horiz-adv-x="1312" 
d="M150 598v125h288l-303 477l-100 37v135h583v-135l-120 -29l239 -432h6l234 432l-121 29v135h420v-135l-105 -37l-282 -477h297v-125h-350v-147h350v-125h-350v-154l157 -37v-135h-653v135l160 37v154h-350v125h350v147h-350z" />
    <glyph glyph-name="brokenbar" unicode="&#xa6;" horiz-adv-x="491" 
d="M156 791v770h178v-770h-178zM156 -256v850h178v-850h-178z" />
    <glyph glyph-name="section" unicode="&#xa7;" horiz-adv-x="1169" 
d="M326 666q0 -60 47 -96t162 -78l170 -64q8 -4 14 -6q123 37 123 143q0 57 -44 94t-149 76l-186 72q-6 0 -10 4q-127 -41 -127 -145zM1018 84q0 -166 -121 -266t-343 -99q-222 0 -374 68l-16 264h190l49 -137q66 -35 150 -35t138 33q54 32 54 100t-45 108t-141 75l-176 65
q-164 59 -244 135t-80 197q0 211 265 282q-156 98 -156 266t120 265q120 96 336 96t355 -57v-254h-188l-35 123q-52 31 -136 31t-133 -34t-49 -98t37 -103q37 -38 133 -73l172 -61q164 -59 246 -136t82 -198q0 -215 -258 -283q168 -108 168 -274z" />
    <glyph glyph-name="dieresis" unicode="&#xa8;" 
d="M290 1563q68 0 112 -44t44 -111t-44 -112t-110 -45t-113 46q-46 46 -46 112t45 110t112 44zM733 1251q-65 0 -111 45t-46 112t44 111q46 44 114 44t112 -44q45 -44 45 -111t-46 -112t-112 -45z" />
    <glyph glyph-name="copyright" unicode="&#xa9;" horiz-adv-x="1669" 
d="M836 344q-160 0 -264 98q-103 98 -103 295t113 295q114 98 274 98t248 -32l8 -211h-131l-37 110q-45 18 -86 19q-84 0 -116 -65t-32 -212t34 -213q32 -66 122 -65q51 0 84 16l41 125h129l-12 -215q-112 -43 -272 -43zM833 86q267 0 439 188t172 458t-172 456
q-172 188 -439 188t-439 -186t-173 -456q0 -270 172 -460q173 -188 440 -188zM834 -31q-316 -1 -532 223t-216 541t216 537t532 221q316 0 532 -221q217 -222 217 -538t-217 -540t-532 -223z" />
    <glyph glyph-name="ordfeminine" unicode="&#xaa;" horiz-adv-x="1062" 
d="M483 631q74 0 117 43v254l-106 -6q-122 -6 -122 -148t111 -143zM424 1337q-23 0 -64 -4l-22 -143h-193v248q152 59 396 59q367 0 366 -317v-473q0 -61 68 -62h39v-129q-63 -47 -178 -47q-168 0 -199 123h-10q-102 -127 -250 -127q-149 0 -227 76q-78 75 -78 201t86 188
t264 94l178 33v73q0 104 -39 156t-137 51z" />
    <glyph glyph-name="guillemotleft" unicode="&#xab;" horiz-adv-x="1091" 
d="M356 49l-274 445v88l274 444h201l-211 -487l211 -490h-201zM809 49l-277 445v88l277 444h199l-209 -487l209 -490h-199z" />
    <glyph glyph-name="registered" unicode="&#xae;" horiz-adv-x="1669" 
d="M780 760h64q53 0 76 26t22 82q0 111 -100 111h-62v-219zM502 379v90l69 18v496l-69 16v93h362q135 0 209 -58t74 -153q0 -127 -119 -170v-9l135 -217l54 -16v-90h-226l-157 283h-54v-177l58 -16v-90h-336zM833 86q267 0 439 188t172 458t-172 456q-172 188 -439 188
t-439 -186t-173 -456q0 -270 172 -460q173 -188 440 -188zM834 -31q-316 -1 -532 223t-216 541t216 537t532 221q316 0 532 -221q217 -222 217 -538t-217 -540t-532 -223z" />
    <glyph glyph-name="macron" unicode="&#xaf;" 
d="M207 1311v202h608v-202h-608z" />
    <glyph glyph-name="degree" unicode="&#xb0;" horiz-adv-x="909" 
d="M455 932q90 0 143 62t53 154t-53 154q-53 60 -143 60q-89 0 -143 -60t-54 -152t53 -156q54 -62 144 -62zM813 1148q0 -144 -102 -246t-255 -103q-153 0 -257 102q-105 103 -105 247t104 246t258 101q153 0 255 -101q102 -102 102 -246z" />
    <glyph glyph-name="twosuperior" unicode="&#xb2;" horiz-adv-x="819" 
d="M78 1161v228q131 55 308 55t267 -73t90 -192q-1 -119 -75 -203t-236 -194l-127 -88v-4h449l-15 -184h-673v153l213 201q88 84 130 144t42 131q-1 159 -144 159l-45 -2l-20 -131h-164z" />
    <glyph glyph-name="threesuperior" unicode="&#xb3;" horiz-adv-x="827" 
d="M313 1309q-33 0 -49 -2l-22 -119h-160v211q111 45 285 45t259 -60t85 -158q0 -185 -211 -235v-6q242 -33 241 -223q0 -127 -100 -199q-101 -71 -279 -71t-305 67v117q88 -31 209 -31q188 0 189 135q0 127 -164 127h-88v131h71q78 0 123 37t45 99q0 135 -129 135z" />
    <glyph glyph-name="acute" unicode="&#xb4;" 
d="M295 1245l-53 115l471 289l112 -236z" />
    <glyph glyph-name="paragraph" unicode="&#xb6;" horiz-adv-x="1280" 
d="M559 -256v944q-33 -4 -72 -4q-182 0 -303 102t-121 301q0 389 484 390h690v-140l-143 -34v-1559h-160v1589h-217v-1589h-158z" />
    <glyph glyph-name="periodcentered" unicode="&#xb7;" horiz-adv-x="620" 
d="M309 514q-82 0 -136 56t-54 136t54 133q54 54 136 54t136 -54q55 -54 55 -133q0 -80 -54 -136t-137 -56z" />
    <glyph glyph-name="cedilla" unicode="&#xb8;" 
d="M618 -287q0 35 -36 50q-37 15 -136 18v219h129v-106q141 -6 203 -46t62 -128q1 -187 -482 -209v96q260 23 260 106z" />
    <glyph glyph-name="onesuperior" unicode="&#xb9;" horiz-adv-x="729" 
d="M94 506v110l146 25v561l-156 -10v108l299 138h133v-797l148 -25v-110h-570z" />
    <glyph glyph-name="ordmasculine" unicode="&#xba;" horiz-adv-x="1116" 
d="M559 625q86 -1 131 75t45 279t-47 282t-133 79t-131 -74q-45 -72 -45 -278t47 -284t133 -79zM568 1497q220 0 350 -134t129 -376t-141 -382t-358 -140t-348 137t-130 377t139 379t359 139z" />
    <glyph glyph-name="guillemotright" unicode="&#xbb;" horiz-adv-x="1091" 
d="M535 49l210 488l-210 489h200l275 -444v-88l-275 -445h-200zM84 49l209 488l-209 489h199l276 -444v-88l-276 -445h-199z" />
    <glyph glyph-name="onequarter" unicode="&#xbc;" horiz-adv-x="2052" 
d="M1348 227h239v301h-6l-233 -297v-4zM487 -82l986 1542h178l-987 -1542h-177zM109 506v110l145 25v561l-156 -10v108l299 138h133v-797l148 -25v-110h-569zM1587 -150v238h-411v121l452 565h219v-547h133v-139h-133v-238h-260z" />
    <glyph glyph-name="onehalf" unicode="&#xbd;" horiz-adv-x="2088" 
d="M477 -82l985 1542h178l-987 -1542h-176zM104 506v110l146 25v561l-156 -10v108l299 138h133v-797l148 -25v-110h-570zM1554 637q-29 0 -43 -2l-22 -129h-162v227q137 55 311 55t265 -72q90 -72 90 -192q0 -118 -75 -202t-239 -197l-127 -86v-4h451l-14 -185h-674v152
l213 201q90 86 131 145t41 131q-1 158 -146 158z" />
    <glyph glyph-name="threequarters" unicode="&#xbe;" horiz-adv-x="2017" 
d="M1327 227h238v301h-6l-232 -297v-4zM479 -82l985 1542h178l-985 -1542h-178zM324 1309q-33 0 -50 -2l-24 -119h-158v211q111 45 285 45t259 -60t85 -158q0 -184 -211 -235v-6q242 -33 242 -223q0 -127 -100 -199q-100 -71 -279 -71q-178 0 -305 67v117q88 -31 208 -31
q188 0 189 135q0 127 -164 127h-88v131h72q78 0 123 37t45 99q0 135 -129 135zM1565 -150v238h-412v121l453 565h219v-547h133v-139h-133v-238h-260z" />
    <glyph glyph-name="questiondown" unicode="&#xbf;" horiz-adv-x="980" 
d="M586 895q-76 0 -126 51t-50 123t50 124t126 52t125 -52t49 -124t-49 -123t-125 -51zM610 -104q33 0 82 4l35 159h195v-282q-166 -55 -363 -56q-481 0 -481 367q0 131 63 210t197 170t165 126q47 55 17 172h158q37 -78 37 -158t-34 -133t-116 -127q-73 -62 -109 -118
t-36 -136q0 -198 190 -198z" />
    <glyph glyph-name="Agrave" unicode="&#xc0;" horiz-adv-x="1509" 
d="M971 1593l-531 168l113 236l471 -289zM578 840l-80 -254h360l-76 254q-53 175 -80 319l-12 62h-10q-55 -231 -102 -381zM35 0v139l121 37l446 1301h326l432 -1301l123 -37v-139h-652v139l152 37l-78 258h-456l-80 -258l153 -37v-139h-487z" />
    <glyph glyph-name="Aacute" unicode="&#xc1;" horiz-adv-x="1509" 
d="M537 1593l-54 115l471 289l113 -236zM578 840l-80 -254h360l-76 254q-53 175 -80 319l-12 62h-10q-55 -231 -102 -381zM35 0v139l121 37l446 1301h326l432 -1301l123 -37v-139h-652v139l152 37l-78 258h-456l-80 -258l153 -37v-139h-487z" />
    <glyph glyph-name="Acircumflex" unicode="&#xc2;" horiz-adv-x="1509" 
d="M578 840l-80 -254h360l-76 254q-53 175 -80 319l-12 62h-10q-55 -231 -102 -381zM453 1567l-56 75l281 308h149l281 -308l-55 -75l-299 159zM35 0v139l121 37l446 1301h326l432 -1301l123 -37v-139h-652v139l152 37l-78 258h-456l-80 -258l153 -37v-139h-487z" />
    <glyph glyph-name="Atilde" unicode="&#xc3;" horiz-adv-x="1509" 
d="M578 840l-80 -254h360l-76 254q-53 175 -80 319l-12 62h-10q-55 -231 -102 -381zM623 1921q49 0 155 -38t133 -38q61 0 119 90l109 -65q-98 -231 -254 -232q-51 0 -155 36t-136 36q-58 0 -117 -94l-110 65q106 240 256 240zM35 0v139l121 37l446 1301h326l432 -1301
l123 -37v-139h-652v139l152 37l-78 258h-456l-80 -258l153 -37v-139h-487z" />
    <glyph glyph-name="Adieresis" unicode="&#xc4;" horiz-adv-x="1509" 
d="M688 1756q0 -67 -45 -112t-111 -45q-66 1 -111 47q-46 46 -46 112t45 109q46 44 112 44t111 -44t45 -111zM975 1599q-66 -1 -112 45t-46 112t45 111q45 44 113 44q69 0 113 -44t44 -111t-45 -112q-46 -45 -112 -45zM578 840l-80 -254h360l-76 254q-53 175 -80 319l-12 62
h-10q-55 -231 -102 -381zM35 0v139l121 37l446 1301h326l432 -1301l123 -37v-139h-652v139l152 37l-78 258h-456l-80 -258l153 -37v-139h-487z" />
    <glyph glyph-name="Aring" unicode="&#xc5;" horiz-adv-x="1509" 
d="M756 1651q63 0 100 40q37 39 37 105t-37 104t-100 38q-64 0 -102 -40t-38 -104t38 -104t102 -39zM578 840l-80 -254h360l-76 254q-53 175 -80 319l-12 62h-10q-55 -231 -102 -381zM756 1552q-109 0 -184 71q-74 71 -74 172t74 172q75 71 184 71q110 0 182 -71t72 -172
t-72 -172t-182 -71zM35 0v139l121 37l446 1301h326l432 -1301l123 -37v-139h-652v139l152 37l-78 258h-456l-80 -258l153 -37v-139h-487z" />
    <glyph glyph-name="AE" unicode="&#xc6;" horiz-adv-x="2058" 
d="M956 580v286q0 195 23 396l8 67h-10q-84 -215 -197 -416l-190 -333h366zM37 0v141l115 37l663 1139l-151 20v140h1280l18 -402h-180l-66 230h-424v-467h174l41 161h148v-491h-148l-41 166h-174v-500h441l86 279h182l-23 -453h-1179v139l157 37v244h-456l-138 -242
l158 -39v-139h-483z" />
    <glyph glyph-name="Ccedilla" unicode="&#xc7;" horiz-adv-x="1378" 
d="M795 -287q0 35 -37 50t-135 18v205q-262 37 -411 218q-148 181 -149 521q0 209 63 365q62 156 170 242q210 168 501 169q291 0 450 -63l15 -394h-201l-64 224q-100 41 -204 41q-185 0 -271 -130q-86 -131 -86 -441t85 -440t286 -130q121 0 207 47l63 234h199l-16 -394
q-176 -80 -490 -80h-18v-81q141 -6 202 -46q62 -40 62 -128q1 -187 -481 -209v96q260 23 260 106z" />
    <glyph glyph-name="Egrave" unicode="&#xc8;" horiz-adv-x="1329" 
d="M901 1593l-530 168l112 236l471 -289zM51 0v139l158 37v1127l-156 34v140h1170l18 -402h-180l-66 230h-442v-467h190l43 161h148v-491h-148l-43 166h-190v-500h459l84 279h182l-23 -453h-1204z" />
    <glyph glyph-name="Eacute" unicode="&#xc9;" horiz-adv-x="1329" 
d="M446 1593l-53 115l471 289l113 -236zM51 0v139l158 37v1127l-156 34v140h1170l18 -402h-180l-66 230h-442v-467h190l43 161h148v-491h-148l-43 166h-190v-500h459l84 279h182l-23 -453h-1204z" />
    <glyph glyph-name="Ecircumflex" unicode="&#xca;" horiz-adv-x="1329" 
d="M381 1567l-55 75l280 308h150l280 -308l-55 -75l-299 159zM51 0v139l158 37v1127l-156 34v140h1170l18 -402h-180l-66 230h-442v-467h190l43 161h148v-491h-148l-43 166h-190v-500h459l84 279h182l-23 -453h-1204z" />
    <glyph glyph-name="Edieresis" unicode="&#xcb;" horiz-adv-x="1329" 
d="M460 1911q68 0 112 -44t44 -111t-44 -112t-112 -45q-67 1 -112 47t-45 112t45 109q45 44 112 44zM903 1599q-65 -1 -111 45t-46 112t44 111q46 44 114 44t112 -44q45 -44 45 -111t-46 -112t-112 -45zM51 0v139l158 37v1127l-156 34v140h1170l18 -402h-180l-66 230h-442
v-467h190l43 161h148v-491h-148l-43 166h-190v-500h459l84 279h182l-23 -453h-1204z" />
    <glyph glyph-name="Igrave" unicode="&#xcc;" horiz-adv-x="782" 
d="M608 1593l-530 168l112 236l472 -289zM51 0v139l164 37v1127l-164 34v140h680v-140l-164 -34v-1127l164 -37v-139h-680z" />
    <glyph glyph-name="Iacute" unicode="&#xcd;" horiz-adv-x="782" 
d="M174 1593l-53 115l471 289l113 -236zM51 0v139l164 37v1127l-164 34v140h680v-140l-164 -34v-1127l164 -37v-139h-680z" />
    <glyph glyph-name="Icircumflex" unicode="&#xce;" horiz-adv-x="782" 
d="M90 1567l-55 75l280 308h150l280 -308l-55 -75l-299 159zM51 0v139l164 37v1127l-164 34v140h680v-140l-164 -34v-1127l164 -37v-139h-680z" />
    <glyph glyph-name="Idieresis" unicode="&#xcf;" horiz-adv-x="782" 
d="M326 1756q0 -67 -45 -112t-112 -45q-67 1 -112 47t-45 112t45 109q45 44 112 44t112 -44t45 -111zM612 1599q-66 -1 -112 45t-45 112q0 66 45 111q44 44 112 44t113 -44t45 -111t-46 -112t-112 -45zM51 0v139l164 37v1127l-164 34v140h680v-140l-164 -34v-1127l164 -37
v-139h-680z" />
    <glyph glyph-name="Eth" unicode="&#xd0;" horiz-adv-x="1503" 
d="M559 180h154q125 0 197 43q156 93 157 512q0 289 -61 410t-191 142q-53 9 -135 9h-121v-454h287v-183h-287v-479zM70 659v183h141v461l-156 34v140h662q356 0 537 -174q182 -174 182 -547q0 -372 -184 -564t-523 -192h-676v139l158 37v483h-141z" />
    <glyph glyph-name="Ntilde" unicode="&#xd1;" horiz-adv-x="1492" 
d="M614 1921q50 0 156 -38t133 -38q61 0 119 90l108 -65q-98 -231 -253 -232q-51 0 -155 36t-136 36q-58 0 -117 -94l-111 65q106 240 256 240zM49 0v139l158 39v1125l-158 34v140h524l328 -576q78 -134 170 -350l29 -68h10v815l-154 39v140h504v-140l-137 -37v-1300h-283
l-417 739q-93 165 -166 355l-27 65h-8v-983l151 -37v-139h-524z" />
    <glyph glyph-name="Ograve" unicode="&#xd2;" horiz-adv-x="1495" 
d="M965 1593l-531 168l113 236l471 -289zM748 162q313 0 313 559q0 324 -76 459t-240 135q-313 0 -313 -557q0 -322 73 -459t243 -137zM741 -25q-303 0 -490 195t-188 561q-1 195 57 347q104 275 376 377q121 46 256 46q303 1 491 -193t189 -560q0 -195 -58 -347
q-105 -277 -376 -379q-122 -47 -257 -47z" />
    <glyph glyph-name="Oacute" unicode="&#xd3;" horiz-adv-x="1495" 
d="M530 1593l-53 115l471 289l113 -236zM748 162q313 0 313 559q0 324 -76 459t-240 135q-313 0 -313 -557q0 -322 73 -459t243 -137zM741 -25q-303 0 -490 195t-188 561q-1 195 57 347q104 275 376 377q121 46 256 46q303 1 491 -193t189 -560q0 -195 -58 -347
q-105 -277 -376 -379q-122 -47 -257 -47z" />
    <glyph glyph-name="Ocircumflex" unicode="&#xd4;" horiz-adv-x="1495" 
d="M446 1567l-55 75l281 308h149l281 -308l-55 -75l-299 159zM748 162q313 0 313 559q0 324 -76 459t-240 135q-313 0 -313 -557q0 -322 73 -459t243 -137zM741 -25q-303 0 -490 195t-188 561q-1 195 57 347q104 275 376 377q121 46 256 46q303 1 491 -193t189 -560
q0 -195 -58 -347q-105 -277 -376 -379q-122 -47 -257 -47z" />
    <glyph glyph-name="Otilde" unicode="&#xd5;" horiz-adv-x="1495" 
d="M616 1921q50 0 156 -38t133 -38q61 0 119 90l109 -65q-98 -231 -254 -232q-51 0 -155 36t-136 36q-58 0 -117 -94l-111 65q106 240 256 240zM748 162q313 0 313 559q0 324 -76 459t-240 135q-313 0 -313 -557q0 -322 73 -459t243 -137zM741 -25q-303 0 -490 195t-188 561
q-1 195 57 347q104 275 376 377q121 46 256 46q303 1 491 -193t189 -560q0 -195 -58 -347q-105 -277 -376 -379q-122 -47 -257 -47z" />
    <glyph glyph-name="Odieresis" unicode="&#xd6;" horiz-adv-x="1495" 
d="M682 1756q0 -67 -45 -112t-112 -45q-67 1 -111 47t-45 112q0 66 45 109q46 44 112 44t111 -44t45 -111zM969 1599q-66 -1 -112 45t-46 112t45 111q45 44 113 44q69 0 113 -44t44 -111t-46 -112t-111 -45zM748 162q313 0 313 559q0 324 -76 459t-240 135q-313 0 -313 -557
q0 -322 73 -459t243 -137zM741 -25q-303 0 -490 195t-188 561q-1 195 57 347q104 275 376 377q121 46 256 46q303 1 491 -193t189 -560q0 -195 -58 -347q-105 -277 -376 -379q-122 -47 -257 -47z" />
    <glyph glyph-name="multiply" unicode="&#xd7;" horiz-adv-x="1208" 
d="M266 176l-135 135l338 344l-338 346l135 136l338 -344l336 342l135 -136l-338 -344l340 -344l-135 -135l-338 344z" />
    <glyph glyph-name="Oslash" unicode="&#xd8;" horiz-adv-x="1495" 
d="M740 158q331 0 331 521q0 251 -22 370l-547 -791q68 -100 238 -100zM422 758q0 -213 20 -334l549 788q-70 109 -248 109q-321 0 -321 -563zM63 731q-1 195 57 347q104 275 376 377q121 46 256 46q201 0 354 -86l84 125h194l-151 -223q199 -199 199 -569q0 -195 -58 -347
q-105 -277 -376 -379q-122 -46 -257 -47q-199 0 -352 86l-98 -147h-197l166 246q-197 201 -197 571z" />
    <glyph glyph-name="Ugrave" unicode="&#xd9;" horiz-adv-x="1482" 
d="M979 1593l-530 168l112 236l471 -289zM1317 489q1 -236 -137 -376t-424 -140t-432 130q-147 130 -148 364v836l-147 34v140h649v-140l-148 -32v-805q0 -174 71 -252t217 -78t220 78t74 252v803l-149 34v140h489v-140l-135 -34v-814z" />
    <glyph glyph-name="Uacute" unicode="&#xda;" horiz-adv-x="1482" 
d="M586 1593l-54 115l472 289l112 -236zM1317 489q1 -236 -137 -376t-424 -140t-432 130q-147 130 -148 364v836l-147 34v140h649v-140l-148 -32v-805q0 -174 71 -252t217 -78t220 78t74 252v803l-149 34v140h489v-140l-135 -34v-814z" />
    <glyph glyph-name="Ucircumflex" unicode="&#xdb;" horiz-adv-x="1482" 
d="M487 1567l-55 75l281 308h149l281 -308l-56 -75l-299 159zM1317 489q1 -236 -137 -376t-424 -140t-432 130q-147 130 -148 364v836l-147 34v140h649v-140l-148 -32v-805q0 -174 71 -252t217 -78t220 78t74 252v803l-149 34v140h489v-140l-135 -34v-814z" />
    <glyph glyph-name="Udieresis" unicode="&#xdc;" horiz-adv-x="1482" 
d="M758 1756q0 -67 -45 -112t-111 -45q-66 1 -112 47t-46 112t45 109q45 44 112 44t112 -44t45 -111zM1044 1599q-66 -1 -112 45t-45 112q0 66 45 111q44 44 112 44t113 -44t45 -111t-46 -112t-112 -45zM1317 489q1 -236 -137 -376t-424 -140t-432 130q-147 130 -148 364
v836l-147 34v140h649v-140l-148 -32v-805q0 -174 71 -252t217 -78t220 78t74 252v803l-149 34v140h489v-140l-135 -34v-814z" />
    <glyph glyph-name="Yacute" unicode="&#xdd;" horiz-adv-x="1398" 
d="M543 1593l-54 115l472 289l112 -236zM375 0v139l164 37v426l-402 701l-110 34v140h600v-140l-123 -32l278 -521h9l260 523l-125 30v140h448v-140l-112 -34l-373 -697v-430l160 -37v-139h-674z" />
    <glyph glyph-name="Thorn" unicode="&#xde;" horiz-adv-x="1345" 
d="M559 983v-448q82 -12 150 -13q229 0 229 234q0 121 -57 174t-174 53h-148zM51 0v137l156 39v1127l-156 34v140h651v-140l-143 -34v-146h162q569 0 569 -395q0 -195 -135 -298t-375 -104q-115 0 -221 25v-211l184 -37v-137h-692z" />
    <glyph glyph-name="germandbls" unicode="&#xdf;" horiz-adv-x="1394" 
d="M1343 324q0 -160 -103 -256q-104 -96 -286 -97q-182 0 -317 49l-10 250h176l31 -123q46 -23 102 -23t94 36q38 35 37 91q0 56 -34 92t-118 87l-88 53q-90 53 -135 113t-45 146q-1 86 63 186t128 198q63 98 63 176t-44 121t-124 43q-238 0 -237 -288v-1178h-449v127
l129 33v792h-129v125l129 49v64q0 204 156 324t396 120t364 -87t122 -234q0 -70 -50 -143q-50 -72 -111 -122q-162 -131 -162 -194q0 -20 6 -36q11 -28 139 -107l84 -52q106 -66 165 -139q58 -74 58 -196z" />
    <glyph glyph-name="agrave" unicode="&#xe0;" horiz-adv-x="1128" 
d="M508 147q78 0 137 60v303l-133 -8q-78 -4 -112 -46t-33 -128q0 -181 141 -181zM780 1245l-530 168l112 236l472 -289zM436 981q-27 0 -76 -4l-30 -178h-199v280q185 68 415 68t325 -87t96 -272v-571q0 -74 82 -74h43v-120q-76 -47 -209 -48q-164 0 -201 140h-12
q-104 -143 -295 -144q-147 0 -237 86q-89 86 -89 232q0 145 91 213t288 106l217 43v82q0 121 -45 185t-164 63z" />
    <glyph glyph-name="aacute" unicode="&#xe1;" horiz-adv-x="1128" 
d="M508 147q78 0 137 60v303l-133 -8q-78 -4 -112 -46t-33 -128q0 -181 141 -181zM326 1245l-54 115l471 289l113 -236zM436 981q-27 0 -76 -4l-30 -178h-199v280q185 68 415 68t325 -87t96 -272v-571q0 -74 82 -74h43v-120q-76 -47 -209 -48q-164 0 -201 140h-12
q-104 -143 -295 -144q-147 0 -237 86q-89 86 -89 232q0 145 91 213t288 106l217 43v82q0 121 -45 185t-164 63z" />
    <glyph glyph-name="acircumflex" unicode="&#xe2;" horiz-adv-x="1128" 
d="M508 147q78 0 137 60v303l-133 -8q-78 -4 -112 -46t-33 -128q0 -181 141 -181zM242 1219l-56 75l281 308h149l281 -308l-55 -75l-299 159zM436 981q-27 0 -76 -4l-30 -178h-199v280q185 68 415 68t325 -87t96 -272v-571q0 -74 82 -74h43v-120q-76 -47 -209 -48
q-164 0 -201 140h-12q-104 -143 -295 -144q-147 0 -237 86q-89 86 -89 232q0 145 91 213t288 106l217 43v82q0 121 -45 185t-164 63z" />
    <glyph glyph-name="atilde" unicode="&#xe3;" horiz-adv-x="1128" 
d="M508 147q78 0 137 60v303l-133 -8q-78 -4 -112 -46t-33 -128q0 -181 141 -181zM416 1573q49 0 155 -38t134 -38q61 0 118 90l109 -65q-98 -231 -254 -232q-52 0 -156 36t-135 36q-58 0 -117 -94l-110 65q106 240 256 240zM436 981q-27 0 -76 -4l-30 -178h-199v280
q185 68 415 68t325 -87t96 -272v-571q0 -74 82 -74h43v-120q-76 -47 -209 -48q-164 0 -201 140h-12q-104 -143 -295 -144q-147 0 -237 86q-89 86 -89 232q0 145 91 213t288 106l217 43v82q0 121 -45 185t-164 63z" />
    <glyph glyph-name="adieresis" unicode="&#xe4;" horiz-adv-x="1128" 
d="M320 1251q-68 0 -112 46t-44 112t45 110t111 44t112 -44q45 -44 45 -111t-45 -112t-112 -45zM764 1251q-66 0 -112 45t-46 112t45 111t113 44t113 -44t45 -111t-46 -112t-112 -45zM508 147q78 0 137 60v303l-133 -8q-78 -4 -112 -46t-33 -128q0 -181 141 -181zM436 981
q-27 0 -76 -4l-30 -178h-199v280q185 68 415 68t325 -87t96 -272v-571q0 -74 82 -74h43v-120q-76 -47 -209 -48q-164 0 -201 140h-12q-104 -143 -295 -144q-147 0 -237 86q-89 86 -89 232q0 145 91 213t288 106l217 43v82q0 121 -45 185t-164 63z" />
    <glyph glyph-name="aring" unicode="&#xe5;" horiz-adv-x="1128" 
d="M559 1333q63 0 100 40t37 106q0 65 -37 103t-100 38t-101 -39t-38 -103t38 -105q38 -40 101 -40zM508 147q78 0 137 60v303l-133 -8q-78 -4 -112 -46t-33 -128q0 -181 141 -181zM559 1235q-109 0 -183 71t-75 172q0 101 75 172q76 70 184 70t180 -70t73 -172
q-1 -101 -73 -172t-181 -71zM436 981q-27 0 -76 -4l-30 -178h-199v280q185 68 415 68t325 -87t96 -272v-571q0 -74 82 -74h43v-120q-76 -47 -209 -48q-164 0 -201 140h-12q-104 -143 -295 -144q-147 0 -237 86q-89 86 -89 232q0 145 91 213t288 106l217 43v82q0 121 -45 185
t-164 63z" />
    <glyph glyph-name="ae" unicode="&#xe6;" horiz-adv-x="1716" 
d="M1335 666q0 176 -42 248t-124 71q-172 0 -192 -319h358zM358 326q0 -90 36 -134t116 -45q108 0 190 119q-45 113 -51 246l-145 -8q-78 -6 -112 -47t-34 -131zM1206 -27q-311 0 -452 195q-58 -88 -156 -142t-238 -54t-231 83q-90 84 -90 232q0 147 93 217t288 106l231 43
v80q0 248 -223 248q-27 0 -76 -4l-30 -178h-201v280q189 68 423 68t310 -131q119 131 322 131q248 0 364 -152t117 -475h-678q10 -188 85 -267t220 -79t320 53v-137q-171 -117 -398 -117z" />
    <glyph glyph-name="ccedilla" unicode="&#xe7;" horiz-adv-x="1052" 
d="M633 -287q0 35 -37 50t-135 18v209q-199 41 -301 187t-103 376q0 299 162 446t436 148q195 0 322 -45v-332h-201l-28 193q-45 16 -111 16q-242 0 -242 -393q0 -222 83 -314t241 -92t268 51v-149q-152 -109 -369 -109h-28v-79q140 -6 202 -46t62 -128q0 -187 -481 -209v96
q260 23 260 106z" />
    <glyph glyph-name="egrave" unicode="&#xe8;" horiz-adv-x="1140" 
d="M760 672q0 174 -43 244t-129 69q-185 0 -203 -313h375zM807 1245l-531 168l113 236l471 -289zM627 -27q-283 0 -426 156t-143 432t148 431t394 155q246 -1 363 -149t116 -472h-692q10 -188 91 -270q80 -82 230 -82t318 53v-137q-166 -117 -399 -117z" />
    <glyph glyph-name="eacute" unicode="&#xe9;" horiz-adv-x="1140" 
d="M760 672q0 174 -43 244t-129 69q-185 0 -203 -313h375zM358 1245l-53 115l471 289l113 -236zM627 -27q-283 0 -426 156t-143 432t148 431t394 155q246 -1 363 -149t116 -472h-692q10 -188 91 -270q80 -82 230 -82t318 53v-137q-166 -117 -399 -117z" />
    <glyph glyph-name="ecircumflex" unicode="&#xea;" horiz-adv-x="1140" 
d="M760 672q0 174 -43 244t-129 69q-185 0 -203 -313h375zM274 1219l-55 75l281 308h149l281 -308l-56 -75l-299 159zM627 -27q-283 0 -426 156t-143 432t148 431t394 155q246 -1 363 -149t116 -472h-692q10 -188 91 -270q80 -82 230 -82t318 53v-137q-166 -117 -399 -117z
" />
    <glyph glyph-name="edieresis" unicode="&#xeb;" horiz-adv-x="1140" 
d="M366 1563q68 0 112 -44t44 -111t-44 -112t-112 -45q-67 0 -112 46t-45 112t45 110t112 44zM809 1251q-66 0 -112 45t-46 112t45 111t113 44t113 -44t45 -111t-46 -112t-112 -45zM760 672q0 174 -43 244t-129 69q-185 0 -203 -313h375zM627 -27q-283 0 -426 156t-143 432
t148 431t394 155q246 -1 363 -149t116 -472h-692q10 -188 91 -270q80 -82 230 -82t318 53v-137q-166 -117 -399 -117z" />
    <glyph glyph-name="igrave" unicode="&#xec;" horiz-adv-x="673" 
d="M532 1245l-530 168l113 236l471 -289zM49 0v127l131 33v766l-143 35v133l432 51l29 -17v-968l129 -33v-127h-578z" />
    <glyph glyph-name="iacute" unicode="&#xed;" horiz-adv-x="673" 
d="M119 1245l-53 115l471 289l112 -236zM49 0v127l131 33v766l-143 35v133l432 51l29 -17v-968l129 -33v-127h-578z" />
    <glyph glyph-name="icircumflex" unicode="&#xee;" horiz-adv-x="673" 
d="M33 1219l-56 75l281 308h150l280 -308l-55 -75l-299 159zM49 0v127l131 33v766l-143 35v133l432 51l29 -17v-968l129 -33v-127h-578z" />
    <glyph glyph-name="idieresis" unicode="&#xef;" horiz-adv-x="673" 
d="M114 1563q68 0 112 -44t44 -111t-44 -112t-110 -45t-113 46q-46 46 -46 112t45 110t112 44zM557 1251q-66 0 -112 45t-46 112t45 111t113 44t113 -44t45 -111t-46 -112t-112 -45zM49 0v127l131 33v766l-143 35v133l432 51l29 -17v-968l129 -33v-127h-578z" />
    <glyph glyph-name="eth" unicode="&#xf0;" horiz-adv-x="1222" 
d="M614 141q213 0 213 398q0 221 -59 306q-60 85 -162 85t-157 -83t-56 -302q0 -404 221 -404zM1165 625q0 -313 -153 -484q-154 -170 -406 -170t-400 155q-148 154 -148 414t142 400t343 139q115 0 198 -63q-70 141 -192 268l-285 -135v137l187 90q-86 70 -179 129l103 133
q158 -66 297 -157l268 129v-140l-154 -73q379 -313 379 -772z" />
    <glyph glyph-name="ntilde" unicode="&#xf1;" horiz-adv-x="1320" 
d="M528 1573q50 0 156 -38t133 -38q61 0 119 90l108 -65q-98 -231 -253 -232q-51 0 -155 36t-136 36q-58 0 -117 -94l-111 65q106 240 256 240zM47 0v127l131 33v766l-135 35v133l412 51l28 -17v-124h13q186 143 364 143q293 0 293 -285v-702l125 -33v-127h-557v127l110 27
v616q0 82 -37 115q-38 33 -118 33t-178 -33v-731l108 -27v-127h-559z" />
    <glyph glyph-name="ograve" unicode="&#xf2;" horiz-adv-x="1224" 
d="M829 1245l-530 168l113 236l471 -289zM614 143q100 0 157 90q56 90 56 324t-58 327q-59 93 -161 93t-158 -87t-57 -319q0 -428 221 -428zM622 1147q250 0 396 -154t147 -427t-157 -434t-407 -161t-396 158t-147 428t157 430t407 160z" />
    <glyph glyph-name="oacute" unicode="&#xf3;" horiz-adv-x="1224" 
d="M395 1245l-53 115l471 289l113 -236zM614 143q100 0 157 90q56 90 56 324t-58 327q-59 93 -161 93t-158 -87t-57 -319q0 -428 221 -428zM622 1147q250 0 396 -154t147 -427t-157 -434t-407 -161t-396 158t-147 428t157 430t407 160z" />
    <glyph glyph-name="ocircumflex" unicode="&#xf4;" horiz-adv-x="1224" 
d="M311 1219l-55 75l281 308h149l281 -308l-56 -75l-299 159zM614 143q100 0 157 90q56 90 56 324t-58 327q-59 93 -161 93t-158 -87t-57 -319q0 -428 221 -428zM622 1147q250 0 396 -154t147 -427t-157 -434t-407 -161t-396 158t-147 428t157 430t407 160z" />
    <glyph glyph-name="otilde" unicode="&#xf5;" horiz-adv-x="1224" 
d="M481 1573q49 0 155 -38t134 -38q61 0 119 90l108 -65q-98 -231 -254 -232q-51 0 -155 36t-135 36q-58 0 -117 -94l-111 65q106 240 256 240zM614 143q100 0 157 90q56 90 56 324t-58 327q-59 93 -161 93t-158 -87t-57 -319q0 -428 221 -428zM622 1147q250 0 396 -154
t147 -427t-157 -434t-407 -161t-396 158t-147 428t157 430t407 160z" />
    <glyph glyph-name="odieresis" unicode="&#xf6;" horiz-adv-x="1224" 
d="M390 1251q-68 0 -112 46t-44 112t44 110q46 44 112 44t112 -44q45 -44 45 -111t-45 -112t-112 -45zM834 1251q-66 0 -112 45t-46 112t45 111t113 44t112 -44t45 -111t-45 -112t-112 -45zM614 143q100 0 157 90q56 90 56 324t-58 327q-59 93 -161 93t-158 -87t-57 -319
q0 -428 221 -428zM622 1147q250 0 396 -154t147 -427t-157 -434t-407 -161t-396 158t-147 428t157 430t407 160z" />
    <glyph glyph-name="divide" unicode="&#xf7;" horiz-adv-x="1208" 
d="M604 913q-74 -1 -124 49t-50 120t50 121q50 50 124 50t124 -50t50 -121t-50 -120t-124 -49zM604 76q-74 0 -124 50t-50 121t50 120t124 49t124 -49t50 -120t-50 -121t-124 -50zM98 575v179h1010v-179h-1010z" />
    <glyph glyph-name="oslash" unicode="&#xf8;" horiz-adv-x="1224" 
d="M604 137q114 0 175 92q60 92 61 324q0 98 -11 184l-391 -512q52 -88 166 -88zM383 571q0 -104 10 -192l391 514q-50 90 -166 90t-176 -90q-59 -91 -59 -322zM610 1147q164 0 287 -64l80 109h188l-147 -199q147 -154 147 -427q1 -273 -157 -434t-396 -161q-166 0 -286 66
l-90 -123h-189l158 215q-147 158 -147 428t157 430q158 160 395 160z" />
    <glyph glyph-name="ugrave" unicode="&#xf9;" horiz-adv-x="1320" 
d="M877 1245l-531 168l113 236l471 -289zM475 -25q-315 0 -315 318v641l-131 35v131l422 43l28 -17v-764q0 -88 34 -126t115 -39q81 0 185 43v694l-121 35v131l412 43l31 -17v-936l133 -32v-127l-410 -51l-31 14v133h-12q-137 -152 -340 -152z" />
    <glyph glyph-name="uacute" unicode="&#xfa;" horiz-adv-x="1320" 
d="M442 1245l-53 115l471 289l113 -236zM475 -25q-315 0 -315 318v641l-131 35v131l422 43l28 -17v-764q0 -88 34 -126t115 -39q81 0 185 43v694l-121 35v131l412 43l31 -17v-936l133 -32v-127l-410 -51l-31 14v133h-12q-137 -152 -340 -152z" />
    <glyph glyph-name="ucircumflex" unicode="&#xfb;" horiz-adv-x="1320" 
d="M338 1219l-55 75l280 308h150l280 -308l-55 -75l-299 159zM475 -25q-315 0 -315 318v641l-131 35v131l422 43l28 -17v-764q0 -88 34 -126t115 -39q81 0 185 43v694l-121 35v131l412 43l31 -17v-936l133 -32v-127l-410 -51l-31 14v133h-12q-137 -152 -340 -152z" />
    <glyph glyph-name="udieresis" unicode="&#xfc;" horiz-adv-x="1320" 
d="M394 1251q-68 0 -112 46t-44 112t45 110t111 44t112 -44q45 -44 45 -111t-45 -112t-112 -45zM838 1251q-66 0 -112 45t-46 112t45 111t113 44t112 -44t45 -111t-45 -112t-112 -45zM475 -25q-315 0 -315 318v641l-131 35v131l422 43l28 -17v-764q0 -88 34 -126t115 -39
q81 0 185 43v694l-121 35v131l412 43l31 -17v-936l133 -32v-127l-410 -51l-31 14v133h-12q-137 -152 -340 -152z" />
    <glyph glyph-name="yacute" unicode="&#xfd;" horiz-adv-x="1245" 
d="M446 1245l-53 115l471 289l113 -236zM365 -451q-128 0 -224 62v164q188 -42 272 21q50 38 83 120l32 82l-403 967l-96 28v131h553v-131l-119 -26l127 -336q48 -122 86 -307l12 -60h8q53 225 103 367l110 336l-114 26v131h413v-131l-90 -28l-403 -1104q-61 -168 -141 -240
t-209 -72z" />
    <glyph glyph-name="thorn" unicode="&#xfe;" horiz-adv-x="1255" 
d="M618 150q117 0 177 90q59 90 59 305t-54 301t-156 86t-183 -39v-700q69 -43 157 -43zM10 -444v122l131 31v1694l-131 33v135l418 49l31 -12v-590h12q147 131 311 131t286 -118t122 -431t-148 -464t-401 -150q-100 0 -180 28v-305l153 -31v-122h-604z" />
    <glyph glyph-name="ydieresis" unicode="&#xff;" horiz-adv-x="1245" 
d="M462 1563q68 0 112 -44t44 -111t-44 -112t-110 -45t-113 46q-46 46 -46 112t45 110t112 44zM905 1251q-65 0 -111 45t-46 112t45 111t113 44t112 -44q45 -44 45 -111t-46 -112t-112 -45zM365 -451q-128 0 -224 62v164q188 -42 272 21q50 38 83 120l32 82l-403 967l-96 28
v131h553v-131l-119 -26l127 -336q48 -122 86 -307l12 -60h8q53 225 103 367l110 336l-114 26v131h413v-131l-90 -28l-403 -1104q-61 -168 -141 -240t-209 -72z" />
    <glyph glyph-name="dotlessi" unicode="&#x131;" horiz-adv-x="673" 
d="M49 0v127l131 33v766l-143 35v133l432 51l29 -17v-968l129 -33v-127h-578z" />
    <glyph glyph-name="Lslash" unicode="&#x141;" horiz-adv-x="1261" 
d="M57 1477h678v-140l-168 -32v-467l351 135v-182l-351 -136v-479h379l86 326h189l-27 -502h-1137v139l156 37v344l-154 -59v182l154 59v601l-156 34v140z" />
    <glyph glyph-name="lslash" unicode="&#x142;" horiz-adv-x="679" 
d="M631 0h-584v127l133 33v479l-151 -80v170l151 80v600l-145 37v133l436 49l29 -16v-633l166 88v-172l-166 -88v-647l131 -33v-127z" />
    <glyph glyph-name="OE" unicode="&#x152;" horiz-adv-x="2031" 
d="M838 182h88v1114h-119q-188 0 -278 -121q-89 -122 -89 -454t108 -442q56 -57 122 -77t168 -20zM805 0q-735 0 -735 709q0 383 189 575t532 193h1132l19 -402h-181l-65 230h-426v-467h176l41 161h147v-491h-147l-41 166h-176v-500h442l86 279h182l-22 -453h-1153z" />
    <glyph glyph-name="oe" unicode="&#x153;" horiz-adv-x="1878" 
d="M1522 672q0 174 -43 244t-129 69q-191 0 -209 -313h381zM596 143q217 0 217 417t-225 417q-102 0 -158 -87t-57 -322t59 -330t164 -95zM592 -29q-258 0 -407 158q-148 158 -148 428t158 430t395 160q274 0 393 -186q119 186 372 186q253 -1 369 -149t117 -472h-696
q10 -188 93 -270t229 -82t321 53v-137q-170 -117 -399 -117q-301 0 -416 195q-123 -197 -381 -197z" />
    <glyph glyph-name="Scaron" unicode="&#x160;" horiz-adv-x="1185" 
d="M518 1585l-280 307l55 74l299 -158l301 158l55 -74l-280 -307h-150zM546 -25q-282 0 -452 72l-18 354h203l53 -198q90 -45 212 -45t190 55t69 142q-1 87 -61 137t-197 104l-113 47q-166 66 -253 163q-87 96 -87 280t137 300t393 117q256 0 414 -57l19 -324h-201l-39 160
q-78 41 -186 41q-107 0 -171 -45t-64 -125t53 -129q54 -49 174 -92l112 -43q103 -39 163 -71t118 -83q113 -99 113 -301q-1 -203 -151 -331q-148 -128 -430 -128z" />
    <glyph glyph-name="scaron" unicode="&#x161;" horiz-adv-x="1009" 
d="M430 1237l-280 307l55 74l299 -158l301 158l55 -74l-280 -307h-150zM474 -29q-228 0 -392 70l-19 278h195l45 -149q66 -39 160 -39t145 37t51 100t-35 96q-36 32 -135 58l-120 33q-154 41 -229 119q-74 78 -74 226t118 248q119 99 339 99t358 -55v-263h-189l-33 132
q-57 29 -141 29t-133 -34q-49 -33 -49 -92t41 -91t143 -60l129 -33q160 -43 231 -121t70 -205q0 -176 -124 -280t-352 -103z" />
    <glyph glyph-name="Ydieresis" unicode="&#x178;" horiz-adv-x="1398" 
d="M538 1911q68 0 112 -44t44 -111t-44 -112t-112 -45q-67 1 -112 47t-45 112t45 109q45 44 112 44zM981 1599q-66 -1 -112 45t-46 112t45 111q45 44 113 44t113 -44t45 -111t-46 -112t-112 -45zM375 0v139l164 37v426l-402 701l-110 34v140h600v-140l-123 -32l278 -521h9
l260 523l-125 30v140h448v-140l-112 -34l-373 -697v-430l160 -37v-139h-674z" />
    <glyph glyph-name="Zcaron" unicode="&#x17d;" horiz-adv-x="1243" 
d="M573 1585l-280 307l55 74l299 -158l301 158l56 -74l-281 -307h-150zM49 0v172l744 1118v10h-439l-80 -260h-194l20 437h1086v-174l-746 -1119v-8h478l83 283h193l-20 -459h-1125z" />
    <glyph glyph-name="zcaron" unicode="&#x17e;" horiz-adv-x="1067" 
d="M481 1237l-280 307l55 74l299 -158l301 158l55 -74l-280 -307h-150zM59 0v145l566 816v8h-328l-49 -187h-164l20 342h881v-149l-557 -807v-8h340l63 207h166l-28 -367h-910z" />
    <glyph glyph-name="florin" unicode="&#x192;" horiz-adv-x="997" 
d="M109 707v167h182l43 250q63 369 414 369q147 0 233 -51v-160q-63 14 -140 14t-119 -44t-63 -156l-38 -222h227v-167h-258l-137 -791q-53 -305 -365 -305q-129 0 -209 43v158q61 -10 111 -10t89 33q38 34 52 118l129 754h-151z" />
    <glyph glyph-name="circumflex" unicode="&#x2c6;" 
d="M211 1219l-55 75l280 308h150l280 -308l-55 -75l-299 159z" />
    <glyph glyph-name="caron" unicode="&#x2c7;" 
d="M438 1237l-280 307l55 74l299 -158l301 158l55 -74l-280 -307h-150z" />
    <glyph glyph-name="breve" unicode="&#x2d8;" 
d="M520 1296q-139 0 -228 87t-97 235h161q25 -119 165 -119t161 119h162q-8 -147 -96 -235q-89 -87 -228 -87z" />
    <glyph glyph-name="dotaccent" unicode="&#x2d9;" 
d="M512 1278q-76 0 -126 46t-50 120t50 120t126 46t126 -46t50 -120t-50 -120t-126 -46z" />
    <glyph glyph-name="ring" unicode="&#x2da;" 
d="M514 1333q63 0 100 40t37 106q0 65 -37 103t-100 38t-101 -39t-38 -103t38 -105q38 -40 101 -40zM514 1235q-110 0 -184 71t-74 172t75 172q75 70 183 70t182 -70q72 -70 72 -172q0 -101 -72 -172t-182 -71z" />
    <glyph glyph-name="ogonek" unicode="&#x2db;" 
d="M532 -416q-108 0 -173 49t-64 125q0 76 73 141t183 101h96q-117 -113 -117 -211q0 -84 99 -84q41 0 94 14v-100q-83 -35 -191 -35z" />
    <glyph glyph-name="tilde" unicode="&#x2dc;" 
d="M381 1573q49 0 155 -38t134 -38q61 0 118 90l109 -65q-98 -231 -254 -232q-51 0 -155 36t-136 36q-57 0 -116 -94l-111 65q106 240 256 240z" />
    <glyph glyph-name="hungarumlaut" unicode="&#x2dd;" 
d="M700 1212l-79 64l243 377l187 -156zM303 1208l-80 66l226 385l194 -150z" />
    <glyph glyph-name="endash" unicode="&#x2013;" horiz-adv-x="937" 
d="M98 528v172h742v-172h-742z" />
    <glyph glyph-name="emdash" unicode="&#x2014;" horiz-adv-x="1552" 
d="M100 528v172h1352v-172h-1352z" />
    <glyph glyph-name="quoteleft" unicode="&#x2018;" horiz-adv-x="618" 
d="M502 990q0 -69 -50 -114t-135 -45t-146 65q-60 65 -60 175q0 315 378 440l46 -92q-123 -76 -179 -142q-55 -67 -63 -157q27 20 75 20t92 -40q42 -41 42 -110z" />
    <glyph glyph-name="quoteright" unicode="&#x2019;" horiz-adv-x="618" 
d="M249 1192q-50 0 -92 41t-42 109t51 114q51 45 135 45q84 1 145 -65t62 -174q0 -314 -379 -441l-47 92q123 74 179 141t65 158q-27 -20 -77 -20z" />
    <glyph glyph-name="quotesinglbase" unicode="&#x201a;" horiz-adv-x="618" 
d="M247 68q-48 0 -90 42t-42 110t51 112q51 45 136 45t145 -65t61 -173q0 -315 -379 -442l-49 98q119 73 175 139t67 154q-27 -20 -75 -20z" />
    <glyph glyph-name="quotedblleft" unicode="&#x201c;" horiz-adv-x="1146" 
d="M510 990q0 -69 -51 -114t-135 -45t-146 66q-61 66 -61 174q0 313 379 440l47 -92q-123 -75 -179 -141t-65 -158q27 20 77 20t92 -40q42 -41 42 -110zM1026 990q0 -69 -51 -114t-135 -45t-146 66q-61 66 -61 174q0 313 379 440l47 -92q-123 -75 -179 -141t-65 -158
q27 20 77 20t92 -40q42 -41 42 -110z" />
    <glyph glyph-name="quotedblright" unicode="&#x201d;" horiz-adv-x="1146" 
d="M255 1192q-50 0 -92 41t-42 109t51 114q51 45 135 45t146 -65q61 -66 61 -174q0 -314 -379 -441l-47 92q123 74 179 141t65 158q-27 -20 -77 -20zM771 1192q-50 0 -92 41t-42 109t51 114q51 45 135 45t146 -65q61 -66 61 -174q0 -314 -379 -441l-47 92q123 74 179 141
t65 158q-27 -20 -77 -20z" />
    <glyph glyph-name="quotedblbase" unicode="&#x201e;" horiz-adv-x="1146" 
d="M255 68q-50 0 -92 42t-42 110t51 112q51 45 136 45q86 0 146 -65t60 -173q0 -315 -379 -442l-47 92q123 75 179 141t65 158q-27 -20 -77 -20zM771 68q-50 0 -92 42t-42 110t51 112q51 45 136 45q86 0 146 -65t60 -173q0 -315 -379 -442l-47 92q123 75 179 141t65 158
q-27 -20 -77 -20z" />
    <glyph glyph-name="dagger" unicode="&#x2020;" horiz-adv-x="991" 
d="M78 856v289l336 -74l-80 406h325l-81 -408l335 76v-289l-335 72l84 -293v-103l-99 -737h-135l-98 737v103l82 293z" />
    <glyph glyph-name="daggerdbl" unicode="&#x2021;" horiz-adv-x="991" 
d="M78 856v289l336 -74l-80 406h325l-81 -408l335 76v-289l-331 72l82 -232v-121l-82 -231l331 70v-287l-335 72l79 -404h-325l82 404l-336 -72v287l330 -70l-80 231v121l80 230z" />
    <glyph glyph-name="bullet" unicode="&#x2022;" horiz-adv-x="1800" 
d="M1702 760q0 -328 -236 -562t-568 -233q-331 -1 -564 233t-234 562q0 328 234 559t564 231q332 0 568 -231t236 -559z" />
    <glyph glyph-name="ellipsis" unicode="&#x2026;" horiz-adv-x="1861" 
d="M930 -29q-82 1 -137 57t-55 135t54 133t137 54t137 -54t54 -133t-54 -135t-136 -57zM319 -29q-82 1 -137 57t-55 135t54 133t137 54q84 0 138 -54t54 -133t-54 -135t-137 -57zM1542 -29q-82 1 -137 57t-55 135t54 133t137 54t137 -54t54 -133t-54 -135t-136 -57z" />
    <glyph glyph-name="perthousand" unicode="&#x2030;" horiz-adv-x="2699" 
d="M2263 109q65 0 91 58t26 193q0 134 -26 198t-92 64t-92 -60q-26 -62 -26 -194t26 -196t93 -63zM436 733q66 -1 92 59t27 194q0 134 -27 198q-26 64 -92 63q-66 0 -92 -60q-26 -61 -25 -195q-1 -134 25 -196t92 -63zM1536 360q0 134 -26 198t-92 64t-92 -60
q-26 -62 -26 -194t26 -196t94 -63q68 0 92 58t24 193zM350 -72l965 1467h178l-963 -1467h-180zM1417 -23q-156 1 -261 99t-105 288t107 289q108 101 260 101t262 -98t110 -287q0 -188 -108 -290t-265 -102zM436 1378q154 0 262 -99t109 -287t-107 -290q-108 -100 -265 -100
t-262 97t-105 287t107 291t261 101zM2634 369q0 -188 -108 -290t-266 -102q-157 1 -262 99q-106 98 -106 288t109 289q109 101 261 101t262 -98t110 -287z" />
    <glyph glyph-name="guilsinglleft" unicode="&#x2039;" horiz-adv-x="622" 
d="M350 49l-274 445v88l274 444h201l-211 -487l211 -490h-201z" />
    <glyph glyph-name="guilsinglright" unicode="&#x203a;" horiz-adv-x="622" 
d="M72 49l211 488l-211 489h200l275 -444v-88l-275 -445h-200z" />
    <glyph glyph-name="fraction" unicode="&#x2044;" horiz-adv-x="528" 
d="M-303 -72l962 1467h181l-965 -1467h-178z" />
    <glyph glyph-name="Euro" unicode="&#x20ac;" horiz-adv-x="1290" 
d="M61 762v125h148q49 264 219 387t396 123t378 -54l12 -331h-192l-57 180q-55 31 -138 31q-252 0 -295 -336h377v-125h-385v-41q0 -88 4 -125h381v-125h-366q31 -163 115 -229t234 -66t322 66v-148q-164 -117 -402 -117t-396 122t-205 372h-150v125h134q-2 27 -2 83t2 83
h-134z" />
    <glyph glyph-name="trademark" unicode="&#x2122;" horiz-adv-x="2209" 
d="M254 641v107l94 18v596h-94l-47 -186h-144l11 301h809l10 -301h-143l-48 186h-92v-596l95 -18v-107h-451zM973 641v107l88 18v586l-88 18v107h405l86 -285q25 -76 56 -246l6 -49h8q27 182 61 295l91 285h434v-107l-92 -18v-584l92 -20v-107h-416v107l74 20v233l16 381
h-10q-59 -229 -101 -366l-106 -348h-170l-109 342q-45 136 -84 305l-14 61h-8q16 -238 16 -381v-227l74 -20v-107h-309z" />
    <glyph glyph-name="onethird" unicode="&#x2153;" horiz-adv-x="2107" 
d="M483 -82l985 1542h179l-985 -1542h-179zM106 506v110l146 25v561l-156 -10v108l299 138h133v-797l148 -25v-110h-570zM1704 520q0 133 -110 133q-52 0 -68 -2l-23 -119h-160v211q115 45 289 45q340 0 340 -229q0 -86 -57 -142t-154 -79v-6q242 -37 242 -226
q0 -126 -101 -198q-100 -72 -278 -72t-305 68v116q88 -31 211 -30q188 0 188 135q0 127 -166 127h-86v133h72q78 0 122 36t44 99z" />
    <glyph glyph-name="twothirds" unicode="&#x2154;" horiz-adv-x="2156" 
d="M549 -82l987 1542h176l-985 -1542h-178zM1759 520q-1 133 -111 133q-52 0 -67 -2l-22 -119h-160v211q115 45 288 45q341 0 341 -229q0 -86 -58 -142t-153 -79v-6q242 -37 241 -226q0 -126 -101 -198t-279 -72t-304 68v116q88 -31 209 -30q188 0 189 135q0 127 -164 127
h-86v133h71q78 0 122 36t44 99zM322 1294q-29 0 -43 -2l-23 -131h-162v228q130 55 308 55t268 -73t90 -192t-75 -203t-239 -194l-124 -88v-4h448l-14 -184h-674v153l213 201q88 84 130 144t42 131q0 159 -145 159z" />
    <glyph glyph-name="oneeighth" unicode="&#x215b;" horiz-adv-x="2158" 
d="M1794 553q0 51 -34 81t-87 30t-85 -29t-32 -79t32 -80t118 -60q88 43 88 137zM1647 -41q154 0 153 125q0 57 -48 93t-165 71q-90 -53 -90 -154q0 -63 39 -99t111 -36zM487 -82l986 1542h178l-985 -1542h-179zM111 506v110l145 25v561l-156 -10v108l299 138h133v-797
l148 -25v-110h-569zM2056 121q0 -137 -104 -212t-294 -75q-192 0 -289 67t-97 187q0 139 213 211v8q-182 66 -182 221q0 119 97 191t267 72q170 -1 259 -63t89 -167q0 -129 -190 -194v-9q231 -63 231 -237z" />
    <glyph glyph-name="threeeighths" unicode="&#x215c;" horiz-adv-x="2148" 
d="M1796 553q0 51 -33 81t-86 30t-85 -29t-32 -79t32 -81q32 -30 118 -59q86 41 86 137zM1651 -41q152 0 151 125q0 57 -48 93t-163 71q-90 -51 -90 -154q0 -63 39 -99t111 -36zM489 -82l988 1542h176l-985 -1542h-179zM455 1174q-1 135 -111 135q-52 0 -68 -2l-22 -119
h-160v211q115 45 288 45q341 0 341 -230q0 -86 -57 -143t-154 -80v-6q242 -33 242 -223q0 -127 -100 -199q-100 -71 -281 -71q-180 0 -301 67v117q88 -31 209 -31q188 0 188 135q0 127 -166 127h-86v131h72q78 0 122 37t44 99zM2060 121q0 -137 -104 -212t-294 -75
q-192 0 -289 67t-97 187q0 139 213 211v8q-182 66 -182 221q0 119 96 191t267 72q171 -1 260 -63t89 -167q0 -129 -190 -194v-9q231 -63 231 -237z" />
    <glyph glyph-name="fiveeighths" unicode="&#x215d;" horiz-adv-x="2091" 
d="M1737 553q0 51 -34 81t-87 30t-85 -29t-32 -79t32 -80t118 -60q88 43 88 137zM1589 -41q152 0 152 125q0 57 -48 93t-163 71q-90 -53 -90 -154q0 -63 38 -99t111 -36zM440 -82l987 1542h177l-986 -1542h-178zM727 806q-1 -138 -99 -226t-274 -88t-288 65v119
q98 -33 186 -33t139 40t51 114q0 145 -190 145q-68 0 -143 -14l30 502h545l-14 -187h-404l-12 -182q53 25 156 24q145 -1 231 -71t86 -208zM1600 -166q-192 0 -288 67q-97 67 -98 187q0 139 213 211v8q-182 66 -182 221q0 119 96 191q95 72 267 72q172 -1 261 -63t89 -167
q0 -129 -191 -194v-9q231 -63 232 -237q1 -137 -103 -212t-296 -75z" />
    <glyph glyph-name="seveneighths" unicode="&#x215e;" horiz-adv-x="2082" 
d="M1720 553q0 51 -33 81q-34 30 -87 30q-54 0 -86 -29t-32 -79t32 -81q32 -30 118 -59q88 43 88 137zM1573 -41q154 0 153 125q0 57 -48 93t-165 71q-90 -53 -90 -154q0 -63 39 -99t111 -36zM414 -82l987 1542h178l-987 -1542h-178zM635 1237h-350l-41 -107h-146l15 300
h684v-162l-291 -762h-307l436 725v6zM1982 121q0 -137 -104 -212t-294 -75q-192 0 -289 67t-97 187q0 139 213 211v8q-182 66 -182 221q0 119 96 191t267 72q171 -1 260 -63t90 -167q0 -129 -191 -194v-9q231 -63 231 -237z" />
    <glyph glyph-name="arrowleft" unicode="&#x2190;" horiz-adv-x="1632" 
d="M524 0l-428 694v84l428 699h326l-311 -740l311 -737h-326zM1217 0l-426 694v84l426 699h327l-311 -740l311 -737h-327z" />
    <glyph glyph-name="arrowright" unicode="&#x2192;" horiz-adv-x="1632" 
d="M782 0l312 739l-312 738h326l428 -695v-84l-428 -698h-326zM88 0l311 739l-311 738h328l426 -695v-84l-426 -698h-328z" />
    <glyph glyph-name="minus" unicode="&#x2212;" horiz-adv-x="1208" 
d="M98 575v179h1010v-179h-1010z" />
    <glyph glyph-name="lessequal" unicode="&#x2264;" horiz-adv-x="1632" 
d="M524 0l-428 694v84l428 699h326l-311 -740l311 -737h-326zM1217 0l-426 694v84l426 699h327l-311 -740l311 -737h-327z" />
    <glyph glyph-name="greaterequal" unicode="&#x2265;" horiz-adv-x="1632" 
d="M782 0l312 739l-312 738h326l428 -695v-84l-428 -698h-326zM88 0l311 739l-311 738h328l426 -695v-84l-426 -698h-328z" />
    <glyph glyph-name="whitecircle" unicode="&#x25cb;" horiz-adv-x="1800" 
d="M1573 760q0 286 -197 488q-196 202 -478 202t-478 -202t-195 -488q-1 -286 195 -490q196 -202 478 -202t478 202t197 490zM898 -35q-325 -1 -554 233t-229 562t229 559t554 231t557 -231q233 -231 233 -559t-232 -562t-558 -233z" />
    <glyph glyph-name="blackstar" unicode="&#x2605;" horiz-adv-x="1853" 
d="M63 989h642l192 588h57l193 -588h641v-49l-504 -356l201 -602l-39 -27l-520 367l-520 -367l-39 27l202 602l-506 356v49z" />
    <glyph glyph-name="whitestar" unicode="&#x2606;" horiz-adv-x="1853" 
d="M528 156l400 293l397 -293l-160 471l402 270h-488l-153 467l-152 -467h-487l401 -270zM63 989h642l192 588h57l193 -588h641v-49l-504 -356l201 -602l-39 -27l-520 367l-520 -367l-39 27l202 602l-506 356v49z" />
    <glyph glyph-name="quoteleft.titling" unicode="&#xe018;" horiz-adv-x="526" 
d="M391 990q0 -69 -50 -114t-135 -45t-146 65q-60 65 -60 175q0 315 379 440l45 -92q-123 -77 -178 -143t-64 -156q27 20 76 20t91 -40q42 -41 42 -110z" />
    <glyph glyph-name="quoteright.titling" unicode="&#xe019;" horiz-adv-x="528" 
d="M167 1192q-50 0 -92 41t-42 109t51 114q51 45 135 45t146 -65q61 -66 61 -174q0 -314 -379 -441l-47 92q123 74 179 141t65 158q-27 -20 -77 -20z" />
    <glyph glyph-name="quotedblleft.titling" unicode="&#xe01c;" horiz-adv-x="1044" 
d="M393 990q0 -69 -51 -114t-135 -45t-146 66q-61 66 -61 174q0 313 379 440l47 -92q-123 -75 -179 -141t-65 -158q27 20 77 20t92 -40q42 -41 42 -110zM909 990q0 -69 -51 -114t-135 -45t-145 66t-62 174q0 313 379 440l47 -92q-123 -75 -179 -141t-65 -158q27 20 77 20
t92 -40q42 -41 42 -110z" />
    <glyph glyph-name="inches" unicode="&#xe022;" horiz-adv-x="958" 
d="M520 950l43 527h309l-147 -527h-205zM98 950l43 527h312l-148 -527h-207z" />
    <glyph glyph-name="feet" unicode="&#xe027;" horiz-adv-x="518" 
d="M88 950l43 527h311l-147 -527h-207z" />
    <glyph glyph-name="zero.titling" unicode="&#xe030;" horiz-adv-x="1286" 
d="M831 632q0 270 -57 378t-179 108t-182 -110q-61 -110 -61 -378t58 -376t181 -109q122 0 181 108q59 109 59 379zM592 -23q-262 0 -427 163t-165 488q0 326 172 494t426 168t420 -165t166 -486q0 -168 -48 -298q-88 -238 -320 -325q-103 -39 -224 -39z" />
    <glyph glyph-name="one.titling" unicode="&#xe031;" horiz-adv-x="909" 
d="M8 0v133l232 37v803l-240 -23v140l428 188h152v-1108l227 -37v-133h-799z" />
    <glyph glyph-name="two.titling" unicode="&#xe032;" horiz-adv-x="1069" 
d="M63 1042l93 37q-54 -19 -93 -37zM360 1112q-49 0 -88 -6l-41 -205h-200v311q189 76 429 76t364 -98t124 -266t-102 -286q-102 -116 -357 -286l-174 -116v-5h652l-21 -231h-946v180l322 277q260 225 260 417q-1 238 -222 238z" />
    <glyph glyph-name="three.titling" unicode="&#xe033;" horiz-adv-x="1081" 
d="M362 1118q-35 0 -83 -4l-41 -205h-201v312q189 67 421 67t352 -95t120 -280q0 -131 -78 -218t-219 -124v-8q160 -25 253 -116t93 -254q1 -197 -147 -311t-405 -114t-427 103v152q164 -57 322 -58q299 0 299 246q0 133 -66 190t-205 58h-112v174h90q128 0 198 62t70 173
q-1 250 -234 250z" />
    <glyph glyph-name="four.titling" unicode="&#xe034;" horiz-adv-x="1261" 
d="M213 348h422v574h-8l-414 -568v-6zM635 -217v379h-635v166l690 936h285v-916h184v-186h-184v-379h-340z" />
    <glyph glyph-name="five.titling" unicode="&#xe035;" horiz-adv-x="1069" 
d="M967 260q-1 -219 -149 -356t-390 -137t-428 100v149q160 -53 309 -53q305 0 305 281q0 147 -78 209q-79 61 -239 61q-102 0 -223 -27l47 777h784l-20 -256h-588l-25 -338q76 33 215 32q223 0 352 -111q128 -112 128 -331z" />
    <glyph glyph-name="six.titling" unicode="&#xe036;" horiz-adv-x="1208" 
d="M348 604q0 -238 50 -350t160 -113q110 0 158 76t48 236q0 283 -207 282q-125 0 -207 -59q-2 -18 -2 -72zM680 920q198 0 312 -116t114 -328t-140 -358t-403 -145q-263 0 -413 194t-150 519q0 207 55 367t151 255q194 191 472 191q231 0 350 -80v-155q-98 33 -272 32
q-387 0 -406 -491q133 115 330 115z" />
    <glyph glyph-name="seven.titling" unicode="&#xe037;" horiz-adv-x="1085" 
d="M788 1016h-563l-49 -156h-176l20 404h963v-201l-471 -1276h-369l645 1219v10z" />
    <glyph glyph-name="eight.titling" unicode="&#xe038;" horiz-adv-x="1228" 
d="M793 1116q1 100 -61 152t-154 53q-92 0 -150 -51t-57 -141q0 -91 61 -143t211 -107q150 92 150 237zM543 152q125 0 191 60t67 162q0 102 -80 157q-80 56 -275 128q-164 -94 -163 -276q-1 -109 67 -170t193 -61zM1126 420q0 -211 -148 -330t-419 -119q-271 1 -415 107
t-144 297q0 121 92 212t238 138v8q-279 113 -279 365q0 178 138 291t378 113t372 -99q132 -98 132 -266q0 -219 -303 -324v-10q172 -55 265 -147t93 -236z" />
    <glyph glyph-name="nine.titling" unicode="&#xe039;" horiz-adv-x="1208" 
d="M547 528q115 0 211 56v73q0 233 -51 349t-168 114q-197 0 -197 -311q0 -281 205 -281zM424 -238q-233 0 -358 88v158q111 -43 280 -43q403 0 412 490q-129 -109 -329 -109q-201 0 -315 114t-114 326t139 356q139 146 403 146t414 -190t150 -523q0 -409 -188 -611
t-494 -202z" />
    <glyph glyph-name="A.titling" unicode="&#xe041;" horiz-adv-x="1550" 
d="M543 840l-80 -254h360l-75 254q-58 192 -80 319l-13 62h-10q-55 -231 -102 -381zM0 0v139l121 37l446 1301h326l432 -1301l123 -37v-139h-651v139l151 37l-78 258h-456l-80 -258l153 -37v-139h-487z" />
    <glyph glyph-name="B.titling" unicode="&#xe042;" horiz-adv-x="1372" 
d="M506 834h137q100 0 154 50q53 50 53 181t-52 186t-159 56h-133v-473zM506 170h158q121 0 178 60t57 196t-57 194t-176 58h-160v-508zM0 0v139l158 37v1127l-156 34v140h686q512 0 512 -369q0 -133 -74 -219t-249 -119v-10q213 -25 303 -111t90 -263q0 -178 -134 -282
t-407 -104h-729z" />
    <glyph glyph-name="C.titling" unicode="&#xe043;" horiz-adv-x="1314" 
d="M700 -25q-320 1 -510 183t-190 567q0 209 62 365t170 242q210 168 501 169q291 0 451 -63l14 -394h-201l-63 224q-100 41 -205 41q-184 0 -270 -130q-86 -131 -86 -441t85 -440t285 -130q121 0 207 47l64 234h198l-16 -394q-176 -80 -496 -80z" />
    <glyph glyph-name="D.titling" unicode="&#xe044;" horiz-adv-x="1490" 
d="M510 180h152q188 0 273 116t85 418t-67 438q-30 60 -82 93t-106 42t-136 9h-119v-1116zM0 0v139l158 37v1127l-156 34v140h664q723 0 723 -711q-1 -382 -187 -574t-524 -192h-678z" />
    <glyph glyph-name="E.titling" unicode="&#xe045;" horiz-adv-x="1329" 
d="M0 0v139l158 37v1127l-156 34v140h1169l19 -402h-180l-66 230h-442v-467h190l43 161h148v-491h-148l-43 166h-190v-500h459l83 279h183l-23 -453h-1204z" />
    <glyph glyph-name="F.titling" unicode="&#xe046;" horiz-adv-x="1304" 
d="M0 0v139l158 37v1127l-156 34v140h1182l18 -420h-182l-68 239h-442v-491h192l39 166h148v-500h-148l-39 168h-192v-463l174 -37v-139h-684z" />
    <glyph glyph-name="G.titling" unicode="&#xe047;" horiz-adv-x="1466" 
d="M754 -27q-754 0 -754 752q0 481 323 670q188 108 452 107q265 -1 433 -64l17 -381h-199l-65 211q-82 41 -220 41q-371 0 -370 -541q0 -334 85 -470t285 -136q80 0 164 26v338l-153 35v139h612v-139l-125 -35v-475q-206 -78 -485 -78z" />
    <glyph glyph-name="H.titling" unicode="&#xe048;" horiz-adv-x="1601" 
d="M0 0v139l156 37v1127l-156 34v140h651v-140l-143 -34v-463h483v463l-143 34v140h649v-140l-154 -34v-1127l156 -37v-139h-651v139l143 35v498h-483v-498l143 -35v-139h-651z" />
    <glyph glyph-name="I.titling" unicode="&#xe049;" horiz-adv-x="782" 
d="M0 0v139l164 37v1127l-164 34v140h680v-140l-164 -34v-1127l164 -37v-139h-680z" />
    <glyph glyph-name="J.titling" unicode="&#xe04a;" horiz-adv-x="993" 
d="M741 403q1 -205 -111 -312t-306 -107t-324 65v182q247 -63 337 23q50 49 50 164v885l-156 34v140h660v-140l-150 -34v-900z" />
    <glyph glyph-name="K.titling" unicode="&#xe04b;" horiz-adv-x="1538" 
d="M0 0v139l156 37v1127l-156 34v140h651v-140l-143 -32v-605l510 603l-148 34v140h525v-140l-129 -37l-379 -428l424 -696l125 -37v-139h-414l-375 627l-139 -105v-348l143 -35v-139h-651z" />
    <glyph glyph-name="L.titling" unicode="&#xe04c;" horiz-adv-x="1275" 
d="M0 0v139l156 37v1127l-156 34v140h678v-140l-168 -32v-1129h389l86 326h189l-27 -502h-1147z" />
    <glyph glyph-name="M.titling" unicode="&#xe04d;" horiz-adv-x="1918" 
d="M0 0v139l156 37v1127l-156 34v140h604l164 -551q46 -172 96 -467l15 -92h8q61 348 121 559l163 551h646v-140l-166 -34v-1127l166 -37v-139h-635v139l129 37v615q0 178 12 442l6 86h-10q-84 -322 -139 -514l-228 -772h-235l-232 762q-64 221 -108 430l-21 86h-10
q18 -324 19 -525v-610l129 -37v-139h-494z" />
    <glyph glyph-name="N.titling" unicode="&#xe04e;" horiz-adv-x="1513" 
d="M0 0v139l158 39v1125l-158 34v140h524l328 -576q78 -134 170 -350l29 -68h10v815l-154 39v140h504v-140l-137 -37v-1300h-283l-418 739q-90 160 -165 355l-27 65h-8v-983l151 -37v-139h-524z" />
    <glyph glyph-name="O.titling" unicode="&#xe04f;" horiz-adv-x="1470" 
d="M684 162q313 0 313 559q0 324 -75 459q-76 135 -240 135q-313 0 -313 -557q1 -322 73 -459t242 -137zM678 -25q-303 0 -491 195q-187 195 -187 561q0 195 57 347t155 241q199 182 489 182t479 -193q188 -194 188 -560q0 -195 -57 -347q-104 -276 -376 -379
q-122 -47 -257 -47z" />
    <glyph glyph-name="P.titling" unicode="&#xe050;" horiz-adv-x="1329" 
d="M508 1292v-544q72 -10 147 -11q115 0 168 67t53 212t-52 211q-54 66 -167 65h-149zM0 0v139l156 37v1127l-156 34v140h662q565 0 565 -447q0 -227 -131 -343t-369 -116q-127 0 -219 21v-416l184 -37v-139h-692z" />
    <glyph glyph-name="Q.titling" unicode="&#xe051;" horiz-adv-x="1574" 
d="M369 758q1 -322 73 -460t236 -138t242 136t78 442t-76 442q-76 135 -240 135q-313 0 -313 -557zM0 738q0 188 57 340t155 241q199 182 489 182t479 -193q188 -194 188 -560q0 -293 -126 -454t-370 -214v-10l601 -72l-58 -270l-895 252q-110 32 -194 80t-162 133
q-164 176 -164 545z" />
    <glyph glyph-name="R.titling" unicode="&#xe052;" horiz-adv-x="1490" 
d="M508 784h168q121 0 173 62t52 196t-54 194t-173 60h-166v-512zM0 0v139l160 37v1122l-156 39v140h711q541 0 540 -428q0 -250 -278 -357v-8l311 -512l101 -33v-139h-392l-350 618h-135v-444l133 -35v-139h-645z" />
    <glyph glyph-name="S.titling" unicode="&#xe053;" horiz-adv-x="1153" 
d="M470 -25q-282 0 -452 72l-18 354h203l53 -198q90 -45 212 -45t190 55t69 142q0 87 -60 137t-198 104l-113 47q-166 66 -253 163q-87 96 -87 280t138 300t392 117q255 0 415 -57l18 -324h-201l-39 160q-78 41 -186 41q-107 0 -171 -45t-64 -125t54 -129t173 -92l112 -43
q103 -39 163 -71t118 -83q112 -98 113 -301q0 -203 -150 -331q-149 -128 -431 -128z" />
    <glyph glyph-name="T.titling" unicode="&#xe054;" horiz-adv-x="1386" 
d="M299 0v139l168 37v1127h-217l-55 -285h-195l20 459h1246l18 -459h-192l-58 285h-215v-1127l166 -37v-139h-686z" />
    <glyph glyph-name="U.titling" unicode="&#xe055;" horiz-adv-x="1525" 
d="M1288 489q0 -236 -138 -376t-422 -140q-286 0 -433 130t-148 364v836l-147 34v140h649v-140l-147 -32v-805q0 -174 70 -252t217 -78q146 0 221 78q74 78 73 252v803l-149 34v140h489v-140l-135 -34v-814z" />
    <glyph glyph-name="V.titling" unicode="&#xe056;" horiz-adv-x="1521" 
d="M0 1477h633v-140l-152 -34l162 -504q69 -219 111 -455l18 -90h10q80 342 144 545l155 504l-149 34v140h487v-140l-119 -34l-430 -1303h-317l-440 1303l-113 34v140z" />
    <glyph glyph-name="W.titling" unicode="&#xe057;" horiz-adv-x="2113" 
d="M0 1477h602v-140l-133 -34l82 -375q38 -167 92 -520l16 -105h11q72 395 127 617l137 557h258l141 -535q55 -210 109 -524l20 -117h11q76 446 120 649l76 353l-141 34v140h483v-140l-123 -34l-305 -1303h-334l-133 543q-49 206 -80 438l-14 90h-10q-55 -338 -105 -528
l-141 -543h-338l-317 1303l-111 34v140z" />
    <glyph glyph-name="X.titling" unicode="&#xe058;" horiz-adv-x="1501" 
d="M0 0v139l123 33l364 576l-346 555l-127 36v138h650v-138l-121 -30l233 -414h10l228 414l-129 30v138h485v-138l-121 -36l-338 -555l361 -572l127 -37v-139h-641v139l123 31l-258 444h-11l-250 -442l125 -35v-137h-487z" />
    <glyph glyph-name="Y.titling" unicode="&#xe059;" horiz-adv-x="1449" 
d="M348 0v139l164 37v426l-401 701l-111 34v140h600v-140l-123 -32l279 -521h8l260 523l-125 30v140h449v-140l-113 -34l-373 -697v-430l160 -37v-139h-674z" />
    <glyph glyph-name="Z.titling" unicode="&#xe05a;" horiz-adv-x="1247" 
d="M0 0v172l743 1118v10h-438l-80 -260h-194l20 437h1086v-174l-746 -1119v-8h477l84 283h193l-21 -459h-1124z" />
    <glyph glyph-name="registered.alt" unicode="&#xe0ae;" horiz-adv-x="1284" 
d="M604 969h53q68 1 68 77t-74 76h-47v-153zM385 688v70l53 14v350l-53 15v69h279q108 0 166 -41t59 -110q0 -94 -92 -123v-8l98 -156l37 -10v-70h-166l-115 199h-47v-117l41 -12v-70h-260zM640 469q202 0 328 130t126 336t-127 337t-327 131t-325 -131t-125 -338t124 -336
t326 -129zM640 367q-241 -1 -406 165q-164 166 -164 405t164 403t407 165q242 0 408 -165q165 -164 165 -402t-166 -404t-408 -167z" />
    <glyph glyph-name="publish" unicode="&#xe0af;" horiz-adv-x="1669" 
d="M807 989v-246q49 -6 67 -6q55 0 79 31t24 98q0 123 -113 123h-57zM512 358v93l72 20v522l-72 19v92h369q313 0 313 -234q0 -127 -82 -181t-194 -54q-61 0 -111 12v-176l82 -20v-93h-377zM833 86q267 0 439 188t172 458t-172 456q-172 188 -439 188t-439 -186t-173 -456
q0 -270 172 -460q173 -188 440 -188zM834 -31q-316 -1 -532 223t-216 541t216 537t532 221q316 0 532 -221q217 -222 217 -538t-217 -540t-532 -223z" />
    <glyph glyph-name="quotecapdblleft" unicode="&#xe11c;" horiz-adv-x="3158" 
d="M862 -35q-346 0 -548 182t-201 492q0 205 97 359t270 243q338 176 849 184v-94q-413 -27 -657 -223t-234 -487q62 133 196 220t368 87t374 -114q142 -114 142 -348t-184 -368t-472 -133zM2390 -35q-346 0 -548 182t-202 492q0 205 98 359t270 243q338 176 849 184v-94
q-413 -27 -657 -223t-234 -487q62 133 196 220t368 87t374 -114q141 -114 141 -348t-183 -368t-472 -133z" />
    <glyph glyph-name="quotecapdblright" unicode="&#xe11d;" horiz-adv-x="3158" 
d="M2156 184q-234 0 -374 114q-142 114 -142 348t184 368t472 133q346 0 548 -182t201 -492q0 -205 -97 -359t-270 -243q-338 -176 -849 -184v94q413 27 657 223t234 488q-62 -132 -196 -220t-368 -88zM628 184q-234 0 -374 114q-141 114 -141 348t183 368t472 133
q346 0 548 -182t202 -492q0 -205 -98 -359t-270 -243q-338 -176 -849 -184v94q413 27 657 223t234 488q-62 -132 -196 -220t-368 -88z" />
    <glyph glyph-name="bullet.alt" unicode="&#xe122;" horiz-adv-x="782" 
d="M389 383q-123 0 -210 87t-87 211t86 210t210 86t212 -86t88 -209t-88 -211t-211 -88z" />
    </font>
</defs>
</svg>
